<svg width="64" height="64" viewBox="0 0 64 64" fill="none" xmlns="http://www.w3.org/2000/svg">
<path d="M3.95246 13.41L11.0625 8.31628H3.89746L3.95246 13.41Z" fill="#4558A3"/>
<path d="M4.83496 20.6963V7.09375C4.83496 6.84511 4.73619 6.60665 4.56038 6.43084C4.38456 6.25502 4.1461 6.15625 3.89746 6.15625C3.64882 6.15625 3.41037 6.25502 3.23455 6.43084C3.05874 6.60665 2.95996 6.84511 2.95996 7.09375V21.6012C2.95957 21.7469 2.99329 21.8905 3.05841 22.0208C3.12353 22.151 3.21824 22.2642 3.33496 22.3512L4.83496 20.6963Z" fill="#2C2A2C"/>
<path d="M60.0475 13.41L52.9375 8.31628H60.1025L60.0475 13.41Z" fill="#4558A3"/>
<path d="M60.6611 21.9775C60.7779 21.8904 60.8726 21.7773 60.9377 21.647C61.0028 21.5168 61.0365 21.3731 61.0361 21.2275V7.09375C61.0361 6.84511 60.9374 6.60665 60.7615 6.43084C60.5857 6.25502 60.3473 6.15625 60.0986 6.15625C59.85 6.15625 59.6115 6.25502 59.4357 6.43084C59.2599 6.60665 59.1611 6.84511 59.1611 7.09375V20.3213L60.6611 21.9775Z" fill="#2C2A2C"/>
<path d="M1.6875 25.0675V49C1.6875 54.6425 8.85 59.5087 19.1875 61.75C21.0459 62.1501 22.9233 62.4564 24.8125 62.6675C27.1991 62.9334 29.5987 63.0653 32 63.0625C34.4014 63.0645 36.801 62.9318 39.1875 62.665C41.0767 62.4539 42.9541 62.1476 44.8125 61.7475C55.15 59.5087 62.3125 54.6425 62.3125 48.9975V25.0675H1.6875Z" fill="#FED131"/>
<path d="M56.2388 29.0325L57.46 27.5875C57.114 28.1177 56.7039 28.603 56.2388 29.0325Z" fill="#FED131"/>
<path d="M60.6611 20.4775C60.2122 19.8812 59.7101 19.3269 59.1611 18.8213C54.8748 14.8088 46.5661 11.8825 36.6836 11.1725C36.0661 11.1275 35.4411 11.0917 34.8086 11.065C33.8853 11.0217 32.949 11 31.9998 11C31.0507 11 30.1132 11.02 29.1873 11.06C28.5573 11.0867 27.9323 11.1225 27.3123 11.1675C17.4336 11.8825 9.12484 14.8088 4.83484 18.8213C4.28582 19.3269 3.78376 19.8812 3.33484 20.4775C2.26484 21.9163 1.68359 23.46 1.68359 25.0675C1.68734 32.8337 15.2586 39.125 31.9998 39.125C48.7411 39.125 62.3123 32.8288 62.3123 25.0625C62.3123 23.46 61.7311 21.9163 60.6611 20.4775ZM56.2386 29.0325L57.4598 27.5875C57.1139 28.1177 56.7037 28.603 56.2386 29.0325ZM31.0623 14.7612C31.374 14.7612 31.6865 14.7612 31.9998 14.7612C32.3132 14.7612 32.6257 14.7612 32.9373 14.7612H31.0623Z" fill="#58575D"/>
<path d="M58.25 25.0675C58.2363 25.9663 57.9619 26.8417 57.46 27.5875C57.114 28.1176 56.7038 28.603 56.2388 29.0325C54.9113 30.2825 52.9725 31.4075 50.5713 32.355C49.3919 32.8148 48.1884 33.2104 46.9663 33.54H46.9588C46.5975 33.6387 46.2287 33.7337 45.855 33.825C42.7247 34.5707 39.5357 35.0437 36.3237 35.2387C35.7638 35.2754 35.1971 35.3046 34.6237 35.3262C33.7629 35.3596 32.8904 35.3767 32.0062 35.3775C31.1221 35.3783 30.2496 35.3612 29.3888 35.3262C28.7596 35.3029 28.1375 35.27 27.5225 35.2275C26.7517 35.175 25.9925 35.1096 25.245 35.0312H25.2237C23.0707 34.8108 20.9327 34.4618 18.8213 33.9862C16.9916 33.5791 15.195 33.0359 13.4462 32.3612C11.0437 31.4175 9.105 30.29 7.7775 29.0387C7.31309 28.609 6.90334 28.1236 6.5575 27.5937C6.04828 26.8482 5.76765 25.9702 5.75 25.0675C5.75 21.8962 9.3925 19.06 15.125 17.1675C15.7025 16.9766 16.3012 16.7958 16.9212 16.625C20.95 15.5125 25.81 14.8337 31.0625 14.7612C31.3742 14.7612 31.6867 14.7612 32 14.7612C32.3133 14.7612 32.6258 14.7612 32.9375 14.7612C38.1975 14.8337 43.0625 15.5112 47.095 16.63C47.7138 16.8 48.3138 16.9825 48.8913 17.1725C54.6138 19.065 58.25 21.8987 58.25 25.0675Z" fill="#C8AD92"/>
<path d="M1.6875 46.375C2.56875 47.5525 3.7475 48.6738 5.20875 49.7188C8.4875 52.06 13.7962 54.1688 19.1875 55.3575C19.2488 55.3725 19.3125 55.385 19.3725 55.3988C19.4398 55.4136 19.5086 55.4212 19.5775 55.4213V53.4563C19.4525 53.4275 19.3175 53.3988 19.1875 53.3675C8.985 51.0325 1.70375 46.0713 1.70375 41.02C1.7041 40.9613 1.69865 40.9027 1.6875 40.845V46.375ZM62.3125 42.0613C61.3575 46.8213 53.9963 51.4425 44.2962 53.5825V55.5438C44.3652 55.5442 44.434 55.5366 44.5013 55.5213C49.955 54.3413 55.5975 52.0825 58.9125 49.715C60.3088 48.715 61.4463 47.65 62.3125 46.53V42.0613ZM1.6875 32.4663C1.69865 32.5239 1.7041 32.5825 1.70375 32.6413C1.70375 37.75 8.79625 42.6088 19.1875 44.9088L19.43 44.9625C19.5874 44.996 19.7338 45.0686 19.8559 45.1734C19.978 45.2782 20.0718 45.412 20.1287 45.5625C19.8891 45.5625 19.6592 45.6577 19.4897 45.8272C19.3202 45.9967 19.225 46.2266 19.225 46.4663V46.875H19.1875C19.1311 46.8739 19.075 46.8672 19.02 46.855C13.565 45.6738 8.52 43.7025 5.20875 41.335C3.75 40.2925 2.56875 39.17 1.6875 37.9925V32.4663ZM62.3125 33.6875C61.3775 38.3563 54.2988 42.7875 44.8125 44.9675C44.5988 45.0163 44.385 45.065 44.1688 45.1113C44.0115 45.1451 43.8652 45.2177 43.7432 45.3225C43.6211 45.4273 43.5272 45.5609 43.47 45.7113C43.5888 45.7113 43.7064 45.7347 43.8161 45.7802C43.9259 45.8257 44.0256 45.8924 44.1095 45.9764C44.1934 46.0605 44.26 46.1602 44.3053 46.27C44.3507 46.3798 44.3739 46.4975 44.3737 46.6163V47.0263C44.4431 47.0266 44.5122 47.0194 44.58 47.005L44.8125 46.9538C50.1875 45.7638 55.645 43.67 58.9125 41.3363C60.1949 40.4458 61.3403 39.3728 62.3125 38.1513V33.6875ZM7.76 29.0325C7.78292 29.0113 7.80462 28.9887 7.825 28.965C9.075 27.5088 11.2875 26.16 14.2 25.0675C15.0112 24.7625 15.8775 24.4763 16.7913 24.2138C17.0613 24.1363 17.3346 24.0613 17.6112 23.9888C18.2096 23.8288 18.8213 23.6804 19.4463 23.5438C22.995 22.765 26.9463 22.3325 31.0713 22.275C31.3829 22.275 31.6954 22.275 32.0088 22.275C32.3221 22.275 32.6346 22.275 32.9463 22.275C37.0713 22.3325 41.0325 22.7675 44.5863 23.5488C45.2104 23.6863 45.8217 23.8342 46.42 23.9925C46.69 24.0634 46.9575 24.1371 47.2225 24.2138C48.1362 24.4763 49.0025 24.7625 49.8138 25.0675C52.7213 26.16 54.9388 27.5088 56.1888 28.965C56.2087 28.9887 56.23 29.0113 56.2525 29.0325C56.7176 28.603 57.1278 28.1177 57.4738 27.5875C56.66 26.68 55.5638 25.8375 54.2363 25.0675C52.2925 23.9425 49.8525 22.9863 47.0638 22.2363C46.4688 22.0746 45.8587 21.9234 45.2337 21.7825C41.5438 20.9513 37.35 20.4613 32.9512 20.4075C32.6396 20.4025 32.3271 20.4 32.0137 20.4C31.7004 20.4 31.3879 20.4025 31.0763 20.4075C26.685 20.4675 22.4988 20.955 18.8125 21.7825C18.1867 21.9242 17.5763 22.075 16.9813 22.235C14.1863 22.985 11.74 23.9463 9.7925 25.0713C8.465 25.8388 7.36875 26.6838 6.555 27.5913L7.76 29.0325Z" fill="#2C2A2C"/>
<path d="M50.5712 32.355C45.82 30.4875 39.25 29.3313 32 29.3313C24.75 29.3313 18.18 30.4875 13.4287 32.355L19.62 34.23L23.76 34.905L28.6625 35.3275H35.5075L41 34.7375L46.4087 33.7238L50.5712 32.355Z" fill="#0D8047"/>
<path d="M32.9377 14.7612V29.3387H31.0627V14.7612C31.3744 14.7612 31.6869 14.7612 32.0002 14.7612C32.3135 14.7612 32.626 14.7612 32.9377 14.7612ZM48.8915 17.1725C48.8915 17.185 48.884 17.1987 48.879 17.2112L47.0502 22.2362L46.4115 23.9925L46.0202 25.0675L44.0515 30.48H44.034L42.224 30.1462H42.1952C42.2045 30.0921 42.2187 30.039 42.2377 29.9875L44.0252 25.0762L44.5777 23.5575L45.2202 21.7912L47.0952 16.6387L48.8915 17.1725ZM16.9215 16.625L18.7965 21.7787L19.439 23.5437L20.0002 25.0675L21.7702 29.9287C21.7802 29.9525 21.789 29.9775 21.7965 30.0012L21.804 30.0237C21.816 30.0597 21.8256 30.0965 21.8327 30.1337L21.7815 30.1425L19.9865 30.4737H19.9727L18.0002 25.0675L17.6077 23.9887L16.9677 22.2312L15.139 17.2062C15.139 17.1937 15.1302 17.18 15.1265 17.1675L16.9215 16.625Z" fill="#2C2A2C"/>
<path d="M38.5625 0.9375H25.4375V6.5625H38.5625V0.9375Z" fill="#8A8893"/>
<path d="M30.3475 4.6875H28.4725C28.2238 4.6875 27.9854 4.58873 27.8096 4.41291C27.6337 4.2371 27.535 3.99864 27.535 3.75C27.535 3.50136 27.6337 3.2629 27.8096 3.08709C27.9854 2.91127 28.2238 2.8125 28.4725 2.8125H30.3475C30.5961 2.8125 30.8346 2.91127 31.0104 3.08709C31.1862 3.2629 31.285 3.50136 31.285 3.75C31.285 3.99864 31.1862 4.2371 31.0104 4.41291C30.8346 4.58873 30.5961 4.6875 30.3475 4.6875ZM35.655 4.6875H33.78C33.5313 4.6875 33.2929 4.58873 33.1171 4.41291C32.9412 4.2371 32.8425 3.99864 32.8425 3.75C32.8425 3.50136 32.9412 3.2629 33.1171 3.08709C33.2929 2.91127 33.5313 2.8125 33.78 2.8125H35.655C35.9036 2.8125 36.1421 2.91127 36.3179 3.08709C36.4937 3.2629 36.5925 3.50136 36.5925 3.75C36.5925 3.99864 36.4937 4.2371 36.3179 4.41291C36.1421 4.58873 35.9036 4.6875 35.655 4.6875ZM29.1875 6.5625V11.0625L27.3125 11.17C27.3112 11.1496 27.3112 11.1291 27.3125 11.1088V6.5625H29.1875ZM36.6875 6.5625V11.1112C36.6887 11.1316 36.6887 11.1521 36.6875 11.1725L34.8125 11.065V6.565L36.6875 6.5625Z" fill="#2C2A2C"/>
<path d="M44.8125 43.9301V55.18V61.75C42.9541 62.1502 41.0767 62.4564 39.1875 62.6675C36.8009 62.9335 34.4013 63.0654 32 63.0625C29.5986 63.0645 27.199 62.9318 24.8125 62.665C22.9233 62.4539 21.0459 62.1477 19.1875 61.7475V43.9301H44.8125Z" fill="#4558A3"/>
<path d="M39.1875 51V62.6612C36.8011 62.9293 34.4015 63.0632 32 63.0625C29.5986 63.0645 27.199 62.9318 24.8125 62.665V51C24.8125 50.5027 25.01 50.0258 25.3617 49.6742C25.7133 49.3225 26.1902 49.125 26.6875 49.125H37.3125C37.8098 49.125 38.2867 49.3225 38.6383 49.6742C38.99 50.0258 39.1875 50.5027 39.1875 51Z" fill="#ED573D"/>
</svg>
