<svg width="60" height="59" viewBox="0 0 60 59" fill="none" xmlns="http://www.w3.org/2000/svg">
<path d="M59.5 8.11185V56.5154C59.4804 56.5474 59.4558 56.5794 59.4435 56.6139C58.9449 57.8233 58.0385 58.4145 56.9749 58.2199C55.8449 58.013 55.1768 57.1213 55.1768 55.7617C55.1719 47.313 55.1743 38.8619 55.1743 30.4108V29.5906C54.5922 29.561 54.0763 29.5635 53.5678 29.5019C52.3028 29.3467 51.4308 28.2432 51.5978 26.9747C52.2119 22.3243 52.8457 17.6763 53.472 13.0259C53.9437 9.49861 54.4178 5.97383 54.8869 2.44658C55.0662 1.08692 56.0095 0.210035 57.2549 0.259298C58.5003 0.311024 59.3969 1.26673 59.4239 2.63378C59.4509 4.07719 59.4312 5.52307 59.4411 6.96648C59.446 7.34827 59.4804 7.73006 59.5 8.11185Z" fill="#C10037"/>
<path d="M52.2266 42.707C52.2266 42.8844 52.1505 43.0863 52.0498 43.2317C48.0704 48.9314 42.7057 52.5079 35.8352 53.6237C28.4586 54.8258 21.8632 52.9341 16.1472 48.1358C14.7765 46.9855 13.6515 45.5372 12.4356 44.2046C12.2882 44.0421 12.2194 43.7539 12.217 43.5223C12.2072 37.2265 12.2047 30.9331 12.2219 24.6373C12.2244 24.4131 12.3717 24.1102 12.5511 23.9796C15.371 21.9081 16.6581 19.0952 16.6385 15.6295C16.6287 14.0703 16.6213 12.5112 16.6532 10.952C16.6581 10.7155 16.8153 10.4027 17.0045 10.2574C21.6102 6.68825 26.8472 4.94926 32.6492 5.14385C39.6155 5.37785 45.4372 8.19078 50.1141 13.3708C50.2664 13.5383 50.3672 13.8511 50.3377 14.0753C49.8734 17.6986 49.3821 21.3194 48.8958 24.9427C48.8786 25.0683 48.8393 25.189 48.8123 25.3147C46.3092 16.0754 37.3483 10.6736 28.4046 12.5185C20.0111 14.2501 13.9856 21.9303 14.5997 30.8642C15.1843 39.3818 22.1727 46.3303 30.7799 46.8919C33.1454 47.0446 35.4471 46.7195 37.6824 45.9214C39.9029 45.1283 41.8681 43.9337 43.6023 42.34C45.3537 40.734 46.7145 38.8423 47.6946 36.6797C48.6649 34.5392 49.1562 32.2805 49.2225 29.7582C49.9913 30.938 50.8658 31.7337 52.035 32.1819C52.1382 32.2214 52.2266 32.4554 52.2266 32.5982C52.2365 35.9678 52.2365 39.3374 52.2266 42.707Z" fill="#C10037"/>
<path d="M46.2748 29.7706C46.1372 37.7487 39.591 44.0593 31.7698 43.9707C23.622 43.8771 17.4835 37.2364 17.4933 29.47C17.6259 21.0707 24.4572 15.031 32.0425 15.1246C40.1363 15.2231 46.4075 21.9599 46.2748 29.7706Z" fill="#C10037"/>
<path d="M13.6687 16.1221C13.6491 19.068 12.303 21.1789 9.62795 22.4081C9.28405 22.5657 9.26194 22.7751 9.26194 23.078C9.26686 27.3516 9.26686 31.6252 9.26686 35.8988C9.26686 42.5 9.27177 49.1038 9.25212 55.705C9.25212 56.1878 9.15141 56.7125 8.94507 57.1435C8.54959 57.9736 7.5916 58.385 6.71958 58.2175C5.81563 58.0426 5.12539 57.3455 4.98783 56.4366C4.9387 56.1139 4.93133 55.7839 4.93133 55.4587C4.92642 44.7169 4.92396 33.9751 4.94116 23.2332C4.94116 22.7332 4.78395 22.5164 4.33689 22.2997C1.89278 21.1026 0.573698 19.0976 0.534396 16.3807C0.472986 11.9544 0.512288 7.52811 0.519658 3.09936C0.522114 2.22493 1.16323 1.55003 1.96156 1.53525C2.8041 1.51801 3.4575 2.19291 3.46487 3.1634C3.48452 5.39502 3.47224 7.6291 3.47224 9.86319V11.1761H5.57982C5.5921 10.9544 5.61421 10.7524 5.61421 10.5504C5.61666 8.16361 5.60929 5.77681 5.62158 3.39001C5.62403 3.05256 5.66579 2.68554 5.79844 2.38258C6.08338 1.74216 6.79573 1.41702 7.41474 1.56973C8.09762 1.73969 8.56924 2.3407 8.5717 3.10182C8.58153 5.56744 8.57661 8.0306 8.57661 10.4938V11.1613H10.7431V10.5307C10.7431 8.10449 10.7481 5.67828 10.7382 3.25453C10.7358 2.72496 10.8463 2.25696 11.259 1.90965C11.7061 1.53525 12.2145 1.39731 12.7598 1.65841C13.342 1.93428 13.6712 2.39489 13.6712 3.0698C13.6687 5.64873 13.6712 8.22765 13.6712 10.809C13.6712 12.5801 13.6834 14.3511 13.6687 16.1221Z" fill="#C10037"/>
</svg>
