<svg width="60" height="59" viewBox="0 0 60 59" fill="none" xmlns="http://www.w3.org/2000/svg">
<path d="M59.4905 40.9312C59.4837 37.3415 57.0958 34.8059 53.5131 34.5737C52.503 34.5093 52.1013 33.7805 52.6081 32.8958C53.0267 32.1603 53.4724 31.4399 53.9079 30.7145C54.4604 29.7925 54.4604 29.7925 53.7859 28.9807C53.7741 28.9654 53.7486 28.962 53.6842 28.9298C53.3249 29.218 52.9487 29.5197 52.5725 29.8196C51.559 30.623 51.0116 30.4976 50.4659 29.34C49.1033 26.4401 47.0424 24.1673 44.2969 22.5199C43.7817 22.2114 43.2309 21.9589 42.697 21.6792C42.3428 22.1572 42.0446 22.5588 41.7565 22.947C41.792 23.0012 41.7988 23.0266 41.8158 23.0351C41.9869 23.1131 42.1598 23.191 42.3327 23.2656C44.7494 24.3181 46.6001 25.9909 47.8339 28.3214C49.1541 30.8128 47.5187 33.5467 44.6935 33.55C34.9079 33.5619 25.1223 33.5619 15.3367 33.5517C12.4759 33.5484 10.8489 30.8111 12.1946 28.2858C13.425 25.9774 15.2706 24.3266 17.6602 23.2792C17.8636 23.191 18.067 23.1046 18.3008 23.0046C17.9466 22.5368 17.6416 22.1351 17.323 21.7165C17.1687 21.7792 17.0298 21.825 16.8993 21.8894C13.5453 23.5385 11.0744 26.0536 9.49483 29.4451C9.02199 30.4603 8.42712 30.601 7.55093 29.9146C7.12723 29.5824 6.70524 29.2468 6.27646 28.9061C6.01038 29.24 5.78837 29.5163 5.55618 29.8078C6.15274 30.8044 6.74422 31.7806 7.32552 32.7636C7.9492 33.8178 7.5594 34.5178 6.32561 34.5805C3.10894 34.7432 0.560003 37.3584 0.522718 40.5905C0.490518 43.3447 0.495602 46.0988 0.521024 48.8513C0.54814 51.7122 2.85811 53.9359 5.72396 53.88C5.95954 53.8749 6.25273 53.741 6.41374 53.5681C8.69998 51.1089 11.5133 49.8343 14.8672 49.8309C24.9715 49.8174 35.0757 49.8157 45.1782 49.8326C48.5084 49.8377 51.3031 51.1123 53.5775 53.5495C53.7503 53.7342 54.069 53.8766 54.3215 53.8783C57.1941 53.9105 59.46 51.6902 59.4854 48.8123C59.5092 46.1853 59.4973 43.5582 59.4905 40.9312ZM15.679 46.7734C14.3453 46.7836 13.0132 46.7751 11.6794 46.7751C10.3473 46.7751 9.01351 46.7853 7.68142 46.7717C5.34942 46.7497 3.55127 44.9497 3.56652 42.6718C3.58178 40.4244 5.37654 38.655 7.6882 38.6431C10.3541 38.6296 13.0199 38.6313 15.6858 38.6431C18.0314 38.6533 19.8329 40.4329 19.8329 42.7108C19.8312 44.987 18.028 46.7547 15.679 46.7734ZM52.2979 46.7717C49.632 46.7853 46.9662 46.7853 44.3003 46.7717C41.9632 46.7581 40.1634 44.9599 40.1735 42.6837C40.1837 40.4346 41.9768 38.6635 44.2834 38.6431C45.6375 38.6296 46.9916 38.6397 48.3457 38.6397C49.6575 38.6397 50.9692 38.6329 52.281 38.6414C54.6316 38.6584 56.4348 40.4244 56.4399 42.6989C56.4433 44.9768 54.6418 46.7598 52.2979 46.7717Z" fill="#C10037"/>
<path d="M29.9253 4.36267e-05C22.7226 -0.0185999 16.801 5.94055 16.7841 13.2285C16.7671 20.4588 22.7175 26.4264 29.9508 26.4366C37.2298 26.445 43.2123 20.535 43.2191 13.3319C43.2259 5.89988 37.362 0.0186872 29.9253 4.36267e-05ZM40.0228 16.2657C39.7482 16.2742 39.4703 16.2894 39.1974 16.2623C38.8144 16.225 38.6042 16.3352 38.4314 16.7216C38.245 17.1385 38.428 17.3284 38.6788 17.5775C40.0126 18.9097 40.0092 19.0436 38.6907 20.3605C38.0179 21.035 37.3467 21.7113 36.6688 22.3808C36.0028 23.035 35.5367 23.0367 34.8758 22.396C34.6927 22.2197 34.5063 22.0452 34.3385 21.857C34.1114 21.6011 33.9131 21.4706 33.5301 21.6401C33.1556 21.8045 33.0454 21.9977 33.0454 22.3926C33.0505 24.34 32.9759 24.4027 30.9998 24.4027C30.0677 24.4027 29.1373 24.4078 28.2051 24.401C27.3273 24.396 26.968 24.0383 26.9527 23.1773C26.9493 22.9231 26.9222 22.6638 26.9595 22.4163C27.0239 21.9791 26.8205 21.8011 26.4426 21.6232C26.0291 21.4265 25.8681 21.6706 25.6477 21.8892C24.3258 23.2062 24.1631 23.2062 22.8581 21.9011C22.1684 21.2113 21.4752 20.5283 20.7939 19.8317C20.1957 19.2215 20.1957 18.7402 20.7753 18.13C20.9498 17.947 21.1312 17.7673 21.3142 17.5911C21.5583 17.3572 21.7718 17.1741 21.582 16.7385C21.3973 16.3182 21.1549 16.2589 20.7617 16.2606C18.928 16.2708 18.8178 16.1521 18.8178 14.3369C18.8178 13.3624 18.8127 12.3878 18.8195 11.415C18.8246 10.537 19.1805 10.1794 20.0465 10.1659C20.3007 10.1625 20.5566 10.1455 20.8075 10.1709C21.1905 10.2099 21.4023 10.0981 21.5735 9.70993C21.7532 9.29808 21.5871 9.10656 21.3329 8.85233C19.9889 7.51508 19.994 7.39644 21.3159 6.07445C22.004 5.38633 22.6802 4.68465 23.3886 4.01518C23.6208 3.79485 23.9309 3.65757 24.3258 3.40503C24.802 3.81858 25.2613 4.17111 25.6613 4.58127C25.9358 4.86092 26.1477 4.92363 26.5307 4.7677C26.9137 4.61347 26.9578 4.39144 26.9578 4.04569C26.9646 2.08981 27.0307 2.03049 29.0017 2.03049C29.9118 2.03049 30.8219 2.0271 31.7337 2.03049C32.7183 2.03558 33.0488 2.37455 33.0539 3.37791C33.0556 3.58977 33.0708 3.80332 33.0505 4.01349C33.0115 4.38975 33.1064 4.61178 33.503 4.78296C33.9114 4.96092 34.1046 4.81008 34.3605 4.55246C35.696 3.21182 35.8384 3.2186 37.1925 4.57449C37.8653 5.24905 38.5466 5.91682 39.2127 6.59646C39.8058 7.20492 39.8041 7.69135 39.2279 8.3015C39.0517 8.48455 38.8703 8.6642 38.689 8.84047C38.4466 9.07605 38.2297 9.2591 38.4229 9.69298C38.6093 10.1099 38.8483 10.176 39.2432 10.1726C41.0837 10.1625 41.1888 10.276 41.1888 12.0929C41.1888 13.0878 41.1972 14.0827 41.1854 15.0776C41.1769 15.8708 40.8057 16.242 40.0228 16.2657Z" fill="#C10037"/>
<path d="M44.5512 31.5196C39.7024 31.523 34.8537 31.5213 30.0049 31.5213H15.5859C13.9063 31.5213 13.2793 30.4637 14.1097 29.0179C15.3028 26.9434 17.0586 25.5655 19.3245 24.8181C19.7363 24.6808 20.0397 24.7198 20.4041 25.0231C25.8901 29.5925 34.0402 29.6111 39.5499 25.0655C39.9465 24.7384 40.2786 24.674 40.7396 24.8299C43.0225 25.6062 44.7783 27.0163 45.9561 29.1247C46.6883 30.4315 46.0476 31.5196 44.5512 31.5196Z" fill="#C10037"/>
<path d="M50.9218 53.8663H9.06274C10.8761 52.4884 12.7641 51.863 14.8605 51.8613C18.4806 51.8562 22.1006 51.8596 25.7206 51.8596C32.1557 51.8596 38.5924 51.863 45.0274 51.8579C46.9408 51.8562 48.7051 52.3393 50.305 53.3969C50.4897 53.5189 50.6575 53.6646 50.9218 53.8663Z" fill="#C10037"/>
<path d="M7.19502 58.9866C6.67134 58.934 6.13748 58.9883 5.61041 58.9747C4.43254 58.9425 3.59533 58.0951 3.56652 56.9121C3.55804 56.5121 3.56482 56.1138 3.56482 55.8223H9.55075C10.0405 58.0069 8.7576 59.1425 7.19502 58.9866Z" fill="#C10037"/>
<path d="M56.4535 55.7578C56.4298 56.268 56.4738 56.8612 56.3637 57.4239C56.1857 58.3357 55.3892 58.9425 54.4452 58.973C53.8114 58.9916 53.1775 58.9814 52.5437 58.9764C51.1743 58.9662 50.3506 58.1323 50.3405 56.751C50.3388 56.5019 50.3405 56.251 50.3405 55.9273C51.4234 55.9273 52.4166 55.9493 53.4063 55.9205C54.3944 55.8934 55.379 55.8171 56.4535 55.7578Z" fill="#C10037"/>
<path d="M4.57665 27.4653C4.56987 27.9941 4.18007 28.4145 3.61402 28.4602C3.25642 28.4873 2.89544 28.4653 2.53445 28.4653V28.467C2.1955 28.467 1.85654 28.4856 1.51928 28.4636C0.917642 28.4229 0.512592 27.9941 0.519371 27.4399C0.52615 26.9094 0.914252 26.4738 1.48031 26.4501C2.19889 26.4179 2.92086 26.4162 3.63944 26.4518C4.19702 26.4806 4.58343 26.9365 4.57665 27.4653Z" fill="#C10037"/>
<path d="M59.4872 27.4772C59.4736 28.0043 59.0787 28.4178 58.5127 28.4602C58.1771 28.4856 57.8365 28.4653 57.4975 28.4653C57.1365 28.467 56.7755 28.4856 56.4179 28.4619C55.8214 28.4195 55.4163 27.9822 55.4299 27.428C55.4435 26.8992 55.8349 26.4721 56.4027 26.4484C57.0992 26.4179 57.8009 26.4179 58.4991 26.4467C59.0957 26.4721 59.5007 26.9246 59.4872 27.4772Z" fill="#C10037"/>
<path d="M14.1165 44.7395C13.1962 44.7395 12.3776 44.748 11.5607 44.731C11.4404 44.7276 11.2675 44.631 11.215 44.5276C10.5744 43.2768 9.95241 42.0142 9.28467 40.6752C10.2066 40.6752 11.0235 40.6667 11.8421 40.6837C11.9607 40.6871 12.1336 40.7854 12.1861 40.8871C12.825 42.1396 13.4487 43.4006 14.1165 44.7395Z" fill="#C10037"/>
<path d="M9.02371 44.7173C8.38986 44.7173 7.84076 44.7716 7.3086 44.7055C6.40529 44.5936 5.69348 43.7987 5.60705 42.9089C5.51723 41.975 6.04261 41.1835 7.06286 40.7971C7.38486 41.4429 7.71026 42.0954 8.03735 42.7479C8.35427 43.3835 8.67289 44.0191 9.02371 44.7173Z" fill="#C10037"/>
<path d="M16.335 44.6107C15.6944 43.3311 15.0504 42.0447 14.3741 40.6922C14.9927 40.6922 15.5198 40.6464 16.035 40.7024C16.9756 40.8024 17.6925 41.5786 17.7874 42.5125C17.8806 43.4413 17.3434 44.2446 16.335 44.6107Z" fill="#C10037"/>
<path d="M50.7269 40.6735C50.0524 42.0243 49.4389 43.27 48.8 44.5022C48.7339 44.6259 48.5034 44.7259 48.3475 44.731C47.5679 44.753 46.7866 44.7412 45.8934 44.7412C46.2781 43.9649 46.6239 43.2531 46.9849 42.548C47.3001 41.9311 47.4882 41.0854 47.9983 40.7752C48.5085 40.4616 49.3474 40.6854 50.0422 40.6735C50.232 40.6718 50.4202 40.6735 50.7269 40.6735Z" fill="#C10037"/>
<path d="M45.5816 40.6736C45.5426 40.8143 45.5324 40.8973 45.4968 40.9685C44.8952 42.1752 44.2902 43.3803 43.6699 44.6175C42.6106 44.2108 42.0666 43.3328 42.2293 42.3786C42.3937 41.4075 43.2072 40.7075 44.2275 40.677C44.663 40.6634 45.1003 40.6736 45.5816 40.6736Z" fill="#C10037"/>
<path d="M54.391 42.9446C54.2707 43.9039 53.5098 44.6514 52.5353 44.7243C52.0539 44.7615 51.5675 44.731 50.9761 44.731C51.6642 43.3548 52.3031 42.0803 52.9369 40.8125C53.9436 41.1413 54.5114 41.9955 54.391 42.9446Z" fill="#C10037"/>
<path d="M38.1584 12.1996C37.328 12.1928 37.1161 12.0114 36.8314 11.2149C36.6399 10.6793 36.401 10.159 36.1501 9.64711C35.9044 9.14543 35.94 8.69459 36.3535 8.32172C36.6484 8.05732 36.9873 7.84377 37.2602 7.64208C36.6484 6.99464 36.2145 6.53703 35.6892 5.97942C35.4654 6.24212 35.2739 6.49466 35.0536 6.71669C34.4503 7.32514 34.1689 7.34887 33.4249 6.98956C32.9318 6.75058 32.425 6.53194 31.9047 6.36415C31.2912 6.16755 30.9963 5.78959 31.0184 5.14724C31.0302 4.7981 31.0201 4.44556 31.0201 4.09473H28.9863C28.9863 4.45573 28.9745 4.78962 28.988 5.12182C29.0152 5.79129 28.705 6.17094 28.0644 6.37432C27.5051 6.55398 26.9679 6.8116 26.4357 7.06922C25.9324 7.31328 25.4833 7.27938 25.1087 6.86583C24.8443 6.57262 24.6308 6.23365 24.4274 5.95739C23.7817 6.57093 23.3241 7.00481 22.7174 7.57937C22.9987 7.78615 23.2801 7.94885 23.5055 8.16749C24.1139 8.76408 24.1342 9.05052 23.7749 9.79626C23.536 10.2895 23.319 10.7979 23.1513 11.3166C22.953 11.9301 22.5733 12.2233 21.9327 12.2013C21.5819 12.1894 21.2311 12.1996 20.882 12.1996V14.2334C21.2243 14.2334 21.5361 14.2317 21.848 14.2334C22.6767 14.2402 22.8903 14.4215 23.175 15.2198C23.3665 15.7537 23.6055 16.274 23.8563 16.7859C24.102 17.2893 24.0461 17.7215 23.658 18.1197C23.3817 18.3994 23.1106 18.6824 22.9004 18.8977C23.38 19.4214 23.8071 19.8841 24.3715 20.4976C24.5766 20.2197 24.7393 19.94 24.9579 19.7146C25.5527 19.1028 25.8358 19.0824 26.5832 19.4451C27.0763 19.6841 27.5848 19.901 28.1051 20.0705C28.7169 20.2688 29.0101 20.6485 28.988 21.2891C28.9762 21.6383 28.9863 21.9891 28.9863 22.3366H31.0201C31.0201 21.9942 31.0184 21.6824 31.0201 21.3705C31.0268 20.5417 31.2099 20.3265 32.0064 20.0451C32.542 19.8536 33.0623 19.6163 33.5724 19.3655C34.0757 19.118 34.5248 19.1519 34.8994 19.5638C35.1655 19.857 35.3824 20.1943 35.5756 20.4485C36.2179 19.8553 36.6806 19.4265 37.2348 18.9146C36.9484 18.6587 36.6789 18.4231 36.4179 18.1808C35.9468 17.7452 35.901 17.2723 36.2027 16.6961C36.4755 16.1757 36.6772 15.6147 36.8772 15.0605C37.0721 14.5148 37.4195 14.2216 38.0093 14.2317C38.3821 14.2385 38.7533 14.2334 39.1245 14.2334V12.1996C38.7821 12.1996 38.4703 12.2013 38.1584 12.1996ZM29.9981 17.2825C27.7814 17.2842 25.951 15.4707 25.9375 13.2589C25.9222 11.003 27.7305 9.16407 29.9761 9.15051C32.2234 9.13526 34.0656 10.9589 34.069 13.2046C34.0723 15.4537 32.2471 17.2825 29.9981 17.2825Z" fill="#C10037"/>
<path d="M29.9761 9.15073C27.7305 9.16429 25.9222 11.0032 25.9375 13.2591C25.951 15.4709 27.7814 17.2844 29.9981 17.2827C32.2471 17.2827 34.0724 15.4539 34.069 13.2049C34.0656 10.9592 32.2234 9.13548 29.9761 9.15073ZM29.9846 15.2489C28.883 15.2387 27.9695 14.3167 27.9712 13.2133C27.9729 12.1015 28.8779 11.1913 29.988 11.1846C31.093 11.1778 32.0183 12.0828 32.0336 13.1862C32.0505 14.3184 31.115 15.2573 29.9846 15.2489Z" fill="white"/>
<path d="M29.988 11.1844C31.093 11.1776 32.0183 12.0826 32.0336 13.186C32.0488 14.3165 31.115 15.2571 29.9846 15.2487C28.8813 15.2385 27.9695 14.3165 27.9712 13.2131C27.9729 12.1013 28.8779 11.1911 29.988 11.1844Z" fill="#C10037"/>
</svg>
