<svg width="64" height="64" viewBox="0 0 64 64" fill="none" xmlns="http://www.w3.org/2000/svg">
<path d="M32.0002 63.0625C40.8644 63.0625 48.0502 58.7589 48.0502 53.45C48.0502 48.1412 40.8644 43.8375 32.0002 43.8375C23.136 43.8375 15.9502 48.1412 15.9502 53.45C15.9502 58.7589 23.136 63.0625 32.0002 63.0625Z" fill="#FFE966"/>
<path d="M32.0002 0.9375C20.9677 0.9375 11.9927 9.84375 11.9927 20.7913C11.9927 34.215 32.0002 55.0812 32.0002 55.0812C32.0002 55.0812 52.0077 33.6637 52.0077 20.7913C52.0077 9.84375 43.0327 0.9375 32.0002 0.9375ZM32.0002 33.2812C24.9177 33.2812 19.1764 27.5837 19.1764 20.5562C19.1764 13.5287 24.9177 7.8325 32.0002 7.8325C39.0827 7.8325 44.8239 13.53 44.8239 20.5562C44.8239 27.5825 39.0827 33.2812 32.0002 33.2812Z" fill="#FF6666"/>
<path d="M38.1062 17.3625H25.8937C25.3842 17.3625 24.9712 17.7756 24.9712 18.285V25.7925C24.9712 26.302 25.3842 26.715 25.8937 26.715H38.1062C38.6157 26.715 39.0287 26.302 39.0287 25.7925V18.285C39.0287 17.7756 38.6157 17.3625 38.1062 17.3625Z" fill="#FFC166"/>
<path d="M38.1064 17.3625H34.3564C34.6011 17.3625 34.8357 17.4597 35.0088 17.6327C35.1818 17.8057 35.2789 18.0404 35.2789 18.285V25.7925C35.2789 26.0372 35.1818 26.2719 35.0088 26.4449C34.8357 26.6179 34.6011 26.715 34.3564 26.715H38.1064C38.3511 26.715 38.5857 26.6179 38.7588 26.4449C38.9318 26.2719 39.0289 26.0372 39.0289 25.7925V18.285C39.0289 18.0404 38.9318 17.8057 38.7588 17.6327C38.5857 17.4597 38.3511 17.3625 38.1064 17.3625Z" fill="#FFB74E"/>
<path d="M35.2213 20.175H28.7788C28.5302 20.175 28.2917 20.0762 28.1159 19.9004C27.9401 19.7246 27.8413 19.4861 27.8413 19.2375V15.3225C27.842 14.8038 28.0483 14.3066 28.415 13.9399C28.7817 13.5732 29.2789 13.3669 29.7976 13.3662H34.2026C34.7212 13.3669 35.2184 13.5732 35.5851 13.9399C35.9518 14.3066 36.1581 14.8038 36.1588 15.3225V19.2375C36.1588 19.4861 36.06 19.7246 35.8842 19.9004C35.7084 20.0762 35.4699 20.175 35.2213 20.175ZM29.7213 18.3H34.2888V15.3225C34.2888 15.3118 34.2867 15.3012 34.2826 15.2914C34.2785 15.2815 34.2726 15.2726 34.265 15.265C34.2575 15.2575 34.2485 15.2515 34.2387 15.2474C34.2288 15.2433 34.2182 15.2412 34.2076 15.2412H29.7976C29.7869 15.2412 29.7763 15.2433 29.7665 15.2474C29.7566 15.2515 29.7477 15.2575 29.7401 15.265C29.7326 15.2726 29.7266 15.2815 29.7225 15.2914C29.7184 15.3012 29.7163 15.3118 29.7163 15.3225L29.7213 18.3Z" fill="#676E87"/>
<path d="M39.0287 20.1688L32.6099 22.9625C32.4176 23.0467 32.2099 23.0901 31.9999 23.0901C31.79 23.0901 31.5823 23.0467 31.3899 22.9625L24.9712 20.1688V18.285C24.9712 18.0404 25.0684 17.8057 25.2414 17.6327C25.4144 17.4597 25.649 17.3625 25.8937 17.3625H38.1062C38.3509 17.3625 38.5855 17.4597 38.7585 17.6327C38.9315 17.8057 39.0287 18.0404 39.0287 18.285V20.1688Z" fill="#FFAE36"/>
<path d="M35.2789 18.285V21.8013L39.0289 20.1688V18.285C39.0289 18.1011 38.9741 17.9214 38.8714 17.7688C38.8552 17.745 38.8364 17.7213 38.8177 17.6988C38.7314 17.5937 38.6228 17.509 38.4998 17.4508C38.3768 17.3927 38.2425 17.3625 38.1064 17.3625H34.3564C34.6011 17.3625 34.8357 17.4597 35.0088 17.6327C35.1818 17.8057 35.2789 18.0404 35.2789 18.285Z" fill="#FFA41F"/>
<path d="M45.7614 20.5562C45.7614 13.0238 39.5877 6.895 32.0002 6.895C24.4127 6.895 18.2389 13.02 18.2389 20.5562C18.2389 28.0925 24.4127 34.2188 32.0002 34.2188C39.5877 34.2188 45.7614 28.09 45.7614 20.5562ZM20.1139 20.5562C20.1139 14.0562 25.4464 8.77 32.0002 8.77C38.5539 8.77 43.8864 14.0575 43.8864 20.5562C43.8864 27.055 38.5539 32.3438 32.0002 32.3438C25.4464 32.3438 20.1139 27.0562 20.1139 20.5562ZM39.9664 25.84V18.3325C39.9658 17.8394 39.7696 17.3667 39.4209 17.018C39.0722 16.6693 38.5995 16.4732 38.1064 16.4725H36.1589V15.375C36.1583 14.8564 35.9519 14.3592 35.5852 13.9925C35.2185 13.6257 34.7213 13.4194 34.2027 13.4187H29.7977C29.279 13.4194 28.7819 13.6257 28.4151 13.9925C28.0484 14.3592 27.8421 14.8564 27.8414 15.375V16.4775H25.8939C25.4008 16.4782 24.9281 16.6743 24.5794 17.023C24.2308 17.3717 24.0346 17.8444 24.0339 18.3375V25.845C24.0346 26.3381 24.2308 26.8108 24.5794 27.1595C24.9281 27.5082 25.4008 27.7043 25.8939 27.705H38.1064C38.351 27.7047 38.5931 27.6562 38.819 27.5623C39.0448 27.4684 39.25 27.3309 39.4227 27.1577C39.5954 26.9845 39.7323 26.779 39.8256 26.5529C39.9189 26.3268 39.9668 26.0846 39.9664 25.84ZM29.7164 15.375C29.7164 15.3535 29.725 15.3328 29.7402 15.3175C29.7555 15.3023 29.7761 15.2937 29.7977 15.2937H34.2027C34.2242 15.2937 34.2449 15.3023 34.2601 15.3175C34.2754 15.3328 34.2839 15.3535 34.2839 15.375V16.4775H29.7164V15.375ZM38.0914 25.83H25.9089V21.6475L31.0152 23.875C31.3262 24.0094 31.6614 24.0788 32.0002 24.0788C32.339 24.0788 32.6742 24.0094 32.9852 23.875L38.0914 21.6525V25.83ZM38.0914 19.6075L32.2364 22.15C32.162 22.1828 32.0815 22.1997 32.0002 22.1997C31.9188 22.1997 31.8384 22.1828 31.7639 22.15L25.9089 19.6025V18.3525H38.0914V19.6075ZM41.7014 44.7725C42.0552 44.295 42.4114 43.81 42.7652 43.315C49.5152 33.9112 52.9452 26.335 52.9452 20.7962C52.9452 9.32625 43.5502 0 32.0002 0C20.4502 0 11.0552 9.32625 11.0552 20.7913C11.0552 26.56 14.4802 34.2075 21.2377 43.52C21.5552 43.9583 21.8727 44.39 22.1902 44.815C17.6714 46.7762 15.0127 49.94 15.0127 53.45C15.0127 56.36 16.8439 59.06 20.1689 61.0513C23.3439 62.9525 27.5439 64 32.0002 64C36.4564 64 40.6564 62.9525 43.8314 61.0513C47.1564 59.06 48.9877 56.36 48.9877 53.45C48.9877 49.9113 46.2889 46.725 41.7014 44.7675V44.7725ZM12.9302 20.7913C12.9302 10.3612 21.4852 1.875 32.0002 1.875C42.5152 1.875 51.0702 10.3612 51.0702 20.7913C51.0702 31.8275 35.4627 49.8312 31.9914 53.6975C28.5002 49.9025 12.9302 32.3037 12.9302 20.7913ZM42.8677 59.4425C39.9802 61.1725 36.1252 62.125 32.0002 62.125C27.8752 62.125 24.0202 61.1725 21.1327 59.4425C18.3952 57.8038 16.8827 55.675 16.8827 53.45C16.8827 50.6637 19.3464 47.985 23.3577 46.3563C27.5564 51.7925 31.2752 55.685 31.3189 55.7313C31.4062 55.8226 31.5112 55.8954 31.6274 55.945C31.7437 55.9946 31.8688 56.0201 31.9952 56.02H32.0014C32.1289 56.0194 32.2549 55.9927 32.3716 55.9416C32.4884 55.8904 32.5934 55.8158 32.6802 55.7225C32.7227 55.6763 36.3777 51.75 40.5314 46.3162C44.6052 47.9412 47.1077 50.6362 47.1077 53.4512C47.1127 55.675 45.6052 57.8038 42.8677 59.4425Z" fill="#272A33"/>
</svg>
