<svg width="46" height="46" viewBox="0 0 46 46" fill="none" xmlns="http://www.w3.org/2000/svg">
<path d="M23 0.6875C18.587 0.6875 14.2731 1.9961 10.6038 4.44783C6.93458 6.89956 4.07473 10.3843 2.38595 14.4614C0.697167 18.5385 0.255306 23.0248 1.11624 27.353C1.97717 31.6812 4.10223 35.6569 7.22269 38.7773C10.3431 41.8978 14.3189 44.0228 18.6471 44.8838C22.9753 45.7447 27.4616 45.3028 31.5386 43.6141C35.6157 41.9253 39.1004 39.0654 41.5522 35.3962C44.0039 31.7269 45.3125 27.413 45.3125 23C45.3009 17.0859 42.9465 11.4174 38.7646 7.23545C34.5827 3.05355 28.9141 0.699062 23 0.6875ZM23 42.6875C19.1062 42.6875 15.2998 41.5328 12.0622 39.3696C8.82463 37.2063 6.30123 34.1315 4.81113 30.5341C3.32103 26.9367 2.93115 22.9782 3.6908 19.1592C4.45045 15.3402 6.3255 11.8322 9.07885 9.07884C11.8322 6.32549 15.3402 4.45044 19.1592 3.69079C22.9782 2.93114 26.9367 3.32102 30.5341 4.81112C34.1315 6.30122 37.2063 8.82462 39.3696 12.0622C41.5329 15.2998 42.6875 19.1062 42.6875 23C42.6817 28.2197 40.6056 33.2239 36.9148 36.9148C33.2239 40.6056 28.2197 42.6817 23 42.6875ZM31.3125 19.5C31.3067 17.7613 30.6135 16.0954 29.384 14.866C28.1546 13.6365 26.4887 12.9433 24.75 12.9375H17.75C17.4019 12.9375 17.0681 13.0758 16.8219 13.3219C16.5758 13.5681 16.4375 13.9019 16.4375 14.25V31.75C16.4375 32.0981 16.5758 32.4319 16.8219 32.6781C17.0681 32.9242 17.4019 33.0625 17.75 33.0625C18.0981 33.0625 18.4319 32.9242 18.6781 32.6781C18.9242 32.4319 19.0625 32.0981 19.0625 31.75V26.0625H24.4219L28.9281 32.4937C29.0246 32.636 29.1484 32.7576 29.2925 32.8513C29.4365 32.9451 29.5978 33.0091 29.7669 33.0397C29.9361 33.0702 30.1096 33.0667 30.2773 33.0293C30.4451 32.9919 30.6036 32.9214 30.7438 32.8219C30.886 32.7254 31.0076 32.6016 31.1013 32.4575C31.1951 32.3135 31.2591 32.1522 31.2897 31.9831C31.3202 31.8139 31.3167 31.6404 31.2793 31.4727C31.2419 31.305 31.1714 31.1464 31.0719 31.0063L27.2656 25.5594C28.4651 25.0647 29.4904 24.2244 30.211 23.1454C30.9316 22.0664 31.3151 20.7975 31.3125 19.5ZM24.75 23.4375H19.0625V15.5625H24.75C25.7943 15.5625 26.7958 15.9773 27.5342 16.7158C28.2727 17.4542 28.6875 18.4557 28.6875 19.5C28.6875 20.5443 28.2727 21.5458 27.5342 22.2842C26.7958 23.0227 25.7943 23.4375 24.75 23.4375Z" fill="#C10037"/>
</svg>
