<svg width="35" height="36" viewBox="0 0 35 36" fill="none" xmlns="http://www.w3.org/2000/svg">
<path d="M28.1795 4.50306L28.1796 4.50308C28.4731 4.59469 28.7295 4.77769 28.9116 5.02538C29.0937 5.27307 29.1918 5.57247 29.1917 5.87987V5.88003V9.04232V9.39232H29.5417H33.125C33.5074 9.39232 33.8741 9.54421 34.1444 9.81457C34.4148 10.0849 34.5667 10.4516 34.5667 10.834V25.1673C34.5667 25.5497 34.4148 25.9164 34.1444 26.1867C33.8741 26.4571 33.5074 26.609 33.125 26.609H33.1249L27.3557 26.6108L27.182 26.6108L27.077 26.7492C26.4063 27.6331 25.5917 28.4131 24.6504 29.0545L24.6503 29.0545L15.2083 35.4937L5.76633 29.0563C4.36671 28.102 3.22137 26.8203 2.42991 25.3226C1.63845 23.8248 1.22482 22.1564 1.225 20.4624V20.4624V5.88003C1.2252 5.5729 1.32347 5.27396 1.50549 5.02659L1.22764 4.82213L1.50549 5.02659C1.68754 4.77919 1.94385 4.59641 2.23705 4.50487L2.23716 4.50484L15.2084 0.450674L28.1795 4.50306ZM15.3128 3.50168L15.2083 3.46902L15.1039 3.50168L4.35389 6.86285L4.10833 6.93962V7.1969V20.4623C4.10833 20.4623 4.10833 20.4624 4.10833 20.4624C4.10808 21.6128 4.3719 22.748 4.87948 23.7804C5.38707 24.8129 6.12488 25.715 7.03608 26.4174L7.03596 26.4175L7.04532 26.4243L7.38395 26.668L7.38388 26.668L7.39115 26.673L15.0111 31.8706L15.2083 32.0052L15.4056 31.8706L22.1817 27.2481L23.1186 26.609H21.9844H13.4167C13.0343 26.609 12.6676 26.4571 12.3973 26.1867C12.1269 25.9164 11.975 25.5497 11.975 25.1673V10.834C11.975 10.4516 12.1269 10.0849 12.3973 9.81457C12.6676 9.54421 13.0343 9.39232 13.4167 9.39232H25.9583H26.3083V9.04232V7.1969V6.93962L26.0628 6.86285L15.3128 3.50168ZM15.2083 17.6507H14.8583V18.0007V23.3757V23.7257H15.2083H31.3333H31.6833V23.3757V18.0007V17.6507H31.3333H15.2083ZM14.8583 14.4173V14.7673H15.2083H31.3333H31.6833V14.4173V12.6257V12.2757H31.3333H15.2083H14.8583V12.6257V14.4173Z" fill="#C10037" stroke="#F3F3F9" stroke-width="0.7"/>
</svg>
