<svg width="40" height="31" viewBox="0 0 40 31" fill="none" xmlns="http://www.w3.org/2000/svg">
<path d="M0 6.73242C0 5.07482 0.65848 3.48511 1.83058 2.313C3.00269 1.1409 4.5924 0.482422 6.25 0.482422H33.75C35.4076 0.482422 36.9973 1.1409 38.1694 2.313C39.3415 3.48511 40 5.07482 40 6.73242V24.2324C40 25.89 39.3415 27.4797 38.1694 28.6518C36.9973 29.8239 35.4076 30.4824 33.75 30.4824H6.25C4.5924 30.4824 3.00269 29.8239 1.83058 28.6518C0.65848 27.4797 0 25.89 0 24.2324V6.73242ZM6.25 2.98242C5.25544 2.98242 4.30161 3.37751 3.59835 4.08077C2.89509 4.78403 2.5 5.73786 2.5 6.73242V9.98242H37.5V6.73242C37.5 5.73786 37.1049 4.78403 36.4016 4.08077C35.6984 3.37751 34.7446 2.98242 33.75 2.98242H6.25ZM2.5 24.2324C2.5 25.227 2.89509 26.1808 3.59835 26.8841C4.30161 27.5873 5.25544 27.9824 6.25 27.9824H33.75C34.7446 27.9824 35.6984 27.5873 36.4016 26.8841C37.1049 26.1808 37.5 25.227 37.5 24.2324V12.4824H2.5V24.2324ZM27.25 20.9824C26.9185 20.9824 26.6005 21.1141 26.3661 21.3485C26.1317 21.583 26 21.9009 26 22.2324C26 22.5639 26.1317 22.8819 26.3661 23.1163C26.6005 23.3507 26.9185 23.4824 27.25 23.4824H32.75C33.0815 23.4824 33.3995 23.3507 33.6339 23.1163C33.8683 22.8819 34 22.5639 34 22.2324C34 21.9009 33.8683 21.583 33.6339 21.3485C33.3995 21.1141 33.0815 20.9824 32.75 20.9824H27.25Z" fill="#C10037"/>
</svg>
