<svg width="50" height="52" viewBox="0 0 50 52" fill="none" xmlns="http://www.w3.org/2000/svg">
<g clip-path="url(#clip0_64_11863)">
<path fill-rule="evenodd" clip-rule="evenodd" d="M0.612682 51.1084C0.416587 50.8422 0.118119 50.6005 0.0477505 50.3044C-0.0630673 49.8391 0.377911 49.4697 0.962962 49.4396C1.21024 49.4267 1.45867 49.4364 1.70658 49.4362C1.95157 49.436 2.19655 49.4362 2.47427 49.4362C2.48647 49.2577 2.50451 49.1147 2.50461 48.9718C2.50638 46.2613 2.50128 43.5509 2.51233 40.8404C2.51358 40.5442 2.42872 40.3695 2.17695 40.1995C0.811382 39.2768 0.0610945 37.9731 0.0335725 36.3303C-0.00937852 33.7693 -0.0103168 31.2066 0.0261707 28.6455C0.0610945 26.2018 1.86149 24.4931 4.37215 24.455C5.39484 24.4394 6.41795 24.4524 7.5155 24.4524C7.5155 24.2231 7.5155 24.0316 7.5155 23.8401C7.5155 21.3941 7.51414 18.948 7.51633 16.502C7.51716 15.5443 7.75913 15.3073 8.72209 15.3067C10.0773 15.3059 11.4326 15.3064 12.7878 15.3065C14.0008 15.3065 14.1792 15.4884 14.1793 16.7256C14.1794 19.1056 14.1793 21.4855 14.1793 23.8654C14.1793 24.0426 14.1793 24.2198 14.1793 24.4241C16.6854 24.4241 19.1389 24.4241 21.658 24.4241C21.658 24.2168 21.658 24.0247 21.658 23.8327C21.658 20.8577 21.6575 17.883 21.6582 14.908C21.6584 13.8711 21.9024 13.6312 22.9521 13.6309C24.3569 13.6305 25.7618 13.6291 27.1665 13.6314C28.0482 13.6329 28.3213 13.9014 28.3222 14.7871C28.3258 17.7952 28.3236 20.8031 28.3237 23.8111C28.3237 24.006 28.3237 24.2008 28.3237 24.4236C30.8344 24.4236 33.2906 24.4236 35.8194 24.4236C35.8194 24.2504 35.8194 24.0758 35.8194 23.9012C35.8194 21.4221 35.8185 18.9431 35.8199 16.4639C35.8205 15.5778 36.0896 15.3079 36.9711 15.3068C38.4255 15.3051 39.8799 15.305 41.3343 15.3068C42.2187 15.308 42.473 15.566 42.4737 16.4653C42.4752 18.9279 42.4743 21.3903 42.4743 23.8529C42.4743 24.031 42.4743 24.2088 42.4743 24.4521C43.5066 24.4521 44.496 24.3992 45.4766 24.4697C46.1887 24.521 46.945 24.6119 47.5835 24.9013C49.1993 25.6339 49.9544 27.0056 49.9772 28.7496C50.0088 31.1786 50.0058 33.6087 49.9782 36.0379C49.9581 37.8023 49.2306 39.2236 47.7704 40.2548C47.6348 40.3506 47.5013 40.5612 47.5005 40.7193C47.4852 43.5453 47.4903 46.3716 47.4926 49.1977C47.4926 49.2599 47.5121 49.3221 47.5313 49.436C47.9661 49.436 48.3913 49.4381 48.8166 49.4355C49.2832 49.4328 49.7228 49.4858 49.912 50.0051C50.1056 50.5363 49.7811 50.837 49.4019 51.1082C33.1388 51.1084 16.8758 51.1084 0.612682 51.1084ZM45.8038 41.0955C45.4812 41.0955 45.2028 41.0959 44.9245 41.0954C42.4568 41.0909 40.3062 39.2094 40.069 36.7553C39.9566 35.592 40.0107 34.4131 39.9795 33.2415C39.9721 32.9625 39.959 32.6761 39.8905 32.4079C39.7132 31.7137 39.0578 31.1716 38.4079 31.1423C37.6759 31.1093 37.0143 31.5179 36.7817 32.198C36.6878 32.4727 36.6657 32.7791 36.6535 33.073C36.6266 33.7166 36.6586 34.3634 36.6105 35.0048C36.3914 37.9314 33.1927 40.1152 30.3873 39.2682C28.0557 38.564 26.6976 36.7486 26.6682 34.3123C26.6612 33.7192 26.6678 33.1201 26.5889 32.5347C26.4972 31.8535 26.0411 31.399 25.4065 31.1999C24.8149 31.0141 24.2577 31.1851 23.8146 31.6331C23.4449 32.0069 23.3235 32.4769 23.325 32.9931C23.3298 34.5297 23.3514 36.0671 23.314 37.603C23.2997 38.1878 23.2059 38.7882 23.039 39.3489C22.4388 41.3643 20.4621 42.7804 18.3284 42.7783C16.2045 42.7761 14.2084 41.3437 13.6205 39.3382C13.4467 38.7451 13.3605 38.1094 13.3442 37.4903C13.305 36.0043 13.342 34.5164 13.3266 33.0293C13.3168 32.0924 12.7936 31.3639 12.0457 31.1775C11.0492 30.9291 10.0541 31.6793 10.0279 32.7369C10.0001 33.8599 10.0351 34.9844 10.012 36.1074C9.95953 38.6496 8.32708 40.5725 5.82863 41.0178C5.303 41.1113 4.75704 41.0908 4.20691 41.1236C4.20691 43.884 4.20691 46.6352 4.20691 49.4001C18.0832 49.4001 31.9341 49.4001 45.8038 49.4001C45.8038 46.6264 45.8038 43.8888 45.8038 41.0955ZM25.0089 26.1239C18.2014 26.1239 11.3939 26.1226 4.58649 26.1279C4.24204 26.1282 3.88832 26.1461 3.55504 26.2245C2.54746 26.4615 1.72941 27.3601 1.71721 28.3676C1.68469 31.0602 1.65185 33.7551 1.73379 36.4455C1.77476 37.7926 2.57488 38.7653 3.86132 39.2196C6.11187 40.0145 8.28392 38.4771 8.33928 36.0718C8.3643 34.9818 8.32729 33.8904 8.3497 32.8004C8.38578 31.0511 9.67326 29.6216 11.2983 29.4936C13.3802 29.3296 14.9813 30.7964 14.9963 32.8977C15.0074 34.4837 14.9821 36.0703 15.0039 37.6562C15.024 39.1253 15.6689 40.2505 17.0399 40.8335C18.3235 41.3792 19.5397 41.1535 20.5849 40.2186C21.3723 39.5143 21.6639 38.5969 21.663 37.5524C21.6614 35.8351 21.6232 34.1134 21.7305 32.4018C21.8381 30.6844 23.3277 29.4536 25.0738 29.4749C26.7432 29.4953 28.1763 30.8339 28.2926 32.5115C28.3452 33.2686 28.3142 34.0315 28.3727 34.7878C28.5022 36.4596 29.9216 37.7502 31.6278 37.784C33.2932 37.8171 34.7771 36.5199 34.9332 34.8468C35.0067 34.0594 34.965 33.2618 35.0283 32.473C35.1196 31.34 35.6867 30.4662 36.6729 29.9178C38.9227 28.6665 41.5719 30.1946 41.65 32.7831C41.6833 33.8891 41.6544 34.997 41.6606 36.104C41.6664 37.0982 42.0211 37.9553 42.7784 38.5995C43.8428 39.505 45.0687 39.704 46.3409 39.1437C47.6013 38.5888 48.2757 37.5471 48.2977 36.1736C48.3356 33.795 48.3104 31.4151 48.3106 29.0359C48.3107 27.0897 47.3394 26.1241 45.3813 26.124C38.5907 26.1237 31.7997 26.1239 25.0089 26.1239ZM26.6364 24.4311C26.6364 21.3667 26.6364 18.3551 26.6364 15.3401C25.522 15.3401 24.442 15.3401 23.358 15.3401C23.358 18.3859 23.358 21.3981 23.358 24.4311C24.4577 24.4311 25.5261 24.4311 26.6364 24.4311ZM9.20257 16.996C9.20257 19.5085 9.20257 21.9612 9.20257 24.4135C10.3187 24.4135 11.3987 24.4135 12.4773 24.4135C12.4773 21.9214 12.4773 19.4681 12.4773 16.996C11.376 16.996 10.3067 16.996 9.20257 16.996ZM37.5246 17.0006C37.5246 19.511 37.5246 21.961 37.5246 24.4104C38.633 24.4104 39.7096 24.4104 40.7773 24.4104C40.7773 21.9193 40.7773 19.4701 40.7773 17.0006C39.6779 17.0006 38.6138 17.0006 37.5246 17.0006Z" fill="#C10037"/>
<path fill-rule="evenodd" clip-rule="evenodd" d="M25.2057 0.335938C25.4472 0.573836 25.7404 0.777854 25.9221 1.05485C27.0806 2.82126 28.196 4.60696 28.9289 6.61263C29.5613 8.34307 28.6899 10.4721 27.1325 11.3603C25.362 12.3698 23.2045 12.0593 21.9349 10.6035C20.6881 9.17395 20.5025 7.5612 21.3457 5.91113C22.2373 4.16681 23.259 2.48849 24.2463 0.794325C24.3603 0.598752 24.6179 0.486787 24.809 0.336042C24.9412 0.335938 25.0735 0.335938 25.2057 0.335938ZM25.027 2.62027C24.066 4.15535 23.182 5.5843 22.6327 7.1836C22.2956 8.16491 22.692 9.22013 23.5615 9.84448C24.3911 10.4403 25.6108 10.4369 26.4441 9.83656C27.3033 9.21763 27.6853 8.15167 27.3609 7.16922C27.2063 6.70092 27.0138 6.23889 26.7831 5.80333C26.2303 4.76021 25.6447 3.73459 25.027 2.62027Z" fill="#C10037"/>
<path fill-rule="evenodd" clip-rule="evenodd" d="M10.8297 13.627C7.87707 13.6053 6.01256 10.6243 6.93559 8.19992C7.72987 6.11356 8.89664 4.24937 10.1199 2.41092C10.4823 1.86642 11.1784 1.84984 11.5419 2.38954C12.859 4.34517 14.1822 6.31081 14.8617 8.59993C15.5851 11.0369 13.471 13.6378 10.8297 13.627ZM10.8459 4.34131C9.90057 5.79936 9.0429 7.23988 8.48006 8.83064C8.13395 9.80871 8.53218 10.8818 9.38985 11.4975C10.2486 12.1138 11.4638 12.1085 12.3111 11.4844C13.1647 10.856 13.5402 9.79828 13.193 8.8078C12.6393 7.22789 11.7725 5.80749 10.8459 4.34131Z" fill="#C10037"/>
<path fill-rule="evenodd" clip-rule="evenodd" d="M39.1624 13.6272C36.3309 13.6344 34.3426 10.8859 35.2575 8.2094C35.9805 6.09396 37.204 4.2456 38.4362 2.40861C38.8131 1.8466 39.5123 1.86516 39.8904 2.43395C41.1058 4.26228 42.2744 6.11324 43.055 8.18907C43.9925 10.6818 42.082 13.6017 39.1624 13.6272ZM39.1545 4.33557C38.2204 5.82051 37.3296 7.25749 36.7846 8.8716C36.4608 9.83091 36.8445 10.8675 37.6906 11.489C38.5197 12.0981 39.7092 12.1126 40.5661 11.5242C41.4131 10.9426 41.8539 9.86906 41.5427 8.92914C41.001 7.29356 40.1016 5.83719 39.1545 4.33557Z" fill="#C10037"/>
<path fill-rule="evenodd" clip-rule="evenodd" d="M25.009 26.1239C31.7998 26.1239 38.5908 26.1237 45.3816 26.124C47.3397 26.1241 48.311 27.0896 48.3109 29.0359C48.3107 31.4152 48.3361 33.795 48.298 36.1736C48.276 37.5471 47.6016 38.5888 46.3412 39.1437C45.069 39.704 43.8431 39.5051 42.7787 38.5995C42.0215 37.9553 41.6667 37.0983 41.6609 36.104C41.6546 34.997 41.6836 33.8891 41.6503 32.7831C41.5721 30.1946 38.9229 28.6665 36.6732 29.9178C35.687 30.4663 35.1198 31.34 35.0286 32.473C34.9653 33.2617 35.007 34.0594 34.9335 34.8469C34.7774 36.52 33.2935 37.8171 31.6281 37.784C29.9219 37.7502 28.5025 36.4596 28.373 34.7878C28.3145 34.0315 28.3455 33.2686 28.2929 32.5115C28.1765 30.8338 26.7434 29.4953 25.0741 29.4749C23.328 29.4536 21.8384 30.6845 21.7308 32.4018C21.6235 34.1135 21.6617 35.8352 21.6633 37.5525C21.6642 38.597 21.3726 39.5143 20.5852 40.2186C19.54 41.1537 18.3237 41.3794 17.0402 40.8335C15.6692 40.2505 15.0244 39.1253 15.0042 37.6562C14.9824 36.0703 15.0077 34.4837 14.9966 32.8977C14.9816 30.7964 13.3805 29.3296 11.2986 29.4936C9.67356 29.6216 8.38607 31.051 8.35 32.8004C8.32759 33.8905 8.3646 34.9819 8.33958 36.0718C8.28432 38.4772 6.11227 40.0145 3.86162 39.2196C2.57517 38.7653 1.77505 37.7926 1.73408 36.4455C1.65204 33.7551 1.68498 31.0602 1.71751 28.3676C1.7297 27.3601 2.54776 26.4615 3.55533 26.2245C3.88852 26.1461 4.24234 26.1282 4.58678 26.1279C11.394 26.1226 18.2015 26.1239 25.009 26.1239Z" fill="#FF823B"/>
<path fill-rule="evenodd" clip-rule="evenodd" d="M25.0271 2.62024C25.6448 3.73457 26.2303 4.76018 26.7832 5.80331C27.0139 6.23886 27.2063 6.7009 27.3609 7.16919C27.6853 8.15164 27.3033 9.2176 26.4441 9.83653C25.6109 10.4369 24.3911 10.4402 23.5615 9.84446C22.6921 9.2201 22.2956 8.16488 22.6328 7.18358C23.1821 5.58417 24.0661 4.15522 25.0271 2.62024Z" fill="#FF823B"/>
<path fill-rule="evenodd" clip-rule="evenodd" d="M10.8458 4.34131C11.7723 5.80748 12.6392 7.22778 13.193 8.8078C13.5401 9.79828 13.1647 10.856 12.3111 11.4844C11.4638 12.1084 10.2485 12.1137 9.3898 11.4975C8.53214 10.8819 8.1339 9.8087 8.48001 8.83063C9.04276 7.23988 9.90042 5.79935 10.8458 4.34131Z" fill="#FF823B"/>
<path fill-rule="evenodd" clip-rule="evenodd" d="M39.1543 4.33557C40.1016 5.83719 41.0009 7.29356 41.5425 8.92914C41.8537 9.86906 41.4128 10.9425 40.5659 11.5242C39.7092 12.1127 38.5196 12.0981 37.6905 11.489C36.8444 10.8674 36.4606 9.8309 36.7844 8.8716C37.3293 7.25749 38.2202 5.82051 39.1543 4.33557Z" fill="#FF823B"/>
</g>
<defs>
<clipPath id="clip0_64_11863">
<rect width="50" height="50.7725" fill="white" transform="translate(0 0.335938)"/>
</clipPath>
</defs>
</svg>
