<svg width="51" height="54" viewBox="0 0 51 54" fill="none" xmlns="http://www.w3.org/2000/svg">
<g clip-path="url(#clip0_64_11729)">
<path fill-rule="evenodd" clip-rule="evenodd" d="M25.7307 0.665069C26.4126 0.903262 26.6365 1.42211 26.6253 2.11365C26.6098 3.0782 26.6215 4.04315 26.6215 5.0912C27.2449 5.0912 27.8316 5.09055 28.4182 5.09133C28.8936 5.09197 29.3699 5.07735 29.8444 5.10026C30.5217 5.13314 30.9516 5.58053 30.9426 6.20669C30.9339 6.82069 30.4865 7.2717 29.8079 7.28698C28.8404 7.30873 27.8722 7.29319 26.9042 7.29488C26.8379 7.29488 26.7714 7.30497 26.6332 7.31637C26.6332 8.22435 26.6228 9.12974 26.6458 10.0344C26.6489 10.1527 26.8111 10.2816 26.9218 10.38C32.3771 15.2341 37.8351 20.0847 43.2898 24.9393C43.4922 25.1195 43.6951 25.3147 43.8418 25.5406C44.0941 25.9287 44.0223 26.493 43.6891 26.8309C43.3443 27.1803 42.9246 27.2728 42.4754 27.0605C42.2782 26.9673 42.1068 26.8179 41.865 26.6541C41.8521 26.8235 41.8322 26.9625 41.8321 27.1017C41.83 29.3627 41.8403 31.6239 41.8208 33.8847C41.8177 34.246 41.9509 34.4425 42.2205 34.6381C44.7484 36.4725 47.263 38.3259 49.7957 40.1535C50.3001 40.5176 50.5319 40.9422 50.5277 41.5801C50.5043 45.2044 50.5145 48.829 50.5002 52.4534C50.497 53.2856 50.0891 53.6714 49.2686 53.6929C49.1838 53.695 49.0989 53.6933 49.0139 53.6933C33.3572 53.6933 17.7007 53.6933 2.04409 53.6933C1.92514 53.6933 1.80593 53.6983 1.68761 53.6914C0.963819 53.6489 0.558303 53.2489 0.553845 52.5085C0.538689 49.9889 0.539836 47.4689 0.536015 44.9491C0.534359 43.8099 0.553591 42.6704 0.528501 41.5318C0.515255 40.9356 0.742721 40.5304 1.21625 40.1879C3.76079 38.3475 6.28826 36.4828 8.83267 34.6423C9.12993 34.4273 9.23525 34.2034 9.23245 33.8364C9.21513 31.6273 9.22392 29.4177 9.22392 27.2085C9.22392 27.0423 9.22392 26.8762 9.22392 26.6394C8.98423 26.7992 8.81331 26.9321 8.62634 27.0341C8.17994 27.2776 7.6607 27.1745 7.33147 26.7921C7.02185 26.4326 6.9746 25.9003 7.24091 25.4969C7.35248 25.3276 7.49742 25.1747 7.64898 25.0398C13.1294 20.1628 18.6113 15.287 24.0998 10.4194C24.3389 10.2072 24.4498 9.99837 24.4401 9.67176C24.4173 8.89944 24.4327 8.12596 24.4327 7.29319C23.477 7.29319 22.5651 7.29539 21.6533 7.29164C21.4333 7.29073 21.2084 7.29695 20.9947 7.2541C20.4189 7.13888 20.0784 6.677 20.1177 6.10287C20.1552 5.5558 20.5352 5.13741 21.1087 5.11424C21.9903 5.07851 22.874 5.09573 23.7568 5.09094C23.957 5.08977 24.1573 5.09081 24.4327 5.09081C24.4327 4.3427 24.4327 3.6421 24.4327 2.9415C24.4327 2.6136 24.4341 2.28556 24.4331 1.95766C24.4313 1.31402 24.7245 0.880737 25.3233 0.664551C25.459 0.665069 25.5949 0.665069 25.7307 0.665069ZM25.5386 12.0909C25.4141 12.1894 25.3448 12.2387 25.2814 12.295C20.7456 16.3289 16.2074 20.3599 11.6854 24.4097C11.5069 24.5696 11.4024 24.9099 11.4019 25.1664C11.3875 33.7436 11.3898 42.3207 11.3911 50.8979C11.3911 51.0807 11.4074 51.2635 11.4166 51.457C13.6012 51.457 15.7315 51.457 17.9109 51.457C17.9109 51.2188 17.9098 51.0149 17.9111 50.8109C17.9279 48.171 17.8378 45.5251 17.9861 42.8928C18.2311 38.5437 22.388 35.3523 26.6145 36.1352C30.1806 36.7958 32.717 39.8209 32.7594 43.5147C32.7878 45.9823 32.7655 48.4504 32.7678 50.9183C32.7679 51.0991 32.7836 51.2799 32.7919 51.4567C35.1032 51.4567 37.3533 51.4567 39.6376 51.4567C39.6473 51.2565 39.6626 51.0883 39.6626 50.9203C39.6637 42.3258 39.6613 33.7315 39.6715 25.137C39.6719 24.7706 39.5496 24.5392 39.2848 24.3047C35.867 21.2784 32.4586 18.2408 29.0473 15.2067C27.8872 14.1747 26.7251 13.1445 25.5386 12.0909ZM20.1218 51.4582C23.6445 51.4582 27.0986 51.4582 30.552 51.4582C30.5749 51.38 30.6011 51.3322 30.6011 51.2847C30.6008 48.6282 30.6745 45.9687 30.5764 43.3157C30.4549 40.0242 27.425 37.6872 24.2898 38.3453C21.8259 38.8625 20.1255 41.0055 20.1045 43.6683C20.0852 46.1006 20.0998 48.533 20.1009 50.9655C20.101 51.1182 20.1136 51.2708 20.1218 51.4582ZM9.18928 51.4657C9.18928 46.6591 9.18928 41.9133 9.18928 37.1284C9.09019 37.1835 9.02982 37.2093 8.97799 37.2472C6.96773 38.7149 4.9539 40.1778 2.95752 41.6646C2.80826 41.7757 2.71375 42.0606 2.71261 42.2653C2.69707 45.1787 2.70153 48.0923 2.70331 51.0059C2.70344 51.1542 2.72343 51.3026 2.73515 51.4658C4.90232 51.4657 7.03217 51.4657 9.18928 51.4657ZM48.3514 51.4662C48.3514 48.2871 48.3553 45.1678 48.3388 42.0484C48.338 41.9039 48.1831 41.7198 48.0513 41.6226C46.0895 40.1752 44.1194 38.739 42.1497 37.3027C42.0645 37.2406 41.9607 37.2047 41.8652 37.1566C41.8652 41.9463 41.8652 46.6965 41.8652 51.4662C44.0295 51.4662 46.1594 51.4662 48.3514 51.4662Z" fill="#C10037"/>
<path fill-rule="evenodd" clip-rule="evenodd" d="M20.1215 51.4587C20.1133 51.2715 20.1006 51.1187 20.1006 50.9661C20.0994 48.5337 20.0849 46.1013 20.1041 43.669C20.1251 41.0061 21.8257 38.8632 24.2895 38.346C27.4247 37.6877 30.4546 40.0249 30.5761 43.3163C30.6742 45.9692 30.6003 48.6287 30.6008 51.2853C30.6008 51.3328 30.5745 51.3806 30.5517 51.4588C27.0983 51.4587 23.6441 51.4587 20.1215 51.4587Z" fill="#FF823B"/>
<path fill-rule="evenodd" clip-rule="evenodd" d="M9.18887 51.466C7.03176 51.466 4.90191 51.466 2.73487 51.466C2.72303 51.3027 2.70303 51.1544 2.70303 51.006C2.70125 48.0924 2.69679 45.1788 2.71233 42.2655C2.71348 42.0608 2.80785 41.776 2.95724 41.6648C4.95362 40.1779 6.96745 38.7151 8.97771 37.2474C9.02954 37.2094 9.08991 37.1837 9.189 37.1285C9.18887 41.9136 9.18887 46.6594 9.18887 51.466Z" fill="#FF823B"/>
<path fill-rule="evenodd" clip-rule="evenodd" d="M48.351 51.4666C46.1591 51.4666 44.0291 51.4666 41.8647 51.4666C41.8647 46.6969 41.8647 41.9467 41.8647 37.157C41.9603 37.2051 42.0639 37.2409 42.1493 37.3031C44.1192 38.7394 46.089 40.1756 48.0509 41.623C48.1827 41.7202 48.3376 41.9043 48.3384 42.0488C48.3549 45.1682 48.351 48.2876 48.351 51.4666Z" fill="#FF823B"/>
<path fill-rule="evenodd" clip-rule="evenodd" d="M30.9501 26.0862C30.9445 29.1125 28.5194 31.5851 25.5407 31.6014C22.5641 31.6176 20.0956 29.1028 20.1037 26.0629C20.1117 23.0111 22.5655 20.5348 25.5636 20.553C28.5349 20.5708 30.9558 23.0575 30.9501 26.0862ZM25.509 29.3739C27.3095 29.384 28.7904 27.8888 28.7838 26.0674C28.7773 24.2689 27.3284 22.7917 25.544 22.7639C23.7778 22.7364 22.2641 24.2705 22.2689 26.0832C22.2738 27.8885 23.7263 29.3638 25.509 29.3739Z" fill="#C10037"/>
<path fill-rule="evenodd" clip-rule="evenodd" d="M25.5089 29.3744C23.7262 29.3643 22.2737 27.8889 22.2688 26.0837C22.264 24.271 23.7777 22.737 25.5439 22.7644C27.3283 22.7922 28.7772 24.2694 28.7837 26.0679C28.7904 27.8893 27.3095 29.3845 25.5089 29.3744Z" fill="#FF823B"/>
</g>
<defs>
<clipPath id="clip0_64_11729">
<rect width="50" height="53.0303" fill="white" transform="translate(0.5271 0.667969)"/>
</clipPath>
</defs>
</svg>
