<svg width="51" height="44" viewBox="0 0 51 44" fill="none" xmlns="http://www.w3.org/2000/svg">
<g clip-path="url(#clip0_64_11750)">
<path fill-rule="evenodd" clip-rule="evenodd" d="M0.305786 25.7492C0.463488 24.8429 0.578867 23.9269 0.785664 23.0319C2.25994 16.6485 7.72208 11.5838 14.2233 10.5484C17.8188 9.97579 21.2497 10.4815 24.5071 12.1153C24.6811 12.2026 24.8508 12.299 25.0201 12.3955C25.0593 12.4178 25.0883 12.4578 25.158 12.5233C24.6213 13.4575 24.0836 14.3935 23.5463 15.3288C16.4716 11.5128 9.11092 14.6795 5.88956 19.5356C2.49369 24.6548 3.00078 31.4829 7.17839 35.9482C11.4775 40.5432 18.2095 41.5511 23.6449 38.4499C28.7264 35.5509 31.9448 28.9561 29.4101 22.1285C30.4116 21.7318 31.4149 21.3345 32.5379 20.8896C32.7997 21.8241 33.1025 22.7062 33.2919 23.6123C35.2182 32.8269 28.9522 41.8695 19.6272 43.3564C10.799 44.7638 2.35448 38.9162 0.62679 30.1925C0.495133 29.5279 0.411659 28.8537 0.305786 28.1841C0.305786 27.3725 0.305786 26.5608 0.305786 25.7492Z" fill="#C10037"/>
<path fill-rule="evenodd" clip-rule="evenodd" d="M50.3058 29.7416C50.1166 30.7092 49.992 31.6949 49.7278 32.6417C48.0482 38.6609 42.784 42.9756 36.5571 43.4993C34.6514 43.6595 32.7923 43.4641 30.9669 42.9094C30.7996 42.8585 30.6346 42.8007 30.4157 42.7286C30.793 41.6742 31.1556 40.6608 31.5177 39.649C38.5468 41.845 44.0549 37.5412 45.8812 33.5328C48.0594 28.7522 46.8963 23.2397 42.8868 19.764C38.9983 16.3931 33.2585 16.0599 28.8677 18.8781C25.2289 21.2136 21.7129 27.1262 24.8507 33.8481C23.8882 34.3372 22.9241 34.827 21.9357 35.3291C21.2306 34.0157 20.7543 32.6529 20.5412 31.2229C19.6944 25.5443 21.354 20.699 25.8106 17.0494C34.4324 9.98894 47.2916 14.3824 49.908 25.2137C50.0818 25.9338 50.1749 26.6735 50.3057 27.4039C50.3058 28.1832 50.3058 28.9625 50.3058 29.7416Z" fill="#C10037"/>
<path d="M31.5 3.33594L29.5 6.33594L33.5 10.8359H37L41.5 6.33594L39 3.33594H31.5Z" fill="#FF823B"/>
<path fill-rule="evenodd" clip-rule="evenodd" d="M45.2484 6.84461C43.0831 9.00386 40.9588 11.1221 38.8609 13.2141C38.1263 12.481 37.3596 11.716 36.5657 10.9239C38.0174 9.48572 39.5048 8.01223 41.0214 6.5099C40.4117 5.59438 39.8271 4.70093 39.2186 3.82411C39.1476 3.7219 38.9449 3.66475 38.8029 3.66423C36.4761 3.65449 34.1492 3.65371 31.8224 3.66527C31.6693 3.66605 31.4536 3.73813 31.3746 3.85139C30.7723 4.71561 30.1968 5.59828 29.5824 6.52107C31.0775 8.00846 32.5603 9.48351 34.0103 10.9261C33.2299 11.7067 32.4647 12.4721 31.7239 13.2133C29.6248 11.1193 27.4998 8.99971 25.3546 6.85967C26.7433 4.77458 28.1517 2.65233 29.5764 0.541393C29.6544 0.4258 29.8689 0.344495 30.02 0.343976C33.551 0.333196 37.0819 0.333066 40.6128 0.344755C40.7604 0.345274 40.9672 0.438658 41.0463 0.55594C42.462 2.65428 43.8619 4.76315 45.2484 6.84461Z" fill="#C10037"/>
</g>
<defs>
<clipPath id="clip0_64_11750">
<rect width="50" height="43.2292" fill="white" transform="translate(0.305786 0.335938)"/>
</clipPath>
</defs>
</svg>
