<svg width="25" height="23" viewBox="0 0 25 23" fill="none" xmlns="http://www.w3.org/2000/svg">
<path fill-rule="evenodd" clip-rule="evenodd" d="M0.00012206 6.02636C0.107962 5.65034 0.238749 5.28894 0.533584 5.01306C0.924907 4.64693 1.39789 4.54742 1.90828 4.54767C5.8375 4.54898 9.76672 4.54842 13.6959 4.54842C16.8279 4.54842 19.9599 4.54916 23.0918 4.54761C23.6023 4.54736 24.0753 4.64699 24.4666 5.01306C24.7614 5.28894 24.8922 5.65034 25.0001 6.02636C25.0001 7.43614 25.0001 8.84599 25.0001 10.2558C24.9228 10.4548 24.867 10.6662 24.7641 10.8504C24.5094 11.3065 24.1135 11.5802 23.6119 11.694C20.7504 12.3433 17.8891 12.994 15.0263 13.6372C14.8348 13.6802 14.7599 13.7474 14.7679 13.9601C14.7863 14.4485 14.7779 14.9381 14.7724 15.427C14.7666 15.9409 14.5781 16.1285 14.0739 16.1293C13.0247 16.1309 11.9755 16.1309 10.9262 16.1293C10.4221 16.1285 10.2334 15.9409 10.2277 15.427C10.2222 14.9215 10.2188 14.4156 10.2305 13.9103C10.2345 13.7415 10.172 13.6816 10.0215 13.6477C7.73772 13.1334 5.45497 12.6149 3.1719 12.0974C2.57741 11.9626 1.98152 11.8339 1.38843 11.6927C0.705993 11.5303 0.256996 11.1071 0.0563915 10.4178C0.0404017 10.3629 0.0189192 10.3097 0 10.2558C0.00012206 8.84605 0.00012206 7.43614 0.00012206 6.02636ZM14.7732 12.5313C14.8903 12.5104 14.9627 12.5004 15.0337 12.4843C17.7846 11.8572 20.5353 11.2296 23.286 10.602C23.7231 10.5023 23.8659 10.3224 23.8668 9.85338C23.8689 8.7175 23.8688 7.58155 23.8669 6.44566C23.8659 5.90278 23.681 5.71366 23.1477 5.71359C16.0529 5.71272 8.95789 5.71272 1.863 5.71347C1.31562 5.71347 1.13406 5.90036 1.13332 6.46046C1.13186 7.57981 1.13216 8.69915 1.1332 9.81849C1.13363 10.3337 1.26509 10.4973 1.75235 10.6085C3.75791 11.0661 5.76304 11.5256 7.76867 11.983C8.5756 12.1671 9.38327 12.3482 10.2273 12.5389C10.2273 12.3916 10.2225 12.2696 10.2282 12.148C10.2495 11.6929 10.4377 11.5065 10.8841 11.5005C11.177 11.4966 11.4699 11.4997 11.7628 11.4997C12.5439 11.4997 13.3251 11.4973 14.1061 11.5007C14.5665 11.5028 14.7543 11.6925 14.7728 12.1624C14.777 12.2765 14.7732 12.3908 14.7732 12.5313ZM11.3814 12.6685C11.3814 13.4482 11.3814 14.1989 11.3814 14.9563C12.1363 14.9563 12.8772 14.9563 13.6188 14.9563C13.6188 14.1847 13.6188 13.4337 13.6188 12.6685C12.8698 12.6685 12.1346 12.6685 11.3814 12.6685Z" fill="#0F278A"/>
<path fill-rule="evenodd" clip-rule="evenodd" d="M12.5009 22.499C9.13257 22.4989 5.76422 22.4975 2.39586 22.5001C1.65813 22.5007 1.07096 22.2269 0.750559 21.5275C0.637775 21.2814 0.580957 20.9862 0.579553 20.713C0.566737 18.2506 0.569849 15.7881 0.573572 13.3257C0.574366 12.8284 0.86621 12.5832 1.30093 12.6895C1.49207 12.7362 1.62005 12.8559 1.66466 13.048C1.69426 13.1753 1.70519 13.3099 1.70531 13.4412C1.70763 15.8124 1.7069 18.1837 1.70702 20.555C1.70708 21.1751 1.8768 21.3462 2.49247 21.3462C9.16406 21.3463 15.8357 21.3463 22.5074 21.3462C23.1238 21.3462 23.2937 21.1754 23.2937 20.556C23.2939 18.1682 23.2934 15.7804 23.2942 13.3925C23.2943 12.9377 23.4321 12.7345 23.7717 12.6776C24.119 12.6193 24.3803 12.8197 24.4186 13.176C24.4265 13.2499 24.4287 13.3249 24.4287 13.3994C24.4293 15.8121 24.4266 18.2248 24.4306 20.6375C24.4319 21.3896 24.1678 21.9941 23.4778 22.3121C23.2 22.4401 22.8659 22.4903 22.5571 22.4915C19.2051 22.5035 15.8529 22.499 12.5009 22.499Z" fill="#0F278A"/>
<path fill-rule="evenodd" clip-rule="evenodd" d="M12.499 0.500607C13.402 0.500607 14.3049 0.499053 15.2079 0.500918C16.3564 0.503344 17.0404 1.20295 17.0431 2.37584C17.0435 2.54152 17.0508 2.70844 17.0345 2.87276C17.0022 3.19927 16.7706 3.39922 16.4571 3.38802C16.152 3.3772 15.9429 3.17706 15.9193 2.85665C15.906 2.67523 15.9173 2.49201 15.9112 2.30985C15.8966 1.87457 15.7039 1.65814 15.2826 1.65664C13.4279 1.6498 11.5732 1.64993 9.71851 1.65664C9.29643 1.65814 9.104 1.87357 9.08838 2.30855C9.08094 2.51546 9.09467 2.72455 9.07032 2.9291C9.03864 3.19522 8.83767 3.36414 8.56841 3.38622C8.3047 3.4078 8.03958 3.26755 8.00193 3.01916C7.90507 2.38069 7.88786 1.74154 8.29646 1.18553C8.64927 0.705345 9.13806 0.501354 9.71687 0.500918C10.6443 0.500172 11.5716 0.50067 12.499 0.500607Z" fill="#0F278A"/>
<path fill-rule="evenodd" clip-rule="evenodd" d="M14.7729 12.5313C14.7729 12.3908 14.7767 12.2764 14.7722 12.1623C14.7538 11.6924 14.5661 11.5028 14.1056 11.5006C13.3245 11.4972 12.5434 11.4996 11.7623 11.4996C11.4694 11.4996 11.1765 11.4965 10.8836 11.5004C10.4371 11.5065 10.249 11.6929 10.2276 12.148C10.222 12.2695 10.2268 12.3916 10.2268 12.5389C9.38268 12.3481 8.57507 12.167 7.76813 11.983C5.76257 11.5255 3.75738 11.0661 1.75182 10.6084C1.26455 10.4972 1.13316 10.3337 1.13267 9.81843C1.13169 8.69909 1.13139 7.57975 1.13279 6.46041C1.13352 5.9003 1.31509 5.71341 1.86246 5.71341C8.95736 5.71273 16.0523 5.71267 23.1472 5.71354C23.6805 5.71354 23.8655 5.90273 23.8664 6.4456C23.8683 7.58149 23.8683 8.71744 23.8663 9.85332C23.8654 10.3223 23.7226 10.5022 23.2855 10.6019C20.5348 11.2296 17.784 11.8572 15.0332 12.4842C14.9623 12.5004 14.8899 12.5103 14.7729 12.5313Z" fill="#F5CD07" fill-opacity="0.9"/>
<path fill-rule="evenodd" clip-rule="evenodd" d="M11.3818 12.6685C12.1349 12.6685 12.8702 12.6685 13.6192 12.6685C13.6192 13.4337 13.6192 14.1846 13.6192 14.9563C12.8777 14.9563 12.1367 14.9563 11.3818 14.9563C11.3818 14.199 11.3818 13.4482 11.3818 12.6685Z" fill="#F5CD07" fill-opacity="0.9"/>
</svg>
