<svg width="25" height="25" viewBox="0 0 25 25" fill="none" xmlns="http://www.w3.org/2000/svg">
<path fill-rule="evenodd" clip-rule="evenodd" d="M0 24.6395C0 24.5392 0 24.439 0 24.3387C0.128792 24.0393 0.358313 23.9415 0.667531 23.9463C1.39972 23.9578 2.13217 23.9504 2.86449 23.9494C2.94978 23.9494 3.03508 23.942 3.11224 23.9383C3.11224 20.1528 3.11224 16.3988 3.11224 12.7157C2.69259 12.7203 2.27906 12.7923 1.89386 12.7152C1.06348 12.549 0.524284 11.9958 0.319832 11.1539C0.109389 10.2875 0.37687 9.55613 1.03197 8.97544C3.82209 6.50221 6.61359 4.03059 9.40411 1.55783C11.2138 -0.0458038 13.7761 -0.0470077 15.5855 1.55589C16.1708 2.07432 16.7562 2.59281 17.3422 3.11037C17.3946 3.15665 17.4526 3.19624 17.5457 3.268C17.5457 3.14173 17.5457 3.06101 17.5457 2.98023C17.5457 2.47036 17.5424 1.96056 17.5466 1.45083C17.5538 0.566184 18.0946 0.01278 18.9525 0.00943617C19.4895 0.007363 20.0282 0.0361868 20.5632 0.00274852C21.4209 -0.0507527 22.0564 0.619417 22.0415 1.506C22.0106 3.3441 22.034 5.18314 22.0291 7.02178C22.0287 7.18549 22.0712 7.29838 22.1958 7.40712C22.8404 7.97002 23.4899 8.52824 24.1121 9.11649C24.734 9.70433 24.9115 10.615 24.6072 11.4208C24.3041 12.223 23.5706 12.7597 22.7223 12.7665C22.4443 12.7687 22.1658 12.7008 21.8859 12.6648C21.8859 16.4102 21.8859 20.1675 21.8859 23.95C21.9864 23.95 22.0738 23.95 22.1611 23.95C22.8772 23.95 23.5934 23.9598 24.3092 23.9456C24.6266 23.9392 24.8618 24.0366 25.0001 24.3387C25.0001 24.4223 25.0001 24.5059 25.0001 24.5895C24.871 24.9167 24.6254 24.9994 24.2975 24.9991C16.4362 24.9933 8.57483 24.9931 0.713566 24.9999C0.39979 25.0001 0.159916 24.923 0 24.6395ZM4.15312 23.9459C7.12863 23.9459 10.0765 23.9459 13.0303 23.9459C13.0507 21.8882 12.9456 19.8827 11.6851 18.1475C11.6408 18.174 11.6112 18.1871 11.5871 18.2071C10.5716 19.0489 8.84642 19.2395 7.5807 17.91C6.60857 16.8889 5.77624 15.758 5.01397 14.572C4.58885 13.9106 5.01729 13.0642 5.79428 12.9596C6.02803 12.9281 6.26224 12.8988 6.49697 12.8764C7.63917 12.7674 8.78124 12.6479 9.93054 12.7548C10.387 12.7974 10.8286 12.8905 11.2319 13.1352C12.5669 13.9446 13.0906 15.6613 12.4251 17.1017C12.3496 17.265 12.376 17.3611 12.4663 17.5011C12.7173 17.8899 12.9641 18.2842 13.1765 18.6959C13.349 19.0301 13.4697 19.3927 13.6225 19.7651C13.7748 19.4532 13.9103 19.1539 14.0661 18.8662C14.1338 18.7411 14.13 18.6517 14.0632 18.5278C13.7172 17.8873 13.6263 17.2062 13.7996 16.494C14.0465 15.4795 14.7082 14.8724 15.634 14.515C16.7412 14.0877 17.8858 13.8053 19.0436 13.5789C19.6583 13.4586 20.2359 14.0538 20.1338 14.6893C20.089 14.9675 20.0009 15.2395 19.9186 15.5099C19.5985 16.5615 19.2729 17.6115 18.7436 18.5785C18.3004 19.3883 17.6161 19.8249 16.7264 19.9379C16.0693 20.0212 15.4717 19.8458 14.9179 19.4926C14.3058 20.3285 13.8219 22.9472 14.0948 23.936C16.3365 23.936 18.5787 23.936 20.8346 23.936C20.8392 23.8497 20.8464 23.7766 20.8465 23.7034C20.847 19.8173 20.8485 15.9311 20.8397 12.045C20.8395 11.9269 20.7602 11.7758 20.6706 11.696C18.0942 9.40359 15.5118 7.11815 12.93 4.83197C12.5997 4.53945 12.4023 4.53765 12.0755 4.82696C9.49956 7.10731 6.92521 9.38961 4.34612 11.6661C4.20287 11.7926 4.14909 11.9202 4.14935 12.1127C4.15462 15.9571 4.15325 19.8014 4.15325 23.6458C4.15312 23.737 4.15312 23.8286 4.15312 23.9459ZM23.7267 10.6688C23.7136 10.2916 23.5657 10.0098 23.3039 9.77897C22.3469 8.93538 21.3938 8.08739 20.4388 7.2416C18.5656 5.58266 16.7033 3.91068 14.8145 2.27067C13.815 1.40274 12.6503 1.21636 11.3987 1.58251C10.7463 1.77337 10.2403 2.20225 9.73885 2.64812C7.05075 5.03809 4.3553 7.41936 1.66564 9.80752C1.18908 10.2306 1.13816 10.885 1.52617 11.3482C1.91443 11.8115 2.55117 11.8557 3.03182 11.4457C3.31969 11.2002 3.5998 10.945 3.88317 10.694C6.40262 8.4613 8.92104 6.22742 11.4421 3.99668C12.1031 3.41171 12.8964 3.41011 13.5461 3.98572C15.7331 5.9234 17.9186 7.86282 20.1049 9.80124C20.7331 10.3582 21.3576 10.9197 21.9924 11.4686C22.3353 11.7651 22.7288 11.812 23.1328 11.6124C23.5204 11.4208 23.7008 11.0811 23.7267 10.6688ZM11.5527 16.4732C12.0212 15.2888 11.1977 13.9386 9.96726 13.8062C8.96512 13.6985 7.9691 13.7969 6.97249 13.8825C6.61886 13.9128 6.26667 13.96 5.87261 14.004C6.0251 14.2321 6.14914 14.4253 6.28054 14.6131C6.95035 15.5695 7.61794 16.5297 8.47593 17.3234C9.18976 17.9837 10.2331 17.9827 10.985 17.3291C10.9006 17.2497 10.8243 17.1621 10.7332 17.0957C10.4354 16.8786 10.1451 16.6457 9.8276 16.4639C9.51747 16.2863 9.1766 16.1659 8.85072 16.017C8.58857 15.8973 8.46896 15.6162 8.56409 15.3549C8.65531 15.1042 8.91596 14.9654 9.17856 15.045C9.35703 15.0991 9.53146 15.1703 9.70251 15.2463C10.3787 15.5469 10.9835 15.9646 11.5527 16.4732ZM20.9865 6.32686C21.0048 6.2638 21.0173 6.24066 21.0173 6.21752C21.0187 4.61509 21.0211 3.0126 21.0174 1.41017C21.0168 1.14875 20.9167 1.05933 20.6495 1.05746C20.0888 1.05345 19.5282 1.05391 18.9675 1.05706C18.6568 1.05866 18.5802 1.14119 18.5797 1.46119C18.5788 2.14561 18.6122 2.83216 18.5686 3.51363C18.5368 4.0124 18.6857 4.34424 19.073 4.65141C19.7266 5.1699 20.3341 5.74999 20.9865 6.32686ZM19.1133 14.6152C18.6457 14.7243 18.2329 14.8108 17.8251 14.9177C17.0304 15.1259 16.2309 15.3274 15.5031 15.7329C14.8734 16.0838 14.5637 17.0004 14.8473 17.6833C14.9123 17.608 14.9632 17.5342 15.0278 17.4765C15.4558 17.0939 15.8695 16.6913 16.3222 16.3422C16.6475 16.0915 17.0655 16.2913 17.1232 16.6835C17.1607 16.9382 17.0325 17.109 16.8317 17.2421C16.294 17.598 15.8498 18.0543 15.4622 18.5752C16.2321 19.1727 17.3558 18.9475 17.8293 18.0975C18.4269 17.0252 18.7484 15.8425 19.1133 14.6152Z" fill="#0F278A"/>
<path fill-rule="evenodd" clip-rule="evenodd" d="M23.7265 10.6689C23.7006 11.0811 23.5202 11.4208 23.1327 11.6123C22.7286 11.8119 22.3351 11.7651 21.9922 11.4685C21.3574 10.9196 20.7329 10.3581 20.1047 9.80116C17.9185 7.86274 15.7329 5.92332 13.5459 3.98571C12.8962 3.41017 12.1029 3.41171 11.4419 3.99668C8.92085 6.22741 6.40244 8.46129 3.88298 10.694C3.59961 10.945 3.31957 11.2002 3.03164 11.4457C2.55098 11.8557 1.91425 11.8115 1.52598 11.3482C1.13798 10.8851 1.1889 10.2306 1.66545 9.80752C4.35511 7.41942 7.05057 5.03808 9.73866 2.64818C10.2401 2.20231 10.7461 1.77343 11.3985 1.58257C12.6502 1.21642 13.8148 1.4028 14.8144 2.27073C16.7031 3.91067 18.5654 5.58266 20.4386 7.24166C21.3936 8.08745 22.3467 8.93551 23.3037 9.77903C23.5655 10.0098 23.7135 10.2918 23.7265 10.6689Z" fill="#F5CD07" fill-opacity="0.9"/>
<path fill-rule="evenodd" clip-rule="evenodd" d="M11.5523 16.4733C10.983 15.9647 10.3782 15.5469 9.70198 15.2464C9.53093 15.1704 9.35649 15.0992 9.17802 15.0451C8.91548 14.9655 8.65477 15.1043 8.56355 15.355C8.46849 15.6163 8.58803 15.8974 8.85018 16.0171C9.17606 16.166 9.51693 16.2864 9.82706 16.464C10.1446 16.6457 10.4349 16.8787 10.7326 17.0958C10.8237 17.1622 10.9 17.2499 10.9845 17.3292C10.2326 17.9828 9.18928 17.9838 8.47539 17.3235C7.61734 16.5298 6.94981 15.5695 6.28 14.6132C6.14854 14.4254 6.02456 14.2322 5.87207 14.0041C6.26613 13.9601 6.61832 13.9129 6.97195 13.8826C7.96856 13.7971 8.96458 13.6986 9.96672 13.8063C11.1972 13.9387 12.0207 15.2889 11.5523 16.4733Z" fill="#F5CD07" fill-opacity="0.9"/>
<path fill-rule="evenodd" clip-rule="evenodd" d="M20.9866 6.32702C20.3341 5.75014 19.7267 5.17005 19.073 4.65149C18.6858 4.3444 18.5368 4.01249 18.5686 3.51372C18.6121 2.83232 18.5788 2.1457 18.5798 1.46128C18.5802 1.14121 18.6568 1.05875 18.9675 1.05715C19.5282 1.05407 20.0889 1.05353 20.6495 1.05755C20.9168 1.05949 21.0168 1.14883 21.0174 1.41025C21.0211 3.01268 21.0187 4.61518 21.0174 6.21761C21.0173 6.24088 21.0048 6.26402 20.9866 6.32702Z" fill="#F5CD07" fill-opacity="0.9"/>
<path fill-rule="evenodd" clip-rule="evenodd" d="M19.1128 14.6155C18.748 15.8428 18.4265 17.0254 17.829 18.0978C17.3554 18.9477 16.2318 19.1729 15.4619 18.5754C15.8495 18.0547 16.2936 17.5983 16.8313 17.2423C17.0322 17.1094 17.1604 16.9385 17.1229 16.6838C17.0652 16.2917 16.6471 16.0918 16.3219 16.3425C15.8692 16.6916 15.4554 17.0941 15.0275 17.4768C14.9629 17.5344 14.912 17.6083 14.847 17.6836C14.5634 17.0007 14.873 16.0841 15.5028 15.7331C16.2306 15.3276 17.0301 15.1262 17.8248 14.918C18.2324 14.811 18.6452 14.7246 19.1128 14.6155Z" fill="#F5CD07" fill-opacity="0.9"/>
</svg>
