<svg width="26" height="27" viewBox="0 0 26 27" fill="none" xmlns="http://www.w3.org/2000/svg">
<path fill-rule="evenodd" clip-rule="evenodd" d="M0 22.4575C0 22.7452 0 23.0329 0 23.3207C0.0171318 23.3937 0.0362949 23.4663 0.0511913 23.5397C0.324972 24.8862 0.838469 26.0528 2.28517 26.5199C2.4544 26.5199 2.62375 26.5199 2.79298 26.5199C2.81356 26.5063 2.83232 26.4861 2.85494 26.4801C6.17496 25.5924 9.49511 24.7047 12.8167 23.8228C12.9315 23.7923 13.0687 23.7925 13.1836 23.8229C15.6972 24.4902 18.2096 25.1625 20.7213 25.8371C21.5511 26.06 22.3786 26.2921 23.2071 26.5199C23.3764 26.5199 23.5456 26.5199 23.7149 26.5199C24.0001 26.3822 24.308 26.2771 24.5658 26.0996C25.0499 25.7661 25.3805 25.2866 25.5863 24.7447C25.7612 24.2841 25.8648 23.7964 26 23.3207C26 23.0329 26 22.7452 26 22.4575C25.9826 22.3929 25.961 22.3292 25.9484 22.2637C25.7736 21.3509 25.3348 20.6814 24.35 20.4971C24.1059 20.4514 23.8687 20.369 23.6146 20.2998C23.9804 19.4633 23.9786 18.6299 23.7626 17.7911C23.5377 16.9183 23.1363 16.148 22.3818 15.6107C21.9313 15.29 21.4347 15.1773 20.8914 15.3438C20.8085 15.3693 20.7209 15.3793 20.6108 15.4015C20.6491 15.3042 20.6734 15.2416 20.6985 15.1791C21.3486 13.5636 21.171 12.0499 20.1202 10.656C19.7285 10.1365 19.2971 9.64716 18.8965 9.1342C18.6316 8.79494 18.3676 8.45142 18.1412 8.08636C17.5934 7.20319 17.458 6.24642 17.6939 5.2346C17.7671 4.92026 17.7006 4.71142 17.4896 4.58729C17.2536 4.44847 17.0367 4.50691 16.834 4.66916C16.6163 4.84326 16.389 5.00612 16.1788 5.18869C15.6691 5.63135 15.2726 6.16435 14.9824 6.75504C14.6822 6.28807 14.3912 5.82516 14.0893 5.36949C13.8747 5.04553 13.6348 4.73803 13.4249 4.41116C13.0837 3.87972 12.9689 3.29526 13.1553 2.68858C13.2883 2.25547 13.4698 1.83474 13.6601 1.42248C13.8677 0.972774 13.8471 0.81689 13.457 0.52002C13.3554 0.52002 13.2538 0.52002 13.1523 0.52002C13.0829 0.549679 13.0146 0.582184 12.944 0.608796C11.6851 1.08363 10.6756 1.87571 9.9415 3.00333C8.97302 4.49086 8.76533 6.14532 8.90848 7.87163C8.91478 7.94781 8.91878 8.02433 8.92744 8.15509C8.35842 7.55397 8.03663 6.89556 7.88264 6.1527C7.83334 5.91495 7.72303 5.74274 7.47553 5.69284C7.2182 5.64097 7.03144 5.75189 6.90325 5.97075C6.69408 6.32795 6.46865 6.6773 6.28283 7.04643C5.12562 9.34623 4.65627 11.7636 5.07537 14.3257C5.13198 14.6718 5.2106 15.0144 5.28028 15.3652C4.21435 15.2192 3.76525 15.3312 3.1837 15.9922C2.26831 17.0326 1.94449 18.2576 2.16877 19.6227C2.20635 19.8515 2.29573 20.0718 2.36433 20.3067C2.07403 20.3835 1.79063 20.4673 1.50304 20.5328C0.839281 20.6839 0.425735 21.1069 0.201389 21.7282C0.116135 21.9646 0.0661583 22.2139 0 22.4575ZM15.5665 14.0046C15.5954 14.0481 15.6286 14.0932 15.6567 14.1414C16.0936 14.8912 16.1417 15.6953 15.9701 16.5229C15.9541 16.6002 15.8385 16.6902 15.7523 16.7142C14.8982 16.9533 14.0412 17.1821 13.1832 17.4069C13.0811 17.4337 12.9613 17.4443 12.861 17.4185C12.182 17.2439 11.5049 17.0617 10.8309 16.8687C10.7578 16.8478 10.6724 16.7502 10.6554 16.674C10.5963 16.4107 10.5719 16.1399 10.5212 15.8745C10.4642 15.5763 10.2426 15.4151 9.95864 15.449C9.68885 15.4813 9.50859 15.7117 9.52667 16.0099C9.53676 16.1753 9.5566 16.3402 9.57373 16.5231C9.49207 16.5079 9.43444 16.5013 9.37905 16.4864C8.48139 16.2462 7.58543 15.9994 6.68527 15.7688C6.51334 15.7248 6.43946 15.6434 6.38874 15.4799C5.53531 12.73 5.91825 10.1022 7.16044 7.55769C7.17547 7.52688 7.20723 7.50419 7.24116 7.46688C7.71017 8.44363 8.39343 9.19657 9.30442 9.74217C9.51482 9.86819 9.72643 9.92324 9.94428 9.76905C10.1713 9.60829 10.1697 9.38638 10.1344 9.13407C10.0362 8.43185 9.91089 7.72834 9.8855 7.02212C9.83763 5.68925 10.135 4.43513 10.9407 3.33832C11.2914 2.86099 11.7079 2.45157 12.2476 2.1052C12.2192 2.22391 12.2036 2.2961 12.1844 2.36733C11.9255 3.3304 12.0702 4.22812 12.6282 5.05461C12.8552 5.39096 13.093 5.7202 13.3313 6.04882C13.7664 6.64913 14.1448 7.28202 14.2923 8.016C14.3835 8.46963 14.4116 8.93647 14.459 9.39823C14.4902 9.70296 14.6736 9.90442 14.9486 9.91274C15.2198 9.92094 15.4379 9.72456 15.4685 9.42749C15.4867 9.25115 15.4776 9.07224 15.489 8.89503C15.5472 7.98857 15.7922 7.14916 16.3786 6.43271C16.4247 6.37644 16.456 6.30791 16.4942 6.24507C16.5772 6.51384 16.5972 6.73229 16.633 6.94817C16.7931 7.91104 17.269 8.72249 17.8646 9.47252C18.3538 10.0885 18.8671 10.6858 19.3424 11.3122C19.8589 11.9928 20.1445 12.7589 20.0563 13.6318C19.9942 14.2463 19.7673 14.8073 19.5121 15.3637C19.378 15.6561 19.2005 15.8225 18.875 15.893C18.2676 16.0243 17.6706 16.2047 17.0484 16.3704C17.0533 16.2673 17.0542 16.1927 17.0607 16.1187C17.1821 14.728 16.6915 13.5678 15.7367 12.5783C15.5643 12.3997 15.3765 12.2885 15.1291 12.3698C14.8809 12.4515 14.8028 12.6527 14.7677 12.8995C14.7023 13.3582 14.5746 13.7988 14.2665 14.1896C13.1527 13.0772 12.5118 11.807 12.6618 10.2183C12.6846 9.97565 12.6211 9.77846 12.3992 9.66226C12.1902 9.55276 11.9682 9.568 11.817 9.7467C11.3921 10.2487 10.9736 10.7576 10.581 11.2848C10.4085 11.5163 10.5085 11.8274 10.7399 11.9717C10.976 12.1189 11.2493 12.0594 11.4316 11.8169C11.5064 11.7173 11.5737 11.612 11.6617 11.484C11.6867 11.5691 11.7068 11.6221 11.7176 11.6767C11.9889 13.041 12.701 14.1457 13.7246 15.0619C14.2314 15.5155 14.4487 15.4976 14.9133 15.0036C14.9597 14.9543 15.01 14.9065 15.0457 14.8498C15.2198 14.5729 15.3894 14.2932 15.5665 14.0046ZM3.17287 18.2592C3.33133 17.527 3.60321 16.889 4.20487 16.4356C4.40742 16.2831 4.63007 16.2607 4.87757 16.3285C6.05056 16.6498 7.22586 16.9629 8.40067 17.2778C13.1406 18.548 17.8808 19.8176 22.6207 21.0877C22.7125 21.1123 22.8036 21.1397 22.9093 21.1698C21.9243 22.3235 21.5971 23.6184 21.8524 25.0771C21.7712 25.0608 21.7126 25.0523 21.6558 25.0371C15.7084 23.444 9.76097 21.8507 3.81388 20.2564C3.41374 20.1492 3.14368 19.7462 3.18106 19.3169C3.38597 19.3703 3.58974 19.4251 3.79437 19.476C4.11237 19.5552 4.38778 19.4165 4.46193 19.1423C4.54197 18.847 4.38013 18.5908 4.04879 18.4969C3.77318 18.4188 3.49588 18.3467 3.17287 18.2592ZM22.3927 17.104C22.1292 17.1747 21.8916 17.2299 21.6601 17.3041C21.5424 17.3418 21.415 17.3916 21.328 17.474C21.1577 17.6354 21.1254 17.8458 21.2405 18.0547C21.3585 18.2687 21.5488 18.3693 21.7938 18.3125C22.1198 18.2369 22.4428 18.1478 22.7816 18.0608C22.925 18.66 22.9516 19.2225 22.7312 19.7817C22.6584 19.9665 22.5699 20.03 22.3545 19.9715C19.9985 19.331 17.6391 18.7027 15.281 18.0698C15.2082 18.0503 15.1388 18.0176 15.0485 17.9837C15.0864 17.9578 15.0927 17.9507 15.1004 17.9485C17.1402 17.4016 19.1795 16.8526 21.2217 16.3147C21.3488 16.2812 21.5124 16.3032 21.6357 16.355C21.9765 16.4978 22.1899 16.7808 22.3927 17.104ZM3.11267 21.1938C3.12053 21.1708 3.12845 21.1479 3.1363 21.125C4.41622 21.4678 5.69613 21.8107 6.98804 22.1567C6.73464 22.4457 6.68697 22.665 6.81637 22.8822C6.95181 23.1094 7.1706 23.1675 7.53431 23.0714C7.82826 22.9937 8.12845 22.9331 8.41422 22.8318C8.78036 22.7022 9.12951 22.7019 9.50006 22.8208C9.97631 22.9736 10.4644 23.0893 10.9474 23.2211C10.9459 23.236 10.9443 23.251 10.9428 23.266C8.68122 23.8716 6.41962 24.4774 4.14014 25.0878C4.40627 23.5982 4.06558 22.3142 3.11267 21.1938ZM22.722 24.1398C22.8097 23.3232 23.0334 22.5908 23.5682 21.9794C23.7806 21.7365 24.0317 21.4857 24.3884 21.5743C24.7726 21.6697 24.8703 22.0301 24.928 22.3646C25.095 23.3325 24.8568 24.2099 24.2652 24.9875C24.15 25.1389 23.9965 25.2718 23.8364 25.3763C23.4821 25.6075 23.1682 25.5378 23.002 25.1517C22.865 24.8332 22.8122 24.4785 22.722 24.1398ZM0.950878 22.8766C1.05435 22.5337 1.12274 22.1746 1.27111 21.8524C1.42016 21.5286 1.71283 21.4587 2.01566 21.6485C2.21861 21.7759 2.41349 21.9436 2.55597 22.135C3.09452 22.8584 3.30187 23.6837 3.1858 24.5749C3.15425 24.8171 3.04502 25.0619 2.92063 25.2761C2.78181 25.5152 2.54744 25.5756 2.30386 25.4437C2.10782 25.3375 1.91591 25.1955 1.77161 25.0271C1.24937 24.4176 1.04561 23.6857 0.950878 22.8766Z" fill="#0F278A"/>
<path fill-rule="evenodd" clip-rule="evenodd" d="M22.3923 17.1041C22.1896 16.7808 21.9761 16.4979 21.6354 16.3551C21.5121 16.3033 21.3484 16.2813 21.2213 16.3148C19.1791 16.8526 17.1399 17.4017 15.1 17.9486C15.0923 17.9507 15.0859 17.9578 15.0481 17.9838C15.1385 18.0176 15.2078 18.0503 15.2807 18.0698C17.6388 18.7027 19.9981 19.3311 22.3541 19.9715C22.5696 20.03 22.658 19.9667 22.7309 19.7817C22.9512 19.2226 22.9246 18.6601 22.7812 18.0609C22.4424 18.1478 22.1195 18.237 21.7934 18.3125C21.5484 18.3693 21.3581 18.2688 21.2402 18.0548C21.125 17.8459 21.1574 17.6355 21.3277 17.4741C21.4146 17.3917 21.542 17.3418 21.6597 17.3042C21.8913 17.2301 22.1288 17.1748 22.3923 17.1041Z" fill="#F5CD07" fill-opacity="0.9"/>
<path fill-rule="evenodd" clip-rule="evenodd" d="M3.11257 21.1937C4.06548 22.3142 4.40616 23.5982 4.14003 25.0879C6.41952 24.4774 8.68112 23.8717 10.9427 23.2661C10.9442 23.251 10.9458 23.2361 10.9473 23.2211C10.4643 23.0894 9.97621 22.9737 9.49995 22.8208C9.12941 22.702 8.78026 22.7023 8.41411 22.8319C8.12835 22.9331 7.82823 22.9938 7.5342 23.0715C7.1705 23.1675 6.9517 23.1095 6.81627 22.8823C6.68686 22.6651 6.73454 22.4457 6.98793 22.1567C5.69603 21.8107 4.41612 21.4678 3.1362 21.125C3.12835 21.1479 3.12042 21.1708 3.11257 21.1937Z" fill="#F5CD07" fill-opacity="0.9"/>
<path fill-rule="evenodd" clip-rule="evenodd" d="M22.7224 24.1399C22.8125 24.4786 22.8654 24.8333 23.0024 25.1517C23.1686 25.5378 23.4825 25.6076 23.8368 25.3763C23.9968 25.2718 24.1504 25.1389 24.2656 24.9876C24.8572 24.21 25.0953 23.3326 24.9284 22.3646C24.8707 22.0302 24.7729 21.6698 24.3888 21.5744C24.0321 21.4857 23.781 21.7366 23.5685 21.9795C23.0338 22.5909 22.8101 23.3233 22.7224 24.1399Z" fill="#F5CD07" fill-opacity="0.9"/>
<path fill-rule="evenodd" clip-rule="evenodd" d="M0.950633 22.8764C1.04537 23.6855 1.24906 24.4174 1.77143 25.0269C1.9158 25.1953 2.10764 25.3373 2.30368 25.4435C2.54726 25.5754 2.78163 25.5151 2.92045 25.2759C3.04484 25.0617 3.15407 24.8169 3.18563 24.5747C3.30162 23.6835 3.09434 22.8582 2.55579 22.1348C2.41332 21.9434 2.21843 21.7757 2.01548 21.6483C1.71265 21.4584 1.42005 21.5284 1.27093 21.8522C1.1225 22.1744 1.0541 22.5335 0.950633 22.8764Z" fill="#F5CD07" fill-opacity="0.9"/>
<path fill-rule="evenodd" clip-rule="evenodd" d="M9.65122 13.6597C9.64784 13.9378 9.88735 14.1779 10.1642 14.1738C10.4316 14.17 10.6597 13.9405 10.663 13.672C10.6664 13.3983 10.4502 13.1721 10.1766 13.1629C9.89175 13.1533 9.65474 13.3776 9.65122 13.6597Z" fill="#F5CD07" fill-opacity="0.9"/>
<path fill-rule="evenodd" clip-rule="evenodd" d="M10.3048 19.7893C10.3158 19.9832 10.4528 20.1424 10.6853 20.2098C11.0576 20.3178 11.4321 20.4193 11.8091 20.5099C12.0757 20.5739 12.3221 20.421 12.4036 20.1638C12.4843 19.9094 12.3672 19.6371 12.1006 19.5516C11.6998 19.4233 11.2924 19.3106 10.8814 19.2204C10.5699 19.1519 10.2959 19.4127 10.3048 19.7893Z" fill="#F5CD07" fill-opacity="0.9"/>
<path fill-rule="evenodd" clip-rule="evenodd" d="M18.022 22.072C18.0295 22.2624 18.1614 22.4262 18.3948 22.4946C18.7668 22.6037 19.1415 22.7047 19.5182 22.796C19.7972 22.8636 20.049 22.7056 20.1262 22.4356C20.1989 22.1812 20.0726 21.9165 19.8031 21.8323C19.4094 21.7092 19.0101 21.5996 18.6077 21.5092C18.2961 21.4391 18.0185 21.6921 18.022 22.072Z" fill="#F5CD07" fill-opacity="0.9"/>
</svg>
