<svg width="18" height="16" viewBox="0 0 18 16" fill="none" xmlns="http://www.w3.org/2000/svg">
<path d="M8.74175 7.61154C10.2418 7.61154 11.4084 6.38932 11.4084 4.88932C11.4084 3.38932 10.1862 2.22266 8.6862 2.22266C7.1862 2.22266 6.01953 3.44488 6.01953 4.88932C6.01953 6.38932 7.24175 7.61154 8.74175 7.61154ZM8.6862 3.33377C8.74175 3.33377 8.74175 3.33377 8.6862 3.33377C9.57509 3.33377 10.2973 4.05599 10.2973 4.94488C10.2973 5.83377 9.57509 6.50043 8.6862 6.50043C7.79731 6.50043 7.13064 5.77821 7.13064 4.94488C7.13064 4.05599 7.85286 3.33377 8.6862 3.33377Z" fill="#666666"/>
<path d="M16.9642 7.27784C15.9086 6.33339 14.5197 5.83339 13.0753 5.88895H12.6309C12.5197 6.33339 12.3531 6.72228 12.1309 7.05561C12.4642 7.00006 12.742 7.00006 13.0753 7.00006C14.1309 6.9445 15.1864 7.27783 16.0197 7.88895V11.8889H17.1309V7.4445L16.9642 7.27784Z" fill="#666666"/>
<path d="M11.7973 2.33312C12.0751 1.66645 12.8529 1.33312 13.5751 1.61089C14.2418 1.88867 14.5751 2.66645 14.2973 3.38867C14.0751 3.88867 13.5751 4.22201 13.0751 4.22201C12.964 4.22201 12.7973 4.22201 12.6862 4.16645C12.7418 4.44423 12.7418 4.72201 12.7418 4.94423V5.27756C12.8529 5.27756 12.964 5.33312 13.0751 5.33312C14.464 5.33312 15.5751 4.22201 15.5751 2.88867C15.5751 1.49978 14.464 0.388672 13.1306 0.388672C12.2418 0.388672 11.464 0.833116 11.0195 1.61089C11.2973 1.77756 11.5751 1.99978 11.7973 2.33312Z" fill="#666666"/>
<path d="M5.46484 7.11031C5.24262 6.77697 5.07596 6.38809 4.96484 5.94364H4.5204C3.07596 5.88809 1.68707 6.38809 0.63151 7.27697L0.464844 7.44364V11.8881H1.57595V7.88808C2.46484 7.27697 3.46484 6.94364 4.5204 6.9992C4.85373 6.9992 5.18707 7.05475 5.46484 7.11031Z" fill="#666666"/>
<path d="M4.52049 5.27743C4.6316 5.27743 4.74271 5.27743 4.85382 5.22188V4.88854C4.85382 4.61077 4.85382 4.33299 4.90938 4.11077C4.79827 4.16632 4.6316 4.16632 4.52049 4.16632C3.79827 4.16632 3.18715 3.55521 3.18715 2.83299C3.18715 2.11077 3.79827 1.49965 4.52049 1.49965C5.07604 1.49965 5.57604 1.83299 5.79827 2.33299C6.02049 2.05521 6.35382 1.77743 6.6316 1.55521C5.90938 0.388544 4.40938 -0.000345349 3.24271 0.721877C2.07604 1.4441 1.68715 2.9441 2.40938 4.11077C2.85382 4.83299 3.6316 5.27743 4.52049 5.27743Z" fill="#666666"/>
<path d="M13.298 10.6113L13.1868 10.4446C12.0757 9.22239 10.5202 8.50017 8.85352 8.55572C7.18685 8.50017 5.57574 9.22239 4.46463 10.4446L4.35352 10.6113V14.8335C4.35352 15.3335 4.7424 15.7779 5.29796 15.7779H12.4091C12.9091 15.7779 13.3535 15.3335 13.3535 14.8335V10.6113H13.298ZM12.1868 14.6668H5.46463V11.0002C6.35352 10.1113 7.57574 9.66683 8.85352 9.66683C10.0757 9.61128 11.298 10.1113 12.1868 11.0002V14.6668Z" fill="#666666"/>
</svg>
