<svg width="50" height="50" viewBox="0 0 50 50" fill="none" xmlns="http://www.w3.org/2000/svg">
<g clip-path="url(#clip0_64_10571)">
<path d="M29.0104 49.9658C20.026 49.9658 11.0417 49.9658 2.05729 49.9658C2.03125 49.9398 2.01823 49.9137 1.99219 49.8877C1.19792 49.3669 1.15885 48.6507 1.92708 48.0908C3.97135 46.5934 6.1849 45.3825 8.54167 44.4971C9.57031 44.1064 9.92187 43.5856 9.79167 42.5309C9.6875 41.7367 9.77865 40.9294 9.77865 40.2393C8.63281 39.9528 7.57812 39.7054 6.53646 39.4059C6.23698 39.3148 6.02865 39.2887 5.74219 39.484C3.67187 40.8643 0.872396 39.8486 0.15625 37.4528C0.104167 37.2966 0.0520833 37.1533 0 36.9971C0 36.6064 0 36.2158 0 35.8252C0.221354 35.3174 0.416667 34.7835 0.690104 34.2887C0.833333 34.0413 0.885417 33.859 0.78125 33.5856C0.169271 32.0231 -0.0130208 30.3955 0.234375 28.7549C1.1849 22.1924 7.79948 18.3903 13.9974 20.8122C14.1146 20.8512 14.2318 20.8773 14.401 20.9294C14.401 20.695 14.401 20.5127 14.401 20.3434C14.401 19.1195 14.401 17.9085 14.401 16.6846C14.401 15.721 14.7396 15.3825 15.6771 15.3825C15.8984 15.3825 16.1328 15.3825 16.3542 15.3825C16.9141 15.3825 17.474 15.3825 18.0729 15.3825C18.0729 14.7445 18.0729 14.1715 18.0729 13.6117C18.0729 12.6872 18.4115 12.3486 19.3359 12.3486C21.3802 12.3486 23.4375 12.3486 25.4818 12.3486C26.5104 12.3486 26.8359 12.6611 26.8359 13.6768C26.8359 14.2367 26.8359 14.7965 26.8359 15.3825C27.6302 15.3825 28.3464 15.3825 29.0625 15.3825C30.2474 15.3825 30.4948 15.6429 30.4948 16.8018C30.4948 24.2236 30.4948 31.6455 30.4948 39.0674C30.4948 39.2757 30.4948 39.471 30.4948 39.7054C31.3672 39.6663 32.1615 39.6273 32.9948 39.5882C32.9948 39.3538 32.9948 39.1455 32.9948 38.9372C32.9948 27.7653 32.9948 16.5934 32.9948 5.40853C32.9948 4.34082 33.2943 4.04134 34.349 4.04134C39.1016 4.04134 43.8542 4.05436 48.6068 4.02832C49.2057 4.02832 49.6875 4.17155 50 4.7054C50 17.0882 50 29.471 50 41.8408C49.7005 42.3877 49.2578 42.596 48.6328 42.5049C44.5833 41.932 40.5208 41.6064 36.4323 41.5413C29.8047 41.4372 23.2422 42.0101 16.8099 43.7028C15.1042 44.1585 13.4245 44.7054 11.7318 45.2002C11.7318 45.9163 11.8099 46.6195 10.9896 46.8408C10.3255 47.0231 9.97396 46.5934 9.71354 46.0075C8.41146 46.6325 7.1224 47.2445 5.84635 47.8564C5.85938 47.8955 5.8724 47.9476 5.88542 47.9867C6.05469 47.9867 6.22396 47.9867 6.39323 47.9867C13.6979 47.9867 21.0026 47.9867 28.3073 47.9867C28.4896 47.9867 28.6719 47.9736 28.8411 47.9997C29.2708 48.0648 29.5573 48.3122 29.6615 48.7288C29.7526 49.1455 29.6354 49.4971 29.2708 49.7575C29.1927 49.8617 29.1016 49.9137 29.0104 49.9658ZM48.0208 33.9372C48.0208 24.6273 48.0208 15.3564 48.0208 6.05957C43.6589 6.05957 39.3229 6.05957 34.987 6.05957C34.987 15.3695 34.987 24.6533 34.987 33.9372C39.349 33.9372 43.6719 33.9372 48.0208 33.9372ZM11.7318 38.1169C12.5651 37.7783 13.3333 37.557 14.0234 37.1663C14.6745 36.8018 15.1693 36.7757 15.8073 37.2054C16.9271 37.9606 18.4375 37.8434 19.5182 37.0361C20.5729 36.2419 21.0417 34.8617 20.7031 33.5596C20.4557 32.596 19.8307 31.932 18.9844 31.4893C18.4375 31.2028 18.2161 30.7992 18.2422 30.1872C18.2682 29.7965 18.2292 29.4059 18.1641 29.0283C17.5781 25.6689 15.6771 23.3643 12.4089 22.3877C9.16667 21.4111 6.28906 22.2965 4.07552 24.8356C1.84896 27.4007 1.51042 30.3564 2.83854 33.4814C3.20312 34.3278 3.1901 34.5101 2.52604 35.1351C1.78385 35.8382 1.75781 36.958 2.47396 37.6611C3.17708 38.3512 4.27083 38.3382 4.97396 37.6351C5.61198 36.9841 5.80729 36.958 6.64062 37.3617C7.61719 37.8304 8.64583 38.1038 9.73958 38.1559C9.88281 36.8929 9.77865 35.7471 8.73698 34.8486C8.16406 34.3538 7.64323 33.7809 7.10937 33.234C6.95312 33.0778 6.8099 32.8825 6.74479 32.6742C6.6276 32.2445 6.75781 31.8669 7.14844 31.6195C7.53906 31.3721 7.98177 31.4111 8.35937 31.7497C8.8151 32.1794 9.24479 32.6221 9.79167 33.1559C9.79167 32.583 9.7526 32.1663 9.79167 31.7497C9.9349 30.2653 10.9115 29.3018 11.9792 28.4163C12.3437 28.1038 12.8906 28.221 13.2161 28.5726C13.5417 28.9242 13.5807 29.432 13.2552 29.8226C12.9688 30.1611 12.6042 30.4215 12.3568 30.7731C12.0964 31.1507 11.7708 31.5934 11.7578 32.0101C11.6927 33.9893 11.7318 35.9684 11.7318 38.1169ZM22.6042 35.8382C23.5417 35.8382 24.4401 35.8382 25.3255 35.8382C26.0286 35.8382 26.4714 36.2288 26.4583 36.8278C26.4453 37.4137 26.0286 37.7783 25.3385 37.7783C24.2057 37.7783 23.0599 37.7653 21.9271 37.7913C21.7187 37.7913 21.4583 37.9085 21.3021 38.0518C20.4818 38.846 19.5443 39.4059 18.4115 39.5492C17.7474 39.6273 17.0573 39.5622 16.3802 39.5622C16.3802 40.3044 16.3802 41.0335 16.3802 41.8148C20.3906 40.7992 24.4271 40.1742 28.5026 39.8486C28.5026 32.3226 28.5026 24.8617 28.5026 17.3486C27.6562 17.3486 26.849 17.3486 26.0417 17.3486C25.2214 17.3356 24.8828 17.0101 24.8828 16.1898C24.8828 15.5778 24.8828 14.9658 24.8828 14.3408C23.2292 14.3408 21.6536 14.3408 20.0781 14.3408C20.0521 14.4059 20.0391 14.432 20.0391 14.458C20.0391 15.0309 20.0391 15.5908 20.026 16.1637C20.026 17.0101 19.6875 17.3356 18.8411 17.3486C18.2943 17.3486 17.7344 17.3486 17.1875 17.3486C16.9141 17.3486 16.6536 17.3486 16.3542 17.3486C16.3542 18.9502 16.3542 20.4606 16.3672 21.971C16.3672 22.1012 16.4844 22.2575 16.5885 22.3747C17.3047 23.208 18.0208 24.0413 18.763 24.8617C18.8672 24.9788 19.0625 25.096 19.2188 25.096C19.8828 25.1221 20.5469 25.096 21.224 25.096C22.6432 25.096 24.0495 25.083 25.4688 25.096C26.1849 25.109 26.6406 25.695 26.4583 26.333C26.3151 26.7887 25.9505 27.0361 25.3646 27.0361C23.6849 27.0361 22.0182 27.0361 20.3385 27.0361C20.1693 27.0361 20 27.0361 19.8568 27.0361C19.987 27.8564 20.1302 28.6117 20.2344 29.3669C20.3125 30.0179 20.7682 30.4606 21.4323 30.4606C22.7865 30.4606 24.1276 30.4476 25.4818 30.4606C26.1719 30.4606 26.6406 31.0205 26.4974 31.6455C26.3932 32.1143 26.0026 32.4007 25.4427 32.4007C24.4661 32.4137 23.4896 32.4007 22.4479 32.4007C22.8385 33.5596 22.8646 34.6663 22.6042 35.8382ZM34.974 35.9294C34.974 37.1794 34.974 38.3773 34.974 39.471C39.349 39.7575 43.6849 40.0439 48.0078 40.3434C48.0078 38.9242 48.0078 37.4398 48.0078 35.9424C43.6589 35.9294 39.3359 35.9294 34.974 35.9294ZM11.7188 43.208C12.5911 42.9346 13.3984 42.6742 14.2187 42.4137C14.2839 42.3877 14.375 42.2835 14.375 42.2054C14.388 41.2288 14.388 40.2523 14.388 39.2887C13.5286 39.5231 12.7344 39.7314 11.9531 39.9658C11.862 39.9919 11.7448 40.1351 11.7318 40.2132C11.7187 41.1898 11.7188 42.1794 11.7188 43.208Z" fill="#C10037"/>
<path d="M37.0052 49.9657C36.7839 49.6663 36.4583 49.3928 36.3672 49.0673C36.224 48.4944 36.7708 48.0256 37.4609 48.0256C39.6094 48.0256 41.7448 48.0256 43.8932 48.0256C45.4818 48.0256 47.0703 48.0517 48.6719 48.0126C49.2708 47.9996 49.7135 48.1819 50 48.7027C50 49.1194 50 49.5491 50 49.9657C45.6771 49.9657 41.3411 49.9657 37.0052 49.9657Z" fill="#C10037"/>
<path d="M32.7083 49.9657C32.3307 49.7183 32.0051 49.4319 32.0442 48.9241C32.0702 48.4683 32.4348 48.0907 32.8775 48.0256C33.3072 47.9736 33.776 48.247 33.9322 48.6637C34.0885 49.0673 33.9452 49.51 33.5676 49.7834C33.4765 49.8486 33.3853 49.9137 33.2942 49.9657C33.0989 49.9657 32.9166 49.9657 32.7083 49.9657Z" fill="#C10037"/>
<path d="M14.5963 7.50483C15.3646 7.50483 16.0547 7.50483 16.7448 7.50483C17.1875 7.50483 17.6302 7.49181 18.0599 7.51785C18.6328 7.55692 18.9974 7.97358 18.9713 8.52046C18.9583 9.04129 18.5937 9.4189 18.0338 9.44494C17.4349 9.47098 16.8359 9.45796 16.2239 9.45796C12.9818 9.45796 9.75258 9.47098 6.5104 9.45796C4.60935 9.45796 3.17706 8.35119 2.77342 6.59338C2.2656 4.40588 3.97133 2.2314 6.22394 2.20536C6.58852 2.20536 6.8229 2.11421 7.07029 1.80171C8.61977 -0.0993323 11.3281 -0.502978 13.3594 0.851188C15.4036 2.21838 16.0416 4.90067 14.8437 7.04911C14.7786 7.17931 14.7135 7.30952 14.5963 7.50483ZM8.56769 7.50483C8.56769 7.47879 8.56769 7.45275 8.56769 7.42671C9.50519 7.42671 10.4687 7.5439 11.3932 7.40067C12.6432 7.20536 13.4896 6.02046 13.4896 4.75744C13.4896 3.4814 12.6432 2.38765 11.4062 2.08817C10.1432 1.77567 8.89321 2.34858 8.28123 3.49442C7.8906 4.2366 7.5781 4.40588 6.84894 4.21056C6.13279 4.01525 5.52081 4.1715 5.03904 4.7314C4.58331 5.26525 4.51821 5.89025 4.80467 6.51525C5.11717 7.19233 5.67706 7.49181 6.40623 7.49181C7.1354 7.50483 7.85154 7.50483 8.56769 7.50483Z" fill="#C10037"/>
<path d="M22.474 9.4449C21.9402 9.45792 21.4975 9.05428 21.4844 8.52042C21.4714 7.98657 21.8751 7.54386 22.4089 7.51782C22.9558 7.49178 23.4245 7.93448 23.4245 8.46834C23.4245 9.01521 23.0079 9.43188 22.474 9.4449Z" fill="#C10037"/>
<path d="M41.6145 17.3095C42.7734 17.3095 43.9192 17.3095 45.078 17.3095C45.9244 17.3095 46.276 17.6611 46.276 18.4814C46.276 19.5881 46.276 20.6949 46.276 21.7887C46.276 22.5569 45.8984 22.9345 45.1301 22.9345C42.7603 22.9475 40.3775 22.9475 38.0077 22.9345C37.2525 22.9345 36.901 22.5699 36.8879 21.8277C36.8749 20.6949 36.8749 19.5491 36.8879 18.4163C36.8879 17.6611 37.2395 17.3095 37.9947 17.3095C39.2056 17.2965 40.4166 17.3095 41.6145 17.3095ZM44.3098 19.2887C42.4739 19.2887 40.69 19.2887 38.8801 19.2887C38.8801 19.8616 38.8801 20.4085 38.8801 20.9684C40.703 20.9684 42.4999 20.9684 44.3098 20.9684C44.3098 20.3954 44.3098 19.8616 44.3098 19.2887Z" fill="#C10037"/>
<path d="M41.6016 25.4866C42.7865 25.4866 43.9714 25.4866 45.1693 25.4866C45.9115 25.4866 46.2891 25.8512 46.2891 26.5933C46.3021 27.7262 46.3021 28.872 46.2891 30.0048C46.2891 30.7209 45.9245 31.1116 45.2214 31.1116C42.7995 31.1246 40.3776 31.1246 37.9557 31.1116C37.2656 31.1116 36.9271 30.7209 36.9141 30.0308C36.901 28.872 36.901 27.7262 36.9141 26.5673C36.9141 25.8512 37.2786 25.4996 37.9948 25.4866C39.1927 25.4866 40.3906 25.4866 41.6016 25.4866ZM38.8672 29.1324C40.7161 29.1324 42.513 29.1324 44.2839 29.1324C44.2839 28.5465 44.2839 28.0126 44.2839 27.4788C42.4609 27.4788 40.6641 27.4788 38.8672 27.4788C38.8672 28.0517 38.8672 28.5725 38.8672 29.1324Z" fill="#C10037"/>
<path d="M41.6146 9.1325C42.7734 9.1325 43.9193 9.1325 45.0781 9.1325C45.9245 9.1325 46.276 9.48406 46.2891 10.3044C46.2891 11.4111 46.2891 12.5179 46.2891 13.6117C46.2891 14.3799 45.9115 14.7575 45.1562 14.7705C42.7865 14.7835 40.4036 14.7835 38.0339 14.7705C37.2786 14.7705 36.9141 14.3929 36.9141 13.6637C36.901 12.5049 36.901 11.3591 36.9141 10.2002C36.9141 9.49708 37.2917 9.1325 38.0078 9.1325C39.2057 9.11948 40.4036 9.1325 41.6146 9.1325ZM38.8672 12.7783C40.7161 12.7783 42.513 12.7783 44.2969 12.7783C44.2969 12.1924 44.2969 11.6455 44.2969 11.1117C42.4609 11.1117 40.6641 11.1117 38.8672 11.1117C38.8672 11.6846 38.8672 12.2184 38.8672 12.7783Z" fill="#C10037"/>
<path d="M22.4088 19.7184C23.3854 19.7184 24.3619 19.7184 25.3385 19.7184C26.0286 19.7184 26.4583 20.083 26.4713 20.6559C26.4843 21.2548 26.0546 21.6585 25.3385 21.6585C23.3724 21.6715 21.4062 21.6715 19.427 21.6585C18.7239 21.6585 18.2812 21.2418 18.2942 20.6559C18.3072 20.083 18.7369 19.7184 19.427 19.7184C20.4296 19.7184 21.4192 19.7184 22.4088 19.7184Z" fill="#C10037"/>
</g>
<defs>
<clipPath id="clip0_64_10571">
<rect width="50" height="49.9089" fill="white" transform="translate(0 0.0568848)"/>
</clipPath>
</defs>
</svg>
