<svg width="15" height="16" viewBox="0 0 15 16" fill="none" xmlns="http://www.w3.org/2000/svg">
<path d="M7.5 2.05371C4.05375 2.05371 1.25 4.85746 1.25 8.30371C1.25 11.75 4.05375 14.5537 7.5 14.5537C10.9462 14.5537 13.75 11.75 13.75 8.30371C13.75 4.85746 10.9462 2.05371 7.5 2.05371ZM7.5 13.3037C4.74313 13.3037 2.5 11.0606 2.5 8.30371C2.5 5.54684 4.74313 3.30371 7.5 3.30371C10.2569 3.30371 12.5 5.54684 12.5 8.30371C12.5 11.0606 10.2569 13.3037 7.5 13.3037Z" fill="#374B5C"/>
<path d="M5.625 6.42871H9.375V10.1787H5.625V6.42871Z" fill="#374B5C"/>
</svg>
