<svg width="143" height="51" viewBox="0 0 143 51" fill="none" xmlns="http://www.w3.org/2000/svg">
<path d="M56.3921 32.3452H64.8142V36.5985H52.0391V14.043H56.3921V32.3452Z" fill="white"/>
<path d="M81.8918 25.063C81.8918 25.4926 82.1652 25.847 82.7119 26.1263C83.2797 26.3841 83.9632 26.6204 84.7623 26.8352C85.5614 27.0285 86.3605 27.2863 87.1596 27.6085C87.9587 27.9093 88.6316 28.4248 89.1784 29.1552C89.7461 29.8856 90.03 30.7985 90.03 31.8941C90.03 33.5481 89.4202 34.8263 88.2005 35.7285C87.0019 36.6093 85.4983 37.0496 83.6898 37.0496C80.4513 37.0496 78.2433 35.7715 77.0656 33.2152L80.5985 31.1852C81.0612 32.5815 82.0916 33.2796 83.6898 33.2796C85.1408 33.2796 85.8663 32.8178 85.8663 31.8941C85.8663 31.4644 85.5824 31.1207 85.0146 30.863C84.4679 30.5837 83.7949 30.3367 82.9958 30.1218C82.1967 29.907 81.3976 29.6385 80.5985 29.3163C79.7994 28.9941 79.116 28.4893 78.5482 27.8019C78.0014 27.093 77.7281 26.2122 77.7281 25.1596C77.7281 23.57 78.2958 22.3241 79.4314 21.4219C80.588 20.4982 82.018 20.0363 83.7213 20.0363C85.0041 20.0363 86.1712 20.337 87.2227 20.9385C88.2741 21.5185 89.1048 22.3563 89.7146 23.4519L86.2448 25.3852C85.7401 24.2896 84.8989 23.7419 83.7213 23.7419C83.1956 23.7419 82.754 23.86 82.3965 24.0963C82.06 24.3326 81.8918 24.6548 81.8918 25.063Z" fill="white"/>
<path d="M102.783 24.483H99.219V31.1852C99.219 31.7437 99.3557 32.1518 99.6291 32.4096C99.9025 32.6674 100.302 32.8178 100.828 32.8607C101.353 32.8822 102.005 32.8715 102.783 32.8285V36.5985C99.9866 36.9207 98.0099 36.6522 96.8533 35.793C95.7177 34.9337 95.1499 33.3978 95.1499 31.1852V24.483H92.4057V20.4874H95.1499V17.233L99.219 15.9763V20.4874H102.783V24.483Z" fill="white"/>
<path d="M110.175 30.2507C110.722 32.27 112.204 33.2796 114.623 33.2796C116.179 33.2796 117.356 32.7426 118.156 31.6685L121.436 33.6018C119.88 35.9004 117.588 37.0496 114.56 37.0496C111.952 37.0496 109.86 36.2441 108.282 34.633C106.705 33.0219 105.917 30.9919 105.917 28.543C105.917 26.1156 106.695 24.0963 108.251 22.4852C109.807 20.8526 111.805 20.0363 114.244 20.0363C116.557 20.0363 118.46 20.8526 119.953 22.4852C121.468 24.1178 122.225 26.137 122.225 28.543C122.225 29.08 122.172 29.6493 122.067 30.2507H110.175ZM110.112 27.0285H118.156C117.924 25.933 117.441 25.1167 116.705 24.5796C115.99 24.0426 115.169 23.7741 114.244 23.7741C113.151 23.7741 112.246 24.0641 111.531 24.6441C110.816 25.2026 110.343 25.9974 110.112 27.0285Z" fill="white"/>
<path d="M129.957 30.2507C130.504 32.27 131.987 33.2796 134.405 33.2796C135.961 33.2796 137.139 32.7426 137.938 31.6685L141.219 33.6018C139.662 35.9004 137.37 37.0496 134.342 37.0496C131.734 37.0496 129.642 36.2441 128.065 34.633C126.488 33.0219 125.699 30.9919 125.699 28.543C125.699 26.1156 126.477 24.0963 128.033 22.4852C129.589 20.8526 131.587 20.0363 134.027 20.0363C136.34 20.0363 138.243 20.8526 139.736 22.4852C141.25 24.1178 142.007 26.137 142.007 28.543C142.007 29.08 141.955 29.6493 141.849 30.2507H129.957ZM129.894 27.0285H137.938C137.707 25.933 137.223 25.1167 136.487 24.5796C135.772 24.0426 134.952 23.7741 134.027 23.7741C132.933 23.7741 132.029 24.0641 131.314 24.6441C130.599 25.2026 130.126 25.9974 129.894 27.0285Z" fill="white"/>
<ellipse cx="71.2334" cy="15.9662" rx="2.64749" ry="2.7045" fill="white"/>
<ellipse cx="80.0283" cy="15.9662" rx="2.64749" ry="2.7045" fill="white" fill-opacity="0.6"/>
<ellipse cx="88.833" cy="15.9662" rx="2.64749" ry="2.7045" fill="white" fill-opacity="0.3"/>
<rect x="69.166" y="20.6992" width="4.13505" height="16.01" fill="white"/>
<path d="M15.2654 40.2854C20.2302 43.1792 26.3617 43.1792 31.3265 40.2854C31.675 40.0823 32.0221 39.8768 32.3679 39.6688C37.1501 36.7925 40.0798 31.6352 40.1343 26.0549C40.1401 25.4556 40.1401 24.8562 40.1343 24.2569C40.0798 18.6767 37.1502 13.5194 32.3681 10.6432C32.0223 10.4351 31.6751 10.2295 31.3265 10.0264C26.3617 7.13262 20.2302 7.13263 15.2654 10.0264C14.9169 10.2295 14.5697 10.435 14.224 10.643C9.44171 13.5193 6.512 18.6766 6.45756 24.2569C6.45171 24.8562 6.45171 25.4556 6.45756 26.0549C6.51202 31.6351 9.4416 36.7924 14.2237 39.6686C14.5696 39.8767 14.9168 40.0822 15.2654 40.2854Z" fill="#374B5C"/>
<mask id="mask0_1855_18064" style="mask-type:alpha" maskUnits="userSpaceOnUse" x="6" y="7" width="35" height="36">
<path d="M15.2906 40.3001C20.2419 43.1838 26.3499 43.1838 31.3012 40.3001C31.6562 40.0933 32.0099 39.884 32.3621 39.6722C37.1472 36.7947 40.0812 31.6268 40.1345 26.0331C40.1401 25.4483 40.1401 24.8634 40.1345 24.2786C40.0812 18.6851 37.1473 13.5172 32.3623 10.6397C32.01 10.4278 31.6563 10.2185 31.3012 10.0116C26.3499 7.12797 20.2419 7.12798 15.2906 10.0116C14.9356 10.2184 14.5819 10.4277 14.2297 10.6395C9.44461 13.517 6.51057 18.685 6.45732 24.2786C6.45175 24.8635 6.45175 25.4483 6.45732 26.0331C6.51059 31.6267 9.44451 36.7946 14.2295 39.6721C14.5818 39.8839 14.9355 40.0933 15.2906 40.3001Z" fill="white"/>
</mask>
<g mask="url(#mask0_1855_18064)">
<path d="M22.7371 47.2948L12.7212 29.8945L26.5597 17.0578L28.9241 18.5634L31.0347 15.9426L31.9928 16.0204L42.4102 36.5456L22.7371 47.2948Z" fill="#233B4F"/>
</g>
<path d="M14.8601 29.8304L13.6799 30.2692C13.2596 30.4255 12.793 30.2033 12.6401 29.7739L12.1915 28.5151C12.0386 28.0857 12.2561 27.6092 12.6764 27.4529L13.8566 27.0141C14.0673 26.9357 14.2999 27.0465 14.3766 27.2617L15.1026 29.2993C15.1793 29.5146 15.0708 29.7521 14.8601 29.8304Z" fill="white"/>
<path d="M19.5682 34.1796L19.0438 34.3746C18.4133 34.609 17.7137 34.2758 17.4841 33.6316L16.2774 30.2448C16.2007 30.0296 16.3091 29.7921 16.5198 29.7137L18.5689 28.9519C18.7796 28.8736 19.0121 28.9843 19.0888 29.1996L20.2955 32.5864C20.525 33.2305 20.1988 33.9452 19.5682 34.1796Z" fill="white"/>
<path d="M20.3519 29.1706L16.0599 30.7663C15.4293 31.0008 14.7297 30.6675 14.5002 30.0234L13.4592 27.1017C13.2297 26.4576 13.5559 25.7429 14.1865 25.5084L18.4785 23.9127C18.6892 23.8343 18.9217 23.9451 18.9984 24.1603L20.5944 28.6395C20.6711 28.8548 20.5626 29.0922 20.3519 29.1706Z" fill="#C10037"/>
<path d="M14.2227 26.8191C14.1462 26.6042 14.2549 26.3661 14.4652 26.288L18.376 24.834L19.6945 28.5344L15.7837 29.9884C15.5734 30.0666 15.3403 29.9556 15.2637 29.7407L14.2227 26.8191Z" fill="#C10037"/>
<path d="M29.9003 30.7715C29.7008 30.8457 29.4847 30.8744 29.2651 30.851C29.255 30.8499 29.2452 30.8484 29.2355 30.847L20.1389 29.1905C19.9964 29.1647 19.8785 29.063 19.8291 28.9243L18.2331 24.4452C18.1837 24.3063 18.21 24.151 18.3029 24.0378L24.229 16.7959C24.594 16.4104 25.0876 16.2576 25.5703 16.3631C26.0534 16.4685 26.4428 16.8147 26.6119 17.2893L30.7506 28.9048C30.9197 29.3794 30.8392 29.9001 30.5355 30.2982C30.3672 30.5181 30.1467 30.6799 29.9003 30.7715Z" fill="white"/>
<rect width="4.53029" height="1.50342" rx="0.751711" transform="matrix(0.637508 -0.776093 0.755964 0.647973 28.375 18.8984)" fill="white"/>
<rect width="4.51889" height="1.50716" rx="0.75358" transform="matrix(0.934324 -0.34738 0.336683 0.944926 29.541 21.9727)" fill="white"/>
<rect width="4.53029" height="1.50342" rx="0.75171" transform="matrix(0.976718 0.175926 -0.171363 0.992752 31.3457 25.0273)" fill="white"/>
</svg>
