<svg width="91" height="119" viewBox="0 0 91 119" fill="none" xmlns="http://www.w3.org/2000/svg">
<path d="M79.6105 13.7502C82.4654 15.73 88.8945 20.1404 89.1892 20.4584C89.4336 20.7224 89.4255 20.8024 89.1157 20.9993C88.5978 21.3283 88.0212 21.529 87.4771 21.8007C80.5259 25.2722 73.5744 28.7427 66.6223 32.2124C66.4234 32.3117 66.2246 32.4183 66.0149 32.4851C65.6721 32.5946 65.4337 32.4351 65.3849 32.0699C65.3603 31.8854 65.3753 31.6942 65.3793 31.5062C65.4327 29.0214 65.4792 26.5369 65.5502 24.0529C65.5606 23.6915 65.4566 23.4642 65.186 23.2427C63.9112 22.2004 62.6515 21.1384 61.3882 20.0815C61.2464 19.9629 61.1065 19.8398 60.9797 19.7049C60.4776 19.1703 60.6294 18.6533 61.3436 18.4591C61.4678 18.4254 61.5959 18.4008 61.7238 18.3879C63.3029 18.2295 64.8545 17.8793 66.4243 17.6572C66.6583 17.624 66.8138 17.5401 66.954 17.326C68.3512 15.1911 69.7626 13.0656 71.1711 10.9382C71.5128 10.422 71.8457 9.89903 72.2078 9.39825C72.4919 9.00542 72.7156 8.97952 72.9814 9.14989C75.2692 10.7374 77.4396 12.2446 79.6105 13.7502ZM66.4882 24.2265C66.4348 26.5022 66.3876 28.7784 66.3395 31.0543C66.3386 31.1053 66.3527 31.1562 66.3677 31.2658C72.6386 28.1358 78.8852 25.0181 85.14 21.8961C85.0401 21.7143 84.8993 21.8082 84.7921 21.8197C78.8599 22.4584 72.928 23.1018 66.9964 23.7462C66.5132 23.7988 66.498 23.8081 66.4882 24.2265ZM63.2478 19.8162C63.0508 19.8069 62.8503 19.7641 62.5854 19.8487C63.2408 20.3899 63.8532 20.8944 64.4642 21.401C64.9482 21.8022 65.4459 22.188 65.9074 22.615C66.1528 22.8418 66.3797 22.8645 66.6942 22.813C67.3842 22.7002 68.0836 22.6496 68.7793 22.5741C73.7221 22.0375 78.6648 21.5011 83.6074 20.9647C83.8386 21.0078 84.06 20.9752 84.36 20.8604C84.047 20.7494 83.8101 20.7366 83.5655 20.7968C79.326 20.5907 75.0865 20.384 70.8468 20.1787C68.3139 20.0561 65.7809 19.9355 63.2478 19.8162ZM66.52 18.6188C65.613 18.7731 64.7067 18.9336 63.8002 19.0923C63.5725 19.0669 63.3567 19.1129 63.0592 19.2196C63.3748 19.3295 63.6121 19.3283 63.8537 19.2843C66.358 19.4094 68.8621 19.5368 71.3666 19.6586C72.4632 19.7117 73.5604 19.7535 74.6573 19.8004C75.4637 19.9304 76.2814 19.8933 77.0923 19.9534C77.164 19.9588 77.2358 19.9661 77.3073 19.9726C77.2978 19.9284 77.2883 19.8842 77.2788 19.84C76.3584 19.7458 75.4436 19.5917 74.5153 19.5802C72.2892 19.345 66.6433 18.5978 66.52 18.6188ZM72.5821 10.5524C71.49 12.1931 70.4033 13.8372 69.3152 15.4804C68.9109 16.0909 68.5078 16.702 68.105 17.3133C67.994 17.4819 67.846 17.63 67.8053 17.8934C74.0247 18.5367 80.2365 19.179 86.4996 19.8271C86.4396 19.6288 86.3106 19.5705 86.2014 19.4951C83.9817 17.9613 81.7597 16.4306 79.5427 14.8927C77.4168 13.4176 75.2958 11.9354 73.1735 10.4552C72.8231 10.2107 72.8156 10.2013 72.5821 10.5524Z" fill="white"/>
<path d="M26.9651 28.2865C26.6324 28.6461 26.3097 29.0169 26.0055 29.3886C25.8098 29.628 25.8394 29.9831 26.0721 30.1819C26.3043 30.3805 26.6497 30.3462 26.8477 30.1083C27.1373 29.7543 27.4449 29.4007 27.7621 29.058L27.877 28.9345C27.8778 28.9339 27.8784 28.9329 27.8792 28.9322C28.0881 28.7063 28.0808 28.3515 27.8628 28.1379C27.6438 27.9235 27.2953 27.9326 27.0845 28.1582L26.9651 28.2865ZM29.4037 25.9749C29.2158 26.1782 29.1987 26.4963 29.3749 26.7179C29.5662 26.9584 29.9127 26.9931 30.1489 26.7956C30.5424 26.467 30.9547 26.141 31.3746 25.8266C31.6215 25.6428 31.676 25.2895 31.4975 25.0389C31.3194 24.7882 30.9754 24.7345 30.7291 24.9187C30.2931 25.245 29.8651 25.5834 29.4566 25.9247C29.4377 25.9406 29.4201 25.9574 29.4037 25.9749ZM24.193 31.9863C24.1661 32.0153 24.1415 32.0479 24.1206 32.0836C23.8349 32.5669 23.5698 33.0531 23.332 33.5281C23.1931 33.8058 23.2996 34.1448 23.5699 34.2849C23.8402 34.4251 24.1719 34.3137 24.3112 34.036C24.5369 33.5848 24.7894 33.1219 25.0616 32.6612C25.2193 32.3942 25.1367 32.0481 24.8768 31.8886C24.6518 31.7505 24.3674 31.7976 24.193 31.9863ZM33.2904 23.214C33.1256 23.3921 33.0873 23.666 33.2135 23.8867C33.3666 24.1545 33.7039 24.2429 33.9663 24.0839C34.4062 23.8183 34.8621 23.5571 35.3211 23.3075C35.591 23.1615 35.6945 22.82 35.5532 22.5452C35.4123 22.2707 35.0794 22.1667 34.8101 22.3132C34.3364 22.5707 33.8661 22.8405 33.412 23.115C33.3659 23.1426 33.3255 23.1762 33.2904 23.214ZM22.2392 36.3831C22.1806 36.4466 22.1355 36.5243 22.1097 36.6136C21.9517 37.1655 21.8282 37.7168 21.7433 38.2524C21.6944 38.5599 21.8981 38.8479 22.1981 38.8957C22.4983 38.9432 22.7814 38.7331 22.8299 38.4253C22.9076 37.9359 23.0207 37.4303 23.166 36.9235C23.2516 36.6244 23.0846 36.3125 22.7929 36.227C22.5883 36.1668 22.3766 36.2343 22.2392 36.3831ZM37.5137 21.0353C37.3671 21.1937 37.3168 21.4308 37.4043 21.643C37.5215 21.9289 37.8442 22.0619 38.1246 21.9395C38.5968 21.7334 39.0816 21.5338 39.5657 21.3461C39.8495 21.2365 39.9958 20.9108 39.8899 20.6192C39.7841 20.3287 39.4673 20.1821 39.1821 20.2927C38.6842 20.4856 38.1853 20.6911 37.699 20.9033C37.6266 20.9348 37.5645 20.9805 37.5137 21.0353ZM16.264 44.5336C16.0457 44.7694 15.8305 45.0084 15.6188 45.2505C15.4151 45.4829 15.4332 45.8389 15.659 46.0459C15.8846 46.2526 16.2322 46.2319 16.4362 45.9988C16.7816 45.6049 17.1356 45.2185 17.4992 44.8402C17.5017 44.8376 17.5041 44.8349 17.5064 44.8323C17.713 44.6091 17.7088 44.2582 17.4952 44.0436C17.279 43.8261 16.9305 43.8306 16.7165 44.0533C16.5642 44.2123 16.4132 44.3723 16.264 44.5336ZM19.0248 41.8679C18.8346 42.0735 18.82 42.3961 19.0006 42.6167C19.1952 42.8544 19.5423 42.8845 19.7759 42.6834C20.1496 42.3623 20.5324 42.0484 20.9134 41.7504L20.9859 41.694C21.2309 41.5038 21.2793 41.1524 21.0974 40.9045C20.9153 40.6567 20.5704 40.6081 20.3269 40.7961L20.2471 40.8582C19.8542 41.1654 19.4582 41.4906 19.0716 41.8228C19.055 41.837 19.0395 41.8523 19.0248 41.8679ZM13.6311 47.7376C13.6162 47.7539 13.6021 47.7709 13.5887 47.789C13.2718 48.2238 12.9586 48.6728 12.6586 49.1245C12.487 49.3828 12.5513 49.733 12.8023 49.9067C13.0534 50.0805 13.3964 50.012 13.5673 49.754C13.8584 49.3158 14.1618 48.8804 14.4693 48.4592C14.6518 48.209 14.6026 47.8561 14.3595 47.6711C14.1341 47.4996 13.8209 47.5327 13.6311 47.7376ZM11.053 51.7977C11.0222 51.8309 10.9948 51.8684 10.9718 51.91C10.7111 52.3844 10.4566 52.8702 10.2159 53.3542C10.0778 53.6324 10.185 53.971 10.4557 54.1104C10.7263 54.2498 11.0573 54.1381 11.1963 53.8597C11.4302 53.3897 11.6769 52.9178 11.9304 52.4577C12.0799 52.1855 11.9866 51.8426 11.722 51.6913C11.4977 51.5631 11.2228 51.6137 11.053 51.7977ZM22.9022 39.1019C22.7444 39.2725 22.701 39.5329 22.8123 39.7513C22.9525 40.0264 23.285 40.1312 23.5548 39.9857C24.0184 39.7353 24.4801 39.5213 24.9268 39.3489C25.212 39.2385 25.3579 38.9141 25.2527 38.6231C25.1474 38.332 24.8309 38.1849 24.5458 38.2948C24.0556 38.4835 23.5512 38.7174 23.0465 38.9896C22.9914 39.0197 22.943 39.0577 22.9022 39.1019ZM41.9679 19.4132C41.838 19.5535 41.7814 19.7577 41.836 19.956C41.9184 20.2549 42.2224 20.427 42.5151 20.3405C43.0106 20.1939 43.516 20.056 44.0168 19.93C44.3124 19.856 44.495 19.5503 44.4248 19.2481C44.354 18.9459 44.0571 18.7615 43.7613 18.8356C43.2462 18.9653 42.7265 19.1077 42.2164 19.2584C42.1183 19.287 42.0335 19.3421 41.9679 19.4132ZM21.8539 41.1581C21.7391 41.2821 21.68 41.4571 21.7086 41.638C21.7972 42.1985 21.9386 42.7551 22.1292 43.2927C22.2324 43.5844 22.5479 43.7335 22.8339 43.6256C23.1202 43.5176 23.2678 43.1935 23.1643 42.9015C22.9973 42.4299 22.873 41.9416 22.7953 41.4502C22.7471 41.1434 22.4644 40.9368 22.164 40.9887C22.0412 41.0098 21.9337 41.0717 21.8539 41.1581ZM8.99382 56.1553C8.94775 56.2049 8.90983 56.2638 8.88303 56.3305C8.68154 56.8346 8.48781 57.3484 8.30717 57.8571C8.20311 58.1504 8.35054 58.4727 8.63603 58.5768C8.92186 58.681 9.23766 58.5278 9.34164 58.235C9.51707 57.7402 9.70548 57.2411 9.90152 56.7513C10.0169 56.4626 9.88248 56.1344 9.60138 56.0183C9.38547 55.929 9.14572 55.991 8.99382 56.1553ZM27.4126 37.8281C27.3196 37.9286 27.2618 38.0641 27.2607 38.2129C27.2581 38.5241 27.5022 38.7767 27.8063 38.777L27.9356 38.7785C28.3592 38.7872 28.7907 38.8506 29.2191 38.9675C29.5125 39.0473 29.8149 38.8681 29.8951 38.5675C29.9755 38.2669 29.8027 37.9583 29.5095 37.8782C28.9963 37.7385 28.4771 37.6624 27.9666 37.652L27.8158 37.6505C27.6573 37.6502 27.5139 37.7186 27.4126 37.8281ZM46.5784 18.3567C46.465 18.4792 46.4059 18.6521 46.4327 18.8314C46.4781 19.1386 46.7589 19.348 47.0595 19.2988C47.5707 19.2158 48.0873 19.143 48.5953 19.0833C48.8975 19.0484 49.1163 18.7686 49.0835 18.4595C49.0511 18.1504 48.7797 17.9285 48.4774 17.9641C47.9536 18.0256 47.4209 18.1003 46.894 18.1866C46.7686 18.2067 46.6597 18.2689 46.5784 18.3567ZM7.47232 60.7345C7.41146 60.8002 7.36511 60.8818 7.34009 60.9749C7.21076 61.4591 7.08851 61.9529 6.97707 62.4431L6.95647 62.5331L7.48668 62.6836L8.02273 62.8071L7.48668 62.6836L8.0288 62.7809L8.04965 62.6882C8.1576 62.2151 8.2762 61.7351 8.40187 61.2648C8.48227 60.964 8.30949 60.6554 8.01635 60.5755C7.81406 60.5202 7.60725 60.5883 7.47232 60.7345ZM23.8521 45.4447C23.6539 45.659 23.6485 45.996 23.8457 46.2142C23.9581 46.3384 24.0745 46.459 24.1943 46.575C24.4896 46.8609 24.8054 47.1181 25.1329 47.34C25.3857 47.5114 25.728 47.4387 25.8966 47.1797C26.0659 46.9197 25.9979 46.5703 25.7452 46.3991C25.4696 46.2124 25.2035 45.9953 24.9537 45.7536C24.8514 45.6547 24.7521 45.5518 24.6562 45.4457C24.4505 45.2179 24.1022 45.2056 23.8784 45.418C23.8693 45.4264 23.8605 45.4354 23.8521 45.4447ZM6.51025 65.4655C6.43402 65.5478 6.38114 65.6542 6.36408 65.7746C6.28875 66.3117 6.2232 66.8565 6.16958 67.3938C6.13845 67.7035 6.35862 67.9785 6.66101 68.008C6.96377 68.0373 7.23381 67.8097 7.26455 67.5003C7.31687 66.9782 7.38042 66.4488 7.45373 65.9271C7.49697 65.6187 7.28826 65.3348 6.98727 65.2927C6.80423 65.267 6.62891 65.3373 6.51025 65.4655ZM51.2774 17.918C51.1815 18.0216 51.1232 18.1619 51.125 18.3154C51.1293 18.6265 51.3789 18.8734 51.683 18.8672C52.2041 18.8561 52.7235 18.8588 53.2275 18.8745C53.531 18.884 53.7868 18.64 53.7985 18.3289C53.8103 18.0182 53.5733 17.7581 53.2694 17.7484C52.7471 17.7318 52.2082 17.7289 51.6684 17.7403C51.5144 17.7437 51.3758 17.8116 51.2774 17.918ZM31.6733 39.5891C31.4661 39.8131 31.4714 40.1656 31.6865 40.3799C32.0341 40.7262 32.3155 41.1078 32.5218 41.514C32.6617 41.7892 32.9939 41.8944 33.2638 41.7493C33.5337 41.6029 33.6393 41.2629 33.4992 40.9878C33.2389 40.4763 32.8885 39.999 32.4572 39.5695C32.2404 39.3533 31.8918 39.3594 31.6789 39.5831C31.6771 39.5848 31.6752 39.5869 31.6733 39.5891ZM6.12657 70.2736C6.03495 70.3727 5.97753 70.5053 5.97458 70.6521C5.96412 71.1946 5.96387 71.743 5.97427 72.2822C5.98021 72.5934 6.23143 72.8388 6.5355 72.8305C6.83923 72.8221 7.08059 72.5628 7.07507 72.2522C7.06498 71.7278 7.06504 71.1941 7.07561 70.6665C7.08146 70.3554 6.84014 70.1001 6.53623 70.0962C6.37563 70.0937 6.22962 70.1625 6.12657 70.2736ZM27.9935 47.4228C27.8984 47.5257 27.8404 47.6646 27.8416 47.8168C27.8436 48.128 28.0921 48.3766 28.3959 48.3719C28.9647 48.3634 29.5392 48.2654 30.1034 48.0808C30.3937 47.9857 30.5554 47.6682 30.4646 47.3723C30.3738 47.0759 30.0652 46.9128 29.7751 47.0077C29.3146 47.1585 28.8478 47.2384 28.388 47.2452C28.2328 47.2477 28.0927 47.3157 27.9935 47.4228ZM55.9803 18.2063C55.9054 18.2872 55.8531 18.3912 55.8352 18.5092C55.7884 18.8172 55.9946 19.1035 56.2947 19.1487C56.8083 19.2266 57.316 19.3207 57.8041 19.4288C58.1011 19.4948 58.3954 19.3014 58.4617 18.9975C58.5283 18.693 58.3415 18.3933 58.045 18.3276C57.5329 18.214 57.0007 18.1154 56.4635 18.0343C56.2782 18.0063 56.1004 18.0765 55.9803 18.2063ZM32.8893 43.9832C32.8346 44.0425 32.7915 44.1141 32.765 44.1964C32.627 44.6267 32.4035 45.0379 32.1007 45.4182C31.9079 45.6604 31.9423 46.015 32.1772 46.2106C32.4124 46.4061 32.7591 46.3666 32.9521 46.1262C33.3411 45.6372 33.63 45.1039 33.8109 44.5412C33.906 44.2448 33.7489 43.9275 33.4602 43.8325C33.2514 43.7637 33.0314 43.8297 32.8893 43.9832ZM6.31367 75.0912C6.20668 75.2068 6.14755 75.3675 6.16398 75.5374C6.21685 76.0785 6.28052 76.6229 6.35318 77.1555C6.39509 77.463 6.67348 77.6762 6.97445 77.6311C7.27542 77.586 7.48565 77.2998 7.44368 76.9915C7.37289 76.4736 7.31108 75.9439 7.25959 75.4172C7.22924 75.1079 6.95968 74.884 6.65712 74.9171C6.5207 74.9322 6.40119 74.9966 6.31367 75.0912ZM7.05427 79.8512C6.93214 79.9831 6.87383 80.1719 6.91443 80.3616C7.02725 80.8877 7.1519 81.4204 7.28529 81.9451C7.3616 82.2458 7.66204 82.4244 7.95625 82.3441C8.2501 82.2639 8.42718 81.9552 8.35073 81.6542C8.22119 81.1435 8.09987 80.6248 7.99019 80.1128C7.92492 79.8093 7.63158 79.6189 7.33468 79.6878C7.22328 79.7137 7.12725 79.7722 7.05427 79.8512ZM8.32274 84.4896C8.18562 84.6378 8.1313 84.8564 8.19995 85.0619C8.37176 85.5747 8.5543 86.0891 8.74272 86.5907C8.85153 86.8802 9.16977 87.023 9.45365 86.9096C9.73823 86.7961 9.87924 86.4692 9.77063 86.1795C9.58722 85.6909 9.40921 85.1895 9.24158 84.6896C9.14319 84.3956 8.83035 84.241 8.5428 84.3438C8.45646 84.3747 8.38194 84.4257 8.32274 84.4896ZM10.0922 88.9503C9.93977 89.1151 9.89279 89.364 9.99264 89.5801C10.2189 90.0701 10.456 90.5602 10.6975 91.037C10.8369 91.3123 11.1691 91.4183 11.4391 91.2735C11.7095 91.1289 11.8151 90.7878 11.6757 90.5125C11.4404 90.0479 11.2093 89.5703 10.9883 89.0923C10.8588 88.8118 10.5308 88.6935 10.2558 88.8285C10.1924 88.8594 10.1379 88.9012 10.0922 88.9503ZM12.3326 93.1818C12.1645 93.3636 12.1286 93.6438 12.2622 93.8655C12.5391 94.3255 12.8276 94.7855 13.1194 95.2327C13.2877 95.4907 13.6292 95.5586 13.8825 95.3845C14.1362 95.2086 14.2046 94.8601 14.0363 94.6023C13.7518 94.1663 13.4704 93.7178 13.2003 93.2693C13.0414 93.0052 12.7026 92.9246 12.4435 93.0894C12.402 93.1158 12.3651 93.147 12.3326 93.1818ZM15.0147 97.1315C14.8298 97.3314 14.8097 97.6438 14.9791 97.8655C15.3044 98.2918 15.6409 98.7165 15.9792 99.1274C16.1744 99.3645 16.5216 99.3932 16.7548 99.1917C16.9856 98.9869 17.0184 98.6347 16.8231 98.3974C16.4934 97.9971 16.1655 97.5834 15.8484 97.168C15.6619 96.9235 15.3162 96.8817 15.076 97.0744C15.0538 97.092 15.0337 97.1116 15.0147 97.1315ZM18.1102 100.75C17.9068 100.97 17.9072 101.315 18.1145 101.532C18.4825 101.916 18.8632 102.299 19.246 102.67C19.4662 102.883 19.8148 102.872 20.0245 102.645C20.2342 102.418 20.2264 102.062 20.0063 101.849L20.0058 101.849C19.6328 101.488 19.2618 101.115 18.9031 100.74C18.6912 100.518 18.3427 100.516 18.1248 100.735C18.1198 100.74 18.1148 100.745 18.1102 100.75ZM21.5854 103.987C21.5755 103.997 21.5663 104.008 21.5571 104.02C21.3648 104.262 21.3997 104.617 21.635 104.812C22.0463 105.153 22.4679 105.489 22.888 105.811C23.1304 105.997 23.4767 105.945 23.6588 105.695C23.8422 105.446 23.7942 105.093 23.5515 104.907C23.1428 104.594 22.7322 104.266 22.3316 103.934C22.1073 103.749 21.7819 103.774 21.5854 103.987ZM25.403 106.792C25.3786 106.819 25.3566 106.847 25.3371 106.879C25.1734 107.142 25.2482 107.49 25.5042 107.656C25.9526 107.945 26.4101 108.229 26.8641 108.497C27.1259 108.653 27.4642 108.56 27.617 108.29C27.7708 108.021 27.6827 107.676 27.4201 107.521C26.9787 107.259 26.5335 106.984 26.0975 106.702C25.8715 106.556 25.5807 106.6 25.403 106.792ZM29.5183 109.118C29.4796 109.159 29.4464 109.208 29.4209 109.262C29.2886 109.543 29.4035 109.879 29.677 110.013C30.1489 110.242 30.6362 110.468 31.1252 110.684C31.4039 110.807 31.7291 110.675 31.8502 110.388C31.9722 110.102 31.8454 109.771 31.5669 109.648C31.0903 109.438 30.6157 109.218 30.1561 108.994C29.9356 108.887 29.6788 108.944 29.5183 109.118ZM33.8741 110.941C33.8221 110.997 33.7805 111.065 33.7538 111.143C33.6525 111.437 33.8026 111.758 34.0891 111.859C34.5868 112.036 35.0954 112.206 35.6008 112.364C35.8907 112.455 36.1998 112.288 36.2907 111.99C36.3817 111.692 36.2203 111.377 35.93 111.287C35.4374 111.132 34.9416 110.967 34.4565 110.794C34.2454 110.72 34.0192 110.785 33.8741 110.941ZM38.4015 112.266C38.3357 112.337 38.2874 112.426 38.2643 112.528C38.1952 112.832 38.3792 113.133 38.6753 113.201C39.1969 113.322 39.7222 113.432 40.2366 113.529C40.5354 113.586 40.8239 113.383 40.8809 113.077C40.9382 112.771 40.7426 112.477 40.4439 112.421C39.9437 112.327 39.4327 112.219 38.9253 112.102C38.7285 112.056 38.5314 112.126 38.4015 112.266ZM43.0539 113.04C42.9727 113.128 42.9184 113.242 42.905 113.371C42.8737 113.681 43.0933 113.956 43.3956 113.986C43.9303 114.039 44.4661 114.08 44.9879 114.106C45.2914 114.122 45.5516 113.883 45.5689 113.572C45.5863 113.261 45.3543 112.996 45.0507 112.981C44.5457 112.955 44.0274 112.916 43.5097 112.865C43.3333 112.847 43.1675 112.917 43.0539 113.04ZM47.7633 113.153C47.663 113.261 47.6042 113.41 47.6119 113.57C47.6264 113.88 47.8845 114.118 48.1882 114.101C48.7282 114.07 49.2666 114.024 49.7886 113.962C50.0908 113.927 50.3097 113.647 50.2768 113.338C50.2444 113.029 49.9728 112.807 49.6705 112.843C49.1702 112.902 48.6536 112.946 48.1352 112.976C47.9883 112.985 47.8573 113.051 47.7633 113.153ZM52.4274 112.441C52.302 112.576 52.2443 112.772 52.291 112.966C52.3639 113.267 52.6623 113.449 52.9575 113.373C53.4841 113.236 54.0054 113.079 54.5066 112.907C54.7953 112.808 54.9526 112.488 54.8579 112.193C54.763 111.898 54.452 111.74 54.1631 111.839C53.6881 112.002 53.1937 112.151 52.6936 112.281C52.5881 112.308 52.4973 112.365 52.4274 112.441Z" fill="white"/>
</svg>
