<svg width="18" height="18" viewBox="0 0 18 18" fill="none" xmlns="http://www.w3.org/2000/svg">
<path d="M13.1465 15.7041L13.1454 15.7051C13.0518 15.7993 12.9403 15.8739 12.8176 15.9245C12.6961 15.9747 12.5659 16.0004 12.4345 16.0001C9.68292 15.9339 7.05702 14.8349 5.07864 12.9215C3.16524 10.9431 2.06619 8.31723 2 5.56566C1.99978 5.43424 2.02546 5.30405 2.07559 5.18254C2.12624 5.05978 2.20083 4.94834 2.29502 4.85472L2.29502 4.85473L2.29738 4.85235L4.32089 2.81386C4.36764 2.76783 4.43063 2.74201 4.49627 2.74201C4.56215 2.74201 4.62535 2.76801 4.67215 2.81434C4.67228 2.81446 4.6724 2.81459 4.67252 2.81471L7.67042 5.81261C7.67054 5.81273 7.67066 5.81285 7.67078 5.81297C7.71712 5.85977 7.74312 5.92298 7.74312 5.98886C7.74312 6.0549 7.71698 6.11827 7.67042 6.16511L7.67036 6.16516L6.47786 7.36516L6.27491 7.56939L6.34968 7.84744C6.59243 8.75021 7.03571 9.58659 7.64651 10.2943L7.67017 10.3217L7.69754 10.3454C8.40464 10.9583 9.24204 11.4022 10.1462 11.6432L10.4237 11.7172L10.6275 11.5148L11.8275 10.3223L11.8275 10.3222C11.8744 10.2756 11.9377 10.2495 12.0038 10.2495C12.0696 10.2495 12.1328 10.2755 12.1796 10.3218C12.1797 10.3219 12.1799 10.3221 12.18 10.3222L15.1779 13.3201C15.1781 13.3203 15.1782 13.3204 15.1784 13.3206C15.2247 13.3674 15.2506 13.4305 15.2506 13.4964C15.2506 13.5622 15.2247 13.6254 15.1784 13.6722C15.1782 13.6723 15.1781 13.6725 15.1779 13.6726L13.1465 15.7041ZM4.85358 3.70405L4.50003 3.3505L4.14647 3.70405L2.64647 5.20405L2.49466 5.35587L2.50019 5.57049C2.56762 8.18636 3.61307 10.682 5.43025 12.5648L5.4366 12.5714L5.44319 12.5778C7.32529 14.3902 9.81759 15.4327 12.4297 15.4999L12.6443 15.5055L12.7961 15.3537L14.2961 13.8537L14.6496 13.5001L14.2961 13.1466L12.3536 11.2041L11.9959 10.8464L11.6424 11.2081L10.678 12.195C10.649 12.2233 10.6135 12.2441 10.5746 12.2556L10.7168 12.735L10.5746 12.2556C10.5357 12.2672 10.4945 12.2691 10.4547 12.2612C9.29567 12.0024 8.22079 11.4554 7.32944 10.6711C6.54767 9.78081 6.00138 8.70876 5.74063 7.55283C5.73467 7.51393 5.73798 7.47414 5.75032 7.4367C5.76342 7.39695 5.7863 7.36113 5.81684 7.33252L5.8228 7.32693L5.82858 7.32116L6.79608 6.35366L7.14963 6.00011L6.79608 5.64655L4.85358 3.70405ZM15.9912 7.75011H15.4936C15.4593 7.16122 15.3317 6.58039 15.1146 6.02956C14.8342 5.31791 14.4103 4.67156 13.8694 4.13068C13.3286 3.58981 12.6822 3.16596 11.9706 2.8855C11.4197 2.66842 10.8389 2.54083 10.25 2.50652V2.00891C10.9078 2.04732 11.5562 2.19199 12.1697 2.43829C12.9348 2.74548 13.6298 3.20439 14.2127 3.78738C14.7957 4.37037 15.2546 5.06535 15.5618 5.83046C15.8081 6.44393 15.9528 7.0923 15.9912 7.75011Z" fill="#C10037" stroke="#C10037"/>
<path d="M10.25 5.52348V5.02211C11.1088 5.10109 11.7421 5.38799 12.1771 5.82293C12.612 6.25787 12.8989 6.89119 12.9779 7.75H12.4765C12.4137 7.11985 12.2187 6.58032 11.8192 6.18082C11.4197 5.78132 10.8802 5.58631 10.25 5.52348Z" fill="#C10037" stroke="#C10037"/>
</svg>
