<svg width="19" height="20" viewBox="0 0 19 20" fill="none" xmlns="http://www.w3.org/2000/svg">
<path d="M3.5 13C4.41 13 5.233 12.642 5.857 12.07L12.117 15.647C12.048 15.922 12 16.204 12 16.5C12 18.43 13.57 20 15.5 20C17.43 20 19 18.43 19 16.5C19 14.57 17.43 13 15.5 13C14.59 13 13.767 13.358 13.143 13.93L6.883 10.353C6.946 10.106 6.986 9.851 6.991 9.585L13.142 6.07C13.767 6.642 14.59 7 15.5 7C17.43 7 19 5.43 19 3.5C19 1.57 17.43 0 15.5 0C13.57 0 12 1.57 12 3.5C12 3.796 12.048 4.078 12.117 4.353L6.433 7.602C5.808 6.64 4.729 6 3.5 6C1.57 6 0 7.57 0 9.5C0 11.43 1.57 13 3.5 13ZM15.5 15C16.327 15 17 15.673 17 16.5C17 17.327 16.327 18 15.5 18C14.673 18 14 17.327 14 16.5C14 15.673 14.673 15 15.5 15ZM15.5 2C16.327 2 17 2.673 17 3.5C17 4.327 16.327 5 15.5 5C14.673 5 14 4.327 14 3.5C14 2.673 14.673 2 15.5 2ZM3.5 8C4.327 8 5 8.673 5 9.5C5 10.327 4.327 11 3.5 11C2.673 11 2 10.327 2 9.5C2 8.673 2.673 8 3.5 8Z" fill="#C10037"/>
</svg>
