<svg width="24" height="24" viewBox="0 0 24 24" fill="none" xmlns="http://www.w3.org/2000/svg">
<path d="M9.5 11C10.3284 11 11 10.3284 11 9.5C11 8.67157 10.3284 8 9.5 8C8.67157 8 8 8.67157 8 9.5C8 10.3284 8.67157 11 9.5 11Z" fill="#C10037"/>
<path d="M14.5 11C15.3284 11 16 10.3284 16 9.5C16 8.67157 15.3284 8 14.5 8C13.6716 8 13 8.67157 13 9.5C13 10.3284 13.6716 11 14.5 11Z" fill="#C10037"/>
<path d="M12 2C6.486 2 2 5.589 2 10C2 12.908 3.897 15.515 7 16.934V22L12.34 17.996C17.697 17.852 22 14.32 22 10C22 5.589 17.514 2 12 2ZM12 16H11.667L9 18V15.583L8.359 15.336C5.671 14.301 4 12.256 4 10C4 6.691 7.589 4 12 4C16.411 4 20 6.691 20 10C20 13.309 16.411 16 12 16Z" fill="#C10037"/>
</svg>
