<svg width="15" height="12" viewBox="0 0 15 12" fill="none" xmlns="http://www.w3.org/2000/svg">
<path d="M7.48417 7.15397L6.76969 7.8615L7.48264 9.27353L8.18412 8.54028L7.48417 7.15397ZM7.93881 10.177L8.60681 11.5L9.30832 10.7667L8.6403 9.44372L7.93881 10.177ZM13.4192 4.44839L12.7265 5.17256L14.0572 5.80281L14.75 5.07864L13.4192 4.44839ZM10.5338 4.13407L11.8177 4.74216L12.5105 4.01802L11.2526 3.42224L10.5338 4.13407ZM9.49075 8.55473L10.3452 9.6829L11.014 8.98386L10.1595 7.85569L9.49075 8.55473ZM9.57607 7.08533L8.70926 5.94081L8.02455 6.61885L8.9073 7.78437L9.57607 7.08533ZM9.2798 5.37582L10.3787 6.24639L11.0403 5.55482L9.96181 4.70045L9.2798 5.37582ZM11.1298 6.84146L12.2298 7.71291L12.8914 7.02134L11.7914 6.14992L11.1298 6.84146ZM10.716 1.4246L9.92997 2.20297L9.18951 1.46972C8.87905 1.16228 8.51048 0.918406 8.10484 0.752022C7.69921 0.585637 7.26445 0.5 6.82539 0.5C6.38633 0.5 5.95157 0.585637 5.54593 0.752022C5.1403 0.918406 4.77173 1.16228 4.46127 1.46972C4.45102 1.47983 4.44111 1.49016 4.43104 1.50039C4.08124 1.25636 3.67047 1.11217 3.24357 1.08355C2.81666 1.05493 2.39001 1.14299 2.01019 1.3381C1.63037 1.53322 1.31197 1.8279 1.08974 2.18999C0.867512 2.55208 0.749989 2.96767 0.75 3.39139V10.5409H1.7086V3.39139C1.70859 3.1428 1.7772 2.89893 1.907 2.68615C2.0368 2.47337 2.22287 2.29977 2.44508 2.18412C2.66729 2.06846 2.91719 2.01515 3.16778 2.02994C3.41837 2.04474 3.66011 2.12707 3.86688 2.26805C3.53524 2.89371 3.41405 3.6079 3.52097 4.30653C3.62788 5.00517 3.95732 5.65173 4.46127 6.15199L5.20169 6.88521L4.48514 7.59482L5.08426 8.18811L11.3151 2.01789L10.716 1.4246ZM5.81277 6.1479L5.13908 5.48078C4.69619 5.03701 4.44863 4.43771 4.45047 3.81378C4.45232 3.18985 4.70342 2.592 5.14893 2.15081C5.59445 1.70962 6.19817 1.46094 6.82823 1.45909C7.45829 1.45724 8.06349 1.70237 8.51163 2.14094L9.18532 2.80809L5.81277 6.1479Z" fill="#666666"/>
</svg>
