<svg width="64" height="65" viewBox="0 0 64 65" fill="none" xmlns="http://www.w3.org/2000/svg">
<path d="M53.334 19.1673H50.11C50.4593 18.0713 50.6673 16.7567 50.6673 15.1673C50.6673 10.0207 46.4807 5.83398 41.334 5.83398C37.0087 5.83398 34.1207 9.78598 32.2567 14.0607C30.4193 10.0207 27.3847 5.83398 22.6673 5.83398C17.5207 5.83398 13.334 10.0207 13.334 15.1673C13.334 16.7567 13.5447 18.0713 13.8913 19.1673H10.6673C7.72598 19.1673 5.33398 21.5593 5.33398 24.5007V29.834C5.33398 32.7753 7.72598 35.1673 10.6673 35.1673V53.834C10.6673 56.7753 13.0593 59.1673 16.0007 59.1673H29.334H34.6673H48.0007C50.942 59.1673 53.334 56.7753 53.334 53.834V35.1673C56.2753 35.1673 58.6673 32.7753 58.6673 29.834V24.5007C58.6673 21.5593 56.2753 19.1673 53.334 19.1673ZM41.334 11.1673C43.5393 11.1673 45.334 12.962 45.334 15.1673C45.334 19.1673 43.6647 19.1673 42.6673 19.1673H36.0593C37.422 14.9647 39.4007 11.1673 41.334 11.1673ZM18.6673 15.1673C18.6673 12.962 20.462 11.1673 22.6673 11.1673C25.0353 11.1673 27.238 15.234 28.5287 19.1673H21.334C20.3367 19.1673 18.6673 19.1673 18.6673 15.1673ZM10.6673 24.5007H29.334V29.834H10.6673V24.5007ZM16.0007 53.834V35.1673H29.334V53.834H16.0007ZM48.0007 53.834H34.6673V35.1673H48.0007V53.834ZM34.6673 29.834V24.7273C34.6807 24.6527 34.6967 24.5753 34.7127 24.5007H53.334L53.3367 29.834H34.6673Z" fill="#666666"/>
</svg>
