<svg width="59" height="61" viewBox="0 0 59 61" fill="none" xmlns="http://www.w3.org/2000/svg">
<path d="M6.78589 55.7476V35.5147C6.83442 35.51 6.88451 35.4913 6.9033 35.5069C9.97785 38.0452 13.5925 39.4113 17.409 40.3256C23.2717 41.7323 29.2032 42.0058 35.1801 41.2869C39.5305 40.7633 43.7728 39.813 47.6818 37.7482C48.9012 37.1043 50.0315 36.2915 51.2103 35.5507V55.7461C51.1258 55.7586 51.035 55.782 50.9442 55.7851C49.349 55.8602 48.5381 56.7151 48.524 58.3266C48.5193 58.9705 48.5021 59.6129 48.4911 60.2568H58.0012C57.9981 59.6129 57.9918 58.9674 57.9903 58.3234C57.984 56.7135 57.1809 55.8711 55.5716 55.7851C55.4965 55.782 55.4214 55.7679 55.2899 55.7507V33.4188C54.3788 33.5016 53.5005 33.7298 52.6709 33.611C51.8584 33.4954 51.096 33.028 50.3227 32.7201C49.4147 33.4188 48.4567 34.2831 47.3812 34.9599C44.5822 36.7229 41.4575 37.6623 38.2358 38.275C30.5526 39.7364 22.9461 39.4863 15.4491 37.1559C13.5392 36.5619 11.7045 35.7742 10.0639 34.6145C9.20921 34.008 8.43588 33.2875 7.58584 32.5857C6.21607 33.7876 4.59269 34.0299 2.75955 33.2234V55.7351C2.55447 55.757 2.40576 55.782 2.25704 55.7898C0.934231 55.8555 0.0434875 56.762 0.0153084 58.089C-0.000343323 58.8111 0.0059166 59.5347 0.0012207 60.2568H9.51134C9.50039 59.7504 9.48003 59.244 9.47847 58.7361C9.47534 56.6213 8.89612 55.9664 6.78589 55.7476Z" fill="#C10037"/>
<path d="M42.8257 0.256836V35.0005H29.5914V0.256836H42.8257ZM30.6418 19.9083C30.6418 20.2725 30.8014 20.5241 31.1897 20.5132C31.5795 20.5038 31.7078 20.2334 31.7063 19.8755C31.7031 19.1174 31.7047 18.3578 31.7047 17.5998C31.7047 16.8605 31.7031 16.1212 31.7063 15.3819C31.7078 15.0224 31.5795 14.7567 31.1865 14.7489C30.7968 14.7395 30.6418 14.9911 30.6418 15.3553C30.6402 16.873 30.6402 18.3906 30.6418 19.9083Z" fill="#C10037"/>
<path d="M28.4188 0.273926V35.0004H15.1876V0.273926H28.4188ZM26.2976 17.6309C26.2976 18.3702 26.3008 19.1095 26.2961 19.8488C26.2929 20.2302 26.4182 20.5209 26.8455 20.5131C27.2353 20.5068 27.3637 20.2348 27.3621 19.8754C27.3606 18.378 27.3606 16.8807 27.3621 15.3833C27.3637 15.0238 27.2369 14.7534 26.844 14.7488C26.415 14.7425 26.2929 15.0332 26.2961 15.413C26.3008 16.1523 26.2976 16.8916 26.2976 17.6309Z" fill="#C10037"/>
<path d="M22.7238 37.6809C26.9192 38.217 31.0535 38.2233 35.2709 37.6919C35.2083 36.9823 35.1503 36.3117 35.0861 35.5928H22.9242C22.8584 36.2742 22.7942 36.9448 22.7238 37.6809Z" fill="#C10037"/>
<path d="M1.7373 29.6206C1.74043 31.2977 3.07106 32.6216 4.75079 32.6184C6.42896 32.6137 7.7596 31.2821 7.75646 29.6081C7.75333 27.9388 6.41018 26.6041 4.73827 26.6072C3.06011 26.6119 1.73573 27.9404 1.7373 29.6206Z" fill="#C10037"/>
<path d="M50.2476 29.663C50.2632 31.3322 51.6142 32.6405 53.3018 32.6217C54.9799 32.6014 56.2824 31.2619 56.2636 29.5754C56.2448 27.9062 54.8938 26.5933 53.2141 26.612C51.55 26.6292 50.2303 27.9874 50.2476 29.663Z" fill="#C10037"/>
<path d="M20.5212 59.6659H37.4813C36.9037 53.8735 36.3323 48.1295 35.7531 42.323C31.2571 42.8716 26.7955 42.8685 22.2495 42.3292C21.6734 48.1092 21.1004 53.8625 20.5212 59.6659Z" fill="#C10037"/>
</svg>
