<svg width="58" height="60" viewBox="0 0 58 60" fill="none" xmlns="http://www.w3.org/2000/svg">
<g clip-path="url(#clip0_1827_2795)">
<path d="M42.9354 18.9432C41.6682 16.8506 41.4371 14.6427 42.1953 12.3165C43.2103 9.20517 44.2178 6.09077 45.2283 2.9779C45.6875 1.56743 45.4443 0.937487 44.1801 0.256836H13.8199C12.5541 0.935951 12.3125 1.5659 12.7716 2.9779C13.7746 6.07233 14.7654 9.17137 15.785 12.2612C16.5735 14.6534 16.3197 16.9028 15.0071 19.0431C13.8712 20.8992 12.758 22.7721 11.6343 24.6374C11.53 24.811 11.4288 24.9861 11.3276 25.1567C22.4839 32.6776 37.6066 31.5637 46.6572 25.1183C45.4171 23.0609 44.1801 21.0006 42.9354 18.9432ZM28.9909 26.9897C28.0514 26.9835 27.275 26.1661 27.3022 25.2105C27.3309 24.2794 28.1209 23.5157 29.0362 23.5357C29.9546 23.5572 30.7098 24.3516 30.6962 25.2857C30.6841 26.2184 29.9078 26.9943 28.9909 26.9897Z" fill="#C10037"/>
<path d="M27.3023 48.0853C27.2992 51.5792 27.3007 55.0731 27.3007 58.5655V59.2569H13.8199C13.104 58.965 12.7218 58.4041 12.456 57.682C11.1691 54.1835 9.74018 50.7341 8.57109 47.1957C7.27965 43.2823 7.05912 39.2322 7.71768 35.0776C7.89139 35.1821 8.03186 35.2589 8.16176 35.3481C13.2913 38.865 18.4208 42.3789 23.5427 45.9051C24.5849 46.6226 25.68 47.2126 26.9126 47.4753C27.3204 47.5629 27.3038 47.7872 27.3023 48.0853Z" fill="#C10037"/>
<path d="M50.5844 40.7088C50.4198 44.5254 49.2839 48.0807 47.8762 51.5762C47.062 53.5966 46.2947 55.637 45.544 57.6836C45.2797 58.4057 44.896 58.965 44.1801 59.2569H30.6993C30.6993 55.5725 30.7068 51.8865 30.6902 48.2021C30.6872 47.755 30.7672 47.5307 31.2491 47.4293C32.4665 47.1711 33.5268 46.5489 34.5494 45.8452C39.6729 42.3205 44.8009 38.8051 49.9274 35.2866C50.0195 35.2236 50.1162 35.1699 50.2733 35.0715C50.5844 36.9767 50.666 38.8343 50.5844 40.7088Z" fill="#C10037"/>
<path d="M58.0008 14.4306V15.3524C57.5507 16.3511 56.7743 16.6861 55.72 16.6338C54.5056 16.5739 53.2836 16.62 51.9559 16.62C52.1885 16.8828 52.3547 17.0533 52.5012 17.2407C53.0752 17.969 53.0208 18.9647 52.3804 19.59C51.7535 20.2046 50.7657 20.2814 50.1177 19.6561C48.8867 18.4699 47.6844 17.2469 46.5183 15.9947C45.9035 15.334 45.9549 14.3645 46.5893 13.6977C47.7161 12.5115 48.8625 11.3423 50.0301 10.1976C50.7158 9.52312 51.7248 9.54924 52.3819 10.193C53.0525 10.8475 53.0722 11.877 52.4272 12.6298C52.3033 12.7743 52.1704 12.9095 51.9846 13.1107C52.1734 13.1323 52.3064 13.1599 52.4393 13.1614C53.5328 13.1645 54.6294 13.2091 55.72 13.1492C56.7758 13.0923 57.5507 13.4319 58.0008 14.4306Z" fill="#C10037"/>
<path d="M48.9863 31.7544C46.6814 33.3538 44.3643 34.9394 42.0503 36.5266C38.9237 38.673 35.794 40.8148 32.6689 42.9644C30.1102 44.7251 27.8989 44.7221 25.3311 42.9582C19.9085 39.2323 14.4845 35.5064 9.04836 31.7989C8.64658 31.5239 8.53481 31.2842 8.72059 30.8263C9.05893 29.9966 9.34894 29.147 9.65103 28.3296C22.5881 35.7829 35.4119 35.786 48.3565 28.3296C48.6873 29.2545 49.0573 30.2302 49.367 31.2243C49.4062 31.3518 49.16 31.633 48.9863 31.7544Z" fill="#C10037"/>
<path d="M11.4198 16.0732C10.296 17.2624 9.14807 18.4285 7.982 19.5747C7.27511 20.2692 6.24346 20.2354 5.58944 19.5609C4.93541 18.8849 4.93843 17.8677 5.5985 17.1226C5.72085 16.9858 5.8447 16.8506 6.05466 16.6201H2.0746C0.780144 16.6201 -0.00831406 15.9564 0.00074868 14.8763C0.00981142 13.8176 0.790717 13.1646 2.04742 13.1631H6.0471C5.8296 12.9203 5.68157 12.7621 5.54261 12.5962C4.92786 11.8602 4.95807 10.8477 5.60907 10.2008C6.24648 9.56779 7.24943 9.50787 7.91554 10.1532C9.11635 11.3178 10.29 12.5132 11.4379 13.7316C12.0799 14.4138 12.0678 15.3879 11.4198 16.0732Z" fill="#C10037"/>
</g>
<defs>
<clipPath id="clip0_1827_2795">
<rect width="58" height="59" fill="white" transform="translate(0.000732422 0.256836)"/>
</clipPath>
</defs>
</svg>
