<svg width="58" height="61" viewBox="0 0 58 61" fill="none" xmlns="http://www.w3.org/2000/svg">
<path d="M9.22435 6.3709C9.37806 11.4709 11.0243 16.0959 13.9708 20.3115C14.1122 20.0725 14.2306 19.8803 14.3459 19.6834C18.1778 13.0881 23.0027 7.3834 29.0849 2.82559C30.3161 1.90371 31.6411 1.10996 32.923 0.256836H9.63628C9.48719 2.29434 9.16286 4.33809 9.22435 6.3709Z" fill="#C10037"/>
<path d="M37.0962 0.552148C37.4604 0.370898 37.754 0.394336 38.1137 0.583398C41.1371 2.17402 43.7286 4.30371 45.9051 6.96465C46.397 7.56777 46.9703 7.66309 47.453 7.2584C47.9264 6.86152 47.9541 6.21621 47.4683 5.65684C46.7567 4.83965 46.0635 3.99277 45.2673 3.26465C44.1175 2.21309 42.8832 1.25527 41.6843 0.256836H55.518C55.5242 0.374023 55.518 0.492773 55.5395 0.605273C56.3895 5.2834 55.973 9.84902 54.3421 14.299C53.5628 16.4225 52.5192 18.4068 51.1435 20.3037C49.0669 16.599 46.7044 13.174 43.9623 10.0303C41.2094 6.87402 38.1368 4.0834 34.5661 1.71934C35.493 1.29434 36.3046 0.942773 37.0962 0.552148ZM49.8646 10.585C50.4288 10.585 50.8929 10.1146 50.8853 9.55371C50.876 9.01152 50.4349 8.56465 49.8938 8.55059C49.3267 8.53809 48.8563 8.98652 48.8471 9.55215C48.8379 10.1146 49.3005 10.585 49.8646 10.585Z" fill="#C10037"/>
<path d="M52.636 60.2568H53.2124C53.7396 59.9724 53.9763 59.5443 53.9348 58.924C53.8964 58.3615 53.9364 57.7959 53.9225 57.2302C53.9056 56.5443 53.5183 56.1334 52.9142 56.1365C52.3147 56.1381 51.9335 56.5474 51.9136 57.2396C51.8982 57.8037 51.9351 58.3709 51.9028 58.9334C51.8674 59.5506 52.0965 59.9849 52.636 60.2568Z" fill="#C10037"/>
<path d="M15.4772 21.8833C17.2464 18.6052 19.3137 15.5349 21.6854 12.6771C21.8438 12.4849 22.0989 12.3239 22.3387 12.263C22.8751 12.1255 23.4285 12.0052 23.9803 11.9771C26.3766 11.8567 28.7729 11.7083 31.1707 11.6927C33.7008 11.6755 36.2031 11.5833 38.5718 10.5567C39.288 10.2474 39.9843 9.89268 40.6791 9.56299C43.5872 12.4192 47.6851 18.0067 49.5157 21.6161C49.5987 21.7802 49.6495 21.9833 49.6479 22.1677C49.6156 26.788 49.2882 31.3755 48.014 35.8364C47.5759 37.3739 46.9857 38.8677 46.4662 40.3817C46.3709 40.3724 46.2756 40.363 46.1818 40.3536C46.0558 39.4161 45.9267 38.4802 45.8068 37.5411C45.7192 36.8474 45.3333 36.4489 44.7462 36.4661C44.1636 36.4833 43.8239 36.9146 43.7502 37.6052C43.6641 38.3974 43.5903 39.2036 43.3843 39.9677C42.7941 42.1552 41.6459 43.8833 39.3526 44.5099C38.7839 44.6646 38.1767 44.677 37.588 44.7567C37.0116 44.8333 36.6151 45.2724 36.635 45.8083C36.6566 46.3521 37.07 46.7536 37.6557 46.7958C37.7709 46.8036 37.8862 46.7958 38.0015 46.8036C39.0621 46.8786 40.0596 47.1427 40.945 47.8021C36.3153 52.0692 26.9499 52.7724 21.4549 45.038C23.0996 44.1646 24.3108 42.8786 24.9686 41.1036C25.6357 39.3083 25.6127 37.5114 24.8826 35.7411C23.4654 32.3021 20.4942 30.9192 16.0644 31.6177C16.0582 31.6099 16.0521 31.6021 16.0459 31.5942C16.0275 31.5708 16.009 31.5474 16.006 31.5224C15.7662 28.5286 15.5248 25.5349 15.3035 22.5396C15.2866 22.3255 15.3711 22.0771 15.4772 21.8833ZM28.633 19.7364C27.2712 19.2739 25.9139 18.8021 24.5398 18.3833C23.9772 18.213 23.3762 18.1692 22.5677 18.0302C21.8299 18.2427 20.9031 18.463 20.0116 18.788C19.386 19.0146 19.1815 19.6161 19.4229 20.1614C19.6673 20.7114 20.2221 20.938 20.8216 20.6567C22.0805 20.0661 23.3317 20.0833 24.6182 20.5521C25.7341 20.9599 26.8654 21.3255 27.9921 21.7005C28.7007 21.9364 29.2678 21.6989 29.4538 21.1067C29.6475 20.4989 29.3447 19.9771 28.633 19.7364ZM30.0794 32.5083C29.543 32.1802 28.9589 32.3271 28.6638 32.8067C28.3533 33.3114 28.4962 33.9146 29.0388 34.2739C29.0834 34.3036 29.1295 34.3333 29.1741 34.3599C29.2064 34.3817 29.2402 34.4021 29.2724 34.4208C29.3124 34.4458 29.3508 34.4692 29.3908 34.4911C29.4308 34.513 29.4707 34.5349 29.5107 34.5567C29.7459 34.688 29.9857 34.8005 30.23 34.8958C30.2746 34.9146 30.3192 34.9317 30.3653 34.9474C30.413 34.9661 30.4621 34.9833 30.5113 34.9989C30.5728 35.0208 30.6343 35.0411 30.6958 35.0583C30.7527 35.0771 30.8111 35.0927 30.8695 35.1083C30.871 35.1099 30.8741 35.1099 30.8772 35.1099C30.9064 35.1192 30.9371 35.1271 30.9678 35.1333C31.1508 35.1817 31.3367 35.2192 31.5258 35.2474C31.5489 35.2521 31.5734 35.2552 31.598 35.2583C31.6672 35.2692 31.7379 35.2786 31.8086 35.2849C32.0607 35.3146 32.3159 35.327 32.5772 35.3239C32.8339 35.327 33.0859 35.313 33.3334 35.2849C33.4087 35.2771 33.4825 35.2677 33.5563 35.2552C33.6055 35.2489 33.6531 35.2427 33.7008 35.2317C33.7161 35.2302 33.73 35.2271 33.7453 35.2239C33.7715 35.2192 33.7976 35.2146 33.8237 35.2099C33.9313 35.188 34.0389 35.1646 34.145 35.1364C34.1849 35.1271 34.2249 35.1161 34.2649 35.1052C34.3171 35.0911 34.3694 35.0771 34.4216 35.0599C34.4247 35.0599 34.4278 35.0599 34.4309 35.0583C34.5 35.0364 34.5707 35.0146 34.6384 34.9911C34.6999 34.9692 34.7613 34.9474 34.8228 34.9224C34.8474 34.913 34.872 34.9036 34.8966 34.8942C34.9381 34.8786 34.9796 34.8614 35.0196 34.8442C35.0488 34.8317 35.078 34.8177 35.1087 34.8052C35.1226 34.8005 35.1364 34.7942 35.1487 34.788C35.2163 34.7583 35.2824 34.7271 35.3485 34.6942C35.4008 34.6692 35.4515 34.6427 35.5037 34.6161C35.6928 34.5177 35.8803 34.4099 36.0632 34.2911C36.6304 33.9255 36.7872 33.3567 36.4875 32.838C36.1924 32.3286 35.5944 32.177 35.0319 32.5192C33.3734 33.5224 31.7348 33.5177 30.0794 32.5083ZM45.0428 18.7427C43.4935 18.0099 41.8995 17.9411 40.2825 18.4567C39.0052 18.8646 37.7402 19.3146 36.4675 19.7411C36.4368 19.7521 36.4045 19.763 36.3753 19.7755C36.3153 19.7989 36.2585 19.8239 36.2047 19.8536C36.117 19.8989 36.0402 19.9505 35.971 20.0114C35.9587 20.0224 35.948 20.0317 35.9372 20.0427C35.9234 20.0552 35.9111 20.0677 35.8988 20.0817C35.8726 20.1083 35.8496 20.1349 35.8296 20.163C35.8188 20.1755 35.8096 20.188 35.8019 20.2005C35.7896 20.2177 35.7774 20.2364 35.7666 20.2552C35.7512 20.2786 35.7389 20.3052 35.7266 20.3302C35.7174 20.3505 35.7082 20.3708 35.7005 20.3911C35.6928 20.4114 35.6851 20.4333 35.6774 20.4552C35.6713 20.4708 35.6667 20.488 35.6621 20.5067C35.6544 20.5333 35.6482 20.5614 35.6421 20.5896C35.6359 20.6208 35.6298 20.6536 35.6267 20.6864C35.6236 20.7208 35.6206 20.7552 35.619 20.7896C35.619 20.8161 35.6206 20.8427 35.6221 20.8692C35.6252 20.8958 35.6283 20.9224 35.6313 20.9474C35.6359 20.9692 35.639 20.9911 35.6436 21.013C35.6421 21.0146 35.6436 21.0161 35.6436 21.0177C35.6498 21.0442 35.6559 21.0708 35.6651 21.0974C35.6744 21.1271 35.6836 21.1567 35.6959 21.1849C35.702 21.2005 35.7097 21.2161 35.7174 21.2302C35.7328 21.263 35.7481 21.2927 35.7666 21.3224L35.7989 21.3739C35.8204 21.4052 35.8434 21.4349 35.868 21.463C35.8726 21.4692 35.8773 21.4755 35.8849 21.4817C35.8942 21.4927 35.9034 21.5021 35.9141 21.513C36.1647 21.7646 36.5443 21.8771 36.9394 21.7521C38.2013 21.3552 39.4556 20.9349 40.7037 20.4942C41.9011 20.0708 43.0646 20.0927 44.2251 20.6255C44.8937 20.9317 45.484 20.7224 45.7192 20.1364C45.9512 19.563 45.7053 19.0552 45.0428 18.7427ZM41.8042 27.413C42.1762 27.3458 42.3191 27.5021 42.5558 27.7349C43.0708 28.2396 43.6134 28.7521 44.2343 29.0927C44.8661 29.4396 45.5193 29.1271 45.7222 28.5646C45.9466 27.9396 45.6484 27.4536 44.9045 27.163C44.6847 27.0771 44.5018 26.8958 44.302 26.7583C44.3204 26.6677 44.3404 26.5771 44.3604 26.4849C44.5771 26.5146 44.8031 26.5161 45.0106 26.5802C45.5731 26.7505 46.1188 27.0114 46.6906 27.1146C47.2824 27.2224 47.7312 26.8239 47.8034 26.2755C47.8818 25.6817 47.5452 25.288 46.9488 25.0864C46.4523 24.9177 45.9651 24.6724 45.5362 24.3708C45.0705 24.0442 44.6447 23.9255 44.1652 24.2646C42.2746 25.6036 40.2103 25.7083 38.0568 25.1583C37.5834 25.038 37.1177 25.0661 36.8887 25.5067C36.7319 25.8083 36.6811 26.2771 36.801 26.5817C36.904 26.8442 37.2898 27.0692 37.5942 27.1614C38.9729 27.5755 40.3855 27.6708 41.8042 27.413ZM31.5489 47.8333C31.8947 47.8505 32.2405 47.8364 32.5864 47.8364C32.9307 47.8349 33.2781 47.8536 33.6224 47.8317C34.1788 47.7958 34.5615 47.3974 34.5892 46.8614C34.6153 46.3255 34.2726 45.8474 33.7207 45.8083C32.9584 45.7552 32.1867 45.7552 31.4228 45.8052C30.8772 45.8396 30.5083 46.3317 30.5298 46.8442C30.5513 47.3896 30.9694 47.8036 31.5489 47.8333ZM26.5703 40.7942C26.8838 41.3677 27.348 41.9161 27.8722 42.2958C29.2525 43.302 30.8602 43.6567 32.5833 43.7161C34.3202 43.6552 36.0125 43.2692 37.4528 42.1567C37.9062 41.8067 38.3074 41.3067 38.5656 40.7896C38.8961 40.1271 38.4042 39.3724 37.6972 39.1739C36.9102 38.9521 36.0755 38.7864 35.3762 38.3896C33.4502 37.3021 31.6103 37.3552 29.6967 38.4146C29.0081 38.7958 28.1965 38.9583 27.428 39.1755C26.7224 39.3739 26.2167 40.1489 26.5703 40.7942ZM17.3278 26.2614C17.4001 26.8177 17.8412 27.2208 18.4299 27.1161C19.0032 27.013 19.5504 26.7552 20.1146 26.5833C20.3221 26.5192 20.5465 26.5099 20.7647 26.4755C20.7893 26.5771 20.8155 26.6786 20.8416 26.7802C20.5818 26.9208 20.3328 27.0911 20.0592 27.1958C19.5335 27.3958 19.243 27.8349 19.3306 28.3692C19.4121 28.8724 19.8056 29.213 20.3528 29.2083C21.3181 29.1989 21.9575 28.588 22.4724 27.8708C22.766 27.4614 23.0365 27.3521 23.51 27.438C24.8549 27.6802 26.1891 27.5396 27.5033 27.188C28.2672 26.9849 28.6038 26.4802 28.4317 25.8364C28.2718 25.238 27.7523 25.0114 26.993 25.1911C24.8733 25.6927 22.8398 25.5974 20.9845 24.2786C20.5096 23.9396 20.0838 24.0317 19.6104 24.3583C19.1631 24.6677 18.6543 24.9083 18.1425 25.0911C17.5861 25.2911 17.2541 25.6927 17.3278 26.2614Z" fill="#C10037"/>
<path d="M18.3223 33.3662C21.1352 33.3631 23.407 35.685 23.3947 38.5522C23.3839 41.3928 21.1275 43.6943 18.3423 43.71C15.554 43.7256 13.2331 41.3818 13.2254 38.5412C13.2162 35.6928 15.5064 33.3678 18.3223 33.3662ZM17.4093 37.5068C18.6021 37.5928 19.2492 38.2553 19.3306 39.4725C19.3783 40.1897 19.781 40.6084 20.4004 40.585C21.0014 40.56 21.3811 40.0928 21.3765 39.3787C21.3611 37.2475 19.5597 35.4272 17.4646 35.4256C16.7653 35.424 16.3118 35.8162 16.298 36.435C16.2857 37.0631 16.6915 37.4553 17.4093 37.5068Z" fill="#C10037"/>
<path d="M24.2831 9.76142C27.5478 9.68017 30.7711 9.61455 33.9912 9.51142C35.7281 9.45517 37.7187 8.84736 39.0728 8.03173C38.9944 7.92705 38.9314 7.81455 38.8423 7.73017C37.0101 5.99892 35.0318 4.45673 32.8984 3.12861C32.7355 3.02705 32.4065 3.01767 32.2482 3.11767C29.3693 4.9458 26.7562 7.11142 24.4014 9.5958C24.3522 9.64892 24.3169 9.71455 24.2831 9.76142Z" fill="#C10037"/>
<path d="M8.80779 46.385C10.8736 47.3178 13.396 46.5647 14.4904 44.6506C12.0556 42.9178 10.9904 40.5569 11.2456 37.6006C9.15978 37.1959 6.95869 38.6303 6.31158 40.7725C5.6368 43.01 6.71737 45.4412 8.80779 46.385Z" fill="#C10037"/>
<path d="M50.5225 34.2584C52.2779 33.4849 53.3538 32.2209 53.941 30.5287C54.688 28.3787 54.7203 26.1756 54.2991 23.9521C54.2638 23.7631 54.1961 23.5771 54.1331 23.3927C53.7073 22.1506 52.9588 22.1787 51.8459 22.8224C51.7568 22.874 51.6922 23.0459 51.6892 23.1646C51.5969 26.8537 51.2588 30.5162 50.5225 34.2584Z" fill="#C10037"/>
<path d="M0.000358105 53.0366C0.015729 54.735 1.39756 56.1304 3.05914 56.1241C4.75761 56.1179 6.11331 54.7069 6.09179 52.9647C6.07181 51.2491 4.71764 49.91 3.01764 49.9257C1.33454 49.9413 -0.0150127 51.3304 0.000358105 53.0366Z" fill="#C10037"/>
<path d="M11.1442 30.5584C11.5961 31.8303 12.3631 32.8803 13.2346 33.4366C13.4759 33.2334 13.7495 33.0491 13.9601 32.8053C14.06 32.6897 14.0784 32.4616 14.0646 32.2897C13.8156 29.3428 13.5205 26.3975 13.3222 23.4475C13.2746 22.7553 12.9149 22.61 12.4307 22.4631C11.9189 22.3069 11.4178 22.3631 11.2087 22.9053C10.952 23.5662 10.7215 24.2631 10.64 24.9647C10.4202 26.8569 10.4986 28.7397 11.1442 30.5584Z" fill="#C10037"/>
<path d="M1.17778 37.8115C1.5267 38.8474 2.47507 39.549 3.53411 39.5537C4.17661 39.5349 4.73303 39.4115 5.0343 38.7115C5.19108 38.3459 5.47544 38.0287 5.73213 37.7146C6.22554 37.1115 6.16713 35.9615 5.5815 35.4427C5.4985 35.3693 5.33864 35.3365 5.22644 35.3568C4.31495 35.5255 3.48339 35.338 2.68104 34.874C2.52733 34.7849 2.20455 34.8287 2.04776 34.9412C1.17471 35.5615 0.827326 36.7693 1.17778 37.8115Z" fill="#C10037"/>
<path d="M41.7796 45.7256C42.3714 46.2803 42.9801 46.7631 43.4812 47.3428C43.9699 47.9068 44.3496 48.5693 44.8123 49.2381C45.4886 47.8553 46.4462 46.6709 47.8526 45.7771C46.4861 44.8615 45.5024 43.6943 44.7738 42.2021C44.0668 43.7381 43.0661 44.8881 41.7796 45.7256Z" fill="#C10037"/>
<path d="M53.9363 55.0865C53.9379 55.6271 54.339 56.0615 54.9231 56.1131C55.2659 56.1428 55.6133 56.1178 55.9591 56.1178C55.9591 56.1193 55.9591 56.1209 55.9591 56.1209C56.3034 56.1209 56.6508 56.1428 56.9951 56.1162C57.6084 56.0693 58.0173 55.6209 58.0003 55.0521C57.9819 54.4803 57.5577 54.0693 56.9336 54.0553C56.2804 54.0381 55.6271 54.0365 54.9754 54.0568C54.3667 54.0756 53.9348 54.5225 53.9363 55.0865Z" fill="#C10037"/>
<path d="M47.8311 55.0818C47.8295 55.599 48.2092 56.0459 48.7564 56.1037C49.136 56.1443 49.5218 56.1115 49.9061 56.1115V56.1162C50.252 56.1162 50.6009 56.1443 50.9421 56.1099C51.5216 56.0521 51.9135 55.599 51.8966 55.0568C51.8813 54.5084 51.4709 54.0771 50.8898 54.0584C50.1982 54.0349 49.5065 54.0318 48.8163 54.0599C48.243 54.0818 47.8326 54.538 47.8311 55.0818Z" fill="#C10037"/>
<path d="M3.06374 31.8538C3.08526 32.696 3.76158 33.3538 4.59621 33.3444C5.46005 33.3366 6.11023 32.6444 6.08717 31.7585C6.06719 30.9147 5.39088 30.2507 4.56085 30.2616C3.71393 30.2725 3.04069 30.9866 3.06374 31.8538Z" fill="#C10037"/>
<path d="M51.9228 51.9505C51.9228 52.3411 51.8982 52.7333 51.9289 53.1208C51.975 53.674 52.4054 54.0505 52.9326 54.0443C53.4552 54.0365 53.8887 53.6474 53.9102 53.0927C53.9394 52.3536 53.9394 51.6099 53.9117 50.8708C53.8887 50.3068 53.4721 49.9349 52.9342 49.9271C52.3947 49.9208 51.9781 50.2786 51.9289 50.8396C51.8982 51.2083 51.9228 51.5802 51.9228 51.9505Z" fill="#C10037"/>
<path d="M13.23 53.0084C13.2254 53.5459 13.6665 54.0163 14.1984 54.0428C14.7502 54.0709 15.2436 53.6131 15.2666 53.0522C15.2897 52.4975 14.8224 51.9991 14.2691 51.9866C13.7157 51.9741 13.2331 52.4491 13.23 53.0084Z" fill="#C10037"/>
<path d="M35.6221 20.8693C35.6206 20.8428 35.619 20.8162 35.619 20.7896C35.6206 20.7553 35.6236 20.7209 35.6267 20.6865C35.6221 20.7209 35.619 20.7553 35.6175 20.7896C35.6175 20.8162 35.619 20.8428 35.6221 20.8693Z" fill="white"/>
<path d="M29.4784 40.7442C31.5612 41.8833 33.5993 41.8786 35.6821 40.7364C34.6661 40.3599 33.6562 39.9692 32.6325 39.6208C32.4619 39.5645 32.2206 39.6708 32.0284 39.7442C31.1754 40.0692 30.3284 40.4099 29.4784 40.7442Z" fill="#C10037"/>
</svg>
