<svg width="58" height="60" viewBox="0 0 58 60" fill="none" xmlns="http://www.w3.org/2000/svg">
<path d="M57.8742 24.0938C57.8462 24.5422 57.8664 24.9922 57.8695 25.4406C57.8726 26.0109 57.6909 26.4828 57.1472 26.7359C56.6097 26.9844 56.1421 26.8375 55.6963 26.4719C51.8002 23.2781 47.8979 20.0922 43.9987 16.9031C39.1488 12.9375 34.302 8.97188 29.4521 5.00625C29.3169 4.89688 29.1771 4.79531 28.9923 4.65469C27.7759 5.64687 26.558 6.6375 25.3416 7.63125C17.767 13.825 10.1938 20.0187 2.61916 26.2109C2.45294 26.3469 2.29138 26.4891 2.11584 26.6094C1.31736 27.1594 0.279649 26.7359 0.183334 25.7687C0.110321 25.0172 0.104108 24.2406 0.203529 23.4937C0.250133 23.1422 0.554611 22.7563 0.846662 22.5156C6.15018 18.1531 11.4677 13.8094 16.7836 9.4625C20.3519 6.54375 23.9187 3.62344 27.4932 0.710938C27.8178 0.446875 28.186 0.235938 28.534 0H29.3496C29.9399 0.4 30.5659 0.75625 31.1174 1.20625C39.781 8.27812 48.4338 15.3656 57.1006 22.4359C57.6505 22.8859 57.9193 23.3891 57.8742 24.0938Z" fill="#C10037"/>
<path d="M57.1425 59.8718C57.0788 59.9077 57.0229 59.9577 56.9623 59.9999H1.03773C0.375956 59.6202 -0.119597 59.1343 0.0295347 58.2827C0.144491 57.639 0.641598 57.1874 1.31114 57.103C1.5395 57.0749 1.77562 57.0858 2.00864 57.0858C20.0024 57.0843 37.9961 57.0843 55.9914 57.0843C56.1467 57.0843 56.3021 57.0812 56.4574 57.0874C57.2466 57.1171 57.7825 57.5265 57.9565 58.2265C58.1165 58.8733 57.8105 59.4921 57.1425 59.8718Z" fill="#C10037"/>
<path d="M54.2515 27.2392C54.2484 27.0204 54.0573 26.7454 53.874 26.5939C45.7214 19.9095 37.5595 13.2376 29.407 6.55479C29.118 6.31885 28.9332 6.27822 28.6225 6.53135C20.4404 13.2407 12.249 19.936 4.07004 26.6501C3.88518 26.8032 3.74848 27.1314 3.74692 27.3782C3.72207 29.7798 3.73139 32.1814 3.73139 34.5829V35.897H54.2251C54.2437 35.7876 54.2623 35.7298 54.2623 35.6735C54.2655 32.8626 54.2748 30.0517 54.2515 27.2392ZM23.7617 32.2751C23.7617 32.9282 23.5831 33.1204 22.9368 33.122C20.1437 33.1282 17.3506 33.1282 14.5559 33.122C13.9019 33.1204 13.7248 32.9376 13.7248 32.286C13.7201 29.6126 13.7201 26.9392 13.7248 24.2657C13.7248 23.5954 13.8848 23.4329 14.545 23.4298C15.9431 23.4251 17.3397 23.4282 18.7363 23.4282C20.1328 23.4282 21.5294 23.4251 22.9275 23.4298C23.5893 23.4329 23.7617 23.6001 23.7617 24.2564C23.7664 26.9298 23.7648 29.6032 23.7617 32.2751ZM44.286 32.2548C44.286 32.9735 44.1198 33.1314 43.3804 33.1329C42.0211 33.1376 40.6634 33.1345 39.3056 33.1345C37.9091 33.1345 36.5125 33.1392 35.1144 33.1329C34.4293 33.1298 34.2445 32.947 34.2445 32.272C34.2414 29.6189 34.2414 26.9642 34.2445 24.311C34.2445 23.6204 34.42 23.4392 35.0973 23.4392C37.8718 23.436 40.6463 23.436 43.4207 23.4392C44.1276 23.4392 44.2845 23.5907 44.286 24.2923C44.2907 26.947 44.2891 29.6001 44.286 32.2548Z" fill="#C10037"/>
<path d="M3.77802 41.3657V55.8267H22.3838V55.1063C22.3838 51.7688 22.3807 48.4298 22.3854 45.0907C22.3885 43.3438 23.4013 42.336 25.1474 42.3345C27.6904 42.3313 30.2334 42.3329 32.7765 42.3345C34.6329 42.336 35.6131 43.3204 35.6146 45.1892C35.6177 48.5079 35.6146 51.8282 35.6177 55.147C35.6177 55.3704 35.6379 55.5954 35.6488 55.8204H54.236V41.3657H3.77802ZM18.0714 52.7438C18.0699 53.4032 17.9005 53.5657 17.231 53.5673C15.794 53.5735 14.3586 53.5688 12.9217 53.5688C11.4661 53.5688 10.0105 53.572 8.55491 53.5673C7.88847 53.5657 7.69584 53.372 7.69584 52.6907C7.69118 49.9376 7.69118 47.186 7.69584 44.4329C7.6974 43.7876 7.89624 43.5829 8.52073 43.5814C11.4319 43.5767 14.3431 43.5767 17.2543 43.5814C17.9052 43.5829 18.0699 43.7532 18.0714 44.4282C18.0761 47.2001 18.0761 49.972 18.0714 52.7438ZM49.4125 53.5814C46.5401 53.586 43.6678 53.586 40.7954 53.5814C40.0839 53.5814 39.9301 53.4267 39.9286 52.7235C39.9239 49.9704 39.9239 47.2188 39.9286 44.4657C39.9301 43.7407 40.0902 43.5876 40.8343 43.586C42.2697 43.5829 43.7066 43.5845 45.142 43.5845C46.5588 43.5845 47.9755 43.5829 49.3923 43.586C50.1069 43.5876 50.3042 43.7751 50.3042 44.4751C50.3088 47.2079 50.3088 49.9407 50.3057 52.6735C50.3042 53.3923 50.1208 53.5814 49.4125 53.5814Z" fill="#C10037"/>
<path d="M58 38.6187C57.9938 39.553 57.3087 40.0687 56.0737 40.0687H1.91232C0.680426 40.0687 -0.00309638 39.5452 1.05454e-05 38.6077C0.00311747 37.6765 0.691301 37.1577 1.92475 37.1577H56.0861C57.3134 37.1577 58.0062 37.6858 58 38.6187Z" fill="#C10037"/>
<path d="M32.8355 43.5858C30.2723 43.5827 27.709 43.5827 25.1458 43.5858C24.0569 43.5874 23.6359 44.0155 23.6343 45.1171C23.6328 48.4952 23.6328 51.8749 23.6359 55.253C23.6359 55.4405 23.6561 55.6265 23.6685 55.8296H34.3656V55.2921C34.3656 51.8952 34.3672 48.4968 34.3656 45.0983C34.3641 44.0124 33.9338 43.5874 32.8355 43.5858ZM25.5839 51.1218C25.1225 51.1327 24.7823 50.789 24.787 50.3202C24.7932 49.8765 25.1117 49.5483 25.5482 49.5405C26.008 49.5327 26.3544 49.8812 26.3482 50.3421C26.3436 50.7796 26.0173 51.1108 25.5839 51.1218Z" fill="#C10037"/>
<path d="M25.5482 49.5407C26.008 49.5328 26.3544 49.8797 26.3498 50.3422C26.3451 50.7797 26.0189 51.111 25.5855 51.1219C25.1241 51.1328 24.7839 50.7891 24.7886 50.3203C24.7932 49.8766 25.1117 49.5485 25.5482 49.5407Z" fill="white"/>
</svg>
