<svg width="50" height="51" viewBox="0 0 50 51" fill="none" xmlns="http://www.w3.org/2000/svg">
<g clip-path="url(#clip0_64_11896)">
<path fill-rule="evenodd" clip-rule="evenodd" d="M26.4649 50.3359C25.4883 50.3359 24.5118 50.3359 23.5352 50.3359C23.4096 50.3085 23.2851 50.2642 23.1581 50.256C20.09 50.0543 17.1475 49.3219 14.3953 47.9653C6.72766 44.1856 2.03476 38.093 0.39419 29.6865C0.20862 28.7351 0.128792 27.7632 0 26.8008C0 25.8243 0 24.8477 0 23.8712C0.028389 23.7309 0.0729258 23.5917 0.0828229 23.4503C0.326082 19.9626 1.24885 16.6589 2.9363 13.604C6.82533 6.56288 12.7318 2.25062 20.6448 0.73051C21.5983 0.547284 22.5712 0.465112 23.5352 0.33606C24.5118 0.33606 25.4883 0.33606 26.4649 0.33606C26.6065 0.364969 26.7468 0.410288 26.8897 0.420185C29.4377 0.599244 31.9161 1.12613 34.2599 2.13173C42.6931 5.74963 47.8482 12.0529 49.6139 21.0811C49.7939 22.0011 49.8738 22.9407 50 23.8712C50 24.8477 50 25.8243 50 26.8008C49.9716 26.9411 49.9269 27.0803 49.9172 27.2217C49.6739 30.7094 48.7511 34.0129 47.0637 37.068C43.1747 44.1091 37.2681 48.4214 29.3552 49.9413C28.4017 50.1247 27.4288 50.2069 26.4649 50.3359ZM48.3356 25.3195C48.3291 12.4623 37.8756 2.01114 25.0111 2.00033C12.1378 1.98952 1.65424 12.473 1.6644 25.3463C1.67469 38.2106 12.1256 48.6644 24.9831 48.6714C37.8459 48.6786 48.3421 38.1825 48.3356 25.3195Z" fill="#C10037"/>
<path fill-rule="evenodd" clip-rule="evenodd" d="M28.685 32.7328C28.8201 29.6273 28.9101 27.4166 29.0191 25.2067C29.0347 24.8913 28.9415 24.7199 28.674 24.5419C27.537 23.7854 26.9469 22.7008 26.7563 21.3484C26.4499 19.1753 26.9813 17.1362 27.758 15.1619C28.3553 13.6435 29.6005 12.8606 31.2331 12.8566C32.8175 12.8528 34.046 13.5849 34.6786 15.0518C35.3759 16.6684 35.8348 18.3629 35.8251 20.152C35.8152 22.0034 35.3508 23.6273 33.6556 24.6749C33.5471 24.7418 33.4892 24.9766 33.4953 25.13C33.6017 27.7797 33.7216 30.4288 33.8391 33.0781C33.9169 34.8334 34.0196 36.5881 34.0663 38.3441C34.1045 39.7786 33.1448 40.8738 31.7059 41.1298C30.4222 41.3583 29.0488 40.6128 28.6207 39.3664C28.4578 38.8919 28.4402 38.3454 28.4574 37.8352C28.5253 35.8355 28.6336 33.8371 28.685 32.7328ZM30.4106 31.3417C30.4099 31.3416 30.4091 31.3416 30.4083 31.3416C30.3782 32.024 30.3489 32.7065 30.3179 33.3892C30.2441 35.014 30.1563 36.6385 30.1008 38.2641C30.0749 39.0248 30.5423 39.485 31.2575 39.4787C31.9753 39.4723 32.4089 39.0112 32.4082 38.2514C32.408 38.1215 32.3971 37.9915 32.391 37.8614C32.1856 33.393 31.9809 28.9246 31.7734 24.4563C31.7516 23.9834 31.9267 23.6446 32.3691 23.4395C32.6176 23.3243 32.8625 23.1877 33.0801 23.0224C33.9785 22.3404 34.1176 21.3436 34.1579 20.3177C34.2196 18.7399 33.7473 17.2649 33.2088 15.8179C32.8899 14.961 32.1761 14.5237 31.268 14.5153C30.3591 14.5065 29.6297 14.9307 29.3054 15.7842C28.7452 17.2584 28.283 18.7667 28.3384 20.3787C28.3854 21.7524 28.7874 22.9029 30.1816 23.4746C30.6198 23.6542 30.746 24.0232 30.7254 24.4685C30.619 26.7594 30.5154 29.0505 30.4106 31.3417Z" fill="#C10037"/>
<path fill-rule="evenodd" clip-rule="evenodd" d="M16.287 31.3478C16.3983 29.0402 16.5026 26.7323 16.6286 24.4257C16.6464 24.0994 16.5537 23.8787 16.324 23.6592C15.7243 23.0858 15.1178 22.5147 14.5719 21.8923C14.3568 21.6469 14.1853 21.2686 14.181 20.9483C14.1486 18.5893 14.1605 16.2296 14.1654 13.87C14.1667 13.2237 14.5093 12.8275 15.023 12.8436C15.5209 12.8594 15.8248 13.2365 15.8259 13.8677C15.8295 16.0156 15.8342 18.1636 15.8205 20.3115C15.8183 20.6606 15.8983 20.9191 16.1625 21.1654C16.7692 21.7309 17.338 22.3369 17.9324 22.9158C18.2344 23.21 18.3494 23.5515 18.3275 23.9692C18.0824 28.6646 17.8432 33.3601 17.6046 38.0559C17.5664 38.8064 17.8769 39.2839 18.4864 39.4365C18.997 39.5643 19.5339 39.3381 19.7454 38.8532C19.8452 38.6244 19.896 38.3501 19.8839 38.1004C19.6563 33.4041 19.419 28.7085 19.1735 24.0131C19.1497 23.5564 19.2763 23.1953 19.6064 22.8777C20.1927 22.3137 20.7504 21.7201 21.3402 21.16C21.5824 20.93 21.683 20.6939 21.6805 20.3547C21.6649 18.2231 21.6697 16.0914 21.6771 13.9599C21.6779 13.7376 21.6668 13.4505 21.792 13.3088C21.9769 13.0995 22.2918 12.8579 22.5277 12.8802C22.7883 12.905 23.0584 13.1809 23.2531 13.4084C23.3579 13.5308 23.3333 13.7808 23.3337 13.9733C23.3384 16.2677 23.3295 18.5622 23.3427 20.8563C23.3453 21.3138 23.2022 21.6671 22.8724 21.981C22.295 22.5305 21.7495 23.1134 21.1717 23.6625C20.9395 23.8831 20.8554 24.1074 20.8723 24.431C21.1087 28.9475 21.3262 33.4652 21.5587 37.9818C21.6737 40.2164 19.7079 41.7388 17.7024 40.9525C16.5369 40.4956 15.8704 39.3656 15.9431 37.9766C16.0588 35.7669 16.1724 33.5573 16.287 31.3478Z" fill="#C10037"/>
<path fill-rule="evenodd" clip-rule="evenodd" d="M41.6656 25.2331C41.6816 29.6145 40.1232 33.6114 36.93 36.9636C36.5018 37.4133 36.0214 37.4946 35.6453 37.174C35.2436 36.8313 35.2419 36.3326 35.6996 35.851C37.2214 34.2498 38.4186 32.4435 39.1263 30.3463C40.6079 25.9564 40.2148 21.7311 37.8939 17.7118C37.4893 17.0109 36.9685 16.3772 36.5077 15.7083C36.1942 15.2535 36.2374 14.7726 36.6048 14.489C36.9987 14.1848 37.4768 14.2677 37.8422 14.718C40.2718 17.7119 41.5454 21.1354 41.6656 25.2331Z" fill="#C10037"/>
<path fill-rule="evenodd" clip-rule="evenodd" d="M8.34277 25.0077C8.37259 21.7376 9.41986 18.5273 11.4503 15.6366C11.7802 15.1669 12.2664 15.0575 12.672 15.3407C13.0665 15.6163 13.1404 16.1049 12.8028 16.5931C11.758 18.1049 10.9318 19.7222 10.5042 21.513C9.28456 26.6221 10.333 31.2073 13.7471 35.2261C13.9578 35.4741 14.1922 35.7028 14.3917 35.959C14.7039 36.3595 14.6621 36.845 14.3131 37.1365C13.9521 37.4383 13.4868 37.4278 13.136 37.0248C12.4644 36.2528 11.7705 35.4883 11.1976 34.6449C9.28065 31.8235 8.35046 28.6833 8.34277 25.0077Z" fill="#C10037"/>
<path fill-rule="evenodd" clip-rule="evenodd" d="M29.5553 9.88756C29.5643 10.4971 29.0777 10.8092 28.4318 10.7381C27.0969 10.591 25.7588 10.4165 24.4188 10.385C22.8656 10.3484 21.3615 10.7194 19.8951 11.2328C19.2774 11.449 18.8383 11.2916 18.6578 10.8368C18.4705 10.3648 18.6806 9.91139 19.2114 9.71371C21.1812 8.98028 23.2256 8.61605 25.3206 8.69249C26.4821 8.73494 27.638 8.95815 28.794 9.11676C29.25 9.1794 29.5099 9.46485 29.5553 9.88756Z" fill="#C10037"/>
<path fill-rule="evenodd" clip-rule="evenodd" d="M18.3405 17.0369C18.3405 18.0288 18.3449 19.0207 18.3368 20.0125C18.3351 20.2211 18.3229 20.4427 18.2522 20.6347C18.1214 20.99 17.8394 21.1684 17.4535 21.1468C17.0673 21.1253 16.8201 20.9139 16.7133 20.5491C16.6775 20.4266 16.6757 20.2915 16.6755 20.1622C16.6735 18.0482 16.6737 15.9343 16.6755 13.8205C16.6755 13.7072 16.6792 13.59 16.7072 13.4814C16.8085 13.0881 17.0783 12.8665 17.4743 12.8507C17.8503 12.8356 18.1393 13.0242 18.2582 13.3888C18.3221 13.5848 18.3356 13.8037 18.3372 14.0124C18.3448 15.0205 18.3405 16.0287 18.3405 17.0369Z" fill="#C10037"/>
<path fill-rule="evenodd" clip-rule="evenodd" d="M20.8261 17.0135C20.8262 18.0541 20.8314 19.0949 20.8242 20.1356C20.8198 20.7877 20.5371 21.1345 20.0244 21.1489C19.4935 21.1639 19.165 20.7976 19.1627 20.1364C19.1549 18.0389 19.1515 15.9411 19.1644 13.8434C19.1692 13.0666 19.7779 12.6307 20.3737 12.9412C20.74 13.1323 20.8287 13.4617 20.8272 13.8427C20.8236 14.8996 20.8259 15.9566 20.8261 17.0135Z" fill="#C10037"/>
<path fill-rule="evenodd" clip-rule="evenodd" d="M25.0196 40.3461C25.6048 40.3124 26.1566 40.2732 26.7093 40.2507C27.279 40.2273 27.6398 40.4999 27.6927 40.9731C27.7443 41.434 27.4308 41.8619 26.8858 41.8813C25.6375 41.9256 24.3857 41.9273 23.1372 41.8856C22.5837 41.8671 22.2817 41.4577 22.3237 40.9826C22.3651 40.5146 22.7321 40.2309 23.2979 40.2525C23.8829 40.2747 24.467 40.3154 25.0196 40.3461Z" fill="#C10037"/>
<path fill-rule="evenodd" clip-rule="evenodd" d="M30.4105 31.3417C30.5152 29.0505 30.6189 26.7594 30.7255 24.4686C30.7462 24.0233 30.6199 23.6543 30.1817 23.4747C28.7874 22.903 28.3855 21.7525 28.3385 20.3789C28.2831 18.7668 28.7453 17.2586 29.3055 15.7843C29.6299 14.9308 30.3592 14.5067 31.2682 14.5154C32.1762 14.5239 32.89 14.9611 33.2089 15.818C33.7474 17.2651 34.2196 18.74 34.158 20.3178C34.1177 21.3437 33.9786 22.3406 33.0802 23.0226C32.8626 23.1878 32.6175 23.3244 32.3692 23.4397C31.9268 23.6448 31.7515 23.9835 31.7736 24.4565C31.981 28.9247 32.1857 33.3931 32.3911 37.8615C32.3971 37.9916 32.408 38.1216 32.4083 38.2516C32.4091 39.0113 31.9754 39.4724 31.2576 39.4788C30.5424 39.4852 30.075 39.025 30.1009 38.2642C30.1563 36.6387 30.2441 35.0142 30.318 33.3894C30.349 32.7067 30.3783 32.0242 30.4084 31.3417C30.4089 31.3416 30.4097 31.3416 30.4105 31.3417Z" fill="#FF823B"/>
</g>
<defs>
<clipPath id="clip0_64_11896">
<rect width="50" height="50" fill="white" transform="translate(0 0.335938)"/>
</clipPath>
</defs>
</svg>
