<svg width="25" height="25" viewBox="0 0 25 25" fill="none" xmlns="http://www.w3.org/2000/svg">
<path fill-rule="evenodd" clip-rule="evenodd" d="M17.624 21.5648C16.1129 22.6284 14.6204 23.679 13.1276 24.7293C13.0335 24.7954 12.9413 24.8659 12.8411 24.9214C12.5652 25.0744 12.2307 24.9975 12.0511 24.7466C11.8619 24.4824 11.8977 24.135 12.1515 23.9222C12.3141 23.7859 12.4939 23.6703 12.6654 23.5459C11.5492 22.4758 10.4552 21.4047 9.336 20.361C8.43917 19.5246 7.7347 18.5252 6.94502 17.5982C6.5444 17.1279 6.16572 16.6387 5.76431 16.1692C5.69657 16.09 5.56446 16.0269 5.46072 16.0248C4.79587 16.012 4.13068 16.0188 3.46563 16.0181C2.28223 16.0169 1.47895 15.457 1.05757 14.3409C1.04627 14.311 1.0324 14.282 1.01316 14.2374C0.86698 14.2374 0.719489 14.2442 0.572788 14.2359C0.265062 14.2185 0.0275671 13.9866 0.00260218 13.6892C-0.024465 13.3668 0.161458 13.102 0.474899 13.0327C0.577781 13.0099 0.686444 13.0064 0.792545 13.0064C8.60098 13.0052 16.4094 13.0052 24.2179 13.0056C24.6794 13.0056 24.9433 13.1846 24.9925 13.5267C25.0471 13.9056 24.7982 14.2181 24.4183 14.236C24.2222 14.2454 24.0254 14.2377 23.8296 14.2377C23.7646 14.3957 23.7162 14.5453 23.6444 14.6827C23.2013 15.5297 22.5018 15.9846 21.5506 16.0136C20.911 16.033 20.2702 16.0173 19.6966 16.0173C19.4559 16.3143 19.2532 16.5777 19.0364 16.8286C18.6756 17.2462 18.2896 17.6428 17.944 18.0724C17.5277 18.5899 17.2425 19.169 17.2951 19.8647C17.2989 19.914 17.303 19.9638 17.313 20.012C17.3213 20.052 17.3388 20.0901 17.3645 20.1647C17.7843 19.9906 18.043 20.2577 18.3159 20.522C18.8957 21.0833 19.4861 21.6334 20.0743 22.1859C20.2512 22.3521 20.3734 22.5399 20.3319 22.7948C20.2929 23.0339 20.1588 23.2068 19.9294 23.2838C19.6926 23.3634 19.475 23.3105 19.2914 23.1374C18.8422 22.7137 18.3942 22.2886 17.9454 21.8644C17.8439 21.7688 17.7414 21.6742 17.624 21.5648ZM13.7143 22.8196C14.6062 22.1951 15.4731 21.5881 16.3455 20.9773C15.7714 19.6656 16.1113 18.5063 16.8906 17.4326C17.175 17.0407 17.5224 16.6952 17.8408 16.3284C17.9078 16.2512 17.9735 16.173 18.0399 16.0954C17.5735 16.1515 17.2158 16.3891 16.9015 16.6946C16.6183 16.9699 16.3526 17.2633 16.0769 17.5465C15.6927 17.9409 15.2455 18.2419 14.7357 18.447C13.9655 18.7569 13.1818 18.7968 12.3704 18.6168C11.2942 18.3782 10.3058 17.993 9.50471 17.1897C9.12222 16.8061 8.68606 16.4766 8.27151 16.1258C8.21783 16.0804 8.14905 16.027 8.08532 16.0242C7.81997 16.0128 7.55396 16.0195 7.29091 16.0195C9.10107 18.6154 11.4278 20.6819 13.7143 22.8196ZM2.3449 14.2467C2.63785 14.65 2.99314 14.7853 3.43107 14.7851C9.42305 14.7815 15.415 14.7828 21.4069 14.7825C21.4889 14.7825 21.5721 14.7874 21.6528 14.7758C21.9959 14.7266 22.2756 14.5765 22.4849 14.2467C15.7619 14.2467 9.08267 14.2467 2.3449 14.2467ZM15.8116 16.0322C13.8826 16.0322 11.995 16.0322 10.106 16.0322C10.8258 16.9091 11.7935 17.292 12.8606 17.4481C13.2005 17.4978 13.5642 17.4744 13.9043 17.413C14.7339 17.2631 15.2587 16.6568 15.8116 16.0322Z" fill="#0F278A"/>
<path fill-rule="evenodd" clip-rule="evenodd" d="M11.0375 1.74468C10.9793 1.51888 10.9129 1.32223 10.8793 1.12003C10.7819 0.532265 11.2164 0.013311 11.8085 0.00458574C12.2188 -0.00142939 12.6294 -0.00169379 13.0397 0.00478404C13.6207 0.013972 14.0501 0.520433 13.967 1.10152C13.937 1.31139 13.8797 1.51742 13.8322 1.73734C14.2522 1.82367 14.6616 1.89651 15.0656 1.99255C19.2873 2.99629 22.5873 6.58573 23.2663 10.9082C23.2996 11.12 23.3371 11.3319 23.3561 11.5451C23.3932 11.9626 23.1773 12.2576 22.8195 12.2963C22.4696 12.3341 22.211 12.078 22.1321 11.6708C21.999 10.9843 21.914 10.2766 21.6823 9.62324C20.3853 5.96591 17.835 3.70224 14.0274 3.04223C9.13758 2.19462 4.56118 5.07045 3.08733 9.81982C2.90528 10.4063 2.81659 11.0247 2.71601 11.6335C2.63691 12.1121 2.3799 12.3959 2.00451 12.3429C1.6621 12.2946 1.44746 12.017 1.48097 11.6283C1.56572 10.6444 1.77996 9.68597 2.14602 8.77094C3.54117 5.28316 6.04771 3.03621 9.64561 2.02342C9.87404 1.95911 10.1086 1.91594 10.3415 1.86934C10.5655 1.82466 10.7912 1.78843 11.0375 1.74468ZM12.133 1.24773C12.2939 1.38635 12.1559 1.67395 12.4513 1.65121C12.7098 1.63125 12.5936 1.396 12.6766 1.24773C12.4981 1.24773 12.3481 1.24773 12.133 1.24773Z" fill="#0F278A"/>
<path fill-rule="evenodd" clip-rule="evenodd" d="M20.1095 9.51295C20.1079 9.83995 19.919 10.0822 19.6445 10.1534C19.3886 10.2198 19.1036 10.0999 18.9753 9.8568C18.9143 9.74146 18.8776 9.61289 18.8325 9.48928C18.1852 7.71727 16.9844 6.48331 15.2531 5.76797C14.8684 5.60906 14.6942 5.29588 14.8194 4.95646C14.9464 4.61254 15.2882 4.46117 15.67 4.6163C17.8696 5.51005 19.3422 7.09275 20.0809 9.36283C20.101 9.4247 20.1055 9.49153 20.1095 9.51295Z" fill="#F5CD07" fill-opacity="0.9"/>
<path fill-rule="evenodd" clip-rule="evenodd" d="M13.7144 22.8197C11.4278 20.6819 9.1011 18.6155 7.29102 16.0195C7.554 16.0195 7.82008 16.0128 8.08543 16.0243C8.14922 16.027 8.21794 16.0805 8.27161 16.1259C8.68616 16.4767 9.12239 16.8061 9.50481 17.1897C10.3058 17.993 11.2943 18.3782 12.3705 18.6169C13.1819 18.7968 13.9656 18.7569 14.7358 18.447C15.2456 18.2419 15.6928 17.9409 16.077 17.5465C16.3527 17.2634 16.6184 16.9699 16.9016 16.6946C17.216 16.3891 17.5736 16.1515 18.04 16.0955C17.9736 16.1731 17.9078 16.2512 17.8409 16.3284C17.5225 16.6953 17.1751 17.0407 16.8907 17.4326C16.1114 18.5063 15.7715 19.6656 16.3456 20.9773C15.4731 21.5881 14.6063 22.1951 13.7144 22.8197Z" fill="#F5CD07" fill-opacity="0.9"/>
<path fill-rule="evenodd" clip-rule="evenodd" d="M2.34473 14.2468C9.08256 14.2468 15.7618 14.2468 22.4846 14.2468C22.2754 14.5765 21.9957 14.7267 21.6526 14.7759C21.5719 14.7875 21.4887 14.7826 21.4066 14.7826C15.4147 14.7828 9.42274 14.7816 3.43083 14.7852C2.99296 14.7855 2.63767 14.65 2.34473 14.2468Z" fill="#F5CD07" fill-opacity="0.9"/>
<path fill-rule="evenodd" clip-rule="evenodd" d="M15.8121 16.0322C15.2591 16.6569 14.7343 17.2631 13.9047 17.4131C13.5647 17.4745 13.201 17.4979 12.8611 17.4481C11.794 17.292 10.8263 16.9091 10.1064 16.0322C11.9955 16.0322 13.8831 16.0322 15.8121 16.0322Z" fill="white"/>
<path fill-rule="evenodd" clip-rule="evenodd" d="M12.1338 1.2478C12.3488 1.2478 12.4989 1.2478 12.6773 1.2478C12.5944 1.39607 12.7105 1.63132 12.452 1.65128C12.1567 1.67408 12.2946 1.38648 12.1338 1.2478Z" fill="#F5CD07" fill-opacity="0.9"/>
</svg>
