<svg width="26" height="22" viewBox="0 0 26 22" fill="none" xmlns="http://www.w3.org/2000/svg">
<path fill-rule="evenodd" clip-rule="evenodd" d="M15.5791 14.1142C16.2893 12.9739 16.9802 11.8612 17.6748 10.7511C17.9746 10.2721 18.4339 10.0686 18.8846 10.2669C19.0925 10.3583 19.3077 10.5286 19.4316 10.7262C21.4275 13.9088 23.4088 17.1018 25.395 20.2915C25.4986 20.4579 25.5432 20.6267 25.4462 20.8086C25.3416 21.0049 25.164 21.0197 24.9747 21.0196C18.9119 21.0177 12.849 21.0181 6.78613 21.0181C4.86936 21.0181 2.9526 21.0168 1.03589 21.0198C0.837694 21.0201 0.651276 21.0057 0.54668 20.7952C0.443137 20.5869 0.528775 20.4114 0.639033 20.2344C3.39079 15.816 6.13966 11.3957 8.89142 6.97725C9.48082 6.03085 10.5371 6.0286 11.1269 6.97331C12.5553 9.26122 13.9787 11.5527 15.4044 13.8425C15.4538 13.9221 15.5056 14.0002 15.5791 14.1142ZM1.62786 20.1738C1.76675 20.1738 1.85496 20.1738 1.94316 20.1738C3.87632 20.1738 5.80948 20.1738 7.74264 20.1738C9.02597 20.1738 10.3092 20.1765 11.5924 20.1684C11.6906 20.1677 11.8312 20.1216 11.8798 20.0445C12.9309 18.3749 13.9726 16.6987 15.0111 15.0202C15.0477 14.9611 15.0669 14.8416 15.036 14.7904C14.6677 14.1803 14.2885 13.5778 13.9024 12.9577C13.8206 13.0343 13.7618 13.093 13.6995 13.1473C12.8791 13.8624 11.7538 14.2623 10.6582 13.2489C10.5774 13.1741 10.4898 13.1077 10.4099 13.0319C10.1614 12.7959 9.91507 12.5571 9.6363 12.289C9.1095 13.1437 8.59488 13.9693 8.09112 14.8025C7.96184 15.0164 7.80609 15.1143 7.56452 15.1116C6.71728 15.1017 5.86991 15.1131 5.02267 15.1034C4.8481 15.1014 4.74081 15.1492 4.6447 15.3136C4.37469 15.7755 4.08446 16.2239 3.80227 16.6776C3.0882 17.8259 2.37399 18.9741 1.62786 20.1738ZM21.3392 15.2985C20.2133 16.1989 19.5273 15.9785 18.7151 15.2007C18.5888 15.0799 18.462 14.9597 18.3131 14.8181C17.9687 15.3788 17.6324 15.9086 17.3149 16.4508C17.1776 16.6852 17.0077 16.7904 16.7489 16.7849C16.1983 16.7733 15.6472 16.788 15.0966 16.7775C14.9302 16.7743 14.8295 16.8289 14.7372 16.9797C14.1295 17.9714 13.5123 18.9566 12.8989 19.9444C12.8598 20.0074 12.8264 20.0744 12.7803 20.1579C16.6467 20.1579 20.4867 20.1579 24.364 20.1579C23.3467 18.5236 22.3477 16.9186 21.3392 15.2985ZM13.4658 12.2569C13.2675 11.9369 13.1004 11.6662 12.9324 11.3962C12.1178 10.0874 11.3032 8.77863 10.4878 7.4704C10.306 7.17886 10.0984 7.05156 9.879 7.15979C9.73353 7.23149 9.59871 7.37378 9.50761 7.51909C8.15451 9.67893 6.80943 11.8445 5.46291 14.0091C5.419 14.0797 5.38004 14.1538 5.31803 14.2625C6.03256 14.2625 6.71135 14.2665 7.39001 14.2557C7.44965 14.2546 7.52351 14.1679 7.56445 14.1022C7.86521 13.62 8.14819 13.1248 8.45888 12.6502C8.71264 12.2625 8.99036 11.8919 9.27044 11.525C9.42336 11.3246 9.63498 11.2834 9.84773 11.4087C9.98248 11.4881 10.1018 11.6008 10.2198 11.7089C10.5629 12.0231 10.9036 12.3404 11.242 12.6604C11.7414 13.1325 12.278 13.0864 12.8161 12.7689C13.0418 12.6357 13.236 12.4407 13.4658 12.2569ZM20.8829 14.5619C20.2039 13.4706 19.5308 12.388 18.8568 11.306C18.6341 10.9485 18.5007 10.947 18.2805 11.3005C17.3691 12.7636 16.4584 14.2271 15.5482 15.6911C15.5052 15.7602 15.4692 15.8345 15.4114 15.9407C15.785 15.9407 16.1204 15.9297 16.4546 15.9452C16.6264 15.9532 16.7164 15.8812 16.8076 15.734C17.1343 15.2069 17.4619 14.6789 17.817 14.1736C18.1297 13.7286 18.3505 13.7212 18.739 14.0817C18.9688 14.2949 19.1894 14.5199 19.4243 14.7263C19.9264 15.1677 20.4195 15.1156 20.8829 14.5619Z" fill="#0F278A"/>
<path fill-rule="evenodd" clip-rule="evenodd" d="M17.1287 7.37309C15.5861 7.37844 14.3279 6.03382 14.3194 4.37093C14.3108 2.70268 15.5682 1.34174 17.1242 1.33499C18.6832 1.32823 19.9544 2.67376 19.9617 4.33834C19.969 6.01517 18.7064 7.36774 17.1287 7.37309ZM15.1089 4.35115C15.1078 5.55052 15.9997 6.51775 17.1168 6.52852C18.2545 6.53949 19.1721 5.56453 19.1717 4.34524C19.1713 3.15825 18.2621 2.18476 17.1487 2.17935C16.0225 2.17386 15.1099 3.14552 15.1089 4.35115Z" fill="#0F278A"/>
<path fill-rule="evenodd" clip-rule="evenodd" d="M19.745 2.06755C19.6064 1.90936 19.4388 1.71824 19.2686 1.52395C19.4213 1.36949 19.5847 1.20433 19.7605 1.02637C19.9014 1.2006 20.065 1.40291 20.2401 1.61944C20.112 1.73541 19.9391 1.89198 19.745 2.06755Z" fill="#0F278A"/>
<path fill-rule="evenodd" clip-rule="evenodd" d="M14.0107 7.13345C14.1697 6.96091 14.324 6.79343 14.468 6.63721C14.6471 6.82263 14.8266 7.00847 14.9986 7.18651C14.8446 7.34702 14.6829 7.51556 14.5156 7.68986C14.3614 7.51992 14.187 7.32774 14.0107 7.13345Z" fill="#0F278A"/>
<path fill-rule="evenodd" clip-rule="evenodd" d="M13.7738 3.95166C13.7738 4.22399 13.7738 4.48217 13.7738 4.75711C13.5382 4.75711 13.3142 4.75711 13.0742 4.75711C13.0742 4.49041 13.0742 4.23229 13.0742 3.95166C13.2983 3.95166 13.5219 3.95166 13.7738 3.95166Z" fill="#0F278A"/>
<path fill-rule="evenodd" clip-rule="evenodd" d="M17.5215 8.70806C17.2569 8.70806 17.0208 8.70806 16.7656 8.70806C16.7656 8.45994 16.7656 8.2197 16.7656 7.95898C17.0096 7.95898 17.2579 7.95898 17.5215 7.95898C17.5215 8.20682 17.5215 8.44643 17.5215 8.70806Z" fill="#0F278A"/>
<path fill-rule="evenodd" clip-rule="evenodd" d="M16.7588 0.746793C16.7588 0.501204 16.7588 0.269127 16.7588 0.0200195C17.0156 0.0200195 17.2633 0.0200195 17.524 0.0200195C17.524 0.26589 17.524 0.497615 17.524 0.746793C17.272 0.746793 17.0298 0.746793 16.7588 0.746793Z" fill="#0F278A"/>
<path fill-rule="evenodd" clip-rule="evenodd" d="M21.1975 3.94531C21.1975 4.22763 21.1975 4.48582 21.1975 4.75899C20.9665 4.75899 20.7493 4.75899 20.5146 4.75899C20.5146 4.49131 20.5146 4.22644 20.5146 3.94531C20.7382 3.94531 20.9546 3.94531 21.1975 3.94531Z" fill="#0F278A"/>
<path fill-rule="evenodd" clip-rule="evenodd" d="M14.4998 2.07969C14.3391 1.90131 14.1823 1.72729 14.0225 1.54974C14.1738 1.38726 14.3497 1.19853 14.5217 1.01367C14.6848 1.18945 14.8434 1.36038 15.0085 1.53849C14.8474 1.7099 14.6706 1.89793 14.4998 2.07969Z" fill="#0F278A"/>
<path fill-rule="evenodd" clip-rule="evenodd" d="M20.2615 7.164C20.0937 7.33436 19.9175 7.51352 19.746 7.68775C19.6008 7.52935 19.4437 7.358 19.293 7.19362C19.451 7.03367 19.6324 6.85022 19.8197 6.66064C19.9352 6.79223 20.0887 6.9671 20.2615 7.164Z" fill="#0F278A"/>
<path fill-rule="evenodd" clip-rule="evenodd" d="M21.3391 15.2988C22.3477 16.9189 23.3467 18.5239 24.364 20.1582C20.4867 20.1582 16.6467 20.1582 12.7803 20.1582C12.8264 20.0747 12.8597 20.0077 12.8988 19.9447C13.5123 18.9568 14.1294 17.9717 14.7371 16.98C14.8295 16.8292 14.9302 16.7746 15.0965 16.7778C15.6472 16.7883 16.1983 16.7736 16.7489 16.7852C17.0076 16.7907 17.1776 16.6855 17.3148 16.4511C17.6324 15.9089 17.9686 15.3791 18.3131 14.8184C18.4619 14.9601 18.5888 15.0803 18.715 15.201C19.5273 15.9788 20.2133 16.1991 21.3391 15.2988Z" fill="#F5CD07" fill-opacity="0.9"/>
<path fill-rule="evenodd" clip-rule="evenodd" d="M13.4653 12.2569C13.2354 12.4407 13.0413 12.6357 12.8154 12.7689C12.2774 13.0864 11.7408 13.1325 11.2414 12.6604C10.9029 12.3404 10.5623 12.0231 10.2191 11.7089C10.1012 11.6009 9.98183 11.4882 9.84709 11.4088C9.6344 11.2834 9.42278 11.3247 9.2698 11.525C8.98978 11.8919 8.71206 12.2625 8.45824 12.6502C8.14754 13.1248 7.86456 13.62 7.5638 14.1022C7.52286 14.1679 7.449 14.2546 7.38937 14.2557C6.71077 14.2665 6.03192 14.2625 5.31738 14.2625C5.37939 14.1538 5.41836 14.0797 5.46226 14.0091C6.80879 11.8446 8.15386 9.67894 9.50697 7.5191C9.59807 7.37372 9.73288 7.2315 9.87835 7.15979C10.0977 7.05157 10.3054 7.17886 10.4871 7.4704C11.3026 8.77857 12.1171 10.0874 12.9317 11.3962C13.0998 11.6662 13.267 11.9369 13.4653 12.2569Z" fill="#F5CD07" fill-opacity="0.9"/>
<path fill-rule="evenodd" clip-rule="evenodd" d="M15.1084 4.35103C15.1095 3.14539 16.0221 2.1738 17.1482 2.17922C18.2616 2.18464 19.1708 3.1582 19.1712 4.34512C19.1716 5.5644 18.254 6.53937 17.1163 6.52839C15.9991 6.51762 15.1073 5.5504 15.1084 4.35103Z" fill="#F5CD07" fill-opacity="0.9"/>
</svg>
