<svg width="26" height="25" viewBox="0 0 26 25" fill="none" xmlns="http://www.w3.org/2000/svg">
<path fill-rule="evenodd" clip-rule="evenodd" d="M8.48758 7.52805C8.61954 7.45163 8.72727 7.38935 8.85898 7.31308C8.27344 6.66535 8.03659 5.93063 8.24494 5.09429C8.39087 4.50864 8.72956 4.04109 9.24805 3.70147C10.3008 3.01181 11.7134 3.19688 12.521 4.13879C12.9921 4.68819 13.1789 5.32125 13.0611 6.03224C12.9454 6.731 12.5559 7.26059 11.9465 7.67447C12.5637 8.24236 13.1593 8.79543 13.764 9.33916C13.826 9.39493 13.9423 9.39459 14.0981 9.43847C14.023 9.17679 13.9656 8.97826 13.9092 8.77949C13.8736 8.65405 13.8263 8.53008 13.8071 8.40229C13.7672 8.13816 13.9171 7.92011 14.1641 7.85876C14.4299 7.79282 14.683 7.9094 14.7731 8.16859C14.8911 8.50787 14.9905 8.85336 15.0874 9.19895C15.1279 9.34342 15.1904 9.40653 15.3618 9.40951C16.1155 9.42277 16.6177 9.7938 16.7789 10.4327C16.93 11.0312 16.6505 11.5751 16.0105 11.9303C15.9895 11.942 15.9727 11.9606 15.9375 11.9894C16.1566 12.7092 16.378 13.4337 16.5974 14.1588C16.9424 15.2993 17.2903 16.4391 17.626 17.5822C17.6815 17.7711 17.7627 17.839 17.9733 17.8329C18.5398 17.8164 19.1074 17.8179 19.674 17.8323C19.8687 17.8373 19.9866 17.7713 20.0942 17.6266C20.2615 17.4016 20.4408 17.1843 20.6239 16.9707C20.8334 16.7263 21.1342 16.6878 21.361 16.8658C21.5789 17.0367 21.6117 17.325 21.4242 17.5652C21.1547 17.9103 20.8734 18.2468 20.5989 18.5883C20.4544 18.768 20.2578 18.8074 20.0354 18.807C18.7829 18.804 17.5304 18.8105 16.278 18.8007C16.0652 18.7991 15.9184 18.8625 15.7676 19.0022C14.7613 19.9344 13.7431 20.8547 12.7365 21.7867C12.5453 21.9637 12.3397 22.0375 12.0777 22.0369C9.70818 22.032 7.33859 22.0318 4.96906 22.0394C4.81937 22.04 4.65018 22.0871 4.5235 22.1637C3.3065 22.9005 2.0986 23.6511 0.881958 24.3884C0.753706 24.4661 0.58487 24.5243 0.437215 24.5199C0.216774 24.5132 0.066326 24.3638 0.0155331 24.1537C-0.0411009 23.9196 0.060434 23.7405 0.266247 23.6139C0.98588 23.171 1.70602 22.7287 2.42601 22.2864C2.96782 21.9535 3.51694 21.631 4.04869 21.284C4.30651 21.1157 4.56744 21.022 4.87778 21.054C4.95798 21.0622 5.04067 21.0482 5.14277 21.0435C5.10152 20.8819 5.05388 20.7437 5.03255 20.6019C4.97647 20.2294 5.0389 19.8751 5.21342 19.5343C5.5872 18.8044 5.9521 18.0703 6.31852 17.3368C6.35839 17.257 6.40609 17.1723 6.41264 17.0871C6.47019 16.3404 6.5192 15.5931 6.5704 14.8514C6.16756 14.7866 5.78626 14.7283 5.40618 14.6636C4.62321 14.5302 4.15073 13.9535 4.26527 13.1921C4.41663 12.1853 4.61625 11.1854 4.7957 10.1825C4.84741 9.8937 4.88647 9.60173 4.95951 9.31798C4.99816 9.16793 5.10533 9.03535 5.16598 8.88888C5.1963 8.81564 5.2151 8.72435 5.1991 8.64906C5.00314 7.7252 5.56328 6.84347 6.49736 6.61662C7.16067 6.45552 7.87984 6.70918 8.29482 7.25261C8.35902 7.33656 8.41632 7.4257 8.48758 7.52805ZM10.9362 11.6294C10.7862 11.5032 10.6656 11.4012 10.5443 11.2999C10.4229 11.1985 10.2983 11.1004 10.1796 10.9962C9.91811 10.7663 9.88448 10.4856 10.0881 10.2656C10.286 10.0516 10.5883 10.0507 10.8552 10.2687C11.1328 10.4952 11.4014 10.7321 11.6852 10.9509C11.7699 11.0162 11.8922 11.0705 11.9978 11.0713C13.1061 11.0799 14.2145 11.078 15.3229 11.0756C15.6347 11.0749 15.8006 10.9441 15.7957 10.718C15.7908 10.4986 15.6384 10.3853 15.3307 10.3836C14.8062 10.3807 14.2815 10.3782 13.7571 10.3846C13.5227 10.3875 13.3378 10.3146 13.1678 10.1552C12.5433 9.56993 11.9021 9.00096 11.2802 8.41315C10.7437 7.90612 10.1186 7.94306 9.482 8.13258C8.88188 8.31125 8.57322 8.73976 8.47849 9.33481C8.36192 10.0668 8.22102 10.7952 8.09205 11.5254C8.01785 11.9457 7.94648 12.3664 7.86872 12.8165C9.03162 12.7132 10.0732 12.4281 10.9362 11.6294ZM13.6552 19.5886C13.3712 19.3243 13.0845 19.0977 12.849 18.8296C12.4066 18.3262 11.9643 17.8182 11.5771 17.2757C11.2005 16.7482 10.5941 16.6325 10.0429 16.3195C10.0268 16.5367 10.0122 16.7052 10.0021 16.8738C9.96606 17.4743 9.9269 18.0606 9.60411 18.6151C9.19583 19.3165 8.86309 20.0587 8.49875 20.7837C8.45954 20.8618 8.42693 20.943 8.38772 21.0307C8.42912 21.0419 8.45146 21.0532 8.47381 21.0532C9.62437 21.0546 10.775 21.0562 11.9255 21.0524C11.9946 21.0521 12.0807 21.0259 12.1297 20.9818C12.6542 20.5093 13.1729 20.0308 13.6552 19.5886ZM10.8741 12.9384C10.6397 13.0536 10.4484 13.1562 10.25 13.2437C9.51974 13.5654 8.75023 13.7349 7.95065 13.7917C7.85592 13.7984 7.70146 13.8424 7.68297 13.9009C7.50606 14.4608 7.79405 14.8775 8.26546 14.9924C8.3798 15.0202 8.49819 15.0328 8.61476 15.0519C9.44462 15.188 10.292 15.2583 11.0371 15.6966C11.2307 15.8105 11.453 15.879 11.648 15.9912C11.7965 16.0766 11.9468 16.1792 12.0546 16.3068C12.6201 16.9763 13.1706 17.6574 13.7298 18.332C14.0377 18.7034 14.4758 18.7741 14.8191 18.5157C15.1661 18.2546 15.1968 17.809 14.8886 17.4329C14.2549 16.6594 13.6221 15.8853 12.9802 15.1183C12.889 15.0094 12.7595 14.9181 12.6289 14.8545C12.1316 14.6124 11.6258 14.3868 11.1249 14.1515C10.8075 14.0024 10.72 13.8385 10.7728 13.5024C10.8006 13.3265 10.8356 13.1516 10.8741 12.9384ZM16.6202 17.8267C16.612 17.7539 16.6136 17.7134 16.6023 17.6764C16.0494 15.8508 15.4968 14.0249 14.9347 12.2018C14.9152 12.1388 14.7991 12.0623 14.7272 12.0615C13.8989 12.0516 13.0705 12.0571 12.2421 12.0532C12.1091 12.0525 12.0487 12.0876 12.0292 12.2256C11.9827 12.5559 11.9249 12.8853 11.8521 13.2109C11.8202 13.3538 11.8662 13.4149 11.9935 13.4718C12.4221 13.6635 12.8504 13.857 13.2695 14.0672C13.414 14.1397 13.5549 14.2446 13.6568 14.3663C14.3305 15.171 15.0072 15.9741 15.6509 16.8008C15.8518 17.0589 15.9499 17.3904 16.104 17.6839C16.1344 17.7418 16.1999 17.8084 16.2602 17.8204C16.3703 17.8424 16.4886 17.8267 16.6202 17.8267ZM7.52373 15.8168C7.50321 16.1312 7.47609 16.4558 7.46232 16.7809C7.44556 17.175 7.36897 17.5437 7.1725 17.9028C6.79872 18.5862 6.4615 19.2882 6.11728 19.9862C5.87825 20.471 6.13887 20.9612 6.66848 21.0438C6.99279 21.0944 7.29263 20.9324 7.46243 20.5987C7.84906 19.8391 8.22056 19.0722 8.6169 18.3173C8.81773 17.9349 8.97372 17.5531 8.97026 17.1142C8.96767 16.7849 9.00968 16.4552 9.03127 16.135C8.51795 16.0267 8.0344 15.9246 7.52373 15.8168ZM10.6326 7.04606C11.4257 7.04728 12.074 6.43198 12.0821 5.67026C12.0903 4.90115 11.4374 4.26604 10.6362 4.26374C9.84568 4.26144 9.19538 4.88148 9.19025 5.64228C9.18496 6.42059 9.82643 7.04489 10.6326 7.04606ZM5.88805 9.84737C5.81069 10.279 5.74116 10.672 5.66969 11.0645C5.54271 11.762 5.41197 12.4589 5.28773 13.1568C5.21571 13.5616 5.29469 13.6594 5.7213 13.7285C5.89628 13.7569 6.07009 13.7921 6.24518 13.8196C6.53734 13.8656 6.65665 13.7884 6.70734 13.51C6.84453 12.7564 6.97751 12.0021 7.11155 11.248C7.17931 10.8669 7.24574 10.4857 7.31518 10.0907C6.82802 10.0076 6.37322 9.93005 5.88805 9.84737ZM6.18189 8.277C6.18102 8.68056 6.49716 9.00703 6.89776 9.01632C7.29643 9.02557 7.62522 8.70454 7.63182 8.29951C7.63863 7.88205 7.31878 7.55446 6.90345 7.55349C6.49604 7.55246 6.18275 7.86659 6.18189 8.277Z" fill="#0F278A"/>
<path fill-rule="evenodd" clip-rule="evenodd" d="M21.0084 6.84208C20.4678 6.84208 19.9221 6.88757 19.3876 6.83229C18.3889 6.72887 17.5874 5.9555 17.4259 5.01599C17.259 4.04571 17.7495 3.08937 18.6452 2.6387C19.5347 2.1911 20.6305 2.33753 21.3404 3.02445C21.507 3.18565 21.6302 3.23335 21.8728 3.17655C22.6484 2.99505 23.32 3.21667 23.8245 3.81025C24.3223 4.3959 24.4167 5.06692 24.0932 5.7582C23.7607 6.4687 23.1565 6.83312 22.3534 6.87006C21.9061 6.89061 21.4569 6.87373 21.0086 6.87373C21.0085 6.86316 21.0084 6.85264 21.0084 6.84208ZM21.0142 5.89533C21.0142 5.89601 21.0142 5.89665 21.0142 5.89733C21.4289 5.89733 21.8437 5.89733 22.2584 5.89728C22.2754 5.89728 22.2923 5.89733 22.3092 5.8966C22.7445 5.87722 23.0878 5.63467 23.2091 5.26109C23.3274 4.89638 23.1996 4.51008 22.8843 4.27927C22.5516 4.03573 22.1472 4.03113 21.7737 4.26664C21.3747 4.51815 21.118 4.4573 20.8861 4.04962C20.6471 3.62972 20.2797 3.39768 19.7875 3.36637C19.0687 3.32068 18.4584 3.85687 18.4142 4.55812C18.3695 5.26951 18.9289 5.8625 19.6939 5.89219C20.1333 5.90932 20.574 5.89533 21.0142 5.89533Z" fill="#0F278A"/>
<path fill-rule="evenodd" clip-rule="evenodd" d="M4.92341 3.84077C4.92808 4.82651 4.09782 5.63246 3.07358 5.63652C2.05244 5.64058 1.21649 4.83605 1.2168 3.84938C1.21705 2.87054 2.03268 2.07926 3.05149 2.06943C4.07689 2.0595 4.91883 2.8562 4.92341 3.84077ZM2.2326 3.84135C2.22813 4.28724 2.59679 4.65146 3.0587 4.65763C3.51751 4.66379 3.90196 4.30313 3.9076 3.86132C3.91324 3.41788 3.5422 3.05351 3.07917 3.04773C2.61462 3.04191 2.23702 3.39591 2.2326 3.84135Z" fill="#0F278A"/>
<path fill-rule="evenodd" clip-rule="evenodd" d="M24.8591 12.8452C25.0706 12.8452 25.2823 12.8389 25.4935 12.8467C25.7895 12.8577 25.9963 13.0571 26.0004 13.3225C26.0044 13.5836 25.8002 13.8008 25.5088 13.8167C25.2389 13.8314 24.9672 13.83 24.697 13.8188C24.5298 13.812 24.4135 13.8539 24.3156 13.9931C24.1783 14.1881 24.0214 14.3711 23.8642 14.5524C23.652 14.7971 23.3523 14.8383 23.1269 14.6631C22.8991 14.486 22.8738 14.199 23.073 13.9451C23.287 13.6721 23.5167 13.4102 23.7245 13.133C23.8833 12.921 24.0807 12.8228 24.3516 12.8416C24.5199 12.8533 24.6898 12.8438 24.8591 12.8438C24.8591 12.8442 24.8591 12.8447 24.8591 12.8452Z" fill="#0F278A"/>
<path fill-rule="evenodd" clip-rule="evenodd" d="M3.57617 1.15631C3.5752 1.60483 3.30976 1.85581 2.94029 1.75737C2.66718 1.68463 2.55554 1.49764 2.56072 1.12158C2.56524 0.794577 2.69395 0.601186 2.94949 0.53744C3.3091 0.447667 3.57713 0.712485 3.57617 1.15631Z" fill="#0F278A"/>
<path fill-rule="evenodd" clip-rule="evenodd" d="M4.88497 2.55808C4.89355 2.28225 5.31397 1.94248 5.64006 1.94782C5.91937 1.95241 6.15469 2.19492 6.13894 2.46189C6.12269 2.7365 5.69029 3.07436 5.37344 3.05992C5.10424 3.04764 4.87699 2.81414 4.88497 2.55808Z" fill="#0F278A"/>
<path fill-rule="evenodd" clip-rule="evenodd" d="M3.57541 6.56813C3.5746 6.94141 3.48043 7.10623 3.23728 7.19253C3.02619 7.26748 2.78492 7.1935 2.65469 7.01386C2.50612 6.80892 2.52695 6.31187 2.69157 6.13389C2.83993 5.97338 3.0943 5.92318 3.29351 6.02147C3.54102 6.14358 3.58913 6.35918 3.57541 6.56813Z" fill="#0F278A"/>
<path fill-rule="evenodd" clip-rule="evenodd" d="M0.736062 3.06041C0.396207 3.05371 -0.00150066 2.71448 0.000988185 2.43337C0.00327386 2.17198 0.23301 1.94972 0.503025 1.94777C0.852175 1.94522 1.26492 2.29712 1.25237 2.5866C1.24104 2.84794 1.00379 3.0657 0.736062 3.06041Z" fill="#0F278A"/>
<path fill-rule="evenodd" clip-rule="evenodd" d="M5.63693 5.76989C5.29098 5.77209 4.89231 5.45023 4.88586 5.16345C4.87976 4.89286 5.1157 4.66908 5.40328 4.6729C5.76117 4.67765 6.14293 4.99799 6.13993 5.29113C6.13729 5.55771 5.91619 5.76813 5.63693 5.76989Z" fill="#0F278A"/>
<path fill-rule="evenodd" clip-rule="evenodd" d="M0.510658 5.77019C0.229926 5.77195 0.00831624 5.56721 0.00110366 5.29946C-0.00712479 4.99536 0.385656 4.66841 0.753295 4.6734C1.03037 4.67716 1.25294 4.89237 1.25249 5.15607C1.25193 5.44202 0.858233 5.76804 0.510658 5.77019Z" fill="#0F278A"/>
<path fill-rule="evenodd" clip-rule="evenodd" d="M22.6995 15.7109C22.7037 15.9738 22.482 16.1988 22.2096 16.2082C21.9293 16.2178 21.6864 15.9895 21.6875 15.7174C21.6886 15.4515 21.9108 15.24 22.1904 15.2388C22.4716 15.2375 22.6951 15.4447 22.6995 15.7109Z" fill="#0F278A"/>
<path fill-rule="evenodd" clip-rule="evenodd" d="M10.6328 7.04595C9.82664 7.04478 9.18518 6.42048 9.19046 5.64222C9.19559 4.88142 9.84589 4.26138 10.6364 4.26368C11.4376 4.26598 12.0905 4.90109 12.0824 5.6702C12.0742 6.43193 11.426 7.04723 10.6328 7.04595Z" fill="#F5CD07" fill-opacity="0.9"/>
<path fill-rule="evenodd" clip-rule="evenodd" d="M5.88759 9.84717C6.37271 9.92985 6.82751 10.0074 7.31472 10.0905C7.24528 10.4855 7.17885 10.8667 7.11109 11.2478C6.97705 12.0019 6.84407 12.7562 6.70688 13.5098C6.65619 13.7882 6.53687 13.8655 6.24471 13.8194C6.06963 13.7919 5.89582 13.7567 5.72084 13.7283C5.29423 13.6593 5.21519 13.5614 5.28727 13.1566C5.41146 12.4587 5.5422 11.7618 5.66923 11.0643C5.7407 10.6718 5.81023 10.2788 5.88759 9.84717Z" fill="#F5CD07" fill-opacity="0.9"/>
<path fill-rule="evenodd" clip-rule="evenodd" d="M6.18164 8.27723C6.18256 7.86682 6.4958 7.55269 6.90326 7.55371C7.31859 7.55469 7.63843 7.88228 7.63163 8.29973C7.62502 8.70476 7.29619 9.02584 6.89757 9.01655C6.49686 9.00725 6.18078 8.68079 6.18164 8.27723Z" fill="#F5CD07" fill-opacity="0.9"/>
<path fill-rule="evenodd" clip-rule="evenodd" d="M21.0146 5.89539C20.5744 5.89539 20.1337 5.90938 19.6943 5.89231C18.9292 5.86261 18.3699 5.26962 18.4146 4.55824C18.4588 3.85698 19.0691 3.32079 19.7879 3.36649C20.2801 3.3978 20.6475 3.62984 20.8865 4.04974C21.1184 4.45741 21.3751 4.51827 21.7741 4.26676C22.1476 4.03125 22.5519 4.03585 22.8846 4.27938C23.2 4.5102 23.3278 4.89649 23.2095 5.26121C23.0882 5.63478 22.7449 5.87729 22.3096 5.89671C22.2927 5.89745 22.2757 5.8974 22.2588 5.8974C21.844 5.89745 21.4293 5.89745 21.0145 5.89745C21.0146 5.89676 21.0146 5.89608 21.0146 5.89539Z" fill="#F5CD07" fill-opacity="0.9"/>
<path fill-rule="evenodd" clip-rule="evenodd" d="M2.23344 3.8411C2.23786 3.39566 2.61545 3.04166 3.08 3.04743C3.54303 3.05321 3.91407 3.41758 3.90843 3.86102C3.9028 4.30284 3.51829 4.66349 3.05953 4.65733C2.59762 4.65121 2.22897 4.28698 2.23344 3.8411Z" fill="#F5CD07" fill-opacity="0.9"/>
</svg>
