<svg width="28" height="20" viewBox="0 0 28 20" fill="none" xmlns="http://www.w3.org/2000/svg">
<path fill-rule="evenodd" clip-rule="evenodd" d="M28 17.9394C28 18.0832 28 18.227 28 18.3709C27.8126 18.7621 27.5409 19.0213 27.0633 19.0202C24.9132 19.0149 22.7629 19.0194 20.6126 19.0167C20.0798 19.016 19.6892 18.6454 19.6884 18.1563C19.6876 17.664 20.0744 17.2993 20.6084 17.2929C20.8856 17.2895 21.1628 17.2923 21.44 17.2923C19.9244 16.9684 19.085 16.2676 18.5291 14.8552C18.5017 14.7854 18.376 14.7102 18.2959 14.71C15.4351 14.7026 12.5742 14.705 9.71328 14.7004C9.55758 14.7001 9.49793 14.75 9.44863 14.8944C9.10004 15.9145 8.41855 16.6365 7.40379 17.0368C7.13433 17.1431 6.84474 17.2 6.51964 17.2922C7.56503 17.2922 8.56674 17.29 9.56845 17.2932C10.1039 17.2949 10.4947 17.6584 10.4989 18.1472C10.5031 18.6376 10.114 19.0157 9.58405 19.0164C7.27901 19.0195 4.97383 19.0194 2.66872 19.0165C2.13855 19.0157 1.74825 18.6394 1.75095 18.1499C1.75357 17.6587 2.14132 17.2954 2.6774 17.2933C3.57942 17.2897 4.48136 17.2922 5.38338 17.2922C5.4846 17.2922 5.58575 17.2922 5.68697 17.2922C4.34703 17.0337 3.37056 16.3319 2.8759 15.0716C2.75032 14.7518 2.60323 14.692 2.29425 14.6965C1.22479 14.7119 0.393872 14.1213 0.0980852 13.1736C0.0664354 13.0722 0.0327437 12.9714 0 12.8702C0 11.4502 0 10.0301 0 8.61011C0.015752 8.57882 0.0379943 8.54913 0.0463079 8.51598C0.288349 7.55188 0.900561 6.95798 1.89753 6.8184C3.29406 6.62288 4.69598 6.46295 6.09747 6.30425C6.40296 6.26966 6.56551 6.13159 6.67424 5.8592C7.08379 4.83283 7.46155 3.79064 7.93644 2.79383C8.75912 1.06691 10.1832 0.14611 12.1129 0.048169C13.1124 -0.00245547 14.1168 0.0285376 15.1188 0.0391803C16.1337 0.0499668 16.9606 0.816165 17.0563 1.81075C17.0923 2.18382 17.1017 2.19281 17.4865 2.19288C19.9827 2.19309 22.4789 2.19353 24.9752 2.19266C25.6262 2.19245 26.182 2.41932 26.5644 2.93808C26.7627 3.20709 26.8912 3.53586 27.0059 3.85349C27.3493 4.80572 27.6703 5.76572 28 6.72269C28 8.7719 28 10.821 28 12.8702C27.9782 12.937 27.9545 13.0032 27.9348 13.0705C27.7025 13.8658 27.1931 14.4015 26.381 14.62C26.114 14.6919 25.8233 14.6973 25.5435 14.6972C25.3435 14.6971 25.247 14.7398 25.1772 14.9455C24.8774 15.8278 24.2996 16.4936 23.451 16.9015C23.0937 17.0733 22.699 17.1694 22.3436 17.2921C22.4212 17.2921 22.5299 17.2921 22.6386 17.2921C24.05 17.2921 25.4617 17.3073 26.8727 17.2844C27.4099 17.2758 27.786 17.4499 28 17.9394ZM26.25 7.80141C26.1197 7.80141 26.0294 7.80141 25.939 7.80141C20.4165 7.80141 14.894 7.79594 9.3714 7.80644C8.37713 7.80831 7.39059 7.78221 6.39012 7.98104C5.02867 8.25164 3.62966 8.33915 2.24648 8.50289C1.88812 8.54524 1.75175 8.68726 1.75058 9.04825C1.7484 9.68624 1.74985 10.3242 1.74993 10.9623C1.75 11.4835 1.74737 12.0047 1.75197 12.5258C1.75416 12.7763 1.89031 12.9314 2.13942 12.9727C2.59579 13.0485 2.71685 12.9924 2.82981 12.6988C3.30449 11.4646 4.20315 10.6923 5.51312 10.461C6.83643 10.2275 7.97086 10.6467 8.82336 11.6759C9.13344 12.0502 9.33122 12.5149 9.60374 12.9782C9.64341 12.9782 9.75237 12.9782 9.86132 12.9782C12.5497 12.9782 15.238 12.9782 17.9264 12.9782C18.4545 12.9782 18.4543 12.9782 18.6508 12.5132C18.6718 12.4636 18.6931 12.4139 18.7167 12.3654C19.3247 11.1161 20.6524 10.3302 22.0336 10.4016C23.4793 10.4763 24.7062 11.384 25.1835 12.7295C25.2126 12.8115 25.235 12.9246 25.2979 12.9617C25.7066 13.2022 26.2491 12.8839 26.2495 12.411C26.2507 10.9552 26.2499 9.49949 26.2499 8.04375C26.25 7.9737 26.25 7.90359 26.25 7.80141ZM8.4809 6.05724C10.7705 6.05724 13.0337 6.05724 15.3122 6.05724C15.3122 4.70131 15.3123 3.36393 15.312 2.02662C15.312 1.81111 15.1796 1.75948 14.9879 1.76027C14.0951 1.76372 13.202 1.7451 12.3097 1.76581C10.9694 1.79701 10.0134 2.42759 9.46475 3.63546C9.2642 4.07706 9.09596 4.53289 8.91379 4.98262C8.76962 5.33864 8.62668 5.6951 8.4809 6.05724ZM17.0626 6.05939C20.0253 6.05939 22.9518 6.05939 25.9059 6.05939C25.6971 5.44241 25.4842 4.85181 25.3001 4.25259C25.2195 3.99012 25.0807 3.91195 24.8082 3.91303C22.331 3.92281 19.8536 3.91878 17.3763 3.91878C17.2791 3.91878 17.182 3.91878 17.072 3.91878C17.0678 3.99997 17.0629 4.0521 17.0629 4.1041C17.0624 4.74949 17.0626 5.3948 17.0626 6.05939ZM7.87423 13.8314C7.8719 12.8813 7.07796 12.1099 6.10848 12.1157C5.15563 12.1215 4.37679 12.8946 4.37533 13.8364C4.3738 14.7905 5.16183 15.5687 6.12693 15.5663C7.09342 15.5639 7.87657 14.7862 7.87423 13.8314ZM21.8691 15.5663C22.8366 15.5673 23.6233 14.7931 23.6242 13.839C23.6251 12.8879 22.8347 12.1131 21.8662 12.1156C20.9122 12.1182 20.13 12.8877 20.1253 13.8286C20.1204 14.7832 20.9053 15.5652 21.8691 15.5663Z" fill="#0F278A"/>
<path fill-rule="evenodd" clip-rule="evenodd" d="M8.48047 6.0572C8.62625 5.69513 8.76918 5.3386 8.91336 4.98265C9.09553 4.533 9.26369 4.07709 9.46431 3.63549C10.0129 2.42762 10.969 1.79704 12.3093 1.76584C13.2015 1.74505 14.0947 1.76375 14.9874 1.7603C15.1792 1.75951 15.3116 1.81121 15.3116 2.02665C15.3119 3.36396 15.3117 4.70126 15.3117 6.05727C13.0333 6.0572 10.77 6.0572 8.48047 6.0572Z" fill="#F5CD07" fill-opacity="0.9"/>
<path fill-rule="evenodd" clip-rule="evenodd" d="M17.0625 6.05946C17.0625 5.3948 17.0623 4.74948 17.0628 4.10416C17.0629 4.0521 17.0678 4.00004 17.072 3.91885C17.1819 3.91885 17.2791 3.91885 17.3763 3.91885C19.8536 3.91885 22.3309 3.92288 24.8081 3.9131C25.0807 3.91202 25.2194 3.99018 25.3001 4.25265C25.4841 4.85188 25.697 5.44255 25.9059 6.05946C22.9518 6.05946 20.0253 6.05946 17.0625 6.05946Z" fill="#F5CD07" fill-opacity="0.9"/>
<path fill-rule="evenodd" clip-rule="evenodd" d="M7.87391 13.8315C7.87624 14.7863 7.09309 15.564 6.12661 15.5663C5.16151 15.5687 4.37347 14.7905 4.375 13.8364C4.37653 12.8947 5.15531 12.1215 6.10816 12.1158C7.07763 12.11 7.8715 12.8814 7.87391 13.8315Z" fill="#F5CD07" fill-opacity="0.9"/>
<path fill-rule="evenodd" clip-rule="evenodd" d="M21.8688 15.5663C20.905 15.5652 20.1202 14.7832 20.125 13.8287C20.1298 12.8878 20.912 12.1182 21.866 12.1157C22.8345 12.1132 23.6249 12.888 23.6239 13.8391C23.6231 14.7931 22.8364 15.5673 21.8688 15.5663Z" fill="#F5CD07" fill-opacity="0.9"/>
<path fill-rule="evenodd" clip-rule="evenodd" d="M12.251 18.1569C12.25 17.6854 12.6378 17.2979 13.1153 17.293C13.6017 17.2881 14.0049 17.6863 13.9989 18.1659C13.9932 18.6343 13.5959 19.0192 13.1205 19.017C12.6459 19.0147 12.252 18.6251 12.251 18.1569Z" fill="#0F278A"/>
<path fill-rule="evenodd" clip-rule="evenodd" d="M14.0002 11.2531C13.5811 11.2531 13.162 11.2559 12.7429 11.2523C12.208 11.2477 11.817 10.8852 11.8135 10.3967C11.8099 9.90404 12.1965 9.53155 12.7283 9.52874C13.5756 9.52421 14.4229 9.52436 15.2702 9.52867C15.8 9.5314 16.1899 9.90634 16.1864 10.3965C16.1829 10.8857 15.7928 11.2476 15.2575 11.2523C14.8384 11.2559 14.4193 11.2531 14.0002 11.2531Z" fill="#0F278A"/>
</svg>
