<svg width="535" height="485" viewBox="0 0 535 485" fill="none" xmlns="http://www.w3.org/2000/svg">
<path d="M207.484 452.15C199.036 449.458 190.426 447.382 182.063 444.405C174.03 441.55 166.206 438.202 158.543 434.468C142.894 426.845 128.016 417.549 114.385 406.71C86.7376 384.738 64.1809 356.926 47.4154 325.865C37.866 308.175 30.7963 289.644 23.9423 270.797C22.7255 267.441 17.712 268.729 18.5438 272.286C26.7609 307.342 44.9896 341.025 66.9071 369.331C88.9709 397.83 116.911 421.785 148.824 438.587C157.719 443.27 166.945 447.344 176.371 450.831C185.782 454.31 195.617 457.682 205.59 459.055C210.026 459.665 212.012 453.585 207.492 452.15H207.484Z" fill="white"/>
<path d="M489.07 252.905C494.353 326.104 455.377 399.473 390.818 435.802C315.069 478.419 214.785 458.044 142.201 418.181C-7.2628 336.103 -17.2512 81.7277 171.497 43.7937C185.497 40.9777 199.768 39.4888 214.046 39.1647C250.256 38.3392 284.696 45.2595 319.798 52.9358C353.545 60.3189 389.186 65.8428 418.026 86.3258C464.364 119.237 485.188 199.055 489.077 252.905H489.07Z" fill="white"/>
<path d="M76.6567 75.4249C70.0876 82.592 61.3545 88.8719 55.4246 96.4402C52.3288 100.382 53.9999 103.206 55.4092 108.267C56.857 113.482 58.5821 118.62 60.5613 123.658C61.9475 127.184 64.073 131.149 67.8158 131.666C68.8632 131.813 69.9259 131.651 70.9733 131.489C93.4068 128.079 115.833 124.677 138.266 121.267C146.606 120.001 154.962 118.736 163.218 116.969C166.976 116.167 171.489 115.65 174.947 113.922C177.211 112.788 178.343 110.967 181.054 110.697C180.399 99.5801 178.697 88.0695 175.871 77.2918C173.869 69.6618 167.192 67.3628 159.999 65.1255C150.157 60.7357 139.822 57.7578 129.91 53.5763C120.746 49.7112 111.851 45.5606 103.565 40.0059C105.629 41.3945 79.5447 72.2926 76.6567 75.448V75.4249Z" fill="#510017"/>
<path d="M174.368 115.743C164.611 118.558 154.715 120.927 144.734 122.825C137.249 124.252 129.717 125.417 122.193 126.582C105.073 129.228 87.9614 131.882 70.8417 134.528C69.7558 112.556 59.5595 92.0116 56.6484 70.2016C74.261 66.8302 91.8659 63.3739 109.463 59.91C126.706 56.5154 144.665 51.2462 162.139 49.7803C165.936 49.4795 178.442 114.562 174.368 115.743Z" fill="#C10037"/>
<path d="M175.74 81.1417C175.925 81.2034 176.102 81.296 176.256 81.4271C176.865 81.9209 177.057 82.7618 177.219 83.5333C179.576 95.2599 180.685 107.133 182.156 119.029C183.172 127.23 186.745 134.899 187.215 143.293C178.136 146.487 167.731 147.605 158.22 149.326C147.485 151.27 136.726 153.037 125.945 154.703C108.178 157.449 87.847 163.421 70.1497 163.02C67.6392 155.251 50.1806 103.36 56.2722 100.66C59.1987 99.3642 69.4643 103.376 72.745 104.07C78.5902 105.305 84.4354 106.554 90.2806 107.835C101.979 110.396 112.976 114.941 125.082 116.075C125.875 116.152 126.692 116.213 127.454 115.982C128.355 115.712 129.087 115.072 129.803 114.47C134.616 110.404 140.338 107.719 145.259 103.985C151.035 99.6033 156.88 95.2676 162.756 90.9935C166.638 88.1699 169.795 84.4513 173.453 81.62C174.092 81.1262 175.001 80.8948 175.748 81.1494L175.74 81.1417Z" fill="#374B5C"/>
<path d="M187.776 139.844C167.715 130.887 147.268 122.864 126.475 115.789C125.312 115.396 124.365 115.967 123.895 116.8C123.618 116.869 123.341 117.008 123.071 117.224C105.289 131.458 87.507 145.692 69.725 159.926C67.5687 161.654 70.2949 164.972 72.4589 163.243C90.2409 149.009 108.023 134.776 125.805 120.542C125.936 120.441 126.044 120.333 126.136 120.218C146.513 127.2 166.559 135.076 186.236 143.856C188.77 144.982 190.294 140.963 187.776 139.837V139.844Z" fill="#C10037"/>
<path d="M90.0267 76.829C84.1045 76.451 77.3968 78.1946 71.5824 79.2901C70.8277 79.429 71.0202 80.5245 71.7749 80.455C77.6663 79.915 84.582 79.7453 90.1807 77.7625C90.6428 77.6005 90.4965 76.8599 90.0267 76.829Z" fill="white"/>
<path d="M153.683 73.1641C146.737 73.5035 139.683 75.548 132.867 76.8903C125.952 78.2559 119.028 79.6214 112.113 80.9792C105.466 82.283 98.8204 83.5714 92.182 84.8752C85.5513 86.1791 78.651 87.0894 72.2282 89.2496C71.8124 89.3884 72.0588 89.9593 72.4362 89.9362C79.4211 89.4965 86.4061 87.6449 93.2678 86.3025C100.191 84.9524 107.107 83.5714 114.03 82.2213C120.676 80.9252 127.315 79.6291 133.961 78.3253C140.568 77.0369 147.592 76.2809 153.953 74.0358C154.477 73.8507 154.161 73.1486 153.691 73.1718L153.683 73.1641Z" fill="white"/>
<path d="M159.206 85.5164C145.845 88.0854 132.514 90.855 119.183 93.5707C105.883 96.2786 92.3369 98.4851 79.2064 101.926C78.29 102.165 78.4748 103.554 79.4451 103.415C92.876 101.471 106.199 98.2073 119.491 95.5148C132.83 92.8146 146.183 90.1684 159.491 87.3139C160.631 87.067 160.354 85.2849 159.198 85.5086L159.206 85.5164Z" fill="white"/>
<path d="M140.862 101.231C134.832 102.458 128.833 103.893 122.826 105.258C117.42 106.485 111.49 107.226 106.407 109.463C105.945 109.671 106.215 110.265 106.646 110.25C112.399 110.088 118.336 108.128 123.943 106.878C129.68 105.605 135.441 104.394 141.155 102.99C142.256 102.72 142.002 100.992 140.87 101.223L140.862 101.231Z" fill="white"/>
<path d="M406.175 311.809C393.214 330.625 364.766 339.451 344.604 347.876C340.006 349.797 333.907 349.65 331.458 354.109C329.017 358.561 329.048 364.841 329.756 369.709C330.634 375.734 332.914 381.466 335.409 387.021C329.017 386.875 323.749 382.292 318.15 379.206C312.937 376.321 307.685 373.451 302.81 370.01C298.174 366.739 294.385 362.449 289.725 359.24C287.631 357.797 284.335 358.769 281.37 359.086C274.169 359.857 266.968 360.575 259.753 361.161C245.582 362.31 231.351 362.982 217.134 362.573C188.417 361.755 159.968 356.138 134.031 343.478C112.691 333.063 85.9603 310.466 78.8752 287.06C77.2349 281.644 76.5957 275.989 76.0335 270.349C70.3885 213.259 115.271 161.068 167.785 144.998C189.179 138.456 211.805 135.308 234.138 134.768C239.691 134.637 245.113 134.382 250.457 134.135C302.224 131.813 349.833 141.295 392.266 172.756C411.55 187.059 425.551 208.993 429.032 232.901C432.667 257.812 420.283 291.318 406.175 311.793V311.809Z" fill="#730625"/>
<path d="M416.186 304.094C403.225 322.911 374.777 331.736 354.616 340.161C347.854 342.985 337.042 343.995 333.63 351.008C328.94 360.644 329.518 376.807 335.601 385.887C316.572 381.019 308.763 365.89 299.229 350.507C245.729 356.532 194.254 360.281 144.043 335.771C122.703 325.356 95.972 302.759 88.8869 279.352C87.2466 273.937 86.6074 268.282 86.0452 262.642C80.4002 205.552 125.283 153.361 177.797 137.291C199.191 130.749 221.817 127.601 244.15 127.061C249.703 126.93 255.124 126.675 260.469 126.428C312.236 124.106 359.845 133.588 402.278 165.049C421.562 179.352 435.563 201.286 439.043 225.194C442.678 250.105 430.295 283.611 416.186 304.086V304.094Z" fill="#C10037"/>
<path d="M142.087 259.432C141.918 260.258 141.718 261.415 141.479 262.889C141.24 264.37 141.078 265.512 140.994 266.33C137.99 266.777 135.31 267.008 132.946 267.008C130.582 267.008 128.556 266.723 126.6 266.152C124.644 265.581 122.842 264.648 121.209 263.344C119.577 262.04 118.406 260.513 117.705 258.754C117.005 256.995 116.65 255.027 116.65 252.844C116.65 250.298 117.128 248.007 118.075 245.978C119.022 243.949 120.385 242.251 122.157 240.894C123.936 239.536 125.876 238.564 128.002 237.985C130.12 237.399 132.315 237.113 134.571 237.113C136.65 237.113 139.215 237.383 142.28 237.916L142.318 239.69C142.349 240.462 142.388 241.318 142.442 242.244L142.588 244.651C140.948 244.257 139.615 243.987 138.599 243.848C137.582 243.71 136.635 243.64 135.765 243.64C133.87 243.64 132.161 244.018 130.651 244.782C129.142 245.546 127.94 246.649 127.07 248.092C126.2 249.542 125.761 251.147 125.761 252.898C125.761 254.503 126.123 255.876 126.854 257.025C127.586 258.175 128.572 259.054 129.812 259.687C131.052 260.312 132.584 260.628 134.409 260.628C135.403 260.628 136.489 260.551 137.659 260.389C138.83 260.227 140.301 259.911 142.072 259.448L142.087 259.432Z" fill="white"/>
<path d="M163.504 237.113C165.753 237.113 167.909 237.414 169.989 238.024C172.068 238.625 173.885 239.597 175.441 240.924C176.997 242.251 178.167 243.787 178.937 245.515C179.708 247.243 180.093 249.233 180.093 251.486C180.093 253.847 179.669 256.022 178.822 257.997C177.975 259.972 176.75 261.654 175.148 263.028C173.547 264.409 171.637 265.411 169.419 266.052C167.201 266.692 164.89 267.008 162.488 267.008C160.085 267.008 157.844 266.692 155.664 266.067C153.485 265.442 151.598 264.432 149.989 263.028C148.379 261.631 147.239 260.073 146.569 258.352C145.892 256.64 145.561 254.734 145.561 252.636C145.561 249.557 146.269 246.849 147.701 244.527C149.126 242.197 151.236 240.384 154.04 239.073C156.843 237.761 159.993 237.113 163.504 237.113ZM163.127 243.463C161.51 243.463 160.054 243.864 158.745 244.651C157.436 245.445 156.435 246.549 155.734 247.96C155.033 249.372 154.679 250.892 154.679 252.504C154.679 253.993 154.994 255.359 155.634 256.593C156.273 257.828 157.243 258.8 158.552 259.494C159.862 260.188 161.24 260.536 162.703 260.536C164.259 260.536 165.691 260.142 166.985 259.363C168.287 258.584 169.272 257.488 169.958 256.069C170.636 254.657 170.982 253.176 170.982 251.625C170.982 250.074 170.666 248.732 170.035 247.459C169.403 246.186 168.479 245.198 167.255 244.496C166.03 243.794 164.659 243.439 163.127 243.439V243.463Z" fill="white"/>
<path d="M183.488 266.461L183.912 262.032L184.736 247.012L184.967 240.955V237.661C187.146 237.692 189.072 237.7 190.743 237.7C191.936 237.7 193.615 237.684 195.787 237.661L204.774 254.04L206.014 256.447C206.176 254.086 206.338 250.769 206.499 246.51C206.661 242.244 206.746 239.297 206.746 237.669C208.471 237.7 209.849 237.707 210.889 237.707C211.367 237.707 212.737 237.692 215.009 237.669L214.501 243.956L213.554 261.423L213.43 266.468C211.605 266.438 209.896 266.43 208.309 266.43C206.992 266.43 205.159 266.445 202.834 266.468C202.102 265.088 201.563 264.092 201.216 263.475L197.682 257.457C196.519 255.49 195.448 253.6 194.462 251.802C193.816 250.661 193.153 249.411 192.468 248.045L192.013 258.052L191.798 266.468C190.057 266.438 188.733 266.43 187.824 266.43C187.054 266.43 185.606 266.445 183.488 266.468V266.461Z" fill="white"/>
<path d="M225.267 266.461C225.968 259.625 226.384 252.103 226.523 243.887L217.559 244.118L217.666 241.773C217.72 240.523 217.767 239.15 217.79 237.661C221.779 237.692 226.423 237.707 231.729 237.707L236.927 237.684H241.979L244.713 237.661L244.59 239.729C244.536 240.84 244.497 241.75 244.474 242.475C244.451 243.2 244.443 243.748 244.443 244.118C241.44 243.964 238.968 243.887 237.019 243.887H235.549C235.333 246.371 235.171 248.67 235.063 250.769C234.909 253.785 234.786 256.717 234.701 259.556C234.617 262.395 234.57 264.694 234.57 266.453C232.268 266.422 230.781 266.414 230.111 266.414C229.511 266.414 227.894 266.43 225.275 266.453L225.267 266.461Z" fill="white"/>
<path d="M242.472 266.461L244.221 263.421L255.11 242.876L256.265 240.577C256.604 239.899 257.074 238.934 257.675 237.669C260.147 237.7 261.949 237.708 263.088 237.708C265.068 237.708 266.901 237.692 268.587 237.669L271.66 246.464L277.913 263.383L279.13 266.461C276.696 266.43 275.226 266.422 274.702 266.422C273.524 266.422 271.783 266.438 269.496 266.461C268.88 264.139 267.986 261.415 266.824 258.275H256.219C255.002 260.752 253.739 263.483 252.43 266.461C249.819 266.43 248.218 266.422 247.625 266.422C246.554 266.422 244.837 266.438 242.457 266.461H242.472ZM258.776 252.134H265.314C263.689 247.181 262.796 244.45 262.642 243.941C261.718 246.009 260.932 247.698 260.285 249.018L258.768 252.134H258.776Z" fill="white"/>
<path d="M306.238 259.432C306.068 260.258 305.868 261.415 305.629 262.889C305.391 264.37 305.229 265.512 305.144 266.33C302.141 266.777 299.461 267.008 297.096 267.008C294.732 267.008 292.707 266.723 290.751 266.152C288.795 265.581 286.993 264.648 285.36 263.344C283.727 262.04 282.557 260.513 281.856 258.754C281.155 256.995 280.801 255.027 280.801 252.844C280.801 250.298 281.278 248.007 282.226 245.978C283.173 243.949 284.536 242.251 286.307 240.894C288.086 239.536 290.027 238.564 292.152 237.985C294.27 237.399 296.465 237.113 298.721 237.113C300.801 237.113 303.365 237.383 306.43 237.916L306.469 239.69C306.5 240.462 306.538 241.318 306.592 242.244L306.738 244.651C305.098 244.257 303.766 243.987 302.749 243.848C301.733 243.71 300.785 243.64 299.915 243.64C298.021 243.64 296.311 244.018 294.801 244.782C293.292 245.546 292.091 246.649 291.22 248.092C290.35 249.542 289.911 251.147 289.911 252.898C289.911 254.503 290.273 255.876 291.005 257.025C291.736 258.175 292.722 259.054 293.962 259.687C295.202 260.312 296.734 260.628 298.56 260.628C299.553 260.628 300.639 260.551 301.81 260.389C302.98 260.227 304.451 259.911 306.222 259.448L306.238 259.432Z" fill="white"/>
<path d="M316.658 266.461C317.359 259.625 317.775 252.103 317.913 243.887L308.949 244.118L309.057 241.773C309.111 240.523 309.157 239.15 309.18 237.661C313.162 237.692 317.813 237.707 323.119 237.707L328.318 237.684H333.37L336.104 237.661L335.98 239.729C335.926 240.84 335.888 241.75 335.865 242.475C335.842 243.2 335.834 243.748 335.834 244.118C332.831 243.964 330.358 243.887 328.41 243.887H326.939C326.723 246.371 326.562 248.67 326.454 250.769C326.3 253.785 326.177 256.717 326.092 259.556C326.007 262.395 325.961 264.694 325.961 266.453C323.658 266.422 322.172 266.414 321.502 266.414C320.901 266.414 319.284 266.43 316.658 266.453V266.461Z" fill="white"/>
<path d="M349.679 237.661C351.866 237.692 353.414 237.7 354.308 237.7C355.432 237.7 356.926 237.684 358.79 237.661L358.166 246.626C358.043 248.315 357.943 249.897 357.881 251.37C357.819 252.844 357.789 253.87 357.789 254.425C357.789 255.498 357.866 256.385 358.02 257.102C358.174 257.82 358.451 258.429 358.859 258.931C359.267 259.432 359.829 259.803 360.553 260.057C361.277 260.312 362.032 260.435 362.817 260.435C363.487 260.435 364.119 260.343 364.712 260.158C365.174 260.003 365.59 259.795 365.952 259.533C366.275 259.278 366.552 258.985 366.791 258.653C367.084 258.252 367.346 257.75 367.569 257.149C367.792 256.578 367.962 255.845 368.077 254.935C368.2 254.016 368.37 251.918 368.586 248.655C368.77 245.877 368.909 243.331 369.009 241.017C369.094 238.772 369.171 237.653 369.24 237.653H378.528L377.503 252.628C377.488 252.913 377.48 253.145 377.48 253.322C377.426 256.246 377.249 258.314 376.941 259.517C376.633 260.721 376.14 261.762 375.432 262.649C374.731 263.537 373.707 264.331 372.359 265.041C371.011 265.751 369.479 266.252 367.769 266.553C366.06 266.846 364.319 266.993 362.571 266.993C361 266.993 359.483 266.877 358.02 266.653C356.672 266.43 355.455 266.106 354.377 265.674C353.299 265.242 352.351 264.74 351.551 264.162C350.819 263.629 350.257 263.081 349.864 262.526C349.471 261.971 349.163 261.307 348.94 260.536C348.686 259.664 348.562 258.73 348.562 257.727C348.562 257.388 348.578 256.879 348.601 256.2C348.632 255.521 348.693 254.533 348.794 253.26L349.071 249.881C349.14 248.994 349.217 247.698 349.302 245.978L349.687 237.646L349.679 237.661Z" fill="white"/>
<path d="M381.686 266.013C381.501 263.02 381.293 260.621 381.055 258.823C382.626 259.525 384.035 260.011 385.26 260.289C386.484 260.567 387.57 260.698 388.502 260.698C389.726 260.698 390.697 260.52 391.42 260.158C392.144 259.795 392.506 259.27 392.506 258.568C392.506 258.329 392.468 258.098 392.399 257.882C392.329 257.666 392.191 257.419 391.998 257.141C391.798 256.863 391.521 256.57 391.151 256.246L387.185 252.79C386.253 252.003 385.606 251.432 385.244 251.085C384.497 250.367 383.92 249.704 383.504 249.079C383.088 248.462 382.787 247.829 382.595 247.189C382.402 246.549 382.31 245.87 382.31 245.152C382.31 244.296 382.464 243.455 382.764 242.629C383.065 241.804 383.519 241.04 384.12 240.323C384.72 239.605 385.521 238.988 386.523 238.463C387.516 237.946 388.586 237.592 389.726 237.399C390.866 237.206 392.037 237.113 393.246 237.113C395.618 237.113 398.197 237.391 400.993 237.939C401.032 238.911 401.085 239.798 401.139 240.608C401.193 241.418 401.332 242.83 401.54 244.859C400.246 244.342 399.068 243.98 398.005 243.771C396.934 243.571 396.018 243.463 395.248 243.463C394.154 243.463 393.246 243.663 392.522 244.072C391.798 244.481 391.436 244.99 391.436 245.592C391.436 245.87 391.49 246.147 391.605 246.417C391.721 246.687 391.929 246.996 392.237 247.359C392.545 247.714 392.953 248.115 393.461 248.539C393.97 248.971 394.763 249.604 395.841 250.445L397.358 251.648C397.805 252.011 398.29 252.458 398.814 252.975C399.33 253.492 399.784 254.009 400.161 254.518C400.539 255.027 400.831 255.49 401.032 255.907C401.232 256.331 401.386 256.755 401.486 257.18C401.586 257.612 401.632 258.067 401.632 258.561C401.632 259.826 401.332 261.029 400.723 262.179C400.123 263.328 399.26 264.27 398.151 265.003C397.042 265.743 395.826 266.26 394.501 266.553C393.176 266.846 391.775 266.993 390.296 266.993C388.024 266.993 385.152 266.661 381.686 265.998V266.013Z" fill="white"/>
<path d="M95.6801 390.909C95.4645 390.477 95.2488 390.053 95.0332 389.621L95.6801 390.909Z" fill="#DEE2E7"/>
<path d="M155.68 415.512C160.685 454.866 111.768 492.9 73.6854 477.91C45.6917 466.893 31.0364 434.082 40.2162 405.683C50.5357 373.752 90.8436 358.63 121.048 371.26C139.538 378.99 153.108 395.284 155.68 415.512Z" fill="#730625"/>
<path d="M157.99 410.883C162.996 450.237 114.078 488.271 75.996 473.281C48.0022 462.264 33.3469 429.453 42.5267 401.055C52.8463 369.123 93.1542 354.002 123.358 366.631C141.849 374.361 155.418 390.655 157.99 410.883Z" fill="#C10037"/>
<path d="M144.12 434.113C130.966 460.667 88.0937 481.829 63.3576 456.841C49.5032 442.846 45.514 420.542 51.0973 401.965C52.522 397.22 54.5552 392.591 57.7896 388.958C61.4477 384.846 66.415 382.238 71.2975 379.754C80.9548 374.847 90.897 370.049 101.671 368.575C112.445 367.094 124.343 369.393 132.499 377.123C137.281 381.652 140.446 387.692 142.888 393.849C148.024 406.818 150.157 421.947 144.12 434.121V434.113Z" fill="#510017"/>
<path d="M77.082 383.002C76.5275 382.655 75.6727 382.971 75.6958 383.704C75.7728 386.204 77.598 388.989 78.7762 391.133C79.1998 391.905 79.9237 392.206 80.7323 392.129C81.2868 392.075 81.5564 391.774 81.8644 391.349C82.2033 390.871 82.2341 390.053 81.926 389.536C80.6938 387.461 79.1459 384.29 77.082 383.002Z" fill="#374B5C"/>
<path d="M114.647 448.162C113.954 446.866 113.392 445.145 111.89 444.736C111.305 444.574 110.627 444.821 110.458 445.461C110.027 447.082 111.228 448.47 112.075 449.813C112.938 451.194 113.831 452.767 115.14 453.739C115.864 454.28 116.642 453.523 116.549 452.767C116.365 451.163 115.41 449.566 114.647 448.154V448.162Z" fill="#374B5C"/>
<path d="M67.8554 433.171C66.0533 432.955 64.5978 434.375 63.15 435.293C61.5404 436.319 59.7692 437.291 58.4908 438.749C57.9363 439.382 58.3599 440.663 59.3302 440.416C61.3171 439.914 63.0576 438.734 64.798 437.692C66.2921 436.797 68.0556 436.18 68.7102 434.444C68.9336 433.85 68.4253 433.241 67.8554 433.171Z" fill="#374B5C"/>
<path d="M132.229 397.251C129.988 397.452 126.838 399.72 126.353 402.042C126.199 402.767 126.846 403.377 127.531 403.084C128.517 402.659 129.279 401.872 130.18 401.294C131.12 400.692 132.191 400.376 133.122 399.805C134.408 399.01 133.715 397.12 132.221 397.251H132.229Z" fill="#374B5C"/>
<path d="M108.241 411.13C105.553 411.886 103.219 413.699 100.824 415.103C99.7231 415.751 98.6219 416.392 97.5437 417.055C96.8506 416.292 95.8957 415.782 94.933 415.682C94.8945 415.682 94.8483 415.682 94.8098 415.674C94.7482 415.674 94.6789 415.667 94.6173 415.659C94.2014 415.628 93.7856 415.659 93.3851 415.744C92.253 413.283 90.9053 410.922 89.6423 408.523C87.9327 405.282 86.6235 401.224 83.5738 399.111C83.0193 398.725 82.1106 399.103 82.1414 399.836C82.3185 403.57 84.9677 406.756 86.8083 409.95C88.2022 412.372 89.5268 414.864 91.0593 417.202C88.8183 420.218 92.3069 425.642 96.2268 423.682C97.69 422.949 98.6527 421.291 98.5911 419.609C99.9696 418.899 101.325 418.151 102.688 417.402C104.952 416.16 107.509 415.188 109.404 413.406C110.274 412.588 109.504 410.76 108.248 411.115L108.241 411.13Z" fill="#374B5C"/>
<path d="M59.6841 418.76C59.0295 418.112 58.1592 418.236 57.3275 418.328C56.4419 418.429 55.3791 418.444 54.609 418.915C54.1007 419.223 54.1315 420.01 54.7245 420.234C55.5716 420.558 56.5651 420.404 57.4353 420.35C58.2747 420.296 59.2374 420.311 59.7457 419.54C59.892 419.324 59.8689 418.953 59.6687 418.76H59.6841Z" fill="#374B5C"/>
<path d="M62.3346 402.381C61.5722 401.864 60.7558 401.564 59.8702 401.432C59.3388 401.348 59.1001 402.165 59.5622 402.443C60.2245 402.837 60.8714 403.299 61.4335 403.832C61.9418 404.318 62.4424 404.974 63.1971 404.873C63.3973 404.842 63.5514 404.68 63.6207 404.495C63.9133 403.608 62.9815 402.829 62.3346 402.389V402.381Z" fill="#374B5C"/>
<path d="M77.5061 447.591C76.7745 448.146 76.5512 449.35 76.3048 450.206C76.0352 451.17 75.758 452.158 75.7195 453.176C75.6887 453.909 76.6513 454.249 77.0364 453.639C77.5678 452.79 77.8912 451.826 78.1992 450.877C78.4765 450.021 78.954 448.918 78.6767 448C78.5073 447.444 77.9528 447.251 77.5061 447.591Z" fill="#374B5C"/>
<path d="M95.3878 450.947C94.9181 452.004 95.0182 453.153 95.1029 454.303C95.1799 455.375 95.2184 456.502 95.7421 457.474C96.0578 458.052 96.7663 457.929 96.9974 457.396C97.444 456.386 97.3747 455.151 97.3362 454.056C97.2977 452.945 97.2669 451.873 96.7201 450.87C96.389 450.252 95.6343 450.384 95.3801 450.955L95.3878 450.947Z" fill="#374B5C"/>
<path d="M130.612 432.886C129.858 432.585 129.018 432.547 128.233 432.608C127.509 432.662 127.463 433.905 128.171 434.074C128.926 434.252 129.496 434.614 130.15 435.031C130.759 435.417 131.883 435.88 132.176 434.892C132.461 433.951 131.344 433.179 130.612 432.886Z" fill="#374B5C"/>
<path d="M138.853 415.219C137.944 415.25 137.097 415.535 136.234 415.805C135.503 416.037 134.671 416.268 134.417 417.071C134.34 417.302 134.394 417.618 134.579 417.796C135.187 418.398 135.965 418.274 136.743 418.174C137.62 418.066 138.552 417.935 139.369 417.572C140.408 417.109 140.069 415.173 138.86 415.219H138.853Z" fill="#374B5C"/>
<path d="M100.832 376.876C100.131 378.033 99.9926 380.078 101.032 381.15C101.517 381.659 102.642 381.459 102.573 380.618C102.526 380.047 102.334 379.515 102.241 378.951C102.157 378.419 102.18 377.894 102.211 377.362C102.257 376.598 101.217 376.236 100.824 376.876H100.832Z" fill="#374B5C"/>
<path d="M120.215 383.765C119.376 384.128 118.806 384.915 118.228 385.609C117.597 386.381 116.989 387.175 116.365 387.962C115.795 388.687 116.966 389.69 117.612 389.058C118.845 387.847 120.778 386.481 121.324 384.753C121.54 384.066 120.808 383.503 120.208 383.765H120.215Z" fill="#374B5C"/>
<path d="M335.294 439.214C290.685 452.171 239.643 462.656 196.472 440.287C187.831 435.812 179.951 430.189 173.433 423.452C169.347 419.221 165.353 414.21 162.544 408.886C166.068 407.521 169.316 405.728 171.948 403.378C177.35 398.564 178.789 390.598 172.709 385.62C167.461 381.328 159.989 383.637 157.373 389.077C154.526 394.992 156.072 401.429 158.681 407.168C157.08 407.724 155.557 408.159 154.233 408.471C131.232 413.816 106.915 405.884 87.3386 395.419C69.0779 385.661 52.6255 373.023 39.0819 358.463C11.6099 328.923 -2.64933 290.5 5.24598 252.437C9.09359 233.898 17.9816 216.031 32.0254 201.73C46.7771 186.702 66.2691 176.006 86.7846 168.149C109.67 159.389 133.964 154.119 158.035 148.578C170.562 145.692 183.083 142.731 195.395 139.152C205.814 136.123 216.465 132.843 225.676 127.465C226.407 127.037 227.13 126.582 227.846 126.107C238.927 127.75 250.67 126.996 260.935 124.219C277.826 119.649 291.124 108.097 291.808 91.8874C292.601 73.0427 278.573 56.2421 271.701 39.1494C266.553 26.3282 266.153 12.9163 269.315 0H266.114C265.783 1.37855 265.491 2.77747 265.237 4.18997C263.536 13.6021 263.682 23.2588 266.26 32.5351C268.884 42.0152 273.855 50.8569 278.434 59.685C287.191 76.5604 296.079 97.9992 278.019 112.885C265.953 122.833 247.507 125.57 231.178 123.689C243.636 113.842 252.147 97.3065 240.789 84.2545C230.601 72.5402 209.77 71.1141 199.066 82.9574C194.156 88.3901 191.84 95.6631 193.156 102.542C194.625 110.223 200.882 116.321 208.338 120.11C213.094 122.521 218.35 124.266 223.844 125.394C212.34 132.069 197.673 135.831 185.514 139.07C139.189 151.43 88.593 157.582 49.0318 184.114C14.8111 207.081 -2.24148 243.799 0.236384 281.353C2.69886 318.791 24.8996 353.092 55.9729 377.987C72.0559 390.876 90.7476 402.21 111.417 408.458C121.898 411.622 133.102 413.415 144.199 412.621C149.293 412.254 154.849 411.405 159.997 409.762C163.852 417.13 169.3 423.832 175.803 429.564C189.685 441.808 208.1 449.909 227.192 453.57C250.878 458.113 275.625 455.79 298.934 450.69C311.439 447.954 323.605 444.314 335.61 440.192C336.287 439.961 336.018 439.003 335.302 439.207L335.294 439.214ZM223.506 122.467C213.479 120.328 202.882 115.893 198.065 107.357C193.617 99.4864 196.026 89.5038 202.79 83.2426C210.016 76.5604 221.205 75.7387 230.27 79.9355C240.451 84.6551 244.76 94.4815 242.059 104.199C239.804 112.314 234.387 118.419 227.376 123.187C226.068 122.976 224.775 122.738 223.513 122.467H223.506ZM159.343 400.58C158.512 397.015 158.489 392.723 160.459 389.437C162.867 385.41 168.477 384.826 171.671 388.527C178.435 396.363 169.662 402.74 161.259 406.19C160.451 404.343 159.789 402.462 159.351 400.58H159.343Z" fill="#374B5C"/>
<path d="M443.163 453.878C425.697 464.347 405.843 471.036 386.082 472.17C363.579 473.466 341.184 467.557 322.547 451.826C322.047 451.402 321.554 450.977 321.061 450.538C320.175 449.743 319.305 448.91 318.489 448.046C316.302 445.731 314.484 443.131 313.629 440.092C312.127 434.761 313.922 428.928 317.164 424.446C320.399 419.964 324.942 416.615 329.509 413.506C337.002 408.422 345.065 403.677 354.022 402.366C361.839 401.224 370.502 403.23 375.978 408.738C376.779 409.541 377.51 410.42 378.157 411.377C378.242 411.493 378.319 411.616 378.388 411.739C379.867 413.992 380.899 416.53 382.424 418.76C386.582 424.816 394.16 427.902 401.499 427.979C408.839 428.049 415.97 425.464 422.477 422.077C438.142 413.923 451.026 401.078 461.214 386.635C465.82 380.109 470.04 371.599 466.42 364.47C464.51 360.698 460.852 358.322 457.441 355.73C456.701 355.166 455.97 354.595 455.269 353.994C454.853 353.639 454.46 353.276 454.083 352.898C441.13 340.03 449.416 315.89 458.904 303.785C465.781 295.013 478.788 280.363 491.595 283.287C493.213 283.657 494.676 284.506 496.054 285.432C500.252 288.248 503.54 291.765 506.266 295.685C507.082 296.842 507.837 298.038 508.561 299.257C512.697 306.277 515.554 314.231 518.873 321.699C541.576 372.725 482.3 430.425 443.163 453.878Z" fill="#374B5C"/>
<path d="M449.793 441.789C432.327 452.258 412.473 458.947 392.712 460.081C370.209 461.37 347.822 455.468 329.185 439.729C325.373 436.512 321.615 432.801 320.267 427.995C319.636 425.742 319.597 423.397 319.998 421.106C318.981 422.155 318.026 423.258 317.164 424.446C313.929 428.929 312.135 434.761 313.629 440.092C314.984 444.898 318.735 448.609 322.547 451.826C341.184 467.557 363.571 473.467 386.074 472.178C405.843 471.044 425.689 464.355 443.155 453.886C467.868 439.074 500.605 410.613 515.669 378.79C498.95 405.614 471.326 428.89 449.785 441.789H449.793Z" fill="#C10037"/>
<path d="M455.268 353.994C459.173 357.342 464.094 359.88 466.42 364.471C468.253 368.081 468.068 372.047 466.851 375.927C467.182 375.472 467.521 375.009 467.844 374.554C472.45 368.027 476.67 359.518 473.05 352.389C470.725 347.799 465.804 345.268 461.899 341.912C451.51 332.994 452.796 317.695 457.91 305.112C448.584 317.958 441.152 341.881 455.268 354.001V353.994Z" fill="#C10037"/>
<path d="M508.562 299.257C504.388 300.205 500.306 301.556 496.386 303.284C488.801 306.617 481.731 311.369 475.894 317.286C469.764 323.504 464.935 330.918 461.647 339.004C459.39 344.543 458.32 350.074 457.442 355.729C456.702 355.166 455.971 354.595 455.27 353.994C454.854 353.639 454.461 353.276 454.084 352.898C455.855 338.587 464.134 323.998 473.599 314.517C479.76 308.345 487.03 303.361 495.023 299.858C498.204 298.462 502.178 296.842 506.267 295.685C507.083 296.842 507.838 298.038 508.562 299.257Z" fill="#C10037"/>
<path d="M378.388 411.739C376.085 412.272 373.798 412.835 371.526 413.46C363.686 415.605 355.954 418.336 348.754 422.139C341.9 425.773 335.508 430.456 330.256 436.18C326.197 440.616 323.548 445.423 321.06 450.537C320.175 449.743 319.305 448.91 318.488 448.046C323.086 436.358 334.638 426.475 344.649 420.596C352.381 416.06 360.845 412.897 369.447 410.466C371.611 409.849 373.79 409.278 375.977 408.738C376.778 409.541 377.51 410.42 378.157 411.377C378.242 411.493 378.319 411.616 378.388 411.739Z" fill="#C10037"/>
<path d="M511.881 336.543C511.203 331.852 504.287 332.724 504.611 337.43C505.396 348.948 504.133 359.487 500.899 370.573C499.351 375.888 497.718 380.911 494.977 385.748C493.56 388.255 492.104 390.739 490.371 393.039C488.962 394.906 487.468 396.225 487.037 398.555C486.944 399.033 487.43 399.288 487.83 399.187C492.197 398.061 496.17 391.503 498.596 387.954C501.939 383.063 505.443 377.748 507.653 372.231C512.043 361.253 513.575 348.254 511.881 336.55V336.543Z" fill="white"/>
<path d="M511.087 321.938C510.91 321.236 510.525 320.526 509.925 320.079C509.67 319.925 509.409 319.763 509.154 319.608C508.569 319.354 507.961 319.261 507.329 319.338C507.021 319.338 506.713 319.338 506.397 319.338C505.473 319.338 504.572 320.017 503.995 320.681C503.232 321.553 503.055 322.787 503.332 323.867C503.879 325.989 506.136 327.146 508.192 326.359C508.477 326.251 508.754 326.143 509.039 326.035C510.656 325.418 511.503 323.582 511.087 321.946V321.938Z" fill="white"/>
<path d="M425.673 423.219C421.376 424.399 417.379 427.053 413.266 428.782C408.769 430.672 404.094 432.245 399.258 432.963C389.932 434.344 380.929 432.284 373.674 426.174C372.627 425.287 370.987 426.791 371.911 427.871C378.026 435.007 387.729 437.43 396.817 436.805C402.146 436.442 407.413 434.907 412.373 432.986C417.248 431.096 422.97 429.013 427.082 425.734C428.437 424.654 427.221 422.795 425.68 423.219H425.673Z" fill="white"/>
<path d="M441.229 414.741C441.091 414.309 440.628 413.969 440.19 413.915C438.595 413.707 437.741 415.165 436.863 416.284C435.969 417.41 434.96 418.637 434.637 420.056C434.421 420.982 435.515 421.777 436.347 421.406C437.663 420.82 438.68 419.555 439.604 418.482C440.559 417.364 441.753 416.307 441.245 414.741H441.229Z" fill="white"/>
<path d="M451.419 118.983C447.045 125.286 442.678 131.589 438.304 137.892C438.296 134.722 436.51 131.867 434.831 129.182C425.659 114.586 417.588 99.2872 410.703 83.4717C418.258 88.7178 424.396 95.6998 430.98 102.126C437.288 108.29 444.049 113.976 451.196 119.138C450.441 118.798 449.679 118.451 448.924 118.111" fill="#C10037"/>
<path d="M368.916 40.9707C384.149 69.5697 395.308 99.164 414.707 125.109C416.478 127.161 441.546 119.5 444.072 119.138C454.83 117.579 470.571 113.73 481.245 112.866C459.574 99.5729 433.998 86.6968 413.198 72.0848C405.581 66.7307 397.957 61.3765 390.341 56.0301C385.181 52.4041 371.812 46.4174 368.908 40.9784L368.916 40.9707Z" fill="#510017"/>
<path d="M372.658 45.1523C394.206 67.0626 415.762 88.9728 437.309 110.883C439.242 112.85 441.522 114.247 443.563 116.037C444.787 117.117 446.012 119.315 447.506 119.909C448.114 120.149 448.792 120.064 449.447 119.971C452.519 119.539 454.244 118.042 457.302 117.502C455.461 117.826 451.018 113.884 449.246 112.681C445.28 109.988 441.661 106.486 437.972 103.423C430.494 97.2046 423.085 90.9015 415.746 84.5136C401.083 71.7301 386.713 58.6071 372.666 45.1523H372.658Z" fill="#C10037"/>
<path d="M389.732 193.972C381.962 192.722 373.899 193.185 366.059 193.193H340.645C323.957 193.2 307.276 193.208 290.588 193.208C257.473 193.216 224.358 193.162 191.25 193.231C172.459 193.27 153.769 193.331 135.032 194.89C133.545 195.013 133.538 197.089 135.032 197.212C168.262 199.974 201.816 198.871 235.139 198.878C268.254 198.886 301.369 198.894 334.477 198.902C343.718 198.902 352.959 198.902 362.201 198.902C371.296 198.902 380.722 199.573 389.725 198.122C391.781 197.791 391.781 194.296 389.725 193.964L389.732 193.972Z" fill="white"/>
<path d="M384.874 293.201C377.373 291.974 369.833 292.043 362.248 291.851C354.3 291.642 346.36 291.588 338.413 291.565C322.525 291.519 306.63 291.48 290.742 291.434C258.967 291.349 227.185 291.434 195.402 291.434C186.692 291.434 177.974 291.434 169.264 291.434C160.531 291.434 151.182 290.639 142.603 292.499C140.724 292.907 140.724 295.901 142.603 296.302C149.996 297.907 157.897 297.336 165.421 297.367C173.369 297.398 181.309 297.367 189.256 297.367C205.144 297.367 221.039 297.374 236.927 297.382C268.709 297.39 300.484 297.344 332.267 297.259C340.985 297.236 349.695 297.243 358.405 297.05C367.238 296.857 376.148 297.027 384.881 295.6C386.075 295.407 386.075 293.386 384.881 293.185L384.874 293.201Z" fill="white"/>
<path d="M499.999 273.589C498.836 273.142 498.127 274.97 499.167 275.572C508.67 281.088 516.757 287.947 522.594 297.397C528.385 306.779 531.035 317.047 531.966 327.964C532.128 329.831 534.731 329.846 534.87 327.964C536.564 305.729 520.661 281.582 499.999 273.589Z" fill="#374B5C"/>
<path d="M388.447 392.298C385.059 389.32 379.121 389.058 374.793 388.526C369.233 387.839 363.519 387.762 357.943 388.31C347.477 389.336 336.641 392.19 327.777 398.023C327.007 398.532 327.485 399.99 328.447 399.612C338.043 395.778 347.562 392.607 357.943 391.851C362.702 391.504 367.469 391.55 372.213 392.098C375.047 392.422 377.874 392.9 380.654 393.54C382.941 394.065 385.105 394.991 387.461 394.69C388.54 394.551 389.464 393.185 388.447 392.298Z" fill="#374B5C"/>
<path d="M443.055 465.335C439.59 465.188 435.77 468.521 432.712 470.018C428.6 472.031 424.364 473.759 420.029 475.218C411.565 478.064 402.763 479.893 393.875 480.68C375.87 482.284 358.958 478.967 341.862 473.597C340.93 473.304 340.322 474.724 341.192 475.187C357.11 483.642 376.717 486.011 394.491 484.63C403.548 483.92 412.52 482.138 421.153 479.299C425.258 477.949 429.285 476.352 433.213 474.546C436.578 472.996 442.685 471.075 444.333 467.549C444.811 466.531 444.241 465.381 443.063 465.335H443.055Z" fill="#374B5C"/>
<path d="M40.7695 372.386C33.746 378.573 28.5785 386.905 25.5982 395.739C22.7795 404.102 20.9852 414.787 24.1118 423.304C24.3814 424.045 25.4903 423.952 25.5134 423.111C25.783 414.131 25.4518 405.791 28.4091 397.112C31.374 388.402 36.4722 381.011 43.0567 374.67C44.5661 373.212 42.3251 371.013 40.7695 372.378V372.386Z" fill="#374B5C"/>
<path d="M153.514 451.001C151.296 453.686 149.995 457.095 148.008 459.973C145.744 463.26 143.087 466.268 140.137 468.946C134.046 474.477 127.038 477.91 119.506 481.004C118.297 481.498 118.751 483.149 120.045 482.956C128.085 481.768 135.686 477.432 141.809 472.217C144.804 469.671 147.5 466.793 149.872 463.669C152.29 460.49 155.363 456.463 155.948 452.42C156.133 451.163 154.554 449.728 153.507 450.993L153.514 451.001Z" fill="#374B5C"/>
<path d="M168.401 459.811C165.783 461.261 163.996 464.085 161.894 466.16C159.406 468.621 156.734 470.859 153.877 472.872C152.529 473.821 153.777 476.051 155.186 475.117C158.166 473.158 161.008 470.99 163.58 468.513C165.821 466.361 168.74 463.776 169.472 460.629C169.618 460.004 168.963 459.487 168.401 459.803V459.811Z" fill="#374B5C"/>
<path d="M97.2732 26.4359C96.7957 24.0674 96.2643 21.7144 95.6174 19.3845C95.2555 18.0807 93.0067 18.2813 93.1685 19.7163C93.4226 21.9459 93.7769 24.1446 94.1696 26.3588C94.5085 28.2566 94.5393 30.5788 96.0641 31.9058C96.4492 32.2452 97.1346 32.2529 97.3964 31.736C98.2589 30.0465 97.6351 28.2412 97.2732 26.4436V26.4359Z" fill="#374B5C"/>
<path d="M72.1286 40.0754C71.7897 39.3502 71.5356 39.0185 70.8579 38.5324C70.2495 38.1004 69.6026 37.7455 69.025 37.2595C67.8698 36.2951 66.9534 35.0839 66.2064 33.7801C65.5518 32.646 63.6111 33.3943 64.0424 34.6904C64.6354 36.4648 65.6057 38.0233 66.9457 39.3348C67.5618 39.9365 68.2549 40.5229 69.0096 40.9472C69.9646 41.4872 70.6577 41.5875 71.6511 41.2326C72.1594 41.0475 72.3596 40.5537 72.1286 40.0677V40.0754Z" fill="#374B5C"/>
<path d="M54.9007 59.4319C53.0986 57.4338 50.5418 56.454 48.1391 55.3431C45.7363 54.2244 43.2951 53.0209 40.7614 52.2494C39.8757 51.9794 39.5061 53.1675 40.1684 53.6535C42.5403 55.3739 45.2434 56.6932 47.8387 58.051C49.9951 59.1773 51.9897 60.3346 54.4386 60.5429C55.0393 60.5969 55.2473 59.8177 54.9007 59.4319Z" fill="#374B5C"/>
<path d="M39.6377 90.1067C38.3901 88.8954 36.588 89.0035 34.9323 88.8106C32.7374 88.5483 30.5118 88.2165 28.2938 88.232C27.2773 88.232 27.0925 89.6978 28.0551 89.991C30.1806 90.6236 32.4063 90.9322 34.5934 91.3025C36.2569 91.5802 37.928 92.1743 39.4759 91.3642C39.9226 91.125 39.9919 90.4616 39.6377 90.1144V90.1067Z" fill="#374B5C"/>
<path d="M37.3047 114.447C35.1176 113.498 32.1603 113.984 29.8423 114.131C28.2635 114.231 28.2635 116.492 29.8423 116.592C32.168 116.739 35.1176 117.225 37.3047 116.276C37.9978 115.975 37.9978 114.748 37.3047 114.447Z" fill="#374B5C"/>
<path d="M135.348 21.0195C135.201 20.5488 134.616 20.2403 134.17 20.5411C132.66 21.5286 132.283 23.4651 131.713 25.1083C130.95 27.3148 130.242 29.4827 129.757 31.774C129.533 32.8309 131.043 33.6101 131.59 32.5455C132.583 30.6168 133.361 28.6572 134.123 26.6205C134.77 24.9 135.933 22.8633 135.348 21.0195Z" fill="#374B5C"/>
<path d="M173.337 34.1817C171.735 33.6957 169.956 34.6215 168.586 35.4007C167.022 36.2956 165.674 37.5223 164.535 38.9109C163.572 40.0759 165.12 41.7115 166.221 40.6005C167.338 39.4664 168.586 38.5561 169.979 37.7923C171.212 37.1211 172.76 36.8202 173.768 35.8173C174.3 35.2927 174.038 34.3977 173.337 34.1817Z" fill="#374B5C"/>
<path d="M184.534 58.5681C183.225 59.6097 182.155 60.6434 180.499 61.1141C179.336 61.4458 179.505 63.3899 180.792 63.2974C183.033 63.1354 185.543 61.8393 186.144 59.5094C186.398 58.5064 185.251 58.005 184.534 58.5681Z" fill="#374B5C"/>
<path d="M284.797 369.824C276.248 369.732 267.492 371.529 258.944 372.054C250.049 372.602 241.139 372.818 232.228 372.71C214.685 372.494 197.203 370.92 179.768 369.122C178.359 368.976 178.066 371.29 179.437 371.591C196.764 375.425 214.508 377.015 232.236 377.285C241.146 377.416 250.057 377.208 258.951 376.66C267.538 376.135 277.026 376.081 285.336 373.728C287.492 373.119 287.061 369.848 284.804 369.824H284.797Z" fill="#C10037"/>
<path d="M394.093 139.265C389.187 135.516 381.871 133.533 376.134 131.381C369.695 128.966 363.157 126.798 356.55 124.877C343.419 121.074 330.004 118.281 316.457 116.476C302.818 114.655 289.041 113.837 275.287 114.138C262.018 114.431 247.547 115.048 234.763 118.883C234.139 119.068 234.232 120.086 234.925 120.055C248.186 119.446 261.286 117.386 274.609 117.147C288.14 116.908 301.686 117.618 315.102 119.353C328.61 121.097 341.994 123.882 355.086 127.647C361.478 129.483 367.801 131.558 374.039 133.857C377.05 134.968 380.046 136.141 383.011 137.36C386.314 138.725 389.68 140.677 393.199 141.41C394.562 141.696 395.14 140.052 394.1 139.265H394.093Z" fill="#C10037"/>
<path d="M484.758 174.052C478.443 168.413 471.242 163.869 464.989 158.16C462.032 155.467 459.275 152.505 457.026 149.187C454.723 145.8 453.429 142.082 451.797 138.363C451.527 137.746 450.549 138.078 450.565 138.695C450.819 150.036 462.132 159.494 470.233 165.867C480.206 173.713 492.105 181.721 495.578 194.736C497.195 200.807 496.263 207.242 492.351 212.156C491.389 208.893 489.201 206.1 485.189 204.295C480.907 202.366 475.871 203.245 473.114 207.234C470.649 210.806 470.796 215.55 474.269 218.405C479.375 222.594 485.32 221.383 490.087 217.934C490.018 223.89 486.591 229.507 483.741 234.591C482.802 236.265 485.305 237.723 486.306 236.095C489.625 230.718 493.345 222.502 492.921 215.496C495.462 212.92 497.426 209.764 498.335 206.732C502.109 194.25 493.614 181.96 484.758 174.052ZM484.003 217.641C480.422 218.397 474.7 217.402 474.307 212.796C473.93 208.383 478.551 205.483 482.486 206.447C486.159 207.35 488.739 210.52 489.64 214.085C489.702 214.316 489.733 214.54 489.779 214.771C488.1 216.145 486.136 217.186 484.003 217.634V217.641Z" fill="#C10037"/>
</svg>
