<svg width="16" height="12" viewBox="0 0 16 12" fill="none" xmlns="http://www.w3.org/2000/svg">
<path d="M14.5 1.5V1H14H2H1.5V1.5V1.884V2.12855L1.69304 2.27868L7.69304 6.94518L8.00002 7.18394L8.30699 6.94516L14.307 2.27791L14.5 2.12777V1.88325V1.5ZM1.5 10.5V11H2H14.0015H14.5016L14.5015 10.4999L14.5 3.78289L14.4998 2.76082L13.693 3.38833L8.15352 7.69708L8.15352 7.69708L8.15165 7.69855C8.1084 7.73252 8.055 7.75098 8 7.75098C7.945 7.75098 7.8916 7.73252 7.84835 7.69855L7.84648 7.69708L2.30698 3.38833L1.5 2.76064V3.783V10.5ZM2 0.5H14C14.5511 0.5 15 0.948892 15 1.5V10.5C15 11.0511 14.5511 11.5 14 11.5H2C1.44889 11.5 1 11.0511 1 10.5V1.5C1 0.948892 1.44889 0.5 2 0.5Z" fill="#C10037" stroke="#C10037"/>
</svg>
