<svg width="24" height="24" viewBox="0 0 24 24" fill="none" xmlns="http://www.w3.org/2000/svg">
<path d="M12.0005 4.59511C10.8965 3.58911 9.48847 3.03711 8.00447 3.03711C6.42647 3.03711 4.93247 3.66011 3.79147 4.79511C1.43847 7.15811 1.43947 10.8541 3.79347 13.2071L11.1255 20.5391C11.2955 20.8381 11.6235 21.0311 12.0005 21.0311C12.3225 21.0311 12.6095 20.8681 12.7925 20.6221L20.2075 13.2071C22.5615 10.8531 22.5615 7.15811 20.2055 4.79111C19.0685 3.66011 17.5745 3.03711 15.9965 3.03711C14.5135 3.03711 13.1045 3.58911 12.0005 4.59511ZM18.7915 6.20511C20.3545 7.77611 20.3555 10.2301 18.7935 11.7931L12.0005 18.5861L5.20747 11.7931C3.64547 10.2301 3.64647 7.77611 5.20547 6.20911C5.96547 5.45311 6.95947 5.03711 8.00447 5.03711C9.04947 5.03711 10.0395 5.45311 10.7935 6.20711L11.2935 6.70711C11.6845 7.09811 12.3165 7.09811 12.7075 6.70711L13.2075 6.20711C14.7195 4.69811 17.2815 4.70211 18.7915 6.20511Z" fill="#C10037"/>
</svg>
