<svg width="64" height="64" viewBox="0 0 64 64" fill="none" xmlns="http://www.w3.org/2000/svg">
<path d="M0.761905 57.5669C1.18269 57.5669 1.52381 57.2258 1.52381 56.805C1.52381 56.3842 1.18269 56.0431 0.761905 56.0431C0.341116 56.0431 0 56.3842 0 56.805C0 57.2258 0.341116 57.5669 0.761905 57.5669Z" fill="#2D4356"/>
<path d="M4.1909 56.043H3.04804C2.84597 56.043 2.65217 56.1232 2.50929 56.2661C2.3664 56.409 2.28613 56.6028 2.28613 56.8049C2.28613 57.0069 2.3664 57.2007 2.50929 57.3436C2.65217 57.4865 2.84597 57.5668 3.04804 57.5668H4.1909C4.39296 57.5668 4.58676 57.4865 4.72964 57.3436C4.87253 57.2007 4.9528 57.0069 4.9528 56.8049C4.9528 56.6028 4.87253 56.409 4.72964 56.2661C4.58676 56.1232 4.39296 56.043 4.1909 56.043Z" fill="#2D4356"/>
<path d="M45.0114 59.0906H41.8466C41.655 59.1059 41.4763 59.1928 41.346 59.334C41.2156 59.4752 41.1433 59.6603 41.1433 59.8525C41.1433 60.0446 41.2156 60.2297 41.346 60.3709C41.4763 60.5121 41.655 60.599 41.8466 60.6144H45.0114C45.203 60.599 45.3817 60.5121 45.512 60.3709C45.6424 60.2297 45.7147 60.0446 45.7147 59.8525C45.7147 59.6603 45.6424 59.4752 45.512 59.334C45.3817 59.1928 45.203 59.1059 45.0114 59.0906ZM22.1543 59.0906H18.9894C18.7979 59.1059 18.6192 59.1928 18.4888 59.334C18.3585 59.4752 18.2861 59.6603 18.2861 59.8525C18.2861 60.0446 18.3585 60.2297 18.4888 60.3709C18.6192 60.5121 18.7979 60.599 18.9894 60.6144H22.1543C22.3458 60.599 22.5245 60.5121 22.6549 60.3709C22.7852 60.2297 22.8576 60.0446 22.8576 59.8525C22.8576 59.6603 22.7852 59.4752 22.6549 59.334C22.5245 59.1928 22.3458 59.1059 22.1543 59.0906ZM39.6195 59.0906H24.3814C24.1793 59.0906 23.9855 59.1708 23.8426 59.3137C23.6997 59.4566 23.6195 59.6504 23.6195 59.8525C23.6195 60.0546 23.6997 60.2483 23.8426 60.3912C23.9855 60.5341 24.1793 60.6144 24.3814 60.6144H30.4538V61.3763H27.429C27.2269 61.3763 27.0331 61.4566 26.8903 61.5994C26.7474 61.7423 26.6671 61.9361 26.6671 62.1382C26.6671 62.3403 26.7474 62.5341 26.8903 62.6769C27.0331 62.8198 27.2269 62.9001 27.429 62.9001H36.9528C37.1549 62.9001 37.3487 62.8198 37.4916 62.6769C37.6344 62.5341 37.7147 62.3403 37.7147 62.1382C37.7147 61.9361 37.6344 61.7423 37.4916 61.5994C37.3487 61.4566 37.1549 61.3763 36.9528 61.3763H33.5471V60.6144H39.6195C39.8215 60.6144 40.0153 60.5341 40.1582 60.3912C40.3011 60.2483 40.3814 60.0546 40.3814 59.8525C40.3814 59.6504 40.3011 59.4566 40.1582 59.3137C40.0153 59.1708 39.8215 59.0906 39.6195 59.0906Z" fill="#0BCEB2"/>
<path d="M55.6178 30.5192C55.7795 30.5194 55.9371 30.4681 56.0677 30.3728C56.1983 30.2775 56.2952 30.1431 56.3444 29.9891C56.3935 29.8351 56.3924 29.6694 56.3412 29.516C56.29 29.3627 56.1913 29.2296 56.0594 29.136L42.0801 19.2151C41.9545 19.7338 41.7919 20.2428 41.5934 20.7381L55.1777 30.3786C55.3062 30.4702 55.4601 30.5194 55.6178 30.5192ZM8.82157 30.3786L22.4059 20.7381C22.2074 20.2428 22.0448 19.7338 21.9193 19.2151L7.93988 29.136C7.85816 29.1939 7.78863 29.2673 7.73529 29.352C7.68195 29.4367 7.64583 29.5311 7.629 29.6298C7.61217 29.7285 7.61497 29.8296 7.63722 29.9272C7.65947 30.0248 7.70074 30.1171 7.75868 30.1987C7.81662 30.2804 7.89009 30.3498 7.97488 30.403C8.05967 30.4563 8.15412 30.4923 8.25284 30.509C8.35155 30.5257 8.4526 30.5228 8.55018 30.5004C8.64777 30.478 8.73999 30.4366 8.82157 30.3786V30.3786ZM31.9997 30.9002C32.2039 30.9002 32.4061 30.8591 32.5942 30.7794C32.7823 30.6997 32.9525 30.583 33.0946 30.4362C33.8793 29.6254 40.7615 22.3824 40.7615 17.7821C40.7615 12.8321 36.831 8.80493 31.9997 8.80493C27.1683 8.80493 23.2378 12.8321 23.2378 17.7821C23.2378 22.3824 30.12 29.6254 30.9048 30.4362C31.0468 30.5829 31.217 30.6997 31.4051 30.7794C31.5932 30.8591 31.7954 30.9002 31.9997 30.9002ZM31.9997 10.3287C35.9971 10.3287 39.2377 13.6657 39.2377 17.7821C39.2377 21.8985 31.9997 29.3764 31.9997 29.3764C31.9997 29.3764 24.7616 21.8986 24.7616 17.7821C24.7616 13.6657 28.0022 10.3287 31.9997 10.3287Z" fill="#2D4356"/>
<path d="M35.4579 18.0944V15.6621C35.4573 15.1571 35.2565 14.673 34.8994 14.3159C34.5423 13.9588 34.0582 13.7579 33.5532 13.7573H30.4468C29.9418 13.7579 29.4577 13.9588 29.1006 14.3159C28.7435 14.673 28.5426 15.1571 28.542 15.6621V23.2811C28.5415 23.3815 28.5608 23.4811 28.5988 23.574C28.6369 23.6669 28.6929 23.7514 28.7637 23.8226C28.8345 23.8938 28.9187 23.9503 29.0114 23.9888C29.1041 24.0274 29.2035 24.0472 29.3039 24.0472C29.4043 24.0472 29.5037 24.0274 29.5965 23.9888C29.6892 23.9503 29.7733 23.8938 29.8441 23.8226C29.915 23.7514 29.971 23.6669 30.009 23.574C30.0471 23.4811 30.0664 23.3815 30.0658 23.2811V19.9991H33.5532C34.0582 19.9985 34.5423 19.7977 34.8994 19.4406C35.2565 19.0835 35.4573 18.5994 35.4579 18.0944ZM30.0658 15.6621C30.0659 15.5611 30.1061 15.4642 30.1775 15.3928C30.2489 15.3214 30.3458 15.2812 30.4468 15.2811H33.5532C33.6542 15.2812 33.751 15.3214 33.8224 15.3928C33.8939 15.4642 33.934 15.5611 33.9341 15.6621V18.0944C33.934 18.1954 33.8939 18.2922 33.8224 18.3636C33.751 18.4351 33.6542 18.4752 33.5532 18.4753H30.0658V15.6621ZM8.38105 54.1383H55.6189C55.821 54.1383 56.0148 54.058 56.1577 53.9151C56.3005 53.7722 56.3808 53.5784 56.3808 53.3764C56.3808 53.1743 56.3005 52.9805 56.1577 52.8376C56.0148 52.6947 55.821 52.6145 55.6189 52.6145H8.38105C8.17898 52.6145 7.98518 52.6947 7.8423 52.8376C7.69941 52.9805 7.61914 53.1743 7.61914 53.3764C7.61914 53.5784 7.69941 53.7722 7.8423 53.9151C7.98518 54.058 8.17898 54.1383 8.38105 54.1383ZM8.38105 50.3288H55.6189C55.821 50.3288 56.0148 50.2485 56.1577 50.1056C56.3005 49.9627 56.3808 49.7689 56.3808 49.5668C56.3808 49.3648 56.3005 49.171 56.1577 49.0281C56.0148 48.8852 55.821 48.8049 55.6189 48.8049H8.38105C8.17898 48.8049 7.98518 48.8852 7.8423 49.0281C7.69941 49.171 7.61914 49.3648 7.61914 49.5668C7.61914 49.7689 7.69941 49.9627 7.8423 50.1056C7.98518 50.2485 8.17898 50.3288 8.38105 50.3288Z" fill="#FB2B24"/>
<path d="M8.38073 45.3763C8.17866 45.3763 7.98486 45.4566 7.84198 45.5995C7.69909 45.7423 7.61882 45.9361 7.61882 46.1382C7.61882 46.3403 7.69909 46.5341 7.84198 46.677C7.98486 46.8198 8.17866 46.9001 8.38073 46.9001H55.6186C55.8207 46.9001 56.0145 46.8198 56.1573 46.677C56.3002 46.5341 56.3805 46.3403 56.3805 46.1382C56.3805 45.9361 56.3002 45.7423 56.1573 45.5995C56.0145 45.4566 55.8207 45.3763 55.6186 45.3763H52.571V32.3381L55.1777 34.1881C55.2593 34.2461 55.3515 34.2875 55.4491 34.3099C55.5467 34.3322 55.6478 34.3351 55.7465 34.3184C55.8452 34.3017 55.9396 34.2657 56.0244 34.2125C56.1092 34.1592 56.1827 34.0898 56.2406 34.0082C56.2986 33.9265 56.3398 33.8342 56.3621 33.7366C56.3843 33.639 56.3871 33.538 56.3703 33.4393C56.3535 33.3406 56.3174 33.2462 56.264 33.1614C56.2107 33.0767 56.1412 33.0033 56.0594 32.9455L40.9232 22.2036C40.6939 22.6507 40.4435 23.098 40.1768 23.5423L51.0472 31.2567V45.3763H22.8568V39.662H44.952C45.3561 39.662 45.7437 39.5015 46.0295 39.2157C46.3152 38.9299 46.4758 38.5423 46.4758 38.1382V34.3287C46.4758 33.9245 46.3152 33.537 46.0295 33.2512C45.7437 32.9654 45.3561 32.8049 44.952 32.8049H22.8568V32.4239C22.8579 32.023 22.7799 31.6258 22.6273 31.2551C22.4746 30.8844 22.2503 30.5474 21.9672 30.2635C21.6841 29.9797 21.3477 29.7544 20.9774 29.6007C20.6071 29.4471 20.2102 29.368 19.8092 29.368C19.4083 29.368 19.0113 29.4471 18.641 29.6007C18.2707 29.7544 17.9344 29.9797 17.6513 30.2635C17.3682 30.5474 17.1439 30.8844 16.9912 31.2551C16.8386 31.6258 16.7605 32.023 16.7616 32.4239V45.3763H12.9521V31.2567L23.8225 23.5423C23.5558 23.098 23.3054 22.6507 23.0761 22.2036L7.93988 32.9455C7.85816 33.0034 7.78863 33.0767 7.73529 33.1615C7.68195 33.2462 7.64583 33.3406 7.629 33.4393C7.61217 33.538 7.61497 33.639 7.63722 33.7366C7.65947 33.8343 7.70074 33.9265 7.75868 34.0082C7.81662 34.0898 7.89009 34.1593 7.97488 34.2125C8.05967 34.2657 8.15412 34.3017 8.25284 34.3184C8.35155 34.3352 8.4526 34.3322 8.55018 34.3099C8.64777 34.2875 8.73999 34.2461 8.82157 34.1881L11.4283 32.3381V45.3763L8.38073 45.3763ZM44.952 34.3287V38.1382H40.5071L42.7871 34.3287H44.952ZM41.0159 34.3287L38.7404 38.1382H36.6976L38.9837 34.3287H41.0159ZM37.2064 34.3287L34.9203 38.1382H32.8881L35.1803 34.3287H37.2064ZM33.3969 34.3287L31.1138 38.1382H29.0786L31.3573 34.3287H33.3969ZM29.5874 34.3287L27.3099 38.1382H25.2691L27.5595 34.3287H29.5874ZM25.7779 34.3287L23.5041 38.1382H21.333V34.3287H25.7779ZM18.2854 32.4239C18.2847 32.2233 18.3235 32.0245 18.3997 31.839C18.476 31.6534 18.5881 31.4847 18.7297 31.3426C18.8712 31.2005 19.0395 31.0877 19.2247 31.0108C19.41 30.9338 19.6086 30.8942 19.8092 30.8942C20.0098 30.8942 20.2085 30.9338 20.3937 31.0108C20.579 31.0877 20.7472 31.2005 20.8888 31.3426C21.0304 31.4847 21.1425 31.6534 21.2187 31.839C21.295 32.0245 21.3338 32.2233 21.333 32.4239V32.8049C20.9289 32.8049 20.5413 32.9654 20.2555 33.2512C19.9698 33.537 19.8092 33.9245 19.8092 34.3287V38.1382C19.8092 38.5423 19.9698 38.9299 20.2555 39.2157C20.5413 39.5015 20.9289 39.662 21.333 39.662V45.3763H18.2854L18.2854 32.4239ZM60.952 56.043H59.8092C59.6071 56.043 59.4133 56.1232 59.2704 56.2661C59.1275 56.409 59.0473 56.6028 59.0473 56.8049C59.0473 57.0069 59.1275 57.2007 59.2704 57.3436C59.4133 57.4865 59.6071 57.5668 59.8092 57.5668H60.952C61.1541 57.5668 61.3479 57.4865 61.4908 57.3436C61.6337 57.2007 61.7139 57.0069 61.7139 56.8049C61.7139 56.6028 61.6337 56.409 61.4908 56.2661C61.3479 56.1232 61.1541 56.043 60.952 56.043Z" fill="#2D4356"/>
<path d="M63.2385 57.5669C63.6593 57.5669 64.0004 57.2258 64.0004 56.805C64.0004 56.3842 63.6593 56.0431 63.2385 56.0431C62.8177 56.0431 62.4766 56.3842 62.4766 56.805C62.4766 57.2258 62.8177 57.5669 63.2385 57.5669Z" fill="#2D4356"/>
<path d="M57.4174 56.0429H6.58213C6.47374 56.0288 6.36357 56.0379 6.25899 56.0697C6.15441 56.1015 6.05781 56.1553 5.97566 56.2274C5.89351 56.2995 5.8277 56.3883 5.78261 56.4879C5.73752 56.5875 5.71419 56.6955 5.71419 56.8048C5.71419 56.9141 5.73752 57.0222 5.78261 57.1218C5.8277 57.2214 5.89351 57.3102 5.97566 57.3823C6.05781 57.4544 6.15441 57.5081 6.25899 57.54C6.36357 57.5718 6.47374 57.5809 6.58213 57.5667H57.4174C57.5258 57.5809 57.636 57.5718 57.7406 57.54C57.8451 57.5081 57.9417 57.4544 58.0239 57.3823C58.106 57.3102 58.1718 57.2214 58.2169 57.1218C58.262 57.0222 58.2853 56.9141 58.2853 56.8048C58.2853 56.6955 58.262 56.5875 58.2169 56.4879C58.1718 56.3883 58.106 56.2995 58.0239 56.2274C57.9417 56.1553 57.8451 56.1015 57.7406 56.0697C57.636 56.0379 57.5258 56.0288 57.4174 56.0429ZM17.7141 17.4744C17.9401 17.4744 18.161 17.4074 18.349 17.2818C18.5369 17.1563 18.6834 16.9778 18.7699 16.7689C18.8564 16.5601 18.879 16.3303 18.835 16.1086C18.7909 15.8869 18.682 15.6833 18.5222 15.5235C18.3623 15.3636 18.1587 15.2548 17.937 15.2107C17.7153 15.1666 17.4855 15.1892 17.2767 15.2757C17.0679 15.3622 16.8894 15.5087 16.7638 15.6966C16.6382 15.8846 16.5712 16.1055 16.5712 16.3316C16.5715 16.6346 16.6921 16.9251 16.9063 17.1393C17.1206 17.3536 17.4111 17.4741 17.7141 17.4744ZM17.7141 15.7602C17.8271 15.7602 17.9376 15.7937 18.0315 15.8565C18.1255 15.9192 18.1987 16.0085 18.242 16.1129C18.2852 16.2173 18.2965 16.3322 18.2745 16.4431C18.2525 16.5539 18.198 16.6557 18.1181 16.7356C18.0382 16.8156 17.9364 16.87 17.8255 16.892C17.7147 16.9141 17.5998 16.9028 17.4954 16.8595C17.391 16.8163 17.3017 16.743 17.2389 16.6491C17.1761 16.5551 17.1426 16.4446 17.1426 16.3316C17.1428 16.1801 17.203 16.0348 17.3102 15.9277C17.4173 15.8206 17.5625 15.7603 17.7141 15.7602ZM60.3063 25.9477C60.1556 25.9477 60.0083 25.9924 59.883 26.0761C59.7577 26.1598 59.6601 26.2788 59.6024 26.418C59.5448 26.5572 59.5297 26.7104 59.5591 26.8582C59.5885 27.006 59.661 27.1418 59.7676 27.2483C59.8741 27.3549 60.0099 27.4275 60.1577 27.4569C60.3055 27.4863 60.4587 27.4712 60.5979 27.4135C60.7371 27.3558 60.8561 27.2582 60.9398 27.1329C61.0235 27.0076 61.0682 26.8603 61.0682 26.7096C61.068 26.5076 60.9877 26.3139 60.8448 26.1711C60.702 26.0283 60.5083 25.9479 60.3063 25.9477ZM60.3063 27.0905C60.231 27.0905 60.1573 27.0682 60.0947 27.0263C60.032 26.9845 59.9832 26.925 59.9544 26.8554C59.9255 26.7858 59.918 26.7092 59.9327 26.6353C59.9474 26.5614 59.9837 26.4935 60.037 26.4402C60.0902 26.3869 60.1581 26.3507 60.232 26.336C60.3059 26.3213 60.3825 26.3288 60.4521 26.3576C60.5217 26.3865 60.5812 26.4353 60.6231 26.4979C60.6649 26.5606 60.6873 26.6342 60.6873 26.7096C60.6872 26.8106 60.647 26.9074 60.5756 26.9789C60.5042 27.0503 60.4073 27.0904 60.3063 27.0905ZM47.4918 18.4531C47.3411 18.4531 47.1938 18.4978 47.0685 18.5815C46.9432 18.6653 46.8456 18.7842 46.7879 18.9235C46.7303 19.0627 46.7152 19.2159 46.7446 19.3637C46.774 19.5115 46.8465 19.6472 46.9531 19.7538C47.0596 19.8603 47.1954 19.9329 47.3432 19.9623C47.491 19.9917 47.6442 19.9766 47.7834 19.9189C47.9226 19.8613 48.0416 19.7636 48.1253 19.6383C48.2091 19.513 48.2537 19.3657 48.2537 19.215C48.2535 19.013 48.1732 18.8194 48.0303 18.6765C47.8875 18.5337 47.6938 18.4534 47.4918 18.4531ZM47.4918 19.596C47.4165 19.596 47.3428 19.5736 47.2802 19.5318C47.2175 19.4899 47.1687 19.4304 47.1399 19.3608C47.111 19.2912 47.1035 19.2146 47.1182 19.1407C47.1329 19.0668 47.1692 18.9989 47.2225 18.9457C47.2757 18.8924 47.3436 18.8561 47.4175 18.8414C47.4914 18.8267 47.568 18.8342 47.6376 18.8631C47.7072 18.8919 47.7667 18.9407 47.8086 19.0034C47.8504 19.066 47.8728 19.1397 47.8728 19.215C47.8727 19.316 47.8325 19.4129 47.7611 19.4843C47.6897 19.5557 47.5928 19.5959 47.4918 19.596ZM57.1425 1.53931C56.9918 1.53931 56.8445 1.58399 56.7192 1.66771C56.5939 1.75143 56.4963 1.87042 56.4386 2.00964C56.3809 2.14886 56.3658 2.30206 56.3952 2.44985C56.4246 2.59765 56.4972 2.7334 56.6038 2.83996C56.7103 2.94651 56.8461 3.01908 56.9939 3.04848C57.1417 3.07787 57.2949 3.06279 57.4341 3.00512C57.5733 2.94745 57.6923 2.8498 57.776 2.7245C57.8597 2.59921 57.9044 2.4519 57.9044 2.30121C57.9042 2.09921 57.8238 1.90555 57.681 1.76272C57.5382 1.61988 57.3445 1.53954 57.1425 1.53931ZM57.1425 2.68216C57.0672 2.68216 56.9935 2.65982 56.9309 2.61796C56.8682 2.5761 56.8194 2.51661 56.7906 2.447C56.7617 2.37739 56.7542 2.30079 56.7689 2.22689C56.7836 2.15299 56.8199 2.08511 56.8731 2.03184C56.9264 1.97856 56.9943 1.94228 57.0682 1.92758C57.1421 1.91288 57.2187 1.92042 57.2883 1.94926C57.3579 1.97809 57.4174 2.02692 57.4593 2.08957C57.5011 2.15221 57.5235 2.22587 57.5235 2.30121C57.5234 2.40222 57.4832 2.49905 57.4118 2.57047C57.3403 2.64189 57.2435 2.68206 57.1425 2.68216ZM6.47596 24.0429C6.47596 23.8922 6.43127 23.7449 6.34755 23.6196C6.26384 23.4943 6.14484 23.3967 6.00562 23.339C5.8664 23.2814 5.71321 23.2663 5.56541 23.2957C5.41762 23.3251 5.28186 23.3976 5.17531 23.5042C5.06875 23.6107 4.99619 23.7465 4.96679 23.8943C4.93739 24.0421 4.95248 24.1953 5.01015 24.3345C5.06781 24.4737 5.16547 24.5927 5.29076 24.6764C5.41606 24.7601 5.56336 24.8048 5.71405 24.8048C5.91605 24.8046 6.10971 24.7243 6.25255 24.5814C6.39538 24.4386 6.47573 24.2449 6.47596 24.0429ZM5.3331 24.0429C5.3331 23.9676 5.35544 23.8939 5.3973 23.8313C5.43916 23.7686 5.49866 23.7198 5.56827 23.691C5.63788 23.6621 5.71448 23.6546 5.78837 23.6693C5.86227 23.684 5.93015 23.7203 5.98343 23.7736C6.0367 23.8268 6.07299 23.8947 6.08769 23.9686C6.10239 24.0425 6.09484 24.1191 6.06601 24.1887C6.03717 24.2583 5.98835 24.3178 5.9257 24.3597C5.86305 24.4015 5.7894 24.4239 5.71405 24.4239C5.61305 24.4238 5.51621 24.3836 5.44479 24.3122C5.37337 24.2408 5.3332 24.1439 5.3331 24.0429Z" fill="#2D4356"/>
<path d="M5.87225 7.56645L6.43873 6.82169L6.08101 6.61902L5.71758 7.4533H5.70539L5.33625 6.62473L4.97206 6.83349L5.53282 7.56073V7.57254L4.65625 7.4594V7.86435L5.53854 7.75159V7.7634L4.97206 8.49026L5.31187 8.70511L5.69968 7.86435H5.71111L6.06882 8.69902L6.44444 8.48454L5.87225 7.76911V7.7573L6.77206 7.86435V7.4594L5.87225 7.57826V7.56645Z" fill="#0BCEB2"/>
<path d="M25.1683 1.7589L24.8419 2.17757L25.0377 2.30138L25.2609 1.81719H25.2678L25.4739 2.29795L25.6899 2.17414L25.3603 1.76233V1.75547L25.8788 1.81719V1.58404L25.3603 1.65262V1.64576L25.6868 1.21681L25.4807 1.09985L25.2712 1.58023H25.2643L25.0518 1.10328L24.8419 1.22328L25.1649 1.64233V1.64919L24.6602 1.58404V1.81719L25.1683 1.75204V1.7589Z" fill="#0BCEB2"/>
<path d="M60.9631 14.3642V13.9668L60.0805 14.0838V14.072L60.6359 13.3413L60.285 13.1425L59.9285 13.9607H59.9167L59.5544 13.1482L59.1974 13.3527L59.7471 14.0663V14.0781L58.8877 13.9668V14.3642L59.7528 14.2533V14.2651L59.1974 14.9783L59.5307 15.1889L59.9109 14.3642H59.9224L60.2732 15.1828L60.6416 14.9726L60.0805 14.2708V14.259L60.9631 14.3642Z" fill="#0BCEB2"/>
<path d="M44.4752 7.12344L44.9545 6.49296L44.6516 6.32153L44.3442 7.02744H44.3339L44.0215 6.32649L43.7133 6.50287L44.1876 7.11849V7.12839L43.4463 7.03239V7.37525L44.1926 7.27963V7.28991L43.7133 7.90477L44.001 8.08648L44.329 7.37525H44.3389L44.6417 8.08153L44.9594 7.89982L44.4752 7.29487V7.28458L45.2364 7.37525V7.03239L44.4752 7.13334V7.12344Z" fill="#0BCEB2"/>
</svg>
