<svg width="59" height="57" viewBox="0 0 59 57" fill="none" xmlns="http://www.w3.org/2000/svg">
<path d="M40.6408 34.1007C39.7131 30.6302 37.2653 28.3134 34.2599 26.4868C34.1598 26.426 33.9883 26.4088 33.8771 26.4463C33.4911 26.5727 33.1178 26.7335 32.7143 26.8912C32.8636 27.0973 32.9748 27.2581 33.0924 27.4142C34.7015 29.5436 36.3138 31.6699 37.9197 33.8009C38.9967 35.2294 38.8426 36.6516 37.494 37.8522C37.1716 38.141 36.8507 38.4314 36.5235 38.7171C35.1145 39.952 33.3545 39.7927 32.2219 38.3205C31.2879 37.1075 30.3554 35.8929 29.4484 34.6596C29.2149 34.3411 28.9671 34.224 28.5668 34.224C22.691 34.2381 16.8153 34.2334 10.9395 34.2334C10.7409 34.2334 10.5392 34.2506 10.3454 34.2209C9.87521 34.1491 9.58134 33.8852 9.58928 33.3982C9.59881 32.9142 9.8895 32.6535 10.3676 32.6004C10.544 32.5801 10.725 32.5942 10.9029 32.5942H27.8647C27.3468 31.915 26.9195 31.3546 26.47 30.7645C23.8252 31.851 21.3186 31.7402 19.0232 30.0947C16.7152 28.4399 15.8304 26.1168 16.0941 23.3052C15.8288 23.3333 15.6096 23.3317 15.4047 23.3848C13.8146 23.7923 12.1928 24.1139 10.6472 24.6462C7.41466 25.7609 4.55858 27.4813 2.3776 30.1462C-0.603964 33.7853 -0.781873 38.3861 1.90106 42.1251C2.89545 43.5114 4.10269 44.6964 5.52914 45.6393C6.62677 46.3637 7.78636 46.9991 8.95707 47.6969C8.87764 48.042 8.78869 48.4385 8.69656 48.8335C8.14059 51.1862 7.57986 53.5389 7.03978 55.8947C7.00007 56.0695 7.05249 56.324 7.16527 56.452C7.22722 56.5223 7.50997 56.413 7.68947 56.3677C7.76095 56.349 7.82131 56.2834 7.88644 56.2381C10.8632 54.1977 13.8353 52.1479 16.8296 50.1293C17.125 49.9294 17.5475 49.8358 17.9145 49.8295C19.738 49.7936 21.5632 49.8529 23.3836 49.7796C24.4368 49.7374 25.482 49.5064 26.5383 49.3596C26.5383 48.3261 26.5351 47.4097 26.5399 46.4933C26.5494 44.5824 27.6709 43.4849 29.6168 43.4833C32.2378 43.4818 34.8572 43.488 37.4781 43.4755C37.6942 43.474 37.988 43.4287 38.1135 43.2882C40.4883 40.6373 41.578 37.6008 40.6408 34.1007ZM31.3625 39.429C31.3212 39.7209 31.0559 40.0097 30.824 40.233C30.7144 40.3407 30.4476 40.3095 30.2522 40.3095C23.7474 40.3142 17.2426 40.3142 10.7362 40.3095C10.5217 40.3095 10.231 40.336 10.1103 40.2174C9.88474 39.9941 9.60199 39.6569 9.63058 39.3978C9.66076 39.1402 10.0166 38.8857 10.2819 38.7015C10.4169 38.6094 10.6679 38.6749 10.8664 38.6749C14.0783 38.6734 17.2918 38.6734 20.5053 38.6734C23.7188 38.6734 26.9307 38.6734 30.1442 38.6749C30.3221 38.6749 30.5047 38.6593 30.6779 38.6874C31.102 38.7577 31.4197 39.0262 31.3625 39.429Z" fill="#C10037"/>
<path d="M42.3246 45.1243C40.2024 45.1211 38.0786 45.1227 35.9548 45.1227C33.8326 45.1227 31.7088 45.1211 29.585 45.1243C28.6129 45.1258 28.211 45.5114 28.2094 46.4731C28.2046 49.5361 28.203 52.5976 28.2094 55.6591C28.211 56.6239 28.6002 56.997 29.5945 56.9986C33.8405 57.0017 38.0881 57.0017 42.3341 56.997C43.3301 56.997 43.6923 56.6348 43.6938 55.6513C43.697 52.5898 43.697 49.5283 43.6938 46.4653C43.6923 45.4896 43.3142 45.1243 42.3246 45.1243ZM37.6227 51.4658C36.5298 52.0996 35.4306 52.7209 34.3282 53.3345C33.7897 53.6342 33.5848 53.5046 33.5753 52.8755C33.5705 52.6163 33.5705 52.3572 33.5705 52.098C33.5705 51.753 33.5721 51.408 33.5721 51.063C33.5721 50.8912 33.5721 50.7211 33.5705 50.5493C33.5689 50.0966 33.5657 49.6439 33.5768 49.1911C33.5896 48.6416 33.8119 48.5042 34.279 48.7618C35.4004 49.3847 36.5155 50.0154 37.6259 50.6586C38.0977 50.9318 38.0961 51.191 37.6227 51.4658Z" fill="#C10037"/>
<path d="M44.3753 22.623C39.9259 22.8088 35.7641 23.9031 31.6913 25.5111C29.9456 22.5387 28.2236 19.6084 26.4684 16.6218C29.8995 13.96 32.9652 10.9735 35.3496 7.25635C38.3724 12.402 41.3476 17.468 44.3753 22.623Z" fill="#C10037"/>
<path d="M17.6032 9.4748C17.6032 9.22189 17.5984 8.96742 17.6047 8.71451C17.6127 8.29143 17.4125 8.0151 16.9805 8.02291C15.4539 8.04789 14.4008 6.08237 15.6112 4.80533C15.9257 4.4728 15.8638 4.14027 15.5365 3.83116C15.1934 3.508 14.8567 3.17547 14.5247 2.83981C14.2086 2.51821 13.8766 2.47294 13.5351 2.77893C12.2293 3.94825 10.2692 2.92568 10.2771 1.47379C10.2803 1.02729 10.0102 0.800921 9.55435 0.799359C9.05715 0.799359 8.56155 0.796237 8.06436 0.800921C7.61641 0.804043 7.34478 1.00856 7.33684 1.46754C7.30983 3.00686 5.31471 3.91078 4.08523 2.78205C3.75165 2.4745 3.4133 2.51041 3.09402 2.83669C2.75091 3.18952 2.39668 3.52985 2.04245 3.87331C1.73428 4.17149 1.71046 4.49466 2.00115 4.80221C3.19886 6.06208 2.18541 8.0354 0.635058 8.02135C0.23635 8.01666 0.0139637 8.25552 0.00760982 8.65206C-0.00192104 9.17974 0.00284439 9.70585 0.00443287 10.2335C0.00443287 10.6269 0.210935 10.8315 0.604877 10.9033C2.49357 11.2545 3.07337 12.6174 1.97891 14.1349C1.72793 14.4815 1.75493 14.7734 2.05992 15.0654C2.40144 15.3916 2.73979 15.7226 3.06701 16.0614C3.40059 16.4064 3.74212 16.4439 4.10588 16.1223C5.40684 14.9701 7.35431 15.9974 7.34319 17.4711C7.34001 17.8911 7.59099 18.1081 8.02941 18.105C8.52501 18.1003 9.02221 18.0925 9.51781 18.1065C10.0134 18.1221 10.2247 17.8864 10.2898 17.4196C10.5233 15.746 12.1293 15.0981 13.5033 16.1254C13.8941 16.4173 14.2118 16.4064 14.5453 16.0645C14.8614 15.7414 15.1839 15.4229 15.5143 15.1138C15.886 14.7672 15.8812 14.4471 15.5635 14.0444C14.5406 12.7455 15.2252 11.1328 16.8852 10.9189C17.3951 10.8549 17.6365 10.6269 17.6063 10.1196C17.5936 9.90568 17.6032 9.69024 17.6032 9.4748ZM8.78235 13.6197C6.44094 13.6041 4.56971 11.7323 4.58242 9.42172C4.59513 7.11899 6.49812 5.28929 8.85859 5.30959C11.1666 5.32832 13.041 7.19237 13.0395 9.46856C13.0395 11.7526 11.1095 13.6353 8.78235 13.6197Z" fill="#C10037"/>
<path d="M50.008 24.178C49.6585 24.3403 49.2582 24.3965 48.8802 24.5011C47.7889 24.4137 47.0439 23.8938 46.5165 22.993C44.334 19.2603 42.1387 15.5337 39.9498 11.8041C38.6409 9.5763 37.3177 7.35788 36.031 5.11915C35.07 3.45026 36.0215 1.54406 37.9213 1.26149C38.9363 1.11162 39.9514 1.62525 40.5423 2.6244C41.848 4.83033 43.141 7.04408 44.4404 9.2547C46.6309 12.9828 48.8262 16.7093 51.0103 20.4405C51.8649 21.9002 51.4344 23.5207 50.008 24.178Z" fill="#C10037"/>
<path d="M30.4411 26.6679C28.6144 27.6389 26.848 28.6365 25.0228 29.5139C24.4669 29.7809 23.7457 29.7965 23.1008 29.7902C20.7355 29.7699 18.6308 28.1775 17.9525 25.9622C17.2568 23.686 18.113 21.1507 20.1192 19.8768C21.6314 18.9167 23.2215 18.0752 24.8465 17.1416C26.7177 20.3295 28.5493 23.4472 30.4411 26.6679Z" fill="#C10037"/>
<path d="M57.1704 31.2392C57.0656 33.4998 56.0601 35.7916 54.6972 37.9507C53.6329 39.6367 52.3669 41.1589 50.6481 42.2532C48.985 43.3117 47.2679 43.5303 45.5031 42.4749C44.7072 42.0003 44.523 41.3446 44.9773 40.5391C45.322 39.9255 45.6794 39.3182 46.0479 38.7172C46.5149 37.96 47.1741 37.7914 47.9747 38.2098C48.1844 38.3191 48.3846 38.4487 48.5974 38.5533C49.1931 38.8436 49.7824 38.7593 50.2177 38.2676C51.6505 36.6455 52.7322 34.8189 53.4359 32.7847C53.6599 32.1368 53.4375 31.6076 52.8434 31.2298C51.2359 30.2057 51.1771 29.9746 52.1286 28.3557C52.3573 27.967 52.5797 27.5767 52.8164 27.1942C53.3199 26.3777 53.976 26.2184 54.8338 26.6852C56.5255 27.6063 57.199 29.0723 57.1704 31.2392Z" fill="#C10037"/>
<path d="M36.3344 36.6735C36.012 36.9623 35.6911 37.2543 35.3607 37.5353C34.738 38.063 34.0979 38.0333 33.6086 37.3995C31.7199 34.9406 29.8519 32.4677 27.9203 29.9308C29.0942 29.2657 30.2236 28.6257 31.38 27.97C31.4896 28.0871 31.5897 28.176 31.6675 28.2806C33.2909 30.4241 34.9128 32.5661 36.5314 34.7127C37.1589 35.5463 37.1128 35.9757 36.3344 36.6735Z" fill="#C10037"/>
<path d="M50.3352 1.0975C49.6839 2.29961 48.985 3.47829 48.2591 4.63825C48.0287 5.00824 47.5999 5.07225 47.2043 4.82715C46.8215 4.59141 46.6611 4.21829 46.8835 3.82019C47.5411 2.64307 48.2257 1.47999 48.9342 0.330969C49.0485 0.14675 49.3392 0.0655693 49.4457 0C50.1748 0.00156117 50.6148 0.580757 50.3352 1.0975Z" fill="#C10037"/>
<path d="M58.0012 13.7212C58.0107 14.2239 57.666 14.5486 57.0703 14.5548C55.8409 14.5658 54.6098 14.5658 53.3803 14.5548C52.7815 14.5502 52.4399 14.2285 52.4479 13.7243C52.4542 13.2247 52.7942 12.9328 53.4073 12.9218C54.0221 12.9125 54.6368 12.9203 55.2515 12.9203C55.8472 12.9203 56.4413 12.9125 57.037 12.9218C57.6454 12.9312 57.9917 13.2278 58.0012 13.7212Z" fill="#C10037"/>
<path d="M56.6192 6.08545C56.5128 6.20878 56.3603 6.50072 56.1156 6.64747C55.1213 7.24853 54.1046 7.81523 53.0864 8.37725C52.5733 8.65983 52.0936 8.54274 51.8553 8.11498C51.6234 7.69971 51.7569 7.2657 52.2461 6.98C53.2675 6.3852 54.2937 5.79351 55.3325 5.22993C55.9473 4.8974 56.624 5.27364 56.6192 6.08545Z" fill="#C10037"/>
<path d="M48.6308 13.1075C47.7079 11.537 46.7992 9.9914 45.8811 8.42866C47.0057 8.11799 48.267 8.66908 48.9167 9.70102C49.5981 10.7845 49.5044 12.1505 48.6308 13.1075Z" fill="#C10037"/>
<path d="M20.5036 38.6733C23.7171 38.6733 26.929 38.6733 30.1425 38.6733C30.3204 38.6733 30.5031 38.6593 30.6762 38.6874C31.0988 38.7561 31.4165 39.0262 31.3593 39.4289C31.318 39.7193 31.0527 40.0097 30.8208 40.2329C30.7096 40.3391 30.4443 40.3095 30.2489 40.3095C23.7441 40.3126 17.2377 40.3126 10.7329 40.3095C10.5185 40.3095 10.2278 40.336 10.1071 40.2173C9.87992 39.9941 9.59717 39.6569 9.62735 39.3993C9.65594 39.1417 10.0133 38.8857 10.2786 38.703C10.4136 38.6093 10.6646 38.6749 10.8616 38.6749C14.0783 38.6733 17.2917 38.6733 20.5036 38.6733Z" fill="white"/>
</svg>
