<svg width="58" height="60" viewBox="0 0 58 60" fill="none" xmlns="http://www.w3.org/2000/svg">
<path d="M34.313 6.55696C33.8159 9.28629 31.4887 11.2532 28.7793 11.2313C26.0886 11.2095 23.7536 9.20818 23.3093 6.54602C22.8339 3.6839 24.608 0.940503 27.4091 0.203099C27.6297 0.143731 27.8456 0.0671788 28.0631 0H29.5778C29.9616 0.117172 30.353 0.217159 30.7306 0.354641C33.2535 1.27796 34.7884 3.94324 34.313 6.55696Z" fill="#C10037"/>
<path d="M23.4321 59.9907C18.8305 59.9938 14.2274 59.986 9.62576 60C9.06804 60.0016 8.86142 59.7782 8.86297 59.2345C8.87074 57.6722 8.86918 56.1099 8.83345 54.5492C8.82413 54.1758 8.73713 53.7712 8.56624 53.4431C6.63674 49.7045 4.74608 45.9425 2.70938 42.2633C1.61724 40.2917 1.1372 38.2498 1.02379 36.0219C0.742596 30.5242 0.351103 25.0327 0.0217522 19.5381C-0.0124258 18.9788 -0.0170864 18.3945 0.110304 17.8571C0.428781 16.5198 1.64831 15.6496 2.9999 15.6996C4.28312 15.7464 5.40478 16.6807 5.59897 18.0399C5.88017 20.0084 6.05727 21.9925 6.27477 23.9704C6.73462 28.1604 7.19136 32.3505 7.65121 36.5406C7.75529 37.4936 8.0862 38.37 8.67499 39.1153C10.2829 41.1478 11.9157 43.1585 13.5407 45.1754C13.5624 45.2035 13.609 45.2113 13.71 45.2613C13.2611 43.6647 12.8276 42.1164 12.3926 40.5666C11.8504 38.6341 11.2865 36.7078 10.7738 34.7674C10.2456 32.7661 11.4294 30.8367 13.4242 30.4086C13.7799 30.332 14.159 30.3367 14.5241 30.3555C15.2123 30.3883 15.6628 30.6601 15.9425 31.396C18.1252 37.1499 20.3856 42.8757 22.5512 48.6375C22.9272 49.6389 23.0002 50.7637 23.154 51.8402C23.5051 54.2727 23.8158 56.7114 24.1483 59.1455C24.2431 59.8344 24.1234 59.9907 23.4321 59.9907Z" fill="#C10037"/>
<path d="M57.9968 18.8304C57.8212 22.2221 57.5913 25.6108 57.38 29.001C57.2045 31.8053 57.0056 34.6096 56.8565 37.417C56.7881 38.7091 56.4759 39.9089 55.8762 41.0525C53.7044 45.191 51.5434 49.3358 49.3933 53.4868C49.2488 53.7665 49.1649 54.1086 49.1587 54.4242C49.1276 56.0052 49.1338 57.5863 49.1214 59.1689C49.1152 59.8782 49.0018 59.9907 48.3136 59.9907C43.7306 59.9922 39.1492 59.9922 34.5663 59.9907C33.9107 59.9907 33.7367 59.8266 33.8112 59.2736C34.2353 56.1427 34.6408 53.0088 35.1053 49.8842C35.2094 49.1827 35.4968 48.5015 35.7532 47.8313C37.8784 42.2852 40.0207 36.7437 42.1413 31.1944C42.306 30.7632 42.5499 30.5414 42.9911 30.432C45.6182 29.7805 47.9205 32.1412 47.1997 34.8096C46.3095 38.0998 45.3665 41.3775 44.4452 44.6598C44.394 44.8458 44.3443 45.0317 44.293 45.2176C44.3241 45.2363 44.3567 45.2551 44.3878 45.2738C46.0858 43.1444 47.8071 41.0322 49.4709 38.8747C50.386 37.6904 50.3906 36.2125 50.5429 34.8002C51.0385 30.2414 51.5309 25.6826 52.0234 21.1239C52.1182 20.2521 52.2176 19.3788 52.2984 18.5054C52.4584 16.7635 53.6997 15.6089 55.3325 15.6996C56.8627 15.7855 58.0822 17.1572 57.9968 18.8304Z" fill="#C10037"/>
<path d="M42.0451 24.8045C40.9607 25.2732 39.8158 24.803 39.2285 23.6547C38.7687 22.7532 38.3384 21.8331 37.8288 20.9613C37.2819 20.0239 36.5813 19.2146 35.514 18.8334C35.3354 18.7694 35.1474 18.735 34.8708 18.6616C34.919 19.3599 34.9594 19.9583 35.0044 20.5942H22.9567C23.0002 19.9817 23.0422 19.3724 23.0888 18.7178C22.2747 18.7538 21.6253 19.1037 21.1857 19.6583C20.5037 20.5207 19.9258 21.4706 19.3463 22.408C19.0511 22.886 18.8725 23.436 18.5928 23.925C18.0599 24.8545 16.943 25.217 15.9658 24.8155C15.015 24.4249 14.3858 23.3016 14.7307 22.3189C16.4614 17.3789 19.5498 13.8278 24.8194 12.5843C25.082 12.5218 25.3554 12.4686 25.6242 12.4686C27.8566 12.4655 30.0968 12.3577 32.3184 12.5124C35.368 12.7249 37.8148 14.2825 39.8826 16.4666C41.3755 18.0445 42.4102 19.913 43.1481 21.9502C43.58 23.1438 43.1031 24.3484 42.0451 24.8045Z" fill="#C10037"/>
<path d="M37.7247 30.9164C35.66 31.2648 33.5984 31.6335 31.5291 31.949C31.2961 31.985 30.9279 31.7897 30.7788 31.5866C30.0999 30.6648 29.4769 29.7009 28.7856 28.6838C28.2139 29.6322 27.6484 30.5148 27.145 31.4304C26.8716 31.9287 26.5485 32.0397 26.0063 31.9381C24.0628 31.5756 22.1115 31.2601 20.1618 30.9289C19.5249 30.8226 19.4006 30.6617 19.4907 30.0259C19.7983 27.8902 20.4539 25.9014 21.7977 24.1688C22.0214 23.8829 22.009 23.4048 22.082 23.0111C22.1286 22.7627 22.1364 22.5081 22.1535 22.255C22.1861 21.7472 22.4424 21.5551 22.952 21.5613C24.678 21.5816 26.4055 21.5691 28.1331 21.5691C30.3065 21.5691 32.4799 21.5816 34.6533 21.5598C35.2141 21.5535 35.5606 21.6941 35.5699 22.3175C35.573 22.4721 35.6227 22.6253 35.6367 22.7799C35.6988 23.508 35.921 24.1422 36.3684 24.7578C37.5274 26.3529 38.0369 28.212 38.3041 30.1461C38.3678 30.6055 38.169 30.8414 37.7247 30.9164Z" fill="#C10037"/>
<path d="M37.7123 31.8616C37.546 32.7818 37.4777 33.6238 37.2291 34.4081C36.8873 35.4799 36.4663 36.5344 35.9723 37.5436C35.3913 38.7326 34.1329 39.1091 33.0175 38.5373C31.9253 37.978 31.6115 36.8078 32.0605 35.5845C32.3914 34.6831 32.5234 33.7082 32.7596 32.6974C34.2991 32.4381 35.9195 32.1647 37.7123 31.8616Z" fill="#C10037"/>
<path d="M25.1255 38.5028C24.1669 39.0543 22.8837 38.82 22.2747 37.8748C21.1344 36.1094 20.5783 34.1377 20.3856 31.9255C21.6083 32.1271 22.733 32.3067 23.8562 32.502C24.3689 32.5911 25.0431 32.5536 25.3399 32.866C25.6319 33.1738 25.5185 33.855 25.6273 34.3643C25.7283 34.8377 25.8525 35.3126 26.025 35.7641C26.4336 36.8421 26.084 37.9529 25.1255 38.5028Z" fill="#C10037"/>
</svg>
