<svg width="19" height="18" viewBox="0 0 19 18" fill="none" xmlns="http://www.w3.org/2000/svg">
<path d="M11.6416 15.2442C12.3605 15.4529 13.1054 15.5584 13.8539 15.5577C15.0577 15.5594 16.2459 15.2849 17.327 14.7554C17.359 14 17.1438 13.2548 16.7141 12.6327C16.2845 12.0106 15.6637 11.5455 14.9459 11.308C14.2281 11.0704 13.4525 11.0734 12.7365 11.3163C12.0206 11.5593 11.4033 12.029 10.9784 12.6543M11.6416 15.2442V15.2416C11.6416 14.3036 11.4014 13.4212 10.9792 12.6543M11.6416 15.2442V15.3335C10.0197 16.3104 8.16148 16.825 6.26809 16.8218C4.30358 16.8218 2.46548 16.2782 0.896229 15.3335L0.895387 15.2416C0.89474 14.0487 1.29117 12.8894 2.02216 11.9466C2.75316 11.0038 3.77716 10.3311 4.9327 10.0346C6.08824 9.7381 7.30961 9.83461 8.40425 10.3089C9.49888 10.7833 10.4045 11.6084 10.9784 12.6543M9.1133 4.49623C9.1133 5.2506 8.81363 5.97408 8.28021 6.5075C7.74678 7.04093 7.02331 7.3406 6.26893 7.3406C5.51456 7.3406 4.79108 7.04093 4.25766 6.5075C3.72423 5.97408 3.42456 5.2506 3.42456 4.49623C3.42456 3.74185 3.72423 3.01838 4.25766 2.48495C4.79108 1.95153 5.51456 1.65186 6.26893 1.65186C7.02331 1.65186 7.74678 1.95153 8.28021 2.48495C8.81363 3.01838 9.1133 3.74185 9.1133 4.49623V4.49623ZM16.0662 6.39248C16.0662 6.97921 15.8331 7.54192 15.4183 7.9568C15.0034 8.37169 14.4407 8.60477 13.8539 8.60477C13.2672 8.60477 12.7045 8.37169 12.2896 7.9568C11.8747 7.54192 11.6416 6.97921 11.6416 6.39248C11.6416 5.80574 11.8747 5.24304 12.2896 4.82815C12.7045 4.41327 13.2672 4.18019 13.8539 4.18019C14.4407 4.18019 15.0034 4.41327 15.4183 4.82815C15.8331 5.24304 16.0662 5.80574 16.0662 6.39248V6.39248Z" stroke="#7C7C7C" stroke-width="1.5" stroke-linecap="round" stroke-linejoin="round"/>
</svg>
