<svg width="146" height="51" viewBox="0 0 146 51" fill="none" xmlns="http://www.w3.org/2000/svg">
<path d="M57.8392 32.3452H66.4426V36.5985H53.3926V14.043H57.8392V32.3452Z" fill="#374B5C"/>
<path d="M83.8876 25.063C83.8876 25.4926 84.1669 25.847 84.7254 26.1263C85.3054 26.3841 86.0035 26.6204 86.8198 26.8352C87.6361 27.0285 88.4524 27.2863 89.2687 27.6085C90.085 27.9093 90.7724 28.4248 91.331 29.1552C91.911 29.8856 92.201 30.7985 92.201 31.8941C92.201 33.5481 91.578 34.8263 90.3321 35.7285C89.1076 36.6093 87.5717 37.0496 85.7243 37.0496C82.4161 37.0496 80.1606 35.7715 78.9576 33.2152L82.5665 31.1852C83.0391 32.5815 84.0917 33.2796 85.7243 33.2796C87.2065 33.2796 87.9476 32.8178 87.9476 31.8941C87.9476 31.4644 87.6576 31.1207 87.0776 30.863C86.5191 30.5837 85.8317 30.3367 85.0154 30.1218C84.1991 29.907 83.3828 29.6385 82.5665 29.3163C81.7502 28.9941 81.0521 28.4893 80.4721 27.8019C79.9136 27.093 79.6343 26.2122 79.6343 25.1596C79.6343 23.57 80.2143 22.3241 81.3743 21.4219C82.5558 20.4982 84.0165 20.0363 85.7565 20.0363C87.0669 20.0363 88.2591 20.337 89.3332 20.9385C90.4072 21.5185 91.2558 22.3563 91.8787 23.4519L88.3343 25.3852C87.8187 24.2896 86.9595 23.7419 85.7565 23.7419C85.2195 23.7419 84.7684 23.86 84.4032 24.0963C84.0595 24.3326 83.8876 24.6548 83.8876 25.063Z" fill="#374B5C"/>
<path d="M105.229 24.483H101.588V31.1852C101.588 31.7437 101.727 32.1518 102.007 32.4096C102.286 32.6674 102.694 32.8178 103.231 32.8607C103.768 32.8822 104.434 32.8715 105.229 32.8285V36.5985C102.372 36.9207 100.353 36.6522 99.171 35.793C98.011 34.9337 97.431 33.3978 97.431 31.1852V24.483H94.6277V20.4874H97.431V17.233L101.588 15.9763V20.4874H105.229V24.483Z" fill="#374B5C"/>
<path d="M112.779 30.2507C113.338 32.27 114.852 33.2796 117.323 33.2796C118.912 33.2796 120.115 32.7426 120.932 31.6685L124.283 33.6018C122.693 35.9004 120.352 37.0496 117.258 37.0496C114.595 37.0496 112.457 36.2441 110.846 34.633C109.235 33.0219 108.429 30.9919 108.429 28.543C108.429 26.1156 109.224 24.0963 110.814 22.4852C112.403 20.8526 114.444 20.0363 116.936 20.0363C119.299 20.0363 121.243 20.8526 122.768 22.4852C124.315 24.1178 125.088 26.137 125.088 28.543C125.088 29.08 125.035 29.6493 124.927 30.2507H112.779ZM112.715 27.0285H120.932C120.695 25.933 120.201 25.1167 119.449 24.5796C118.719 24.0426 117.881 23.7741 116.936 23.7741C115.819 23.7741 114.895 24.0641 114.165 24.6441C113.435 25.2026 112.951 25.9974 112.715 27.0285Z" fill="#374B5C"/>
<path d="M132.987 30.2507C133.546 32.27 135.06 33.2796 137.531 33.2796C139.12 33.2796 140.323 32.7426 141.14 31.6685L144.491 33.6018C142.901 35.9004 140.56 37.0496 137.466 37.0496C134.803 37.0496 132.665 36.2441 131.054 34.633C129.443 33.0219 128.637 30.9919 128.637 28.543C128.637 26.1156 129.432 24.0963 131.022 22.4852C132.612 20.8526 134.652 20.0363 137.144 20.0363C139.507 20.0363 141.451 20.8526 142.976 22.4852C144.523 24.1178 145.296 26.137 145.296 28.543C145.296 29.08 145.243 29.6493 145.135 30.2507H132.987ZM132.923 27.0285H141.14C140.903 25.933 140.409 25.1167 139.657 24.5796C138.927 24.0426 138.089 23.7741 137.144 23.7741C136.027 23.7741 135.103 24.0641 134.373 24.6441C133.643 25.2026 133.159 25.9974 132.923 27.0285Z" fill="#374B5C"/>
<circle cx="72.9955" cy="15.9662" r="2.7045" fill="#C10037"/>
<circle cx="81.9857" cy="15.9662" r="2.7045" fill="#C10037" fill-opacity="0.6"/>
<circle cx="90.974" cy="15.9662" r="2.7045" fill="#C10037" fill-opacity="0.3"/>
<rect x="70.8848" y="20.6992" width="4.22409" height="16.01" fill="#C10037"/>
<path d="M16.127 40.4556C21.0327 43.2299 27.029 43.2299 31.9348 40.4556C32.4018 40.1915 32.8666 39.9232 33.3288 39.6508C38.1843 36.7894 41.1824 31.5965 41.2327 25.9609C41.2375 25.4242 41.2375 24.8875 41.2327 24.3509C41.1824 18.7153 38.1844 13.5225 33.3291 10.6612C32.8667 10.3887 32.4019 10.1204 31.9348 9.85619C27.029 7.08192 21.0328 7.08192 16.127 9.85618C15.6599 10.1203 15.1952 10.3886 14.7329 10.661C9.87743 13.5224 6.8793 18.7153 6.829 24.3509C6.82421 24.8876 6.82421 25.4243 6.82901 25.9609C6.87932 31.5965 9.87732 36.7893 14.7327 39.6506C15.195 39.9231 15.6598 40.1914 16.127 40.4556Z" fill="#374B5C"/>
<mask id="mask0_1855_16995" style="mask-type:alpha" maskUnits="userSpaceOnUse" x="6" y="7" width="36" height="36">
<path d="M16.127 40.4556C21.0327 43.2299 27.029 43.2299 31.9348 40.4556C32.4018 40.1915 32.8666 39.9232 33.3288 39.6508C38.1843 36.7894 41.1824 31.5965 41.2327 25.9609C41.2375 25.4242 41.2375 24.8875 41.2327 24.3509C41.1824 18.7153 38.1844 13.5225 33.3291 10.6612C32.8667 10.3887 32.4019 10.1204 31.9348 9.85619C27.029 7.08192 21.0328 7.08192 16.127 9.85618C15.6599 10.1203 15.1952 10.3886 14.7329 10.661C9.87743 13.5224 6.8793 18.7153 6.829 24.3509C6.82421 24.8876 6.82421 25.4243 6.82901 25.9609C6.87932 31.5965 9.87732 36.7893 14.7327 39.6506C15.195 39.9231 15.6598 40.1914 16.127 40.4556Z" fill="white"/>
</mask>
<g mask="url(#mask0_1855_16995)">
<path d="M23.4646 47.2949L13.233 29.8945L27.3694 17.0578L29.7847 18.5635L31.9407 15.9427L32.9194 16.0205L43.5613 36.5458L23.4646 47.2949Z" fill="#233B4F"/>
</g>
<path d="M15.4196 29.8304L14.214 30.2692C13.7846 30.4255 13.3081 30.2033 13.1518 29.7739L12.6936 28.5151C12.5373 28.0857 12.7596 27.6092 13.1889 27.4529L14.3946 27.0141C14.6098 26.9357 14.8473 27.0465 14.9257 27.2617L15.6673 29.2993C15.7456 29.5146 15.6349 29.7521 15.4196 29.8304Z" fill="white"/>
<path d="M20.228 34.1797L19.6923 34.3746C19.0482 34.6091 18.3335 34.2758 18.099 33.6317L16.8663 30.2449C16.788 30.0296 16.8987 29.7921 17.114 29.7137L19.2071 28.9519C19.4224 28.8736 19.6599 28.9843 19.7383 29.1996L20.971 32.5864C21.2054 33.2305 20.8721 33.9452 20.228 34.1797Z" fill="white"/>
<path d="M21.0268 29.1706L16.6424 30.7664C15.9983 31.0008 15.2836 30.6676 15.0491 30.0234L13.9857 27.1017C13.7513 26.4576 14.0845 25.7429 14.7287 25.5084L19.1131 23.9126C19.3283 23.8343 19.5659 23.945 19.6442 24.1603L21.2745 28.6395C21.3529 28.8548 21.2421 29.0922 21.0268 29.1706Z" fill="#C10037"/>
<path d="M14.7648 26.8191C14.6866 26.6042 14.7976 26.3661 15.0124 26.288L19.0075 24.834L20.3543 28.5344L16.3593 29.9884C16.1445 30.0666 15.9064 29.9556 15.8282 29.7408L14.7648 26.8191Z" fill="#C10037"/>
<path d="M30.783 30.7716C30.5793 30.8458 30.3584 30.8745 30.1341 30.851C30.1238 30.85 30.1139 30.8485 30.1039 30.847L20.8115 29.1906C20.666 29.1647 20.5455 29.063 20.495 28.9244L18.8647 24.4452C18.8142 24.3064 18.8411 24.151 18.936 24.0378L24.9897 16.7959C25.3626 16.4103 25.8668 16.2575 26.3599 16.3631C26.8534 16.4685 27.2512 16.8147 27.4239 17.2892L31.6516 28.9049C31.8243 29.3794 31.7421 29.9002 31.4319 30.2983C31.26 30.5182 31.0347 30.68 30.783 30.7716Z" fill="white"/>
<rect x="29.2207" y="18.8984" width="4.5898" height="1.51556" rx="0.757782" transform="rotate(-50 29.2207 18.8984)" fill="white"/>
<rect x="30.4141" y="21.9727" width="4.5898" height="1.51556" rx="0.757782" transform="rotate(-20 30.4141 21.9727)" fill="white"/>
<rect x="32.2578" y="25.0273" width="4.5898" height="1.51556" rx="0.757782" transform="rotate(10 32.2578 25.0273)" fill="white"/>
</svg>
