<svg width="32" height="30" viewBox="0 0 32 30" fill="none" xmlns="http://www.w3.org/2000/svg">
<path d="M4.59543 7.01521H27.4066C28.6165 7.01521 29.777 7.49587 30.6325 8.35146C31.4881 9.20704 31.9688 10.3675 31.9688 11.5774V18.4208C31.9688 19.6308 31.4881 20.7912 30.6325 21.6468C29.777 22.5023 28.6165 22.983 27.4066 22.983H4.59543C3.38545 22.983 2.22503 22.5023 1.36945 21.6468C0.513865 20.7912 0.0332031 19.6308 0.0332031 18.4208V11.5774C0.0332031 10.3675 0.513865 9.20704 1.36945 8.35146C2.22503 7.49587 3.38545 7.01521 4.59543 7.01521ZM4.59543 9.29633C3.99044 9.29633 3.41023 9.53666 2.98244 9.96445C2.55465 10.3922 2.31432 10.9724 2.31432 11.5774V18.4208C2.31432 19.0258 2.55465 19.606 2.98244 20.0338C3.41023 20.4616 3.99044 20.7019 4.59543 20.7019H27.4066C28.0115 20.7019 28.5918 20.4616 29.0195 20.0338C29.4473 19.606 29.6877 19.0258 29.6877 18.4208V11.5774C29.6877 10.9724 29.4473 10.3922 29.0195 9.96445C28.5918 9.53666 28.0115 9.29633 27.4066 9.29633H4.59543ZM0.0332031 1.31243C0.0332031 1.00994 0.153368 0.719832 0.367264 0.505936C0.58116 0.29204 0.871265 0.171875 1.17376 0.171875H30.8282C31.1307 0.171875 31.4208 0.29204 31.6347 0.505936C31.8486 0.719832 31.9688 1.00994 31.9688 1.31243C31.9688 1.61493 31.8486 1.90503 31.6347 2.11893C31.4208 2.33282 31.1307 2.45299 30.8282 2.45299H1.17376C0.871265 2.45299 0.58116 2.33282 0.367264 2.11893C0.153368 1.90503 0.0332031 1.61493 0.0332031 1.31243ZM0.0332031 28.6858C0.0332031 28.3833 0.153368 28.0932 0.367264 27.8793C0.58116 27.6654 0.871265 27.5452 1.17376 27.5452H30.8282C31.1307 27.5452 31.4208 27.6654 31.6347 27.8793C31.8486 28.0932 31.9688 28.3833 31.9688 28.6858C31.9688 28.9883 31.8486 29.2784 31.6347 29.4923C31.4208 29.7062 31.1307 29.8263 30.8282 29.8263H1.17376C0.871265 29.8263 0.58116 29.7062 0.367264 29.4923C0.153368 29.2784 0.0332031 28.9883 0.0332031 28.6858Z" fill="#C10037"/>
</svg>
