<svg width="30" height="30" viewBox="0 0 30 30" fill="none" xmlns="http://www.w3.org/2000/svg">
<path d="M0.599609 3.29961C0.599609 2.58352 0.884073 1.89677 1.39042 1.39042C1.89677 0.884073 2.58352 0.599609 3.29961 0.599609H5.09961C5.81569 0.599609 6.50245 0.884073 7.0088 1.39042C7.51515 1.89677 7.79961 2.58352 7.79961 3.29961V5.09961C7.79961 5.81569 7.51515 6.50245 7.0088 7.0088C6.50245 7.51515 5.81569 7.79961 5.09961 7.79961H3.29961C2.58352 7.79961 1.89677 7.51515 1.39042 7.0088C0.884073 6.50245 0.599609 5.81569 0.599609 5.09961V3.29961ZM3.29961 2.39961C3.06091 2.39961 2.832 2.49443 2.66321 2.66321C2.49443 2.832 2.39961 3.06091 2.39961 3.29961V5.09961C2.39961 5.3383 2.49443 5.56722 2.66321 5.73601C2.832 5.90479 3.06091 5.99961 3.29961 5.99961H5.09961C5.3383 5.99961 5.56722 5.90479 5.73601 5.73601C5.90479 5.56722 5.99961 5.3383 5.99961 5.09961V3.29961C5.99961 3.06091 5.90479 2.832 5.73601 2.66321C5.56722 2.49443 5.3383 2.39961 5.09961 2.39961H3.29961ZM0.599609 14.0996C0.599609 13.3835 0.884073 12.6968 1.39042 12.1904C1.89677 11.6841 2.58352 11.3996 3.29961 11.3996H5.09961C5.81569 11.3996 6.50245 11.6841 7.0088 12.1904C7.51515 12.6968 7.79961 13.3835 7.79961 14.0996V15.8996C7.79961 16.6157 7.51515 17.3025 7.0088 17.8088C6.50245 18.3151 5.81569 18.5996 5.09961 18.5996H3.29961C2.58352 18.5996 1.89677 18.3151 1.39042 17.8088C0.884073 17.3025 0.599609 16.6157 0.599609 15.8996V14.0996ZM3.29961 13.1996C3.06091 13.1996 2.832 13.2944 2.66321 13.4632C2.49443 13.632 2.39961 13.8609 2.39961 14.0996V15.8996C2.39961 16.1383 2.49443 16.3672 2.66321 16.536C2.832 16.7048 3.06091 16.7996 3.29961 16.7996H5.09961C5.3383 16.7996 5.56722 16.7048 5.73601 16.536C5.90479 16.3672 5.99961 16.1383 5.99961 15.8996V14.0996C5.99961 13.8609 5.90479 13.632 5.73601 13.4632C5.56722 13.2944 5.3383 13.1996 5.09961 13.1996H3.29961ZM0.599609 24.8996C0.599609 24.1835 0.884073 23.4968 1.39042 22.9904C1.89677 22.4841 2.58352 22.1996 3.29961 22.1996H5.09961C5.81569 22.1996 6.50245 22.4841 7.0088 22.9904C7.51515 23.4968 7.79961 24.1835 7.79961 24.8996V26.6996C7.79961 27.4157 7.51515 28.1024 7.0088 28.6088C6.50245 29.1151 5.81569 29.3996 5.09961 29.3996H3.29961C2.58352 29.3996 1.89677 29.1151 1.39042 28.6088C0.884073 28.1024 0.599609 27.4157 0.599609 26.6996V24.8996ZM3.29961 23.9996C3.06091 23.9996 2.832 24.0944 2.66321 24.2632C2.49443 24.432 2.39961 24.6609 2.39961 24.8996V26.6996C2.39961 26.9383 2.49443 27.1672 2.66321 27.336C2.832 27.5048 3.06091 27.5996 3.29961 27.5996H5.09961C5.3383 27.5996 5.56722 27.5048 5.73601 27.336C5.90479 27.1672 5.99961 26.9383 5.99961 26.6996V24.8996C5.99961 24.6609 5.90479 24.432 5.73601 24.2632C5.56722 24.0944 5.3383 23.9996 5.09961 23.9996H3.29961ZM11.3996 5.09961C11.3996 4.86091 11.4944 4.632 11.6632 4.46321C11.832 4.29443 12.0609 4.19961 12.2996 4.19961H28.4996C28.7383 4.19961 28.9672 4.29443 29.136 4.46321C29.3048 4.632 29.3996 4.86091 29.3996 5.09961C29.3996 5.3383 29.3048 5.56722 29.136 5.73601C28.9672 5.90479 28.7383 5.99961 28.4996 5.99961H12.2996C12.0609 5.99961 11.832 5.90479 11.6632 5.73601C11.4944 5.56722 11.3996 5.3383 11.3996 5.09961ZM11.3996 15.8996C11.3996 15.6609 11.4944 15.432 11.6632 15.2632C11.832 15.0944 12.0609 14.9996 12.2996 14.9996H28.4996C28.7383 14.9996 28.9672 15.0944 29.136 15.2632C29.3048 15.432 29.3996 15.6609 29.3996 15.8996C29.3996 16.1383 29.3048 16.3672 29.136 16.536C28.9672 16.7048 28.7383 16.7996 28.4996 16.7996H12.2996C12.0609 16.7996 11.832 16.7048 11.6632 16.536C11.4944 16.3672 11.3996 16.1383 11.3996 15.8996ZM11.3996 26.6996C11.3996 26.4609 11.4944 26.232 11.6632 26.0632C11.832 25.8944 12.0609 25.7996 12.2996 25.7996H28.4996C28.7383 25.7996 28.9672 25.8944 29.136 26.0632C29.3048 26.232 29.3996 26.4609 29.3996 26.6996C29.3996 26.9383 29.3048 27.1672 29.136 27.336C28.9672 27.5048 28.7383 27.5996 28.4996 27.5996H12.2996C12.0609 27.5996 11.832 27.5048 11.6632 27.336C11.4944 27.1672 11.3996 26.9383 11.3996 26.6996Z" fill="#C10037"/>
</svg>
