<svg width="52" height="28" viewBox="0 0 52 28" fill="none" xmlns="http://www.w3.org/2000/svg">
<rect x="0.0362549" y="0.904785" width="51.36" height="26.8" rx="4" fill="#F7F7FF"/>
<path fill-rule="evenodd" clip-rule="evenodd" d="M27.18 7.45245L24.7146 8.13015V5.56994L27.18 4.90479V7.45245ZM17.1607 6.36182L14.764 7.01442L14.7542 17.067C14.7542 18.9244 15.8445 20.2924 17.2982 20.2924C18.1036 20.2924 18.693 20.1041 19.0171 19.8782V17.3306C18.7028 17.4937 17.1509 18.071 17.1509 16.2136V11.7583H19.0171V9.08518H17.1509L17.1607 6.36182ZM11.3562 11.594C10.8356 11.594 10.5213 11.7822 10.5213 12.2717C10.5213 12.8061 11.0622 13.0411 11.7333 13.3328C12.8274 13.8082 14.2673 14.434 14.2734 16.752C14.2734 18.9985 12.8688 20.2911 10.8258 20.2911C9.98107 20.2911 9.05777 20.0778 8.1443 19.5758V16.5889C8.96937 17.1662 10.0105 17.5929 10.8258 17.5929C11.3758 17.5929 11.7687 17.4046 11.7687 16.8273C11.7687 16.2354 11.1823 15.9648 10.4744 15.6382C9.39628 15.1407 8.03625 14.5131 8.03625 12.4223C8.03625 10.2009 9.36226 8.8706 11.3562 8.8706C12.1714 8.8706 12.9769 9.03375 13.7921 9.4479V12.3972C13.0456 11.8826 12.1027 11.594 11.3562 11.594ZM39.8505 8.87061C42.1784 8.87061 43.3963 11.4057 43.3963 14.6185C43.3963 14.7918 43.3898 15.0814 43.3843 15.3272L43.3843 15.3275L43.3843 15.3279V15.3281V15.3281C43.3802 15.5092 43.3767 15.6663 43.3767 15.7355H38.5736C38.6816 17.2164 39.5263 17.6431 40.4791 17.6431C41.4515 17.6431 42.2176 17.3795 42.8856 16.9528V19.4629C42.2176 19.9398 41.3336 20.2786 40.1648 20.2786C37.7681 20.2786 36.0984 18.371 36.0984 14.5934C36.0984 11.4057 37.5128 8.87061 39.8505 8.87061ZM39.8406 11.4183C39.2218 11.4183 38.5441 12.0081 38.5441 13.4263H41.0783C41.0783 12.0081 40.4398 11.4183 39.8406 11.4183ZM22.0725 10.012L21.9153 9.08334H19.7937V20.0646H22.2493V12.6225C22.8288 11.6561 23.811 11.8318 24.1155 11.9699V9.08334C23.8012 8.93274 22.652 8.65664 22.0725 10.012ZM27.18 9.08301H24.7146V20.0643H27.18V9.08301ZM32.3074 8.87061C31.3448 8.87061 30.726 9.44791 30.3822 9.84951L30.2546 9.07141H28.0937V23.7048L30.5492 23.0396L30.559 19.488C30.9126 19.8143 31.4332 20.2786 32.2976 20.2786C34.0558 20.2786 35.6568 18.4714 35.6568 14.493C35.647 10.8535 34.0263 8.87061 32.3074 8.87061ZM31.7181 17.5176C31.1386 17.5176 30.7948 17.254 30.559 16.9277L30.5492 12.2717C30.8046 11.9077 31.1582 11.6567 31.7181 11.6567C32.6119 11.6567 33.2307 12.9368 33.2307 14.5809C33.2307 16.2626 32.6217 17.5176 31.7181 17.5176Z" fill="#635BFF"/>
</svg>
