<svg width="50" height="51" viewBox="0 0 50 51" fill="none" xmlns="http://www.w3.org/2000/svg">
<g clip-path="url(#clip0_64_11841)">
<path fill-rule="evenodd" clip-rule="evenodd" d="M49.2188 50.3359C49.4792 50.0755 49.7396 49.8151 50.0001 49.5547C50.0001 49.8151 50.0001 50.0755 50.0001 50.3359C49.7395 50.3359 49.4792 50.3359 49.2188 50.3359Z" fill="#FF823B"/>
<path fill-rule="evenodd" clip-rule="evenodd" d="M49.9999 48.9687C49.9999 49.164 49.9999 49.3594 49.9999 49.5547C49.7394 49.8152 49.479 50.0755 49.2185 50.3359C33.0728 50.3359 16.9269 50.3359 0.780973 50.3359C0.520524 50.0755 0.260075 49.8152 -0.000244141 49.5547C-0.000244141 49.3594 -0.000244141 49.164 -0.000244141 48.9687C0.295626 48.4662 0.708569 48.1995 1.31789 48.2549C1.67288 48.2874 2.03321 48.2608 2.39107 48.2608C2.97031 48.2608 3.54942 48.2608 4.1745 48.2608C4.1745 47.98 4.1745 47.7717 4.1745 47.5636C4.1745 38.8594 4.18413 30.1551 4.17111 21.4511C4.16304 16.0853 5.88174 11.3639 9.44026 7.35086C12.5858 3.80328 16.5128 1.58022 21.1833 0.705499C21.9944 0.553527 22.8159 0.457811 23.6327 0.336182C24.5441 0.336182 25.4555 0.336182 26.367 0.336182C26.7987 0.396736 27.2302 0.458332 27.6621 0.517715C33.537 1.32628 38.2532 4.12494 41.784 8.86798C44.5539 12.5888 45.8386 16.8127 45.8297 21.4515C45.8129 30.1718 45.8249 38.8923 45.8249 47.6127C45.8249 47.8162 45.8249 48.0195 45.8249 48.2611C46.7995 48.2611 47.6933 48.2904 48.5841 48.2513C49.2158 48.2232 49.6881 48.4132 49.9999 48.9687ZM9.37489 48.2371C9.37489 47.9874 9.37489 47.793 9.37489 47.5986C9.37489 39.0542 9.359 30.5096 9.39247 21.9653C9.39742 20.7225 9.50667 19.4496 9.78965 18.2426C12.4807 6.75964 26.2116 2.19592 35.1884 9.90821C38.8231 13.0309 40.6097 17.0717 40.6198 21.8636C40.6379 30.4569 40.6249 39.0503 40.6249 47.6435C40.6249 47.8331 40.6249 48.0229 40.6249 48.2222C41.6966 48.2222 42.7104 48.2222 43.7326 48.2222C43.7395 48.0713 43.7491 47.9583 43.7491 47.8451C43.7496 38.9264 43.7537 30.0075 43.7461 21.0888C43.7442 18.6886 43.2695 16.3769 42.3819 14.1445C38.9347 5.47524 29.2675 0.609784 20.2717 3.02493C11.9231 5.26636 6.26304 12.6243 6.25236 21.2803C6.24155 30.0852 6.24989 38.8901 6.24989 47.6948C6.24989 47.868 6.24989 48.0411 6.24989 48.237C7.31122 48.2371 8.31264 48.2371 9.37489 48.2371ZM24.9994 15.5305C22.8053 22.4365 18.3862 27.2965 12.244 30.7354C14.6344 33.002 16.3108 35.6558 17.2716 38.7492C18.2345 41.8494 18.361 45.0093 17.8546 48.2337C22.6346 48.2337 27.3635 48.2337 32.1272 48.2337C31.1604 41.4866 32.7865 35.5813 37.7407 30.7201C31.5958 27.2798 27.1933 22.4257 24.9994 15.5305ZM11.3745 28.6641C11.431 28.685 11.4875 28.7059 11.544 28.7268C15.8502 26.2857 19.3259 23.0143 21.5616 18.5334C23.1731 15.3034 23.9863 11.8811 23.9409 8.19823C23.3592 8.2877 22.8604 8.35151 22.3665 8.4424C16.8611 9.45672 12.2543 14.1766 11.6516 19.7468C11.3327 22.6948 11.4526 25.6903 11.3745 28.6641ZM26.0457 8.22454C26.0563 13.1366 27.4256 17.5458 30.2235 21.4965C32.3969 24.5656 35.2167 26.9029 38.5304 28.7589C38.5304 26.1691 38.6246 23.6761 38.51 21.1928C38.2932 16.4995 36.1385 12.8531 32.2154 10.2775C30.3761 9.06983 28.3317 8.41506 26.0457 8.22454ZM11.4755 48.2608C12.7856 48.2608 14.0363 48.2436 15.286 48.2708C15.6778 48.2794 15.7951 48.1324 15.8219 47.778C15.887 46.9197 16.0169 46.0648 16.0484 45.2057C16.2005 41.0716 15.0479 37.3456 12.4896 34.0754C12.1969 33.7012 11.8686 33.3549 11.4754 32.9017C11.4755 38.0955 11.4755 43.1427 11.4755 48.2608ZM38.5323 32.9963C35.0961 35.6949 32.7881 44.0927 34.3078 48.2168C35.7105 48.2168 37.1133 48.2168 38.5323 48.2168C38.5323 43.1361 38.5323 38.0992 38.5323 32.9963Z" fill="#C10037"/>
<path fill-rule="evenodd" clip-rule="evenodd" d="M0 49.5547C0.260449 49.8151 0.520898 50.0755 0.781217 50.3359C0.520768 50.3359 0.260319 50.3359 0 50.3359C0 50.0755 0 49.8151 0 49.5547Z" fill="#FF823B"/>
<path fill-rule="evenodd" clip-rule="evenodd" d="M11.4756 48.2608C11.4756 43.1427 11.4756 38.0955 11.4756 32.9019C11.8687 33.3549 12.197 33.7013 12.4898 34.0756C15.048 37.3456 16.2008 41.0718 16.0486 45.2059C16.0169 46.065 15.8872 46.9199 15.8221 47.7782C15.7951 48.1327 15.6779 48.2797 15.2862 48.271C14.0363 48.2436 12.7856 48.2608 11.4756 48.2608Z" fill="#FF823B"/>
<path fill-rule="evenodd" clip-rule="evenodd" d="M38.5324 32.9962C38.5324 38.0993 38.5324 43.136 38.5324 48.2167C37.1135 48.2167 35.7107 48.2167 34.3077 48.2167C32.7882 44.0927 35.0962 35.6947 38.5324 32.9962Z" fill="#FF823B"/>
<path fill-rule="evenodd" clip-rule="evenodd" d="M24.9403 29.8947C25.3923 29.4691 25.7253 29.1076 26.1057 28.8056C27.8073 27.4544 30.253 27.6444 31.7202 29.2243C33.2042 30.8221 33.2287 33.2354 31.7673 34.8569C31.4302 35.2309 31.0639 35.5791 30.7076 35.9358C29.0981 37.5468 27.4896 39.1588 25.8757 40.7657C25.2819 41.3569 24.7245 41.3642 24.1409 40.7827C22.2279 38.8772 20.312 36.9742 18.4152 35.0525C17.1805 33.8017 16.8229 32.2947 17.4153 30.6516C18.0014 29.0259 19.2315 28.1068 20.957 27.9276C22.1477 27.8039 23.2081 28.1726 24.0966 28.9788C24.3951 29.2495 24.6463 29.5723 24.9403 29.8947ZM24.9669 38.6297C26.7654 36.8575 28.5639 35.1381 30.2957 33.3539C31.0441 32.5827 30.9032 31.3239 30.126 30.5743C29.3393 29.8157 28.1092 29.7829 27.2935 30.5269C26.801 30.976 26.347 31.4672 25.871 31.9348C25.2677 32.5274 24.7373 32.5295 24.1355 31.9404C23.6588 31.4736 23.2051 30.9823 22.7126 30.5333C21.8778 29.7722 20.6285 29.8143 19.8453 30.6022C19.0677 31.3847 18.9853 32.6334 19.7565 33.4249C21.4698 35.1837 23.2283 36.8984 24.9669 38.6297Z" fill="#C10037"/>
<path fill-rule="evenodd" clip-rule="evenodd" d="M24.9668 38.6297C23.2281 36.8984 21.4698 35.1837 19.7564 33.4249C18.9852 32.6334 19.0677 31.3847 19.8452 30.6022C20.6284 29.8142 21.8778 29.7722 22.7125 30.5333C23.205 30.9821 23.6587 31.4736 24.1355 31.9403C24.7372 32.5295 25.2676 32.5274 25.871 31.9347C26.3469 31.4672 26.8009 30.9762 27.2934 30.5269C28.1091 29.7829 29.3393 29.8157 30.1259 30.5743C30.9031 31.3239 31.044 32.5827 30.2956 33.3539C28.5639 35.1381 26.7654 36.8574 24.9668 38.6297Z" fill="#FF823B"/>
</g>
<defs>
<clipPath id="clip0_64_11841">
<rect width="50" height="50" fill="white" transform="translate(0 0.335938)"/>
</clipPath>
</defs>
</svg>
