<svg width="50" height="51" viewBox="0 0 50 51" fill="none" xmlns="http://www.w3.org/2000/svg">
<g clip-path="url(#clip0_64_11779)">
<path fill-rule="evenodd" clip-rule="evenodd" d="M0 20.6484C0.0701911 20.383 0.133741 20.1155 0.211615 19.8525C0.808825 17.8335 2.71375 16.384 4.82977 16.3488C5.67271 16.3349 6.51605 16.3465 7.42241 16.3465C7.42241 15.9235 7.41707 15.5387 7.42332 15.154C7.45497 13.1898 9.00099 11.6551 10.9426 11.6572C12.8846 11.6593 14.4204 13.1931 14.4518 15.1647C14.4578 15.5363 14.4527 15.9081 14.4527 16.344C14.7892 16.344 15.0926 16.344 15.3961 16.344C16.7794 16.344 18.1629 16.3313 19.5459 16.3526C19.8992 16.358 20.0983 16.2522 20.2773 15.9429C21.2792 14.2123 22.3133 12.5003 23.3165 10.7705C23.5907 10.2974 23.9426 10.0847 24.4985 10.0866C28.8764 10.1001 33.2543 10.0993 37.6322 10.0871C38.1681 10.0856 38.5148 10.2915 38.7798 10.746C39.7949 12.4878 40.8348 14.2152 41.8456 15.9594C42.0154 16.2526 42.2019 16.3532 42.5362 16.3528C43.6413 16.3515 44.7618 16.2789 45.8479 16.4336C47.9836 16.7378 49.4997 18.3003 49.9154 20.4251C49.9305 20.5021 49.9712 20.5741 50 20.6484C50 29.112 50 37.5754 50 46.0391C49.9663 46.1439 49.9254 46.2472 49.8999 46.3539C49.452 48.2303 48.3176 49.4838 46.4901 50.102C46.2017 50.1996 45.9005 50.2589 45.6054 50.336C31.8684 50.336 18.1314 50.336 4.39456 50.336C4.30523 50.3049 4.21811 50.2627 4.12604 50.2444C2.21004 49.8626 0.922511 48.7489 0.256933 46.9169C0.153014 46.631 0.0847762 46.3321 0 46.0391C0 37.5755 0 29.1121 0 20.6484ZM24.9948 18.2972C18.388 18.2972 11.781 18.2964 5.17408 18.2977C3.19181 18.2981 1.95402 19.5405 1.95363 21.5308C1.95246 29.3907 1.95259 37.2508 1.9535 45.1106C1.95376 47.1183 3.2004 48.3739 5.20846 48.3742C18.4059 48.3766 31.6034 48.3766 44.801 48.374C46.8043 48.3736 48.0464 47.1146 48.0466 45.1006C48.0475 37.257 48.0475 29.4132 48.0466 21.5696C48.0465 19.5179 46.8224 18.2977 44.7667 18.2975C38.176 18.2968 31.5853 18.2972 24.9948 18.2972ZM39.7581 16.3321C39.7142 16.2224 39.6987 16.1624 39.6685 16.1111C38.9184 14.8362 38.1752 13.557 37.4032 12.2956C37.3203 12.1599 37.069 12.058 36.8954 12.0575C33.0066 12.0441 29.1177 12.0513 25.2288 12.0395C24.9238 12.0386 24.7651 12.1455 24.6199 12.3973C23.9376 13.5801 23.2375 14.7524 22.5463 15.9299C22.4773 16.0473 22.4243 16.1743 22.3465 16.3321C28.1707 16.3321 33.9288 16.3321 39.7581 16.3321ZM12.4931 16.3216C12.4931 15.8551 12.5202 15.4323 12.4874 15.014C12.4263 14.2368 11.7642 13.6322 10.9937 13.611C10.1942 13.589 9.47892 14.1652 9.39584 14.9518C9.34896 15.3966 9.38737 15.8506 9.38737 16.3216C10.4316 16.3216 11.4327 16.3216 12.4931 16.3216Z" fill="#C10037"/>
<path fill-rule="evenodd" clip-rule="evenodd" d="M31.2501 0.335938C31.8398 0.571514 32.0516 1.00503 32.0407 1.63636C32.0128 3.24268 32.0382 4.85004 32.0279 6.45688C32.0231 7.18419 31.4702 7.63932 30.8153 7.4716C30.3496 7.35231 30.0901 7.02492 30.0864 6.55546C30.0727 4.80264 30.0759 3.04956 30.0851 1.2966C30.0878 0.786515 30.4419 0.528019 30.8594 0.336068C30.9896 0.335938 31.1199 0.335938 31.2501 0.335938Z" fill="#C10037"/>
<path fill-rule="evenodd" clip-rule="evenodd" d="M27.3685 6.35803C27.375 6.93596 27.189 7.24746 26.815 7.41532C26.4042 7.59985 26.0156 7.52106 25.6943 7.20396C25.0005 6.51937 24.3142 5.82697 23.6249 5.13769C23.1539 4.6668 22.6773 4.20111 22.2135 3.72306C21.7701 3.26636 21.74 2.69077 22.1212 2.28864C22.5171 1.87101 23.1189 1.87947 23.5887 2.3432C24.7448 3.48449 25.8951 4.63216 27.0309 5.79376C27.2113 5.97868 27.3049 6.24864 27.3685 6.35803Z" fill="#C10037"/>
<path fill-rule="evenodd" clip-rule="evenodd" d="M40.2521 3.13739C40.1843 3.25251 40.0882 3.52051 39.9072 3.70543C38.7711 4.86664 37.6207 6.01392 36.4649 7.15573C36.0111 7.60422 35.4282 7.62467 35.0297 7.2392C34.6178 6.84085 34.6336 6.23856 35.0969 5.7704C36.2395 4.61544 37.3919 3.47024 38.542 2.3227C38.8728 1.99272 39.2579 1.88137 39.6962 2.08387C40.0727 2.25785 40.2477 2.56792 40.2521 3.13739Z" fill="#C10037"/>
<path fill-rule="evenodd" clip-rule="evenodd" d="M39.758 16.332C33.9286 16.332 28.1706 16.332 22.3464 16.332C22.4242 16.1742 22.4772 16.0472 22.5462 15.9298C23.2376 14.7523 23.9377 13.58 24.6198 12.3972C24.765 12.1454 24.9237 12.0385 25.2287 12.0394C29.1176 12.051 33.0065 12.044 36.8953 12.0574C37.0689 12.0579 37.3202 12.1599 37.4031 12.2955C38.1751 13.5569 38.9183 14.8361 39.6684 16.111C39.6987 16.1623 39.7141 16.2222 39.758 16.332Z" fill="#FF823B"/>
<path fill-rule="evenodd" clip-rule="evenodd" d="M12.4931 16.3216C11.4327 16.3216 10.4316 16.3216 9.38738 16.3216C9.38738 15.8506 9.34896 15.3966 9.39584 14.9518C9.47879 14.1652 10.1942 13.589 10.9937 13.611C11.7642 13.6322 12.4262 14.2368 12.4874 15.014C12.5202 15.4323 12.4931 15.8551 12.4931 16.3216Z" fill="#FF823B"/>
<path fill-rule="evenodd" clip-rule="evenodd" d="M31.0706 21.0316C37.521 21.0401 42.7944 25.8962 43.3165 32.4548C43.8176 38.7527 39.4092 44.2887 33.2944 45.4267C25.4665 46.8837 18.2739 40.551 18.7907 32.6156C18.8707 31.3849 19.2393 30.1625 19.5669 28.9615C19.7977 28.1149 20.3532 27.8282 20.9556 28.0714C21.5405 28.3075 21.6853 28.8376 21.3841 29.6388C19.5051 34.6372 21.6542 40.1627 26.4158 42.5757C32.7855 45.8036 40.5103 41.6437 41.3254 34.5469C42.0742 28.0265 36.7403 22.4743 30.1991 23.0295C29.1473 23.1189 28.1177 23.4989 27.0853 23.7726C26.6497 23.8882 26.2736 23.8526 25.9708 23.5144C25.6833 23.1934 25.6091 22.7963 25.8411 22.4334C25.9791 22.2181 26.2223 22.0275 26.4609 21.9261C27.9008 21.315 29.4439 21.0295 31.0706 21.0316Z" fill="#C10037"/>
<path fill-rule="evenodd" clip-rule="evenodd" d="M31.0786 25.3285C35.4936 25.3349 39.0705 28.9291 39.0623 33.351C39.0539 37.7544 35.4398 41.3499 31.0317 41.3399C26.6302 41.3301 23.0379 37.7142 23.0476 33.3038C23.0574 28.8913 26.6516 25.3221 31.0786 25.3285ZM31.0615 27.2816C27.7237 27.2795 25.0032 29.9908 25.0006 33.3217C24.998 36.6472 27.7273 39.3843 31.0485 39.3868C34.3727 39.3895 37.1069 36.659 37.109 33.3344C37.1111 29.9991 34.398 27.2837 31.0615 27.2816Z" fill="#C10037"/>
<path fill-rule="evenodd" clip-rule="evenodd" d="M10.8919 26.3046C10.1129 26.3046 9.33376 26.3113 8.55476 26.3025C7.86561 26.2949 7.41256 25.8839 7.42506 25.2989C7.43743 24.7232 7.8673 24.3548 8.54811 24.3531C10.1387 24.3494 11.7292 24.3494 13.3198 24.3531C14.0049 24.3546 14.4332 24.7168 14.4498 25.2925C14.4664 25.8777 14.0131 26.2946 13.3266 26.3024C12.515 26.3117 11.7033 26.3046 10.8919 26.3046Z" fill="#C10037"/>
<path fill-rule="evenodd" clip-rule="evenodd" d="M24.0165 25.3716C23.9858 25.8921 23.5163 26.321 23.004 26.2967C22.4636 26.2714 22.0324 25.7834 22.0738 25.2444C22.1146 24.7162 22.5697 24.3246 23.1067 24.356C23.6338 24.3867 24.0474 24.8485 24.0165 25.3716Z" fill="#C10037"/>
<path fill-rule="evenodd" clip-rule="evenodd" d="M31.0616 27.2816C34.398 27.2837 37.1111 29.9991 37.1091 33.3345C37.1071 36.6588 34.3729 39.3894 31.0486 39.3868C27.7274 39.3842 24.9981 36.6472 25.0007 33.3217C25.0033 29.9908 27.724 27.2795 31.0616 27.2816ZM34.8969 33.1434C34.8121 31.1484 33.1689 29.5249 31.1802 29.4715C30.5885 29.4556 30.1395 29.8181 30.0857 30.3549C30.0304 30.909 30.4185 31.3375 31.0447 31.4135C32.2451 31.5592 32.7953 32.1015 32.9594 33.3005C33.0485 33.9504 33.4472 34.3387 33.9899 34.3035C34.569 34.2658 34.9253 33.8102 34.8969 33.1434Z" fill="#FF823B"/>
<path fill-rule="evenodd" clip-rule="evenodd" d="M34.8967 33.1434C34.9251 33.8101 34.5688 34.2658 33.9897 34.3034C33.4471 34.3387 33.0483 33.9504 32.9592 33.3004C32.7952 32.1015 32.245 31.5592 31.0445 31.4135C30.4183 31.3374 30.0301 30.909 30.0856 30.3549C30.1394 29.8181 30.5884 29.4556 31.18 29.4714C33.1688 29.5248 34.8119 31.1482 34.8967 33.1434Z" fill="#C10037"/>
</g>
<defs>
<clipPath id="clip0_64_11779">
<rect width="50" height="50" fill="white" transform="translate(0 0.335938)"/>
</clipPath>
</defs>
</svg>
