<svg width="25" height="23" viewBox="0 0 25 23" fill="none" xmlns="http://www.w3.org/2000/svg">
<path fill-rule="evenodd" clip-rule="evenodd" d="M24.4999 7.38856C24.4999 7.55999 24.4999 7.73142 24.4999 7.90285C24.4884 7.93366 24.4705 7.96345 24.4664 7.99539C24.2975 9.31048 23.6765 10.2791 22.6067 10.8951C22.4646 10.977 22.4337 11.0742 22.4339 11.2358C22.4377 14.8776 22.4369 18.5195 22.4367 22.1613C22.4367 22.7625 22.222 22.9995 21.6723 22.9996C15.5565 23.0001 9.44094 23.0001 3.32529 22.9996C2.77241 22.9995 2.56105 22.7668 2.56105 22.1637C2.56087 18.5475 2.5589 14.9314 2.56571 11.3152C2.56614 11.0822 2.51121 10.9524 2.31395 10.8433C1.73545 10.5231 1.30003 10.0309 0.966498 9.42097C0.70879 8.94973 0.600594 8.42905 0.5 7.90279C0.5 7.73136 0.5 7.55993 0.5 7.3885C0.555906 7.27645 0.610464 7.1636 0.667902 7.05256C1.7921 4.87939 2.92205 2.70985 4.03588 0.530288C4.22751 0.155213 4.47228 -0.00350581 4.86105 5.86468e-05C6.33674 0.0134422 7.81262 0.00543895 9.28843 0.00543895C12.9116 0.00543895 16.5348 0.00725481 20.1579 0.00241253C20.4911 0.00194175 20.7373 0.108001 20.9104 0.444539C22.1019 2.76231 23.3024 5.07456 24.4999 7.38856ZM3.74765 11.3143C3.74765 14.7933 3.74765 18.2357 3.74765 21.6882C4.44004 21.6882 5.12048 21.6882 5.81992 21.6882C5.81992 21.5558 5.81992 21.4456 5.81992 21.3353C5.81992 19.193 5.83193 17.0506 5.81562 14.9084C5.80533 13.5475 6.65281 12.6295 7.61602 12.5613C8.3539 12.5089 9.09766 12.5568 9.83885 12.5643C9.91529 12.5651 9.99308 12.5894 10.0675 12.6133C10.9987 12.9115 11.5602 13.738 11.562 14.8328C11.5658 17.0179 11.5632 19.203 11.5632 21.3882C11.5632 21.4878 11.5632 21.5874 11.5632 21.6848C14.8103 21.6848 18.0246 21.6848 21.2419 21.6848C21.2419 18.2202 21.2419 14.7736 21.2419 11.3291C19.6594 11.1703 19.4518 11.0573 18.2014 9.68226C16.9183 11.7528 13.9554 11.947 12.4938 9.67694C11.7851 10.7143 10.8545 11.3044 9.66359 11.3071C8.46203 11.3099 7.51972 10.7291 6.79784 9.65993C6.04146 10.7844 5.03177 11.344 3.74765 11.3143ZM22.7651 6.67171C22.7377 6.60593 22.722 6.55966 22.7002 6.51729C21.8293 4.83554 20.9558 3.15534 20.09 1.4705C20.0131 1.32086 19.9161 1.3068 19.7842 1.3068C14.9266 1.30895 10.069 1.30956 5.21138 1.30478C5.04967 1.30465 4.96336 1.36033 4.88367 1.51562C4.04189 3.15648 3.19214 4.79236 2.34527 6.42999C2.30812 6.50182 2.27717 6.57748 2.23401 6.67164C9.08626 6.6717 15.914 6.67171 22.7651 6.67171ZM10.3776 21.6877C10.3824 21.6277 10.3899 21.5783 10.3899 21.5289C10.3905 19.2773 10.3927 17.0256 10.3887 14.774C10.3876 14.2065 10.0376 13.8278 9.51763 13.8198C9.01828 13.8122 8.5188 13.8176 8.01932 13.8179C7.31154 13.8184 7.00694 14.1506 7.00676 14.9256C7.00627 17.083 7.00657 19.2405 7.00657 21.3979C7.00657 21.4897 7.00657 21.5815 7.00657 21.6878C8.14358 21.6877 9.25465 21.6877 10.3776 21.6877ZM1.73993 7.99035C1.91347 9.17234 2.88208 10.0388 3.98175 10.0142C5.06316 9.98987 6.01534 9.10515 6.14444 7.99035C4.68064 7.99035 3.21862 7.99035 1.73993 7.99035ZM11.8465 7.99318C10.3708 7.99318 8.91069 7.99318 7.44843 7.99318C7.58194 9.12479 8.57795 10.0248 9.66757 10.0152C10.7446 10.0057 11.7334 9.10011 11.8465 7.99318ZM17.5567 7.99923C16.0812 7.99923 14.6202 7.99923 13.1565 7.99923C13.2897 9.11208 14.2488 9.99512 15.3212 10.0144C16.4141 10.0341 17.3785 9.17267 17.5567 7.99923ZM18.8573 7.99983C19.0039 9.13245 19.9569 10.0054 21.0382 10.0183C22.125 10.0313 23.0896 9.16319 23.265 7.99983C21.8003 7.99983 20.338 7.99983 18.8573 7.99983Z" fill="#0F278A"/>
<path fill-rule="evenodd" clip-rule="evenodd" d="M22.7645 6.67161C15.9134 6.67161 9.08565 6.67161 2.2334 6.67161C2.27655 6.57746 2.30751 6.50179 2.34466 6.42997C3.19153 4.79234 4.04128 3.15639 4.88306 1.51553C4.96275 1.36024 5.04906 1.30455 5.21077 1.30469C10.0684 1.3094 14.9259 1.30886 19.7836 1.30671C19.9155 1.30671 20.0125 1.32069 20.0894 1.4704C20.9552 3.15524 21.8287 4.83545 22.6995 6.5172C22.7214 6.55957 22.7371 6.60584 22.7645 6.67161Z" fill="white"/>
<path fill-rule="evenodd" clip-rule="evenodd" d="M10.377 21.6877C9.25416 21.6877 8.14302 21.6877 7.00595 21.6877C7.00595 21.5814 7.00595 21.4897 7.00595 21.3979C7.00595 19.2404 7.00565 17.0829 7.00614 14.9255C7.00632 14.1506 7.31093 13.8183 8.0187 13.8178C8.51812 13.8175 9.01766 13.8121 9.51701 13.8197C10.0371 13.8276 10.3871 14.2063 10.388 14.7739C10.3921 17.0256 10.3899 19.2772 10.3893 21.5289C10.3893 21.5783 10.3818 21.6277 10.377 21.6877Z" fill="#F5CD07" fill-opacity="0.9"/>
<path fill-rule="evenodd" clip-rule="evenodd" d="M1.74023 7.99023C3.21893 7.99023 4.68095 7.99023 6.14475 7.99023C6.01565 9.10503 5.06346 9.98976 3.98206 10.014C2.88239 10.0387 1.91378 9.17215 1.74023 7.99023Z" fill="#F5CD07" fill-opacity="0.9"/>
<path fill-rule="evenodd" clip-rule="evenodd" d="M11.8463 7.99316C11.7333 9.10003 10.7444 10.0057 9.66739 10.0152C8.57777 10.0248 7.58175 9.12478 7.44824 7.99316C8.91051 7.99316 10.3706 7.99316 11.8463 7.99316Z" fill="#F5CD07" fill-opacity="0.9"/>
<path fill-rule="evenodd" clip-rule="evenodd" d="M17.5565 7.99927C17.3783 9.17264 16.4139 10.0342 15.321 10.0145C14.2486 9.99516 13.2895 9.11212 13.1562 7.99927C14.62 7.99927 16.081 7.99927 17.5565 7.99927Z" fill="#F5CD07" fill-opacity="0.9"/>
<path fill-rule="evenodd" clip-rule="evenodd" d="M18.8574 7.99976C20.3381 7.99976 21.8004 7.99976 23.2652 7.99976C23.0897 9.16311 22.1252 10.0313 21.0383 10.0182C19.9571 10.0053 19.004 9.13238 18.8574 7.99976Z" fill="#F5CD07" fill-opacity="0.9"/>
<path fill-rule="evenodd" clip-rule="evenodd" d="M15.9079 18.8187C15.4003 18.8188 14.8927 18.8233 14.3851 18.8178C13.3527 18.8066 12.6863 18.0822 12.6767 16.9535C12.6694 16.0968 12.6685 15.2398 12.677 14.3831C12.6882 13.2706 13.3645 12.535 14.3748 12.5305C15.4056 12.526 16.4365 12.526 17.4673 12.5305C18.4771 12.535 19.1546 13.2742 19.1638 14.3848C19.1709 15.2414 19.1703 16.0983 19.164 16.9551C19.1558 18.0719 18.494 18.8017 17.4776 18.8172C16.9545 18.8253 16.4312 18.8187 15.9079 18.8187ZM15.908 17.5267C16.4229 17.5267 16.9379 17.529 17.4528 17.5259C17.8249 17.5236 17.987 17.3524 17.9886 16.9529C17.9918 16.097 17.9922 15.241 17.9882 14.385C17.9865 14.0029 17.819 13.8204 17.4667 13.8191C16.4369 13.8153 15.4069 13.8153 14.3771 13.819C14.0166 13.8204 13.8551 14.0051 13.8538 14.4089C13.8512 15.2564 13.8508 16.1038 13.8539 16.9512C13.8554 17.3538 14.014 17.5233 14.3867 17.5259C14.8937 17.5293 15.4009 17.5267 15.908 17.5267Z" fill="#0F278A"/>
<path fill-rule="evenodd" clip-rule="evenodd" d="M15.9079 17.5266C15.4008 17.5266 14.8936 17.5292 14.3865 17.5258C14.0139 17.5233 13.8553 17.3538 13.8538 16.9511C13.8506 16.1037 13.8511 15.2563 13.8537 14.4089C13.855 14.0051 14.0165 13.8203 14.377 13.819C15.4069 13.8152 16.4367 13.8152 17.4666 13.819C17.8189 13.8204 17.9864 14.0028 17.9881 14.3849C17.992 15.2409 17.9917 16.0969 17.9884 16.9529C17.9869 17.3522 17.8248 17.5235 17.4527 17.5258C16.9377 17.529 16.4228 17.5266 15.9079 17.5266Z" fill="#F5CD07" fill-opacity="0.9"/>
</svg>
