<svg width="23" height="25" viewBox="0 0 23 25" fill="none" xmlns="http://www.w3.org/2000/svg">
<path fill-rule="evenodd" clip-rule="evenodd" d="M1.54724 24.519C1.50304 24.4926 1.46128 24.4606 1.41432 24.4408C0.960425 24.2499 0.704489 23.9078 0.680385 23.4193C0.661979 23.0457 0.658974 22.6676 0.694409 22.2959C0.759833 21.609 1.13422 21.124 1.76217 20.8474C1.91123 20.7817 1.94736 20.7034 1.94629 20.552C1.93953 19.6144 1.94166 18.6769 1.9436 17.7393C1.94423 17.433 2.01303 17.3479 2.29532 17.2779C2.57661 17.3491 2.64329 17.4263 2.6441 17.7165C2.64667 18.6237 2.64486 19.5309 2.64567 20.4382C2.64573 20.5204 2.65306 20.6027 2.65669 20.6782C3.4039 20.6782 4.12168 20.6782 4.83953 20.6782C4.87791 20.6841 4.91622 20.6951 4.9546 20.6951C6.17506 20.696 7.39551 20.6961 8.6159 20.695C8.66849 20.6949 8.72101 20.6829 8.79295 20.6741C8.79295 20.5808 8.79295 20.4958 8.79295 20.411C8.79295 19.1671 8.79107 17.9232 8.79358 16.6793C8.79558 15.6749 9.43536 15.0363 10.4351 15.0353C11.1157 15.0346 11.798 15.0655 12.4765 15.0279C13.4374 14.9746 14.2459 15.6476 14.2153 16.7786C14.1824 17.9981 14.2077 19.2192 14.2084 20.4397C14.2084 20.5216 14.2151 20.6033 14.2182 20.6733C16.2786 20.6733 18.308 20.6733 20.3514 20.6733C20.3514 20.5597 20.3514 20.4665 20.3514 20.3733C20.3514 17.8385 20.3512 15.3037 20.3517 12.7689C20.3518 12.4109 20.4031 12.3391 20.7038 12.2578C21.0019 12.3376 21.0577 12.4156 21.0577 12.7669C21.0581 15.3456 21.0594 17.9243 21.055 20.503C21.0546 20.6838 21.0886 20.7819 21.2786 20.8673C21.8765 21.1362 22.2375 21.6129 22.3023 22.2711C22.3403 22.658 22.3401 23.0523 22.3171 23.441C22.2856 23.9738 21.9749 24.323 21.4538 24.4773C21.4355 24.4827 21.4223 24.5048 21.4066 24.5191C14.7869 24.519 8.16707 24.519 1.54724 24.519ZM5.30464 21.4129C4.31313 21.4127 3.32119 21.3962 2.33026 21.4193C1.85607 21.4303 1.4574 21.8222 1.40537 22.2987C1.36574 22.6617 1.37238 23.032 1.38621 23.398C1.39585 23.6535 1.57798 23.8057 1.8366 23.8132C2.08653 23.8205 2.33677 23.8157 2.58688 23.8152C4.00912 23.8123 5.43141 23.8091 6.85371 23.806C7.35394 23.8089 7.85423 23.8141 8.35445 23.8142C12.5768 23.8148 16.7993 23.8146 21.0217 23.8144C21.4792 23.8144 21.6218 23.6712 21.6233 23.2109C21.6241 22.9763 21.6283 22.7416 21.622 22.5071C21.6096 22.0452 21.4112 21.6852 20.9792 21.5052C20.7919 21.4271 20.5697 21.4051 20.3633 21.4049C15.4216 21.3996 10.4798 21.4008 5.53797 21.4013C5.46021 21.4013 5.38239 21.4088 5.30464 21.4129ZM9.51099 18.486C9.51099 19.1353 9.51737 19.7848 9.50704 20.4339C9.50404 20.6232 9.55137 20.6905 9.75271 20.6889C10.9183 20.6798 12.084 20.6813 13.2496 20.6877C13.4257 20.6887 13.4955 20.6504 13.4942 20.456C13.4858 19.173 13.4926 17.89 13.4884 16.607C13.4866 16.062 13.1534 15.7412 12.6026 15.7401C11.8751 15.7386 11.1475 15.739 10.42 15.7399C9.82971 15.7406 9.51343 16.0584 9.51149 16.6553C9.50954 17.2656 9.51105 17.8758 9.51099 18.486Z" fill="#0F278A"/>
<path fill-rule="evenodd" clip-rule="evenodd" d="M2.2964 16.5875C2.00572 16.4964 1.9438 16.4201 1.94367 16.1195C1.94248 13.7725 1.93841 11.4255 1.94536 9.07841C1.94831 8.09054 2.36045 7.30138 3.15198 6.70587C3.22223 6.65303 3.27813 6.53257 3.27876 6.44305C3.28709 5.26955 3.28427 4.09605 3.28433 2.92249C3.28439 1.68438 3.84303 0.92033 5.02573 0.537804C5.05835 0.527286 5.08571 0.50024 5.11551 0.480957C9.34096 0.480957 13.5663 0.480957 17.7918 0.480957C17.9275 0.523592 18.0645 0.562158 18.1984 0.609488C19.1063 0.930347 19.7053 1.74624 19.7135 2.70769C19.724 3.94173 19.7187 5.17601 19.7141 6.41012C19.7136 6.55436 19.7493 6.64395 19.8731 6.73598C20.6585 7.31979 21.0483 8.11176 21.0571 9.0883C21.0631 9.76001 21.0599 10.4318 21.0575 11.1035C21.0565 11.4049 20.9912 11.4855 20.7041 11.5672C20.4519 11.5273 20.3491 11.3729 20.3505 11.1253C20.354 10.5234 20.3561 9.92147 20.3491 9.31976C20.3464 9.07847 20.348 8.83099 20.2971 8.5974C20.0663 7.53923 19.2025 6.88229 18.0607 6.88204C13.7773 6.88092 9.49397 6.88154 5.21061 6.88217C5.13298 6.88217 5.05541 6.89106 4.97778 6.89582C4.70143 6.92775 4.41188 6.91735 4.15125 6.99912C3.20432 7.29612 2.64794 8.10857 2.64656 9.1593C2.64343 11.4713 2.64587 13.7832 2.64518 16.0952C2.64506 16.4317 2.6023 16.4889 2.2964 16.5875ZM19.0123 6.25999C19.0123 6.22324 19.0123 6.16138 19.0123 6.0994C19.0123 5.0041 19.0142 3.90886 19.0117 2.81355C19.0095 1.84008 18.3506 1.18597 17.3716 1.18578C13.46 1.18478 9.54825 1.18491 5.63653 1.18572C4.64552 1.18591 3.99085 1.84015 3.98947 2.83027C3.98797 3.90992 3.98891 4.98951 3.9896 6.06916C3.98966 6.14197 3.99679 6.21485 3.99892 6.25567C4.35228 6.22843 4.68584 6.18073 5.01947 6.18029C9.35367 6.17528 13.6879 6.17528 18.022 6.18041C18.3401 6.18079 18.6581 6.23025 19.0123 6.25999Z" fill="#0F278A"/>
<path fill-rule="evenodd" clip-rule="evenodd" d="M4.97718 6.89599C5.05482 6.89123 5.13239 6.88234 5.21002 6.88234C9.49338 6.88171 13.7767 6.88109 18.0601 6.88221C19.2019 6.88247 20.0658 7.5394 20.2965 8.59757C20.3474 8.83116 20.3458 9.07864 20.3485 9.31993C20.3555 9.9217 20.3534 10.5237 20.3499 11.1254C20.3485 11.3732 20.4513 11.5275 20.7035 11.5674C20.7035 11.7975 20.7035 12.0276 20.7035 12.2577C20.4028 12.3389 20.3514 12.4108 20.3514 12.7688C20.3508 15.3036 20.3511 17.8384 20.3511 20.3731C20.3511 20.4663 20.3511 20.5596 20.3511 20.6731C18.3076 20.6731 16.2782 20.6731 14.2179 20.6731C14.2148 20.6032 14.2081 20.5214 14.208 20.4396C14.2074 19.2192 14.1821 17.998 14.215 16.7784C14.2455 15.6476 13.437 14.9745 12.4762 15.0278C11.7977 15.0655 11.1153 15.0345 10.4347 15.0352C9.43503 15.0362 8.79525 15.6748 8.79325 16.6791C8.79074 17.9231 8.79262 19.167 8.79262 20.4109C8.79262 20.4957 8.79262 20.5807 8.79262 20.674C8.72068 20.6828 8.66816 20.6948 8.61557 20.6949C7.39511 20.6959 6.17466 20.6959 4.95427 20.695C4.91589 20.6949 4.87752 20.684 4.83914 20.6781C4.6634 20.2491 4.48278 19.8221 4.31543 19.39C4.27324 19.281 4.27355 19.1555 4.25433 19.0376C4.54432 19.3745 4.91051 19.5217 5.35483 19.5018C5.6591 19.4881 5.96455 19.5038 6.2692 19.4964C6.86972 19.4818 7.38854 19.041 7.41747 18.4417C7.45509 17.6624 7.45503 16.8786 7.41815 16.0992C7.38948 15.4918 6.86365 15.0477 6.25167 15.036C5.9469 15.0302 5.642 15.0347 5.33711 15.0349C4.4928 15.0355 4.0024 15.5275 3.9999 16.3757C3.99796 17.04 3.99551 17.7043 3.99332 18.3685C3.86636 17.9071 3.70971 17.4514 3.61994 16.9828C3.50931 16.4051 3.44076 15.8181 3.37965 15.2326C3.32888 14.7462 3.2838 14.2553 3.29326 13.7676C3.30446 13.1943 3.35261 12.6189 3.4298 12.0505C3.52045 11.3829 3.6267 10.7139 3.78503 10.0598C4.05155 8.95894 4.45267 7.90264 4.97718 6.89599ZM9.77849 11.1395C9.77849 11.4755 9.76991 11.8117 9.78024 12.1475C9.80215 12.8575 10.2933 13.3472 11.0011 13.3661C11.3368 13.3751 11.6733 13.3761 12.009 13.3658C12.6884 13.3447 13.186 12.8854 13.2125 12.2072C13.2402 11.4972 13.2383 10.7847 13.2138 10.0745C13.1907 9.40557 12.7152 8.94147 12.0453 8.90328C11.687 8.88287 11.326 8.88394 10.9675 8.90203C10.2701 8.9374 9.79833 9.43099 9.7798 10.1314C9.77097 10.4672 9.7783 10.8034 9.77849 11.1395ZM3.99996 11.1273C3.99996 11.4633 3.99364 11.7995 4.00127 12.1353C4.01692 12.8257 4.48748 13.33 5.16432 13.3612C5.56168 13.3795 5.9623 13.3803 6.35885 13.3522C6.92369 13.3122 7.39167 12.8762 7.41759 12.3122C7.4534 11.5329 7.45246 10.7498 7.41966 9.97041C7.39643 9.41885 6.9687 8.98367 6.41808 8.92864C5.97751 8.8845 5.52675 8.87924 5.08574 8.91749C4.44553 8.97303 4.0198 9.469 4.0019 10.1194C3.99257 10.455 4.00021 10.7913 3.99996 11.1273ZM15.5575 11.1259C15.5575 11.462 15.5496 11.7981 15.5591 12.1339C15.58 12.8712 16.0741 13.3552 16.8125 13.3671C17.125 13.3721 17.4377 13.3728 17.7502 13.3669C18.4922 13.353 18.9919 12.8501 18.9991 12.1039C19.0053 11.4553 19.0061 10.8066 18.9988 10.1582C18.9905 9.42555 18.4973 8.92256 17.7669 8.89846C17.4469 8.88794 17.1261 8.88938 16.8059 8.89752C16.0617 8.91649 15.5705 9.41678 15.5583 10.1648C15.5529 10.485 15.5573 10.8055 15.5575 11.1259ZM19 17.2675C19 16.9392 19.005 16.611 18.999 16.2828C18.9854 15.5423 18.4734 15.0389 17.735 15.0352C17.4147 15.0336 17.0943 15.0318 16.7738 15.0357C16.1357 15.0432 15.6084 15.4875 15.578 16.1198C15.5414 16.8834 15.5419 17.6514 15.578 18.4151C15.6075 19.0395 16.1261 19.4852 16.7504 19.4971C17.0784 19.5033 17.4067 19.5011 17.7349 19.4986C18.4765 19.493 18.9857 18.9922 18.9991 18.2519C19.0049 17.9239 19.0001 17.5956 19 17.2675Z" fill="#F5CD07" fill-opacity="0.9"/>
<path fill-rule="evenodd" clip-rule="evenodd" d="M4.97803 6.896C4.45351 7.90265 4.05239 8.95895 3.78587 10.0598C3.62754 10.7139 3.5213 11.3829 3.43064 12.0505C3.35345 12.6189 3.30531 13.1943 3.2941 13.7676C3.28464 14.2553 3.32972 14.7462 3.3805 15.2326C3.4416 15.8182 3.51015 16.4051 3.62078 16.9828C3.71056 17.4513 3.8672 17.9071 3.99417 18.3685C4.06679 18.5726 4.13941 18.7767 4.2121 18.9808C4.20615 19.0001 4.2002 19.0195 4.19426 19.0388C4.21279 19.0387 4.23138 19.0387 4.24998 19.0386L4.25523 19.0375C4.27446 19.1554 4.27414 19.2809 4.31634 19.3899C4.48369 19.8221 4.66431 20.2491 4.84004 20.678C4.12226 20.678 3.40441 20.678 2.65726 20.678C2.65363 20.6025 2.64631 20.5203 2.64625 20.4381C2.64537 19.5308 2.64725 18.6236 2.64468 17.7163C2.64387 17.4261 2.57719 17.3489 2.2959 17.2777C2.29621 17.0475 2.29646 16.8175 2.29677 16.5874C2.60261 16.4889 2.64537 16.4317 2.64549 16.0953C2.64618 13.7833 2.6438 11.4714 2.64687 9.15941C2.64825 8.10869 3.20463 7.29624 4.15156 6.99923C4.41213 6.91753 4.70168 6.92793 4.97803 6.896Z" fill="#F5CD07" fill-opacity="0.9"/>
<path fill-rule="evenodd" clip-rule="evenodd" d="M5.30469 21.4128C5.38244 21.4088 5.46027 21.4011 5.53802 21.4011C10.4798 21.4006 15.4216 21.3995 20.3634 21.4048C20.5698 21.405 20.7921 21.4269 20.9793 21.505C21.4112 21.6851 21.6096 22.0451 21.622 22.507C21.6284 22.7415 21.6241 22.9762 21.6234 23.2108C21.6219 23.671 21.4793 23.8143 21.0218 23.8143C16.7994 23.8145 12.5769 23.8147 8.35451 23.814C7.85428 23.8139 7.35399 23.8088 6.85376 23.8059C6.68823 23.5735 6.51224 23.3477 6.35923 23.1074C6.00187 22.5461 5.65553 21.978 5.30469 21.4128Z" fill="#D6D5D8"/>
<path fill-rule="evenodd" clip-rule="evenodd" d="M9.51098 18.4858C9.51098 17.8756 9.50947 17.2654 9.51141 16.6552C9.51335 16.0584 9.82964 15.7406 10.4199 15.7398C11.1475 15.7389 11.8751 15.7385 12.6026 15.74C13.1533 15.7411 13.4866 16.0619 13.4883 16.6069C13.4925 17.8899 13.4857 19.1729 13.4941 20.4559C13.4954 20.6503 13.4256 20.6887 13.2495 20.6877C12.0839 20.6812 10.9182 20.6797 9.75264 20.6888C9.55129 20.6904 9.50396 20.6231 9.50697 20.4339C9.51724 19.7846 9.51091 19.1352 9.51098 18.4858Z" fill="#999999"/>
<path fill-rule="evenodd" clip-rule="evenodd" d="M5.30424 21.4127C5.65509 21.9779 6.00143 22.5461 6.35872 23.1072C6.5118 23.3476 6.68772 23.5733 6.85325 23.8057C5.43096 23.8088 4.00866 23.812 2.58642 23.8149C2.33631 23.8154 2.08601 23.8202 1.83615 23.8129C1.57752 23.8054 1.3954 23.6532 1.38575 23.3977C1.37192 23.0317 1.36528 22.6614 1.40491 22.2984C1.45694 21.8219 1.85568 21.43 2.3298 21.419C3.32086 21.396 4.31274 21.4124 5.30424 21.4127Z" fill="#BEBDC2"/>
<path fill-rule="evenodd" clip-rule="evenodd" d="M19.0119 6.26004C18.6577 6.2303 18.3397 6.1809 18.0216 6.18053C13.6874 6.17539 9.35331 6.17539 5.01912 6.1804C4.68542 6.18078 4.35185 6.22855 3.99857 6.25578C3.99637 6.21496 3.9893 6.14209 3.98924 6.06927C3.98855 4.98962 3.98755 3.91004 3.98911 2.83038C3.99043 1.8402 4.6451 1.18596 5.6361 1.18571C9.54783 1.18489 13.4596 1.18477 17.3712 1.18577C18.3502 1.18596 19.0091 1.84007 19.0113 2.81354C19.0138 3.90885 19.0119 5.00409 19.0119 6.09939C19.0119 6.16137 19.0119 6.22329 19.0119 6.26004ZM9.58752 5.37534C10.5237 5.37528 11.2706 4.62964 11.2711 3.69454C11.2716 2.76077 10.5218 2.00961 9.58927 2.00974C8.6605 2.0098 7.90084 2.76602 7.89883 3.69235C7.89677 4.61655 8.65831 5.37547 9.58752 5.37534ZM5.64449 3.28397C5.64449 3.00036 5.646 2.72827 5.64406 2.45618C5.64199 2.16945 5.52692 2.019 5.30892 2.01174C5.07897 2.0041 4.94111 2.16356 4.94029 2.45324C4.93792 3.28259 4.93773 4.11194 4.94036 4.94129C4.9413 5.22189 5.06901 5.37215 5.29246 5.37409C5.52028 5.37603 5.64111 5.23229 5.64368 4.94711C5.6465 4.63665 5.64431 4.32606 5.64431 4.01715C6.04186 4.01715 6.41236 4.01715 6.79483 4.01715C6.79483 4.33758 6.79301 4.64172 6.79539 4.9458C6.79758 5.23028 6.91804 5.37528 7.1448 5.37428C7.36743 5.37321 7.4979 5.22095 7.49878 4.94286C7.50141 4.11351 7.50115 3.28416 7.49896 2.45481C7.49821 2.1655 7.36104 2.00523 7.13178 2.0118C6.9129 2.01806 6.79696 2.16838 6.7952 2.45399C6.79345 2.73215 6.79483 3.01025 6.79483 3.28397C6.39508 3.28397 6.03015 3.28397 5.64449 3.28397ZM14.7546 2.73472C15.0067 2.73472 15.2401 2.7381 15.4732 2.73378C15.708 2.7294 15.8613 2.59023 15.8645 2.38813C15.8677 2.18629 15.7144 2.03572 15.4833 2.0319C15.1318 2.02614 14.7801 2.02601 14.4286 2.03202C14.1864 2.03622 14.0462 2.16813 14.0446 2.41011C14.0388 3.26944 14.0391 4.12891 14.0442 4.98831C14.0457 5.24706 14.1794 5.3709 14.4407 5.37453C14.7687 5.3791 15.0969 5.37716 15.425 5.37534C15.7025 5.37378 15.8608 5.24869 15.8641 5.03345C15.8677 4.81032 15.7021 4.67565 15.4127 4.67171C15.1966 4.66876 14.9806 4.67114 14.7614 4.67114C14.7614 4.45283 14.7614 4.26232 14.7614 4.0802C14.7824 4.06855 14.7888 4.06198 14.7955 4.06192C14.9828 4.05929 15.1702 4.0581 15.3575 4.05509C15.6317 4.05065 15.783 3.92074 15.7777 3.69598C15.7727 3.4835 15.6217 3.35584 15.3621 3.35133C15.162 3.34789 14.9617 3.35064 14.7548 3.35064C14.7546 3.13666 14.7546 2.95159 14.7546 2.73472ZM12.7842 2.70893C12.9389 2.70893 13.0633 2.71844 13.1857 2.7068C13.3919 2.68733 13.516 2.57351 13.5211 2.35846C13.5259 2.15649 13.3879 2.0155 13.1616 2.01205C12.6773 2.00467 12.1927 2.00473 11.7084 2.01224C11.4921 2.01556 11.3627 2.1476 11.3538 2.33986C11.3443 2.54402 11.4694 2.68614 11.6937 2.70805C11.8148 2.71988 11.9378 2.71018 12.0786 2.71018C12.0786 2.81786 12.0786 2.89431 12.0786 2.97081C12.0786 3.62712 12.0761 4.28348 12.0797 4.93985C12.0813 5.24769 12.2472 5.4156 12.4987 5.36808C12.7274 5.32488 12.7855 5.15866 12.785 4.95049C12.7829 4.21687 12.7842 3.48337 12.7842 2.70893ZM17.1261 4.67114C17.1261 4.57598 17.1261 4.49973 17.1261 4.42335C17.126 3.7512 17.1294 3.07906 17.1243 2.40691C17.1224 2.15611 16.9728 2.00535 16.758 2.01199C16.5494 2.01844 16.4232 2.15955 16.4225 2.40735C16.4197 3.26707 16.4193 4.12684 16.4228 4.98656C16.4239 5.2495 16.5443 5.36608 16.8133 5.37234C17.0945 5.37885 17.376 5.37885 17.6572 5.37447C17.899 5.37065 18.049 5.23886 18.0563 5.03727C18.0638 4.83035 17.9024 4.67947 17.6569 4.67215C17.487 4.66701 17.317 4.67114 17.1261 4.67114Z" fill="#F6F6F6"/>
<path fill-rule="evenodd" clip-rule="evenodd" d="M9.77866 11.1395C9.77859 10.8035 9.77121 10.4673 9.7801 10.1314C9.79857 9.43101 10.2704 8.93742 10.9678 8.90204C11.3263 8.88389 11.6873 8.88282 12.0456 8.9033C12.7155 8.94149 13.191 9.40559 13.2141 10.0745C13.2386 10.7847 13.2405 11.4973 13.2128 12.2072C13.1863 12.8854 12.6887 13.3447 12.0093 13.3658C11.6736 13.3762 11.3371 13.3751 11.0014 13.3661C10.2937 13.3472 9.80251 12.8575 9.78054 12.1475C9.77014 11.8117 9.77872 11.4754 9.77866 11.1395ZM11.033 9.61344C10.6943 9.6321 10.4981 9.78461 10.4915 10.0953C10.4768 10.7886 10.4783 11.4827 10.4914 12.1761C10.4968 12.456 10.6788 12.6415 10.9436 12.6512C11.3008 12.6642 11.659 12.6481 12.0167 12.6446C12.3353 12.6259 12.5095 12.456 12.514 12.1201C12.5228 11.4633 12.5226 10.8063 12.514 10.1495C12.5096 9.81328 12.3231 9.61851 11.9936 9.60618C11.6739 9.59422 11.3532 9.60987 11.033 9.61344Z" fill="#0F278A"/>
<path fill-rule="evenodd" clip-rule="evenodd" d="M4.00086 11.1273C4.00099 10.7913 3.99341 10.4551 4.00261 10.1193C4.02052 9.46887 4.44624 8.97296 5.08646 8.91743C5.52746 8.87924 5.97823 8.8845 6.41879 8.92857C6.96942 8.9836 7.39708 9.41885 7.42037 9.97035C7.45318 10.7497 7.45412 11.5329 7.4183 12.3121C7.39239 12.8762 6.92446 13.3122 6.35956 13.3522C5.96301 13.3802 5.56246 13.3794 5.16503 13.3611C4.48819 13.3299 4.01764 12.8256 4.00199 12.1352C3.99447 11.7995 4.0008 11.4633 4.00086 11.1273ZM6.24262 12.6444C6.55427 12.6251 6.72838 12.4636 6.73345 12.1415C6.74391 11.47 6.74391 10.7981 6.73339 10.1267C6.72832 9.80582 6.53912 9.618 6.21814 9.6061C5.89891 9.59421 5.57861 9.60967 5.25881 9.61311C4.90941 9.63284 4.7162 9.79292 4.71051 10.1167C4.69867 10.7954 4.69974 11.4747 4.71051 12.1535C4.71514 12.4458 4.89576 12.6412 5.16822 12.6513C5.52571 12.6645 5.88438 12.6481 6.24262 12.6444Z" fill="#0F278A"/>
<path fill-rule="evenodd" clip-rule="evenodd" d="M15.5577 11.1258C15.5576 10.8055 15.5532 10.485 15.5585 10.1647C15.5707 9.41674 16.0619 8.91645 16.8061 8.89742C17.1263 8.88928 17.4471 8.88778 17.7671 8.89836C18.4975 8.9224 18.9907 9.42545 18.999 10.1581C19.0063 10.8065 19.0055 11.4552 18.9993 12.1038C18.992 12.85 18.4924 13.3529 17.7504 13.3668C17.4379 13.3727 17.1253 13.372 16.8127 13.367C16.0743 13.3552 15.5802 12.8711 15.5593 12.1338C15.5499 11.7981 15.5578 11.4619 15.5577 11.1258ZM16.8544 9.61195C16.4971 9.61107 16.2819 9.75958 16.2744 10.0745C16.2575 10.7827 16.2604 11.4917 16.2747 12.2C16.2801 12.4656 16.4618 12.642 16.7215 12.6518C17.0781 12.6651 17.4357 12.6484 17.7928 12.6447C18.11 12.627 18.2882 12.4555 18.2924 12.1251C18.301 11.4632 18.3013 10.801 18.2919 10.139C18.2873 9.80991 18.0945 9.61758 17.7645 9.60556C17.4615 9.59448 17.1578 9.60882 16.8544 9.61195Z" fill="#0F278A"/>
<path fill-rule="evenodd" clip-rule="evenodd" d="M4.2111 18.9809C4.13841 18.7768 4.06579 18.5727 3.99316 18.3687C3.99542 17.7044 3.9978 17.0401 3.99974 16.3758C4.0023 15.5276 4.49264 15.0357 5.33695 15.035C5.64185 15.0349 5.94674 15.0303 6.25151 15.0362C6.86349 15.0479 7.38932 15.4919 7.418 16.0993C7.45481 16.8787 7.45493 17.6625 7.41731 18.4418C7.38838 19.0411 6.8695 19.4819 6.26904 19.4965C5.96433 19.504 5.65888 19.4883 5.35467 19.5019C4.91041 19.5219 4.54423 19.3746 4.25417 19.0377C4.25417 19.0377 4.24891 19.0388 4.24885 19.039C4.2362 19.0198 4.22362 19.0004 4.2111 18.9809ZM6.28951 18.7824C6.57581 18.7215 6.72237 18.5924 6.72732 18.3209C6.74028 17.6181 6.74141 16.9147 6.72663 16.2119C6.7205 15.9211 6.51239 15.7462 6.21695 15.7416C5.89691 15.7366 5.57661 15.7449 5.25644 15.7474C4.97797 15.7008 4.70838 15.944 4.70688 16.2507C4.7035 16.9297 4.69855 17.6089 4.70938 18.2878C4.71414 18.5847 4.91029 18.7835 5.19027 18.7899C5.55639 18.7984 5.92308 18.7859 6.28951 18.7824Z" fill="#0F278A"/>
<path fill-rule="evenodd" clip-rule="evenodd" d="M19.0001 17.2674C19.0001 17.5956 19.005 17.9238 18.9991 18.252C18.9857 18.9923 18.4766 19.4931 17.735 19.4987C17.4068 19.5012 17.0785 19.5034 16.7504 19.4972C16.1262 19.4853 15.6076 19.0396 15.578 18.4152C15.5419 17.6515 15.5415 16.8835 15.5781 16.1198C15.6085 15.4875 16.1357 15.0433 16.7739 15.0357C17.0942 15.0319 17.4147 15.0337 17.7351 15.0352C18.4734 15.0389 18.9855 15.5424 18.999 16.2829C19.0051 16.6109 19 16.9392 19.0001 17.2674ZM17.8393 18.7826C18.1356 18.7245 18.2865 18.5765 18.2908 18.2824C18.3009 17.6044 18.3021 16.926 18.2901 16.2481C18.2845 15.9331 18.0771 15.746 17.7644 15.7413C17.4606 15.7367 17.1567 15.7444 16.8528 15.7466C16.5095 15.7405 16.2853 15.8874 16.2775 16.1893C16.259 16.9082 16.2621 17.628 16.2773 18.3471C16.2828 18.6066 16.4818 18.7834 16.7376 18.7894C17.1045 18.798 17.472 18.7859 17.8393 18.7826Z" fill="#0F278A"/>
<path fill-rule="evenodd" clip-rule="evenodd" d="M4.2112 18.9807C4.22372 19.0002 4.23624 19.0196 4.24895 19.0388C4.23049 19.0386 4.21189 19.0387 4.19336 19.0387C4.19931 19.0194 4.20525 19.0001 4.2112 18.9807Z" fill="#FD909C"/>
<path fill-rule="evenodd" clip-rule="evenodd" d="M9.58811 5.37531C8.6589 5.37537 7.89741 4.61652 7.89942 3.69238C7.90142 2.76599 8.66109 2.00983 9.58986 2.00977C10.5224 2.00964 11.2722 2.76079 11.2717 3.69457C11.2712 4.62966 10.5243 5.37525 9.58811 5.37531ZM10.5671 3.70039C10.5697 3.15052 10.1374 2.71447 9.59005 2.71484C9.046 2.71522 8.60067 3.15947 8.60399 3.69845C8.60725 4.23023 9.04243 4.66548 9.57602 4.67061C10.1274 4.67593 10.5645 4.24795 10.5671 3.70039Z" fill="#0F278A"/>
<path fill-rule="evenodd" clip-rule="evenodd" d="M5.64442 3.28396C6.03008 3.28396 6.39501 3.28396 6.79488 3.28396C6.79488 3.01025 6.7935 2.73221 6.79526 2.45399C6.79707 2.16837 6.91296 2.01806 7.13183 2.0118C7.36109 2.00522 7.49833 2.16549 7.49902 2.4548C7.50121 3.28415 7.50152 4.1135 7.49883 4.94285C7.49789 5.22095 7.36748 5.37321 7.14485 5.37427C6.91809 5.37527 6.79763 5.23028 6.79544 4.94579C6.79306 4.64171 6.79488 4.33757 6.79488 4.01715C6.41242 4.01715 6.04185 4.01715 5.64436 4.01715C5.64436 4.32605 5.64655 4.63664 5.64373 4.94711C5.6411 5.23234 5.52033 5.37602 5.29251 5.37408C5.06907 5.37214 4.94135 5.22189 4.94041 4.94128C4.93778 4.11193 4.93791 3.28258 4.94035 2.45323C4.94116 2.16362 5.07902 2.00416 5.30897 2.01173C5.52697 2.019 5.64204 2.16944 5.64411 2.45618C5.64599 2.72827 5.64442 3.00035 5.64442 3.28396Z" fill="#0F278A"/>
<path fill-rule="evenodd" clip-rule="evenodd" d="M14.7545 2.7346C14.7545 2.95153 14.7545 3.13654 14.7545 3.35046C14.9614 3.35046 15.1617 3.34771 15.3618 3.35115C15.6214 3.35566 15.7724 3.48332 15.7774 3.6958C15.7826 3.92056 15.6313 4.05047 15.3572 4.05491C15.1699 4.05792 14.9825 4.05911 14.7952 4.06174C14.7886 4.0618 14.7821 4.06844 14.7611 4.08002C14.7611 4.26214 14.7611 4.45265 14.7611 4.67096C14.9803 4.67096 15.1964 4.66858 15.4124 4.67153C15.7018 4.67547 15.8674 4.81014 15.8638 5.03327C15.8605 5.24851 15.7022 5.37366 15.4247 5.37516C15.0966 5.37698 14.7684 5.37892 14.4404 5.37435C14.1791 5.37072 14.0454 5.24688 14.0439 4.98813C14.0388 4.12873 14.0386 3.26926 14.0443 2.40992C14.0459 2.16801 14.1861 2.03604 14.4283 2.03184C14.7798 2.02577 15.1315 2.02596 15.483 2.03172C15.7141 2.0356 15.8674 2.18617 15.8642 2.38795C15.861 2.59004 15.7077 2.72922 15.4729 2.7336C15.2399 2.73798 15.0066 2.7346 14.7545 2.7346Z" fill="#0F278A"/>
<path fill-rule="evenodd" clip-rule="evenodd" d="M12.7844 2.70902C12.7844 3.48347 12.7831 4.21697 12.7852 4.95053C12.7857 5.15869 12.7276 5.32491 12.4989 5.36811C12.2474 5.41563 12.0815 5.24778 12.0799 4.93988C12.0763 4.28358 12.0788 3.62721 12.0788 2.97084C12.0788 2.89434 12.0788 2.81796 12.0788 2.71021C11.938 2.71021 11.8149 2.71992 11.6939 2.70808C11.4696 2.68617 11.3444 2.54405 11.354 2.33989C11.363 2.14763 11.4923 2.01559 11.7086 2.01227C12.1929 2.00476 12.6775 2.0047 13.1618 2.01209C13.3881 2.01553 13.526 2.15652 13.5213 2.35849C13.5161 2.57354 13.3921 2.68736 13.1859 2.70683C13.0635 2.71854 12.9392 2.70902 12.7844 2.70902Z" fill="#0F278A"/>
<path fill-rule="evenodd" clip-rule="evenodd" d="M17.1258 4.67108C17.3167 4.67108 17.4868 4.66701 17.6566 4.67208C17.902 4.67941 18.0634 4.83029 18.0559 5.03721C18.0487 5.2388 17.8987 5.37065 17.6569 5.3744C17.3757 5.37879 17.0942 5.37879 16.813 5.37228C16.544 5.36602 16.4236 5.24944 16.4224 4.98649C16.4189 4.12678 16.4194 3.267 16.4221 2.40729C16.423 2.15949 16.549 2.01832 16.7576 2.01193C16.9725 2.00529 17.122 2.15599 17.124 2.40685C17.1291 3.079 17.1257 3.75114 17.1258 4.42329C17.1258 4.4996 17.1258 4.57592 17.1258 4.67108Z" fill="#0F278A"/>
<path fill-rule="evenodd" clip-rule="evenodd" d="M11.0332 9.61355C11.3534 9.60998 11.6741 9.59427 11.9938 9.60622C12.3233 9.61856 12.5098 9.81339 12.5142 10.1495C12.5228 10.8063 12.523 11.4634 12.5142 12.1202C12.5097 12.4561 12.3355 12.626 12.0169 12.6446C11.9648 12.5712 11.9248 12.4836 11.8584 12.4268C11.414 12.046 11.1389 11.568 11.083 10.9885C11.039 10.5329 11.0479 10.0721 11.0332 9.61355Z" fill="#F5CD07" fill-opacity="0.9"/>
<path fill-rule="evenodd" clip-rule="evenodd" d="M11.0334 9.61328C11.048 10.0718 11.0393 10.5326 11.0832 10.9882C11.1391 11.5677 11.4141 12.0457 11.8585 12.4265C11.9249 12.4834 11.9649 12.571 12.0171 12.6444C11.6594 12.6479 11.3011 12.664 10.944 12.651C10.6793 12.6413 10.4971 12.4557 10.4918 12.1758C10.4787 11.4825 10.4772 10.7884 10.4919 10.0951C10.4985 9.78445 10.6947 9.63194 11.0334 9.61328Z" fill="#F1D284"/>
<path fill-rule="evenodd" clip-rule="evenodd" d="M5.25879 9.61325C5.57858 9.6098 5.89888 9.59434 6.21811 9.60623C6.53909 9.61819 6.72829 9.80595 6.73336 10.1268C6.74388 10.7983 6.74388 11.4702 6.73343 12.1417C6.72835 12.4637 6.55425 12.6252 6.24259 12.6445C6.19657 12.5757 6.16433 12.4893 6.10235 12.4409C5.71269 12.1355 5.43697 11.7369 5.36134 11.2623C5.275 10.7209 5.28859 10.1636 5.25879 9.61325Z" fill="#F5CD07" fill-opacity="0.9"/>
<path fill-rule="evenodd" clip-rule="evenodd" d="M5.25802 9.61304C5.28782 10.1634 5.27424 10.7207 5.36057 11.2621C5.4362 11.7367 5.71192 12.1353 6.10158 12.4407C6.1635 12.4892 6.19581 12.5755 6.24182 12.6443C5.88359 12.648 5.52498 12.6644 5.16737 12.6511C4.8949 12.6411 4.71428 12.4457 4.70965 12.1534C4.69888 11.4746 4.69782 10.7953 4.70965 10.1165C4.71535 9.79284 4.90862 9.63276 5.25802 9.61304Z" fill="#F5CD07" fill-opacity="0.9"/>
<path fill-rule="evenodd" clip-rule="evenodd" d="M16.8542 9.61187C17.1576 9.60874 17.4614 9.5944 17.7643 9.60542C18.0943 9.61744 18.2871 9.80977 18.2917 10.1389C18.3011 10.8008 18.3008 11.463 18.2922 12.125C18.2879 12.4553 18.1098 12.6269 17.7925 12.6445C17.747 12.575 17.7089 12.499 17.6546 12.4371C17.5315 12.2968 17.3912 12.1708 17.2744 12.0257C16.9597 11.6346 16.8417 11.1649 16.813 10.6806C16.792 10.3264 16.838 9.96829 16.8542 9.61187Z" fill="#F5CD07" fill-opacity="0.9"/>
<path fill-rule="evenodd" clip-rule="evenodd" d="M16.8542 9.61182C16.8381 9.96818 16.7921 10.3263 16.8131 10.6805C16.8418 11.1648 16.9598 11.6345 17.2745 12.0256C17.3913 12.1707 17.5316 12.2966 17.6547 12.437C17.709 12.4989 17.7471 12.5749 17.7927 12.6444C17.4356 12.6482 17.0779 12.6648 16.7214 12.6515C16.4617 12.6418 16.28 12.4654 16.2746 12.1997C16.2602 11.4915 16.2574 10.7824 16.2743 10.0743C16.2818 9.75945 16.497 9.61094 16.8542 9.61182Z" fill="#F1D184"/>
<path fill-rule="evenodd" clip-rule="evenodd" d="M5.25684 15.7474C5.57701 15.7449 5.89724 15.7366 6.21735 15.7415C6.51272 15.7461 6.72089 15.921 6.72703 16.2119C6.7418 16.9147 6.74067 17.618 6.72772 18.3209C6.72271 18.5924 6.57621 18.7215 6.28991 18.7823C6.26236 18.7475 6.23951 18.7073 6.20658 18.6787C5.71424 18.2522 5.34718 17.7513 5.30166 17.0775C5.2718 16.6351 5.2708 16.1909 5.25684 15.7474Z" fill="#FAE695"/>
<path fill-rule="evenodd" clip-rule="evenodd" d="M5.25684 15.7475C5.2708 16.1909 5.27181 16.6352 5.30167 17.0775C5.34718 17.7513 5.71418 18.2523 6.20658 18.6786C6.23952 18.7072 6.26237 18.7476 6.28991 18.7823C5.92342 18.7858 5.55679 18.7983 5.1906 18.7899C4.91063 18.7834 4.71448 18.5847 4.70972 18.2877C4.69889 17.6089 4.7039 16.9297 4.70722 16.2506C4.70878 15.9439 4.97837 15.7008 5.25684 15.7475Z" fill="#F3D385"/>
<path fill-rule="evenodd" clip-rule="evenodd" d="M16.853 15.7466C17.1569 15.7443 17.4608 15.7366 17.7646 15.7412C18.0773 15.7459 18.2847 15.933 18.2903 16.248C18.3023 16.9259 18.3011 17.6043 18.291 18.2823C18.2867 18.5764 18.1358 18.7244 17.8394 18.7825C17.8034 18.7363 17.7689 18.6888 17.731 18.6441C17.5317 18.4093 17.295 18.1972 17.1386 17.9367C16.7295 17.2554 16.7611 16.5015 16.853 15.7466Z" fill="#F5CD07" fill-opacity="0.9"/>
<path fill-rule="evenodd" clip-rule="evenodd" d="M16.8528 15.7465C16.7608 16.5015 16.7293 17.2553 17.1384 17.9367C17.2947 18.1971 17.5314 18.4093 17.7308 18.6441C17.7686 18.6887 17.8031 18.7363 17.8392 18.7825C17.4719 18.7858 17.1045 18.7979 16.7375 18.7893C16.4817 18.7833 16.2827 18.6064 16.2772 18.347C16.262 17.628 16.2589 16.9081 16.2774 16.1892C16.2852 15.8873 16.5094 15.7404 16.8528 15.7465Z" fill="#F5CD07" fill-opacity="0.9"/>
<path fill-rule="evenodd" clip-rule="evenodd" d="M10.5667 3.70033C10.5641 4.24795 10.127 4.67593 9.57556 4.67061C9.04203 4.66548 8.60679 4.23024 8.60353 3.69846C8.60022 3.15941 9.04554 2.71516 9.58959 2.71484C10.137 2.71441 10.5693 3.15046 10.5667 3.70033Z" fill="#F6F6F6"/>
</svg>
