<svg width="50" height="51" viewBox="0 0 50 51" fill="none" xmlns="http://www.w3.org/2000/svg">
<path d="M50 20.263C50 22.5719 50 24.8808 50 27.2028C49.8304 27.4376 49.7 27.7115 49.4913 27.8811C49.2173 28.1028 49.1521 28.3507 49.1521 28.6768C49.1651 35.1078 49.1521 41.5257 49.1651 47.9567C49.1651 48.9873 48.839 49.7047 47.8476 50.0569C32.5854 50.0569 17.3232 50.0569 2.048 50.0569C1.77407 49.8612 1.47404 49.7047 1.23924 49.4699C0.8479 49.0916 0.834855 48.5698 0.834855 48.0611C0.834855 41.5779 0.834855 35.1078 0.834855 28.6246C0.834855 28.4159 0.769632 28.155 0.639186 28.0246C0.195669 27.6202 0 27.1506 0 26.5505C0.0130446 24.646 0 22.7415 0 20.837C0 19.7673 0.430472 19.2195 1.47404 18.9586C9.62692 16.9236 16.084 12.4493 20.754 5.44435C21.6541 4.10075 22.3585 2.62671 23.1281 1.20485C23.5455 0.448259 24.1586 0.0308313 25.0065 0.0438759C25.8414 0.0438759 26.4545 0.461304 26.8458 1.20485C26.9241 1.34834 26.9893 1.50487 27.0545 1.64836C31.4897 10.5578 38.5207 16.2975 48.1346 18.8542C48.9956 19.089 49.6869 19.389 50 20.263ZM34.9987 29.3421C33.7855 31.1161 32.2985 32.538 30.0026 32.538C27.7068 32.538 26.2458 31.1031 25.0065 29.3421C22.215 33.5424 17.7929 33.6598 14.9883 29.3421C13.9316 30.8813 12.6663 32.1597 10.7096 32.4728C8.72685 32.7989 7.21367 31.8858 5.87008 30.503C5.87008 36.5036 5.87008 42.4258 5.87008 48.3611C18.6408 48.3611 31.3853 48.3611 44.1299 48.3611C44.1299 42.4128 44.1299 36.4775 44.1299 30.5161C41.1818 33.6207 37.4641 33.112 34.9987 29.3421ZM38.2338 22.5197C37.9729 22.3893 37.8294 22.311 37.6728 22.2328C33.9682 20.3804 30.9418 17.7845 28.8155 14.1842C27.1719 11.3927 25.9979 8.41852 25.1109 5.3139C25.0848 5.22259 25.0457 5.13127 25.0326 5.11823C24.3412 6.98361 23.7021 8.91421 22.9063 10.7796C21.041 15.1234 18.3277 18.7759 14.1665 21.2022C13.4229 21.6327 12.6533 22.0501 11.8184 22.5197C20.6627 22.5197 29.3765 22.5197 38.2338 22.5197ZM1.68276 26.694C17.258 26.694 32.7811 26.694 48.3042 26.694C48.3042 25.8592 48.3042 25.0634 48.3042 24.2547C32.742 24.2547 17.2189 24.2547 1.68276 24.2547C1.68276 25.0634 1.68276 25.8592 1.68276 26.694ZM26.7806 4.71385C26.7545 4.72689 26.7415 4.73994 26.7154 4.76603C26.7675 4.94865 26.8067 5.11823 26.8719 5.30085C27.5894 7.19232 28.2025 9.13597 29.0373 10.9753C30.2896 13.7538 31.9854 16.2453 34.3986 18.1889C36.3293 19.7412 38.5207 20.8239 40.7514 21.8414C41.9515 22.3763 43.1646 22.6502 44.4691 22.5719C45.604 22.5067 46.7519 22.5589 47.8868 22.5589C48.0303 22.5589 48.1607 22.5458 48.3303 22.5328C48.3303 22.2067 48.3303 21.9066 48.3303 21.6197C48.3303 20.6544 48.3303 20.6544 47.4041 20.4065C38.5468 18.0063 31.7506 12.8798 27.0023 5.03996C26.9241 4.92256 26.8458 4.8182 26.7806 4.71385ZM23.2977 4.80516C18.2103 13.0363 11.0488 18.3324 1.6958 20.6544C1.6958 21.2805 1.6958 21.8936 1.6958 22.5458C2.86981 22.5458 4.03079 22.4676 5.17871 22.5589C6.92669 22.7024 8.51813 22.2589 10.0444 21.4631C10.2139 21.3718 10.3966 21.3066 10.5792 21.2153C13.3316 19.8978 15.9014 18.3455 17.8711 15.9453C19.9191 13.4537 21.3149 10.61 22.3846 7.59671C22.6976 6.68358 22.9846 5.74437 23.2977 4.80516ZM4.16123 28.4029C3.61336 28.4029 3.07853 28.4029 2.5437 28.4029C2.5437 35.0687 2.5437 41.7214 2.5437 48.3611C3.10462 48.3611 3.6264 48.3611 4.16123 48.3611C4.16123 41.6953 4.16123 35.0556 4.16123 28.4029ZM47.4563 48.3742C47.4563 41.6953 47.4563 35.0426 47.4563 28.4159C46.8954 28.4159 46.3736 28.4159 45.8518 28.4159C45.8518 35.0817 45.8518 41.7214 45.8518 48.3742C46.3997 48.3742 46.9084 48.3742 47.4563 48.3742ZM26.4675 28.4029C27.0676 29.7986 28.7764 30.9466 30.0939 30.8944C31.4114 30.8292 33.1594 29.5508 33.5116 28.4029C31.1766 28.4029 28.8286 28.4029 26.4675 28.4029ZM6.45708 28.3768C7.14845 29.8639 8.87034 30.9987 10.2009 30.8813C11.5184 30.7639 13.2142 29.4725 13.5142 28.3768C11.1792 28.3768 8.84425 28.3768 6.45708 28.3768ZM16.4623 28.3898C17.1015 29.8117 18.8103 30.9596 20.1278 30.8813C21.4453 30.8031 23.1803 29.5247 23.5064 28.3898C21.1584 28.3898 18.8234 28.3898 16.4623 28.3898ZM36.3945 28.4029C37.3206 29.7595 38.3381 30.9074 40.06 30.8683C41.7167 30.8422 42.7211 29.7204 43.6212 28.4029C41.1818 28.4029 38.8338 28.4029 36.3945 28.4029Z" fill="#C10037"/>
<path d="M24.85 35.0557C25.6848 34.7556 26.3893 34.3512 27.1328 34.2599C28.959 34.0382 30.4853 35.3818 30.7722 37.2993C31.007 38.7995 30.6027 40.1039 29.5982 41.2127C28.8938 41.9954 28.1111 42.7259 27.4589 43.5477C26.8589 44.3173 26.3632 45.1913 25.8544 46.0392C25.6457 46.3914 25.437 46.7175 24.9935 46.7175C24.563 46.7175 24.3282 46.4436 24.1717 46.0653C23.6238 44.7739 22.7498 43.7173 21.8106 42.6868C21.1192 41.9432 20.3887 41.1997 19.8278 40.3518C18.9147 38.969 18.9408 37.4428 19.6843 35.9818C20.5583 34.2599 22.5672 33.7121 24.276 34.6643C24.5108 34.8209 24.7326 34.9774 24.85 35.0557ZM25.0326 43.8608C25.6196 43.1564 26.2458 42.3998 26.898 41.6562C27.3676 41.1214 27.8894 40.6257 28.359 40.0909C28.8155 39.5821 29.0895 38.9951 29.1547 38.2907C29.233 37.2993 28.7503 36.2818 28.0198 35.9818C27.3285 35.6948 26.4284 36.021 25.737 36.7906C25.2544 37.3254 24.7195 37.3385 24.2499 36.8036C24.2238 36.7645 24.1978 36.7254 24.1586 36.6862C23.5977 36.0992 22.9324 35.7209 22.1237 35.9427C21.2758 36.1644 21.0018 36.8949 20.8714 37.6907C20.7018 38.6951 21.1062 39.5039 21.7454 40.2213C22.8542 41.4606 23.963 42.6737 25.0326 43.8608Z" fill="#C10037"/>
</svg>
