<svg width="50" height="40" viewBox="0 0 50 40" fill="none" xmlns="http://www.w3.org/2000/svg">
<path d="M47.1992 13.1269C43.447 9.35879 37.354 9.35879 33.5219 13.1269L18.2083 28.5285C17.269 29.4706 17.269 31.0406 18.2083 31.9877C19.1451 32.9297 20.7064 32.9297 21.6457 31.9877L36.9593 16.5861C38.8304 14.702 41.8807 14.702 43.7593 16.5861C45.6379 18.4701 45.6379 21.5424 43.7593 23.4265L28.678 38.5869C30.5541 40.471 33.6018 40.471 35.4804 38.5869L47.1218 26.8806C50.9464 23.0271 50.9464 16.9001 47.1992 13.1269ZM42.043 18.234C41.1012 17.292 39.5424 17.292 38.6056 18.234L23.282 33.7135C21.4059 35.5976 18.3607 35.5976 16.4871 33.7135C15.5478 32.7715 13.984 32.7715 13.0472 33.7135C12.1104 34.6555 12.1104 36.2306 13.0472 37.1676C16.7994 40.9408 22.8948 40.9408 26.7245 37.1676L42.0405 21.771C42.9773 20.7511 42.9773 19.176 42.043 18.234ZM36.9593 2.83741C33.2096 -0.935752 27.1142 -0.935752 23.282 2.83741L7.96594 18.234C7.02914 19.1811 7.02914 20.7461 7.96594 21.6881C8.90524 22.6352 10.4666 22.6352 11.4059 21.6881L26.8144 6.29153C28.6905 4.40746 31.7532 4.40746 33.6268 6.29153C34.5686 7.23356 36.1299 7.23356 37.0643 6.29153C37.9436 5.27162 37.9436 3.77944 37.0043 2.83741H36.9593ZM31.8057 7.93946C30.8664 6.9924 29.305 6.9924 28.3682 7.93946L13.0521 23.424C11.181 25.303 8.12832 25.303 6.24972 23.424C4.37362 21.5399 4.37362 18.4727 6.24972 16.5836L21.331 1.41305C19.4549 -0.471017 16.4071 -0.471017 14.531 1.41305L2.81228 13.1269C-0.937426 16.9001 -0.937426 23.0271 2.81228 26.8806C6.56198 30.6538 12.6549 30.6538 16.4896 26.8806L31.8007 11.479C32.7425 10.4541 32.7425 8.884 31.8007 7.94197H31.8057V7.93946Z" fill="#C10037"/>
</svg>
