<svg width="20" height="18" viewBox="0 0 20 18" fill="none" xmlns="http://www.w3.org/2000/svg">
<path d="M19.447 3.10477L13.447 0.104773C13.166 -0.0362266 12.834 -0.0362266 12.552 0.104773L7 2.88177L1.447 0.104773C1.137 -0.0492266 0.768 -0.0342267 0.474 0.148773C0.18 0.331773 0 0.652773 0 0.999773V13.9998C0 14.3788 0.214 14.7248 0.553 14.8948L6.553 17.8948C6.834 18.0358 7.166 18.0358 7.448 17.8948L13 15.1178L18.553 17.8938C18.694 17.9648 18.847 17.9998 19 17.9998C19.183 17.9998 19.365 17.9498 19.525 17.8508C19.82 17.6678 20 17.3468 20 16.9998V3.99977C20 3.62077 19.786 3.27477 19.447 3.10477ZM8 4.61777L12 2.61777V13.3818L8 15.3818V4.61777ZM2 2.61777L6 4.61777V15.3818L2 13.3818V2.61777ZM18 15.3818L14 13.3818V2.61777L18 4.61777V15.3818Z" fill="#C10037"/>
</svg>
