<svg width="18" height="18" viewBox="0 0 18 18" fill="none" xmlns="http://www.w3.org/2000/svg">
<path d="M11.5 7.5C11.5 8.87836 10.3784 10 9 10C7.62164 10 6.5 8.87836 6.5 7.5C6.5 6.12164 7.62164 5 9 5C10.3784 5 11.5 6.12164 11.5 7.5ZM11 7.5C11 6.39661 10.1034 5.5 9 5.5C7.89661 5.5 7 6.39661 7 7.5C7 8.60339 7.89661 9.5 9 9.5C10.1034 9.5 11 8.60339 11 7.5Z" fill="#C10037" stroke="#C10037"/>
<path d="M8.85565 15.9536L8.85378 15.9523C8.75713 15.8839 7.39672 14.9034 6.0684 13.355C4.73093 11.796 3.48999 9.73564 3.50006 7.4985H3.50007V7.49625C3.50007 4.4681 5.96775 2 9.00007 2C12.0322 2 14.5001 4.46789 14.5001 7.5L14.5001 7.50225C14.5101 9.73742 13.2693 11.7968 11.9318 13.3554C10.6034 14.9034 9.24302 15.8839 9.14635 15.9523L9.14448 15.9536C9.10234 15.9837 9.05185 15.9999 9.00007 15.9999C8.94828 15.9999 8.89779 15.9837 8.85565 15.9536ZM8.68491 15.1894L8.99985 15.4451L9.31496 15.1896C9.93541 14.6866 11.098 13.6656 12.1076 12.3354C13.1106 11.0138 14.0083 9.32703 14.0001 7.50257C13.9994 4.74174 11.7578 2.5 9.00007 2.5C6.24257 2.5 4.00071 4.74147 4.00007 7.49882C3.99182 9.32435 4.88962 11.0118 5.89273 12.334C6.90241 13.6648 8.06501 14.6861 8.68491 15.1894Z" fill="#C10037" stroke="#C10037"/>
</svg>
