<svg width="18" height="20" viewBox="0 0 18 20" fill="none" xmlns="http://www.w3.org/2000/svg">
<path d="M16.8905 8.105C16.6765 7.6 16.4115 7.11 16.1015 6.649L14.4435 7.768C14.6815 8.12 14.8845 8.495 15.0475 8.883C15.2155 9.281 15.3445 9.696 15.4305 10.113C15.5185 10.546 15.5635 10.991 15.5635 11.437C15.5635 11.883 15.5185 12.33 15.4305 12.761C15.3445 13.179 15.2165 13.592 15.0465 13.992C14.8845 14.378 14.6815 14.753 14.4435 15.104C14.2095 15.451 13.9385 15.778 13.6405 16.077C13.3435 16.374 13.0165 16.643 12.6675 16.879C12.3155 17.117 11.9415 17.32 11.5535 17.483C11.1585 17.65 10.7445 17.779 10.3245 17.866C9.4605 18.041 8.5385 18.041 7.6785 17.866C7.2565 17.779 6.8415 17.65 6.4455 17.482C6.0585 17.319 5.6845 17.116 5.3325 16.878C4.9855 16.645 4.6595 16.375 4.3615 16.078C4.0625 15.778 3.7925 15.45 3.5585 15.105C3.3215 14.754 3.1185 14.379 2.9535 13.99C2.7865 13.594 2.6585 13.181 2.5715 12.76C2.4835 12.329 2.4385 11.884 2.4385 11.437C2.4385 10.99 2.4835 10.545 2.5725 10.113C2.6585 9.693 2.7865 9.279 2.9535 8.883C3.1185 8.493 3.3225 8.118 3.5585 7.769C3.7925 7.422 4.0625 7.095 4.3605 6.797C4.6565 6.5 4.9835 6.23 5.3325 5.995C5.6825 5.759 6.0575 5.555 6.4465 5.39C6.8415 5.223 7.2565 5.094 7.6765 5.008C7.7835 4.986 7.8925 4.976 8.0005 4.959V8L13.0005 4L8.0005 0V2.938C7.7575 2.967 7.5145 3 7.2755 3.049C6.7255 3.162 6.1835 3.33 5.6675 3.549C5.1585 3.764 4.6685 4.03 4.2125 4.339C3.7585 4.645 3.3325 4.996 2.9455 5.383C2.5575 5.771 2.2065 6.197 1.9005 6.649C1.5915 7.106 1.3265 7.595 1.1105 8.104C0.8915 8.622 0.7235 9.163 0.6115 9.712C0.4955 10.275 0.4375 10.856 0.4375 11.438C0.4375 12.02 0.4965 12.6 0.6115 13.163C0.7245 13.714 0.8925 14.255 1.1105 14.77C1.3255 15.279 1.5915 15.769 1.9005 16.226C2.2055 16.676 2.5565 17.102 2.9455 17.494C3.3345 17.882 3.7595 18.233 4.2105 18.537C4.6695 18.848 5.1595 19.114 5.6665 19.327C6.1825 19.545 6.7235 19.714 7.2755 19.827C7.8395 19.941 8.4195 20 9.0005 20C9.5815 20 10.1615 19.941 10.7275 19.826C11.2785 19.712 11.8195 19.544 12.3315 19.327C12.8385 19.114 13.3295 18.848 13.7885 18.537C14.2415 18.231 14.6675 17.88 15.0565 17.491C15.4445 17.102 15.7955 16.677 16.1015 16.225C16.4135 15.763 16.6775 15.273 16.8895 14.77C17.1095 14.25 17.2785 13.709 17.3895 13.162C17.5045 12.599 17.5635 12.018 17.5635 11.437C17.5635 10.857 17.5045 10.276 17.3895 9.712C17.2775 9.166 17.1085 8.625 16.8905 8.105Z" fill="#374B5C"/>
</svg>
