<svg width="59" height="60" viewBox="0 0 59 60" fill="none" xmlns="http://www.w3.org/2000/svg">
<path d="M0.00195312 17.5532V45.2275H25.312C25.1987 44.4941 25.1021 43.8161 24.9858 43.1427C24.4073 39.8156 23.7865 36.4963 24.0191 33.0877C24.2638 29.5085 25.969 26.9579 29.1424 25.4081C29.4203 25.2713 29.6983 25.0837 29.9007 24.85C30.8371 23.7692 31.9367 22.9174 33.2024 22.2748C33.497 22.1256 33.7764 21.9119 34.006 21.6721C36.9905 18.5726 40.5717 17.2719 44.7994 17.9991C45.7328 18.159 46.6391 18.4911 47.5408 18.7401V17.5532H0.00195312ZM20.3473 38.2889H6.83508V34.8789H20.3473V38.2889ZM20.3473 31.3519H6.83357V27.9603H20.3473V31.3519Z" fill="#C10037"/>
<path d="M58.002 32.6588V35.0803H27.4931C26.9947 31.7271 28.3797 29.0119 31.4927 28.2616C31.6482 28.2247 31.8038 28.0587 31.899 27.9111C32.7554 26.5781 33.9124 25.6464 35.3835 25.1037C35.598 25.0237 35.8155 24.8654 35.9575 24.6824C39.5281 20.0962 45.89 20.0885 49.447 24.664C49.598 24.8592 49.8367 25.0222 50.0678 25.1098C51.5132 25.6587 52.6551 26.5797 53.5115 27.888C53.6293 28.0694 53.8604 28.2247 54.0704 28.2847C56.0989 28.8751 57.3812 30.1881 57.8887 32.279C57.9204 32.4082 57.9642 32.5327 58.002 32.6588Z" fill="#C10037"/>
<path d="M15.529 6.93556C14.4415 4.70471 13.3374 2.48154 12.2363 0.256836H0.00195312V14.094C3.92451 14.094 7.84706 14.0986 11.7696 14.0817C11.9841 14.0801 12.3103 13.951 12.3964 13.7819C13.4583 11.6863 14.4884 9.57538 15.5109 7.45983C15.5819 7.31377 15.597 7.07547 15.529 6.93556ZM9.05388 8.85892H5.7068V5.48266H9.05388V8.85892Z" fill="#C10037"/>
<path d="M47.5801 0.256836V5.44576H46.6134C44.9746 5.44576 43.3373 5.45652 41.7 5.43192C41.5052 5.42885 41.2152 5.29509 41.1336 5.13519C40.318 3.51932 39.5356 1.88501 38.7441 0.256836H47.5801Z" fill="#C10037"/>
<path d="M26.1488 5.44576H23.5071C22.0193 5.44576 20.5315 5.45652 19.0438 5.43192C18.8489 5.42885 18.5589 5.29509 18.4789 5.13519C17.6617 3.51932 16.8793 1.88654 16.0879 0.256836H23.5645C24.4103 1.95573 25.2561 3.65462 26.1488 5.44576Z" fill="#C10037"/>
<path d="M37.4769 5.44576H34.8352C33.3474 5.44576 31.8597 5.45652 30.3719 5.43192C30.1771 5.42885 29.8871 5.29509 29.807 5.13519C28.9899 3.51932 28.2075 1.88654 27.416 0.256836H34.8926C35.7384 1.95573 36.5842 3.65462 37.4769 5.44576Z" fill="#C10037"/>
<path d="M37.6777 59.2569H31.0667C29.9353 52.3399 28.8101 45.4705 27.6803 38.5688H36.8304C37.1128 45.4582 37.3938 52.3368 37.6777 59.2569Z" fill="#C10037"/>
<path d="M57.7377 38.5581C56.6079 45.4644 55.4826 52.3414 54.3513 59.2554H47.7402C48.0227 52.3676 48.3036 45.489 48.5861 38.5581H57.7377Z" fill="#C10037"/>
<path d="M45.183 38.5781C44.9005 45.4613 44.6196 52.3415 44.3372 59.257H41.0807C40.7982 52.3538 40.5173 45.4859 40.2349 38.5781H45.183Z" fill="#C10037"/>
<path d="M47.5574 8.94049V14.0572H38.7411C39.2879 12.9394 39.812 11.8617 40.3436 10.787C40.6472 10.1705 40.8209 9.32639 41.3148 9.01121C41.8072 8.69757 42.6289 8.90974 43.3056 8.90667C44.6649 8.90205 46.0243 8.90667 47.3837 8.90974C47.4199 8.90974 47.4562 8.92204 47.5574 8.94049Z" fill="#C10037"/>
<path d="M26.117 8.90513C26.0113 9.13729 25.9403 9.30487 25.8602 9.4663C25.1715 10.8746 24.4903 12.2875 23.7789 13.6836C23.6867 13.8634 23.4405 14.0741 23.2653 14.0771C20.9438 14.1017 18.6208 14.0925 16.2993 14.0894C16.2494 14.0894 16.1996 14.0648 16.0939 14.0387C16.6331 12.9379 17.1572 11.8601 17.6874 10.787C17.9925 10.1705 18.1647 9.32486 18.6586 9.01121C19.1525 8.69757 19.9726 8.90974 20.6493 8.90667C22.4406 8.90205 24.2305 8.90513 26.117 8.90513Z" fill="#C10037"/>
<path d="M37.4664 8.90666C36.6205 10.6271 35.8336 12.2383 35.0285 13.8404C34.9696 13.9603 34.7778 14.0817 34.6479 14.0833C32.269 14.091 29.8916 14.0802 27.5142 14.0725C27.5021 14.0725 27.4916 14.0479 27.4432 13.9926C28.2392 12.3706 29.0428 10.7255 29.8599 9.08961C29.9052 8.9989 30.0623 8.91434 30.168 8.91434C32.562 8.90358 34.956 8.90666 37.4664 8.90666Z" fill="#C10037"/>
</svg>
