<svg width="64" height="64" viewBox="0 0 64 64" fill="none" xmlns="http://www.w3.org/2000/svg">
<path d="M55 39H39V56H55V39Z" fill="#BDFDFF"/>
<path d="M55 34H39V39H55V34Z" fill="#57A4FF"/>
<path d="M38 48C38.0011 47.6456 37.9078 47.2973 37.7295 46.991C37.5513 46.6846 37.2947 46.4313 36.986 46.2572C36.6774 46.083 36.3279 45.9942 35.9736 46C35.6192 46.0057 35.2728 46.1058 34.97 46.29C34.9855 46.1939 34.9955 46.0971 35 46C35.0011 45.6456 34.9078 45.2973 34.7295 44.991C34.5513 44.6846 34.2947 44.4313 33.986 44.2572C33.6774 44.083 33.3279 43.9942 32.9736 44C32.6192 44.0057 32.2728 44.1058 31.97 44.29C31.9855 44.1939 31.9955 44.0971 32 44C32.0011 43.6456 31.9078 43.2973 31.7295 42.991C31.5513 42.6846 31.2947 42.4313 30.986 42.2572C30.6774 42.083 30.3279 41.9942 29.9736 42C29.6192 42.0057 29.2728 42.1058 28.97 42.29C28.9855 42.1939 28.9955 42.0971 29 42C28.9984 41.47 28.7872 40.9622 28.4125 40.5875C28.0377 40.2128 27.5299 40.0015 27 40C26.6016 40.0022 26.2124 40.1204 25.88 40.34C25.7449 39.9489 25.4912 39.6096 25.1542 39.3695C24.8172 39.1294 24.4138 39.0004 24 39.0004C23.5862 39.0004 23.1828 39.1294 22.8458 39.3695C22.5088 39.6096 22.2551 39.9489 22.12 40.34C21.7876 40.1204 21.3984 40.0022 21 40C20.5862 40.0003 20.1829 40.1295 19.846 40.3697C19.509 40.6098 19.2553 40.949 19.12 41.34C18.7876 41.1204 18.3984 41.0022 18 41C17.4701 41.0015 16.9623 41.2128 16.5875 41.5875C16.2128 41.9622 16.0016 42.47 16 43C16.0045 43.0971 16.0145 43.1939 16.03 43.29C15.7272 43.1058 15.3808 43.0057 15.0264 43C14.6721 42.9942 14.3226 43.083 14.014 43.2572C13.7053 43.4313 13.4487 43.6846 13.2705 43.991C13.0922 44.2973 12.9989 44.6456 13 45C12.6456 44.9989 12.2973 45.0922 11.991 45.2704C11.6847 45.4487 11.4314 45.7053 11.2572 46.0139C11.083 46.3226 10.9942 46.672 11 47.0264C11.0058 47.3807 11.1059 47.7272 11.29 48.03C11.194 48.0145 11.0972 48.0045 11 48C10.4696 48 9.96086 48.2107 9.58579 48.5858C9.21071 48.9608 9 49.4695 9 50C9 50.5304 9.21071 51.0391 9.58579 51.4142C9.96086 51.7893 10.4696 52 11 52H38C38.5304 52 39.0391 51.7893 39.4142 51.4142C39.7893 51.0391 40 50.5304 40 50C40 49.4695 39.7893 48.9608 39.4142 48.5858C39.0391 48.2107 38.5304 48 38 48Z" fill="#FFE477"/>
<path d="M32 33C40.2843 33 47 26.2843 47 18C47 9.71573 40.2843 3 32 3C23.7157 3 17 9.71573 17 18C17 26.2843 23.7157 33 32 33Z" fill="#FFDAAA"/>
<path d="M32.0001 15C32.5037 14.9984 32.9996 15.1236 33.4422 15.364C33.8847 15.6045 34.2596 15.9525 34.5322 16.3759C34.8049 16.7994 34.9665 17.2847 35.0023 17.7871C35.038 18.2894 34.9467 18.7927 34.7368 19.2505C34.5268 19.7083 34.205 20.1059 33.801 20.4066C33.397 20.7073 32.9237 20.9015 32.4249 20.9711C31.9261 21.0408 31.4178 20.9838 30.9469 20.8054C30.4759 20.6269 30.0574 20.3328 29.7301 19.95C29.2555 19.4118 28.9956 18.7176 29.0001 18C29.0001 17.2044 29.3161 16.4413 29.8787 15.8787C30.4413 15.3161 31.2044 15 32.0001 15Z" fill="#D80027"/>
<path d="M23.7299 48.27C23.8746 48.4976 23.9717 48.7522 24.0155 49.0183C24.0593 49.2845 24.0488 49.5568 23.9846 49.8188C23.9204 50.0808 23.8039 50.3271 23.6421 50.5429C23.4803 50.7587 23.2765 50.9395 23.0429 51.0745C22.8094 51.2095 22.551 51.2958 22.2832 51.3284C22.0154 51.3609 21.7439 51.3389 21.4848 51.2637C21.2257 51.1886 20.9846 51.0618 20.7758 50.891C20.567 50.7203 20.3949 50.509 20.2699 50.27C19.7199 49.31 19.0399 46.36 19.9999 45.8C20.9599 45.24 23.1799 47.31 23.7299 48.27Z" fill="#7ED63E"/>
<path d="M41 52C40.9981 53.0606 40.5776 54.0777 39.83 54.83C39.5804 55.0734 39.3016 55.2851 39 55.46C38.3925 55.813 37.7026 55.9993 37 56H11C9.93913 56 8.92172 55.5786 8.17157 54.8284C7.42143 54.0783 7 53.0609 7 52H41Z" fill="#957856"/>
<path d="M61 58.5C61.0011 58.8286 60.9371 59.1542 60.8119 59.458C60.6866 59.7617 60.5025 60.0378 60.2701 60.2701C60.0378 60.5025 59.7617 60.6866 59.458 60.8119C59.1542 60.9371 58.8286 61.0011 58.5 61H5.5C4.83696 61 4.20107 60.7366 3.73223 60.2678C3.26339 59.7989 3 59.163 3 58.5C3 57.837 3.26339 57.2011 3.73223 56.7322C4.20107 56.2634 4.83696 56 5.5 56H58.5C59.163 56 59.7989 56.2634 60.2678 56.7322C60.7366 57.2011 61 57.837 61 58.5Z" fill="#898890"/>
<path d="M58.5 55H56V34C56 33.7348 55.8946 33.4804 55.7071 33.2929C55.5196 33.1053 55.2652 33 55 33H51V29.414L54.707 25.707L53.293 24.293L49.293 28.293C49.1054 28.4805 49.0001 28.7348 49 29V33H39C38.7348 33 38.4804 33.1053 38.2929 33.2929C38.1054 33.4804 38 33.7348 38 34V45.777C37.7084 45.5096 37.366 45.3035 36.9933 45.1709C36.6205 45.0383 36.225 44.9819 35.83 45.005C35.6132 44.3922 35.2037 43.8662 34.6629 43.5057C34.1221 43.1451 33.479 42.9695 32.83 43.005C32.6129 42.3924 32.2033 41.8666 31.6626 41.5061C31.1218 41.1456 30.4789 40.9698 29.83 41.005C29.5837 40.3046 29.0865 39.7204 28.4345 39.3654C27.7824 39.0104 27.0219 38.9098 26.3 39.083C26.0196 38.7449 25.6681 38.4727 25.2706 38.286C24.8731 38.0992 24.4392 38.0024 24 38.0024C23.5608 38.0024 23.1269 38.0992 22.7294 38.286C22.3319 38.4727 21.9804 38.7449 21.7 39.083C21.1563 38.9585 20.5889 38.986 20.0598 39.1624C19.5307 39.3387 19.0603 39.6572 18.7 40.083C17.9784 39.9103 17.2183 40.0112 16.5668 40.3662C15.9152 40.7212 15.4183 41.305 15.172 42.005C14.5011 41.9703 13.8378 42.1604 13.287 42.5451C12.7362 42.9298 12.3294 43.4871 12.131 44.129C11.5147 44.3155 10.9748 44.6953 10.5911 45.2123C10.2073 45.7293 10.0001 46.3561 10 47C10 47.057 10 47.113 10.005 47.169C9.41924 47.3758 8.91195 47.7591 8.55291 48.2661C8.19387 48.773 8.00071 49.3788 8 50C8.00331 50.3414 8.06556 50.6797 8.184 51H7C6.73478 51 6.48043 51.1053 6.29289 51.2929C6.10536 51.4804 6 51.7348 6 52C6.00368 53.0854 6.36419 54.1396 7.026 55H5.5C4.57174 55 3.6815 55.3687 3.02513 56.0251C2.36875 56.6815 2 57.5717 2 58.5C2 59.4282 2.36875 60.3185 3.02513 60.9748C3.6815 61.6312 4.57174 62 5.5 62H58.5C59.4283 62 60.3185 61.6312 60.9749 60.9748C61.6312 60.3185 62 59.4282 62 58.5C62 57.5717 61.6312 56.6815 60.9749 56.0251C60.3185 55.3687 59.4283 55 58.5 55ZM41 51H40.808C41.0213 50.4467 41.0581 49.8409 40.9134 49.2658C40.7688 48.6907 40.4497 48.1745 40 47.788V40H49V51H51V40H54V55H40.974C41.6358 54.1396 41.9963 53.0854 42 52C42 51.7348 41.8946 51.4804 41.7071 51.2929C41.5196 51.1053 41.2652 51 41 51ZM54 35V38H51V35H54ZM49 35V38H40V35H49ZM10 50C10.0009 49.8636 10.0297 49.7288 10.0847 49.604C10.1396 49.4791 10.2195 49.3668 10.3194 49.274C10.4194 49.1812 10.5373 49.1098 10.6658 49.0642C10.7944 49.0186 10.9309 48.9998 11.067 49.009L11.182 49.024C11.3669 49.0439 11.5537 49.0118 11.7214 48.9314C11.8892 48.851 12.0311 48.7254 12.1314 48.5687C12.2316 48.4121 12.2862 48.2305 12.2889 48.0446C12.2917 47.8586 12.2426 47.6755 12.147 47.516C12.0558 47.3645 12.0063 47.1916 12.0037 47.0148C12.0011 46.838 12.0454 46.6637 12.1321 46.5096C12.2188 46.3555 12.3448 46.2272 12.4972 46.1376C12.6497 46.0481 12.8232 46.0006 13 46C13.2652 46 13.5196 45.8946 13.7071 45.7071C13.8946 45.5195 14 45.2652 14 45C14.0057 44.8252 14.0563 44.6548 14.147 44.5053C14.2377 44.3558 14.3654 44.2323 14.5178 44.1465C14.6702 44.0608 14.8421 44.0158 15.0169 44.0158C15.1918 44.0159 15.3637 44.0611 15.516 44.147C15.6764 44.2431 15.8605 44.2923 16.0474 44.289C16.2344 44.2858 16.4167 44.2302 16.5736 44.1285C16.7305 44.0269 16.8558 43.8833 16.9353 43.714C17.0147 43.5448 17.0451 43.3566 17.023 43.171L17 43C17 42.7348 17.1054 42.4804 17.2929 42.2929C17.4804 42.1053 17.7348 42 18 42C18.2036 42.0024 18.4022 42.0635 18.572 42.176C18.6992 42.2593 18.8438 42.3126 18.9947 42.3317C19.1456 42.3507 19.2988 42.3352 19.4428 42.2861C19.5868 42.237 19.7176 42.1557 19.8255 42.0484C19.9333 41.9412 20.0152 41.8107 20.065 41.667C20.1198 41.5255 20.2054 41.398 20.3156 41.2937C20.4257 41.1894 20.5577 41.1109 20.702 41.0639C20.8462 41.0169 20.9991 41.0026 21.1496 41.0219C21.3001 41.0413 21.4444 41.0939 21.572 41.176C21.6992 41.2593 21.8438 41.3126 21.9947 41.3317C22.1456 41.3507 22.2988 41.3352 22.4428 41.2861C22.5868 41.237 22.7176 41.1557 22.8255 41.0484C22.9333 40.9412 23.0152 40.8107 23.065 40.667C23.1321 40.4724 23.2582 40.3035 23.4258 40.184C23.5934 40.0645 23.7942 40.0003 24 40.0003C24.2058 40.0003 24.4066 40.0645 24.5742 40.184C24.7418 40.3035 24.8679 40.4724 24.935 40.667C24.9848 40.8107 25.0667 40.9412 25.1745 41.0484C25.2824 41.1557 25.4132 41.237 25.5572 41.2861C25.7012 41.3352 25.8544 41.3507 26.0053 41.3317C26.1562 41.3126 26.3008 41.2593 26.428 41.176C26.5978 41.0635 26.7964 41.0024 27 41C27.264 41 27.5173 41.1044 27.7046 41.2904C27.892 41.4764 27.9982 41.729 28 41.993L27.977 42.171C27.9549 42.3566 27.9853 42.5448 28.0647 42.714C28.1442 42.8833 28.2695 43.0269 28.4264 43.1285C28.5833 43.2302 28.7656 43.2858 28.9526 43.289C29.1395 43.2923 29.3236 43.2431 29.484 43.147C29.6358 43.0613 29.8071 43.0161 29.9814 43.0157C30.1557 43.0153 30.3272 43.0597 30.4794 43.1446C30.6316 43.2296 30.7594 43.3522 30.8506 43.5007C30.9417 43.6493 30.9932 43.8188 31 43.993L30.977 44.171C30.9549 44.3566 30.9853 44.5448 31.0647 44.714C31.1442 44.8833 31.2695 45.0269 31.4264 45.1285C31.5833 45.2302 31.7656 45.2858 31.9526 45.289C32.1395 45.2923 32.3236 45.2431 32.484 45.147C32.6358 45.061 32.8071 45.0156 32.9815 45.015C33.1559 45.0145 33.3275 45.0588 33.4798 45.1438C33.6321 45.2288 33.76 45.3516 33.8511 45.5003C33.9422 45.649 33.9935 45.8187 34 45.993L33.977 46.171C33.9549 46.3566 33.9853 46.5448 34.0647 46.714C34.1442 46.8833 34.2695 47.0269 34.4264 47.1285C34.5833 47.2302 34.7656 47.2858 34.9526 47.289C35.1395 47.2923 35.3236 47.2431 35.484 47.147C35.6363 47.0608 35.8082 47.0154 35.9832 47.0152C36.1581 47.0149 36.3302 47.0599 36.4827 47.1457C36.6352 47.2315 36.7629 47.3552 36.8536 47.5049C36.9442 47.6545 36.9946 47.8251 37 48C37 48.2652 37.1054 48.5195 37.2929 48.7071C37.4804 48.8946 37.7348 49 38 49C38.2652 49 38.5196 49.1053 38.7071 49.2929C38.8946 49.4804 39 49.7348 39 50C39 50.2652 38.8946 50.5195 38.7071 50.7071C38.5196 50.8946 38.2652 51 38 51H24.44C24.7727 50.5328 24.9644 49.9801 24.9926 49.4072C25.0208 48.8344 24.8842 48.2655 24.599 47.768C24.016 46.76 21.289 43.905 19.499 44.938C17.709 45.971 18.818 49.759 19.399 50.768C19.45 50.854 19.521 50.919 19.579 50.999H11C10.735 50.999 10.4808 50.8937 10.2932 50.7064C10.1057 50.5191 10.0003 50.265 10 50ZM20.542 46.743C21.4748 47.2116 22.2742 47.9081 22.866 48.768C22.9327 48.8817 22.9762 49.0076 22.9941 49.1382C23.012 49.2689 23.0038 49.4018 22.9701 49.5293C22.9364 49.6568 22.8778 49.7764 22.7977 49.8811C22.7176 49.9859 22.6175 50.0738 22.5033 50.1397C22.3891 50.2057 22.263 50.2484 22.1322 50.2654C22.0014 50.2824 21.8686 50.2733 21.7413 50.2388C21.614 50.2042 21.4949 50.1448 21.3906 50.064C21.2864 49.9832 21.1992 49.8826 21.134 49.768C20.6855 48.8254 20.4819 47.785 20.542 46.743ZM8.171 53H39.829C39.6214 53.5845 39.2381 54.0905 38.7316 54.4485C38.2251 54.8066 37.6203 54.9992 37 55H11C10.3797 54.9992 9.77487 54.8066 9.26839 54.4485C8.7619 54.0905 8.37858 53.5845 8.171 53ZM58.5 60H5.5C5.10217 60 4.72064 59.8419 4.43934 59.5606C4.15803 59.2793 4 58.8978 4 58.5C4 58.1021 4.15803 57.7206 4.43934 57.4393C4.72064 57.158 5.10217 57 5.5 57H58.5C58.8978 57 59.2794 57.158 59.5607 57.4393C59.842 57.7206 60 58.1021 60 58.5C60 58.8978 59.842 59.2793 59.5607 59.5606C59.2794 59.8419 58.8978 60 58.5 60Z" fill="#231F20"/>
<path d="M32 34C35.1645 34 38.2579 33.0616 40.8891 31.3035C43.5203 29.5454 45.5711 27.0466 46.7821 24.1229C47.9931 21.1993 48.3099 17.9823 47.6926 14.8786C47.0752 11.7749 45.5513 8.92394 43.3137 6.6863C41.0761 4.44866 38.2251 2.92481 35.1214 2.30744C32.0177 1.69008 28.8007 2.00693 25.8771 3.21793C22.9534 4.42894 20.4546 6.4797 18.6965 9.11088C16.9384 11.7421 16 14.8355 16 18C16.005 22.2419 17.6924 26.3087 20.6918 29.3082C23.6913 32.3077 27.7581 33.995 32 34ZM32 4.00001C34.7689 4.00001 37.4757 4.82109 39.778 6.35943C42.0803 7.89777 43.8747 10.0843 44.9343 12.6424C45.9939 15.2006 46.2712 18.0155 45.731 20.7313C45.1908 23.447 43.8574 25.9416 41.8995 27.8995C39.9416 29.8574 37.447 31.1908 34.7313 31.731C32.0155 32.2712 29.2006 31.9939 26.6424 30.9343C24.0843 29.8747 21.8978 28.0803 20.3594 25.778C18.8211 23.4757 18 20.7689 18 18C18.004 14.2882 19.4802 10.7295 22.1049 8.1049C24.7295 5.48025 28.2882 4.00398 32 4.00001Z" fill="#231F20"/>
<path d="M25.65 24.76L29.718 21.277C30.1968 21.6122 30.7434 21.8381 31.3192 21.9387C31.8949 22.0394 32.4858 22.0124 33.0499 21.8596C33.6141 21.7068 34.1378 21.432 34.584 21.0545C35.0303 20.6771 35.3882 20.2062 35.6324 19.6752C35.8767 19.1442 36.0013 18.5661 35.9975 17.9816C35.9938 17.3971 35.8616 16.8206 35.6105 16.2928C35.3594 15.765 34.9955 15.2988 34.5444 14.9272C34.0933 14.5555 33.5661 14.2875 33 14.142V6H31V14.142C30.1439 14.363 29.3851 14.8615 28.8423 15.5596C28.2995 16.2576 28.0033 17.1158 28 18C28.0034 18.6091 28.1479 19.2091 28.422 19.753L24.35 23.24L25.65 24.76ZM32 16C32.3956 16 32.7822 16.1173 33.1111 16.3371C33.44 16.5568 33.6964 16.8692 33.8478 17.2346C33.9991 17.6001 34.0387 18.0022 33.9616 18.3902C33.8844 18.7781 33.6939 19.1345 33.4142 19.4142C33.1345 19.6939 32.7781 19.8844 32.3902 19.9616C32.0022 20.0387 31.6001 19.9991 31.2346 19.8478C30.8692 19.6964 30.5568 19.44 30.3371 19.1111C30.1173 18.7822 30 18.3956 30 18C30 17.4696 30.2107 16.9609 30.5858 16.5858C30.9609 16.2107 31.4696 16 32 16ZM26 46H28C28 45.2043 27.6839 44.4413 27.1213 43.8787C26.5587 43.3161 25.7956 43 25 43V45C25.2652 45 25.5196 45.1054 25.7071 45.2929C25.8946 45.4804 26 45.7348 26 46ZM13 49H15C15 48.7348 15.1054 48.4804 15.2929 48.2929C15.4804 48.1054 15.7348 48 16 48V46C15.2044 46 14.4413 46.3161 13.8787 46.8787C13.3161 47.4413 13 48.2043 13 49Z" fill="#231F20"/>
</svg>
