<svg width="58" height="52" viewBox="0 0 58 52" fill="none" xmlns="http://www.w3.org/2000/svg">
<path d="M13.8112 18.429C13.8081 18.5339 13.8066 18.6373 13.8066 18.7422C13.8066 18.7924 13.8081 18.8425 13.8096 18.8927C13.8081 18.8425 13.8081 18.7924 13.8081 18.7422C13.8081 18.6373 13.8096 18.5339 13.8112 18.429Z" fill="white"/>
<path d="M57.9926 43.3311C57.9926 43.3844 57.9727 43.4391 57.9543 43.5319H41.4282C41.4282 42.1056 41.4221 40.7051 41.4405 39.3047C41.442 39.1846 41.5832 39.0097 41.7028 38.955C44.3766 37.7324 45.409 35.9169 44.9918 33.0172C44.7325 31.2184 44.1818 29.4925 43.2384 27.9294C42.8426 27.2741 42.3256 26.6491 41.7396 26.1549C40.7241 25.2973 39.3696 25.2852 38.3648 26.1519C37.7297 26.6993 37.1698 27.3927 36.751 28.1195C35.7723 29.8195 35.2308 31.6837 35.0129 33.6269C34.7583 35.9063 36.0346 37.9879 38.1715 38.8607C38.328 38.9246 38.486 38.9839 38.644 39.0447V43.5288H30.4078V39.145C31.0321 38.7756 31.6703 38.4927 32.1949 38.0715C33.6108 36.9357 34.2168 35.4136 34.0312 33.63C33.8302 31.6852 33.281 29.8195 32.2977 28.1225C31.8682 27.382 31.2914 26.6765 30.6394 26.12C29.6669 25.2913 28.3353 25.2958 27.3597 26.123C26.72 26.6658 26.1524 27.3531 25.7305 28.0769C24.7334 29.7891 24.1873 31.6715 23.9679 33.6345C23.7348 35.7208 24.8055 38.0959 27.622 39.0553V43.5319H19.3812V39.0675C19.7847 38.8729 20.2219 38.7147 20.6023 38.4699C22.3726 37.3325 23.1841 35.6903 22.9831 33.6224C22.799 31.7171 22.2176 29.9092 21.3187 28.2077C20.8232 27.271 20.2065 26.4332 19.2355 25.8508C19.3444 25.6866 19.4395 25.533 19.5469 25.387C22.8588 20.8695 26.1723 16.3519 29.4858 11.8358C30.325 10.6909 31.1027 10.6331 32.129 11.6503C35.8306 15.3179 39.5322 18.987 43.2322 22.6576C43.3795 22.8036 43.5038 22.9739 43.6771 23.1762C43.9011 22.9663 44.0668 22.8173 44.2232 22.6607C45.5133 21.3849 46.7973 20.1062 48.089 18.8319C48.9342 17.9987 49.735 18.0276 50.4775 18.9429C52.8552 21.8746 55.2283 24.8108 57.5815 27.7622C57.8024 28.0404 57.9758 28.4464 57.9773 28.7931C58.0019 33.6391 57.9942 38.4851 57.9926 43.3311Z" fill="#C10037"/>
<path d="M57.9911 50.6117C57.9604 51.4207 57.4189 51.9529 56.6074 51.9954C56.474 52.003 56.339 51.9985 56.2055 51.9985C38.0703 51.9985 19.9365 52.0015 1.80127 51.9818C1.33953 51.9802 0.842501 51.7886 0.431382 51.5621C0.216619 51.442 0.0432736 51.0542 0.0386715 50.7836C0.00492292 48.8509 0.0202632 46.9183 0.0202632 44.9568H57.9957V49.187C57.9957 49.6614 58.008 50.1373 57.9911 50.6117Z" fill="#C10037"/>
<path d="M16.577 43.5335H0.0524774C0.0386711 43.3967 0.0110587 43.2522 0.0110587 43.1093C0.0079906 41.6845 -0.0211559 40.2582 0.029467 38.8365C0.0432732 38.4305 0.19821 37.9622 0.445188 37.6429C3.38745 33.8491 6.35733 30.0751 9.32413 26.3011C10.0957 25.3188 10.8888 25.2762 11.7862 26.1566C12.5364 26.891 13.2681 27.6422 14.029 28.366C14.2775 28.6017 14.2698 28.7902 14.1732 29.108C13.736 30.5358 13.242 31.9606 12.972 33.4233C12.5395 35.7574 13.8695 37.9729 16.0999 38.8578C16.4528 38.9977 16.5985 39.1406 16.5893 39.5375C16.5586 40.8467 16.577 42.1574 16.577 43.5335Z" fill="#C10037"/>
<path d="M17.4959 10.4736C17.502 13.2501 15.2209 15.5097 12.4198 15.5036C9.64783 15.4975 7.38054 13.2486 7.3744 10.501C7.36827 7.7229 9.64783 5.46488 12.4505 5.47096C15.2271 5.47704 17.4898 7.72138 17.4959 10.4736Z" fill="#C10037"/>
<path d="M13.8081 2.26563C13.8081 2.60624 13.8327 2.94836 13.8035 3.28745C13.7437 4.01579 13.1454 4.55407 12.4306 4.55255C11.7219 4.55103 11.1067 4.00515 11.0684 3.27984C11.0331 2.6184 11.0346 1.9524 11.0668 1.29248C11.1006 0.561089 11.6973 0.0121679 12.4106 3.48754e-06C13.147 -0.0136815 13.7545 0.541322 13.8066 1.30008C13.8296 1.62092 13.8112 1.94327 13.8112 2.26563C13.8097 2.26563 13.8097 2.26563 13.8081 2.26563Z" fill="#C10037"/>
<path d="M6.44786 10.4858C6.44786 11.1898 5.90174 11.7858 5.17001 11.8436C4.82793 11.8725 4.48277 11.8497 4.13915 11.8497C3.81393 11.8512 3.48719 11.8695 3.16504 11.8467C2.4011 11.7934 1.83964 11.1883 1.85498 10.4599C1.86879 9.75285 2.42257 9.16439 3.16197 9.13094C3.82927 9.10053 4.50118 9.09749 5.16695 9.13246C5.90021 9.17199 6.44786 9.78022 6.44786 10.4858Z" fill="#C10037"/>
<path d="M23.0154 10.4568C23.0307 11.1608 22.4923 11.7736 21.7651 11.8405C21.4246 11.8724 21.0779 11.8466 20.7343 11.8466C20.7343 11.8481 20.7343 11.8481 20.7343 11.8496C20.3906 11.8496 20.0455 11.8709 19.7034 11.8451C18.9701 11.7858 18.4225 11.1943 18.4225 10.4872C18.421 9.78014 18.9655 9.17039 19.7003 9.13238C20.3876 9.09741 21.0779 9.09589 21.7636 9.13542C22.4677 9.17648 23 9.77405 23.0154 10.4568Z" fill="#C10037"/>
<path d="M13.8096 18.8928C13.8143 19.165 13.8265 19.4387 13.8035 19.7078C13.7422 20.4362 13.1469 20.976 12.4336 20.9744C11.7218 20.9744 11.1067 20.4286 11.0683 19.7033C11.0331 19.0236 11.0315 18.3378 11.0714 17.6581C11.1144 16.9602 11.7203 16.4341 12.4091 16.4219C13.1224 16.4082 13.736 16.9389 13.802 17.6642C13.825 17.9166 13.8173 18.172 13.8112 18.429C13.8096 18.5339 13.8081 18.6373 13.8081 18.7423C13.8081 18.7924 13.8081 18.8426 13.8096 18.8928Z" fill="#C10037"/>
<path d="M8.6139 5.34618C8.5955 5.87381 8.35312 6.29197 7.8653 6.53982C7.356 6.79831 6.8375 6.77702 6.41564 6.40753C5.85726 5.91943 5.32649 5.39484 4.83713 4.83983C4.46436 4.41864 4.45976 3.89709 4.71901 3.39987C4.96906 2.91937 5.39398 2.69585 5.93243 2.67456C6.43559 2.67608 7.28697 3.31472 7.89445 4.00809C7.95887 4.08108 8.02024 4.15558 8.07853 4.22857C8.40374 4.64216 8.62311 5.05575 8.6139 5.34618Z" fill="#C10037"/>
<path d="M8.39607 16.3307C7.86223 16.9693 7.23788 17.5365 6.61967 18.096C6.45399 18.2466 6.16253 18.2603 6.02907 18.3044C5.37864 18.274 4.95985 18.0428 4.71134 17.5608C4.46743 17.0834 4.45976 16.5724 4.81259 16.1695C5.32495 15.5841 5.8772 15.0245 6.47394 14.5243C6.9771 14.1015 7.73184 14.2125 8.20125 14.6718C8.65686 15.1158 8.80105 15.8441 8.39607 16.3307Z" fill="#C10037"/>
<path d="M20.3155 4.04469C20.2695 4.90684 18.4823 6.68285 17.677 6.69046C17.1201 6.69654 16.6798 6.44869 16.4206 5.94538C16.1613 5.44208 16.1843 4.92813 16.5571 4.50998C17.0495 3.95954 17.5803 3.43342 18.1402 2.94989C18.5652 2.58343 19.0929 2.58191 19.5899 2.84193C20.0946 3.10346 20.3155 3.54443 20.3155 4.04469Z" fill="#C10037"/>
<path d="M20.1559 17.5639C19.9105 18.0459 19.4886 18.2755 18.9011 18.2998C18.1034 18.3044 16.2426 16.4827 16.2641 15.6449C16.2779 15.1188 16.5172 14.6991 17.002 14.4482C17.5082 14.1867 18.0267 14.2004 18.4501 14.5653C19.01 15.0504 19.5377 15.5765 20.0286 16.1285C20.4029 16.5481 20.409 17.0666 20.1559 17.5639Z" fill="#C10037"/>
</svg>
