<svg width="59" height="70" viewBox="0 0 59 70" fill="none" xmlns="http://www.w3.org/2000/svg">
<path d="M34.4797 13.5896V13.6094H34.5007V13.5896H34.4797ZM10.4335 13.5896V13.6094H10.4526V13.5896H10.4335Z" fill="white"/>
<path d="M10.4534 13.5896V13.6101L10.4335 13.5896H10.4534Z" fill="#C10037"/>
<path d="M12.6736 13.5896L12.6537 13.6101C12.6537 13.6026 12.6555 13.597 12.6555 13.5896H12.6736Z" fill="#C10037"/>
<path d="M32.2794 13.5896V13.6082L32.2612 13.5896H32.2794Z" fill="#C10037"/>
<path d="M34.4797 13.5896H32.2786C32.2403 12.8134 32.2542 12.03 32.1549 11.2609C31.5536 6.59262 27.9009 3.04379 23.253 2.58199C18.8944 2.14895 14.5533 5.04551 13.2236 9.44066C13.1922 9.54309 13.1643 9.6473 13.1382 9.75332C13.0998 9.89887 13.0667 10.0462 13.0388 10.1936C13.004 10.3625 12.9761 10.535 12.9517 10.7075C12.9377 10.7955 12.9255 10.8836 12.9151 10.9734C12.9029 11.0596 12.8924 11.1477 12.8837 11.2357C12.8367 11.6454 12.8036 12.0605 12.7687 12.4738C12.7652 12.5133 12.7617 12.5529 12.7582 12.5942C12.7443 12.7505 12.7304 12.9086 12.7147 13.0668C12.6972 13.2411 12.6781 13.4154 12.6554 13.5896H10.4526C10.3149 7.99598 12.6171 3.86676 17.5089 1.39785C18.6365 0.828242 19.9383 0.626992 21.16 0.256836H23.7741C24.5513 0.449102 25.3443 0.587461 26.1024 0.839023C31.4404 2.61434 34.6941 7.58269 34.4797 13.5896Z" fill="#C10037"/>
<path d="M34.5015 13.5896L34.4797 13.6101V13.5896H34.5015Z" fill="#C10037"/>
<path d="M57.9753 66.0639C57.747 63.6524 57.5658 61.2338 57.3688 58.8188C57.0029 54.2997 56.6404 49.7806 56.2727 45.2614C55.8527 40.0954 55.4292 34.9276 55.0057 29.7598C54.8907 28.3564 54.7687 26.9549 54.6484 25.5317H16.4389C16.4023 25.8372 16.357 26.1211 16.3344 26.405C16.1845 28.263 16.0433 30.1192 15.8917 31.9771C15.3881 38.1045 14.8792 44.2336 14.3773 50.3628C13.9468 55.5971 13.532 60.8313 13.0894 66.0639C12.9116 68.1788 13.8213 69.2569 15.8656 69.2569H55.2026C57.2468 69.2569 58.1722 68.1608 57.9753 66.0639ZM47.2888 39.8672C46.2118 45.8167 40.9505 49.9351 34.8509 49.7195C29.262 49.5218 24.29 44.8266 23.6539 39.0119C23.4744 37.3731 23.626 35.6967 23.626 34.0381H23.5092C23.5092 32.6905 23.504 31.3428 23.511 29.997C23.5162 29.1722 23.9205 28.6942 24.5949 28.6799C25.2973 28.6655 25.7295 29.1578 25.7329 30.0113C25.7382 32.3922 25.7312 34.7713 25.7364 37.1521C25.7504 43.2058 30.3529 47.716 36.2155 47.4195C41.137 47.1715 45.2464 42.744 45.3248 37.5618C45.3631 35.048 45.3318 32.5324 45.337 30.0185C45.3387 29.2441 45.6751 28.7787 46.2693 28.6906C46.9211 28.5918 47.552 29.0321 47.5398 29.7203C47.4753 33.1038 47.8953 36.5124 47.2888 39.8672Z" fill="#C10037"/>
<path d="M10.4534 13.6101H10.4335V13.5896L10.4534 13.6101Z" fill="#C10037"/>
<path d="M12.6736 13.5896V13.6101H12.6537L12.6736 13.5896Z" fill="#C10037"/>
<path d="M32.2794 13.6082H32.2612V13.5896L32.2794 13.6082Z" fill="#C10037"/>
<path d="M34.5015 13.5896V13.6101H34.4797L34.5015 13.5896Z" fill="#C10037"/>
<path d="M41.4577 13.6095V23.2012H15.9684C14.5812 23.2012 14.3355 23.4725 14.2204 24.9226C13.8144 29.9988 13.3857 35.0731 12.9726 40.1493C12.6032 44.6666 12.2424 49.1858 11.8765 53.7031C11.7806 54.8855 11.6778 56.066 11.575 57.3059C11.3153 57.3166 11.08 57.3364 10.8465 57.3382C8.147 57.34 5.44576 57.3418 2.74626 57.3382C0.780459 57.3346 -0.150163 56.2349 0.0206256 54.2188C0.463281 49.0097 0.876309 43.7988 1.30328 38.5878C1.7651 32.9762 2.23042 27.3627 2.6905 21.7511C2.88743 19.3577 3.07041 16.9642 3.26386 14.5708C3.28826 14.2617 3.33182 13.9527 3.37016 13.6095H10.4335C10.437 14.9715 10.4335 16.3353 10.4439 17.6956C10.4509 18.5491 10.8831 19.036 11.5907 19.0181C12.2651 19.0001 12.6624 18.5257 12.6677 17.6956C12.6764 16.3353 12.6711 14.9715 12.6729 13.6095C19.2029 13.6077 25.733 13.6077 32.2612 13.6077C32.2647 14.9481 32.2647 16.2868 32.2717 17.6291C32.2752 18.5149 32.6568 18.9983 33.3505 19.0181C34.0772 19.036 34.4902 18.5419 34.4954 17.6291C34.5007 16.2904 34.4989 14.9481 34.5007 13.6095H41.4577Z" fill="#C10037"/>
<path d="M12.6555 13.5896H12.6736V13.6101H12.6537C12.6537 13.6026 12.6555 13.597 12.6555 13.5896Z" fill="white"/>
<path d="M32.2794 13.5896H32.2612V13.6082H32.2794V13.5896Z" fill="white"/>
<path d="M10.4534 13.5896H10.4335V13.6101H10.4534V13.5896Z" fill="white"/>
<path d="M12.6736 13.5896V13.6101H12.6537C12.6537 13.6026 12.6555 13.597 12.6555 13.5896H12.6736Z" fill="white"/>
<path d="M32.2794 13.5896H32.2612V13.6082H32.2794V13.5896Z" fill="white"/>
<path d="M34.5015 13.5896H34.4797V13.6101H34.5015V13.5896Z" fill="white"/>
</svg>
