<svg width="60" height="38" viewBox="0 0 60 38" fill="none" xmlns="http://www.w3.org/2000/svg">
<path d="M16.999 21.0144C16.7338 21.0144 16.4795 21.1198 16.292 21.3073C16.1044 21.4948 15.9991 21.7492 15.999 22.0144V28.0144C15.9991 28.2796 16.1044 28.534 16.292 28.7215C16.4795 28.909 16.7338 29.0144 16.999 29.0144H42.999C43.2642 29.0144 43.5186 28.909 43.7061 28.7215C43.8936 28.534 43.999 28.2796 43.999 28.0144V22.0144C43.999 21.7492 43.8936 21.4948 43.7061 21.3073C43.5186 21.1198 43.2642 21.0144 42.999 21.0144H16.999ZM17.999 23.0144H41.999V27.0144H17.999V23.0144ZM0.999023 21.0144C0.733815 21.0144 0.479492 21.1198 0.291962 21.3073C0.104431 21.4948 -0.000950093 21.7492 -0.000976562 22.0144V28.0144C-0.000950093 28.2796 0.104431 28.534 0.291962 28.7215C0.479492 28.909 0.733815 29.0144 0.999023 29.0144H4.99902C5.26423 29.0144 5.51859 28.909 5.70612 28.7215C5.89365 28.534 5.999 28.2796 5.99902 28.0144V22.0144C5.999 21.7492 5.89365 21.4948 5.70612 21.3073C5.51859 21.1198 5.26423 21.0144 4.99902 21.0144H0.999023ZM1.99902 23.0144H3.99902V27.0144H1.99902V23.0144ZM54.999 21.0144C54.7338 21.0144 54.4795 21.1198 54.292 21.3073C54.1044 21.4948 53.9991 21.7492 53.999 22.0144V28.0144C53.9991 28.2796 54.1044 28.534 54.292 28.7215C54.4795 28.909 54.7338 29.0144 54.999 29.0144H58.999C59.2642 29.0144 59.5186 28.909 59.7061 28.7215C59.8936 28.534 59.999 28.2796 59.999 28.0144V22.0144C59.999 21.7492 59.8936 21.4948 59.7061 21.3073C59.5186 21.1198 59.2642 21.0144 58.999 21.0144H54.999ZM55.999 23.0144H57.999V27.0144H55.999V23.0144Z" fill="#F8B84E"/>
<path fill-rule="evenodd" clip-rule="evenodd" d="M10.9833 0.986995C10.7188 0.991135 10.4667 1.09992 10.2822 1.28955C10.0977 1.47917 9.99582 1.73417 9.99893 1.99871V7.99871C9.99705 8.13123 10.0215 8.26277 10.0709 8.38574C10.1204 8.50871 10.1937 8.62065 10.2868 8.71502C10.3798 8.80939 10.4907 8.88433 10.6129 8.93548C10.7352 8.98663 10.8664 9.013 10.9989 9.013C11.1315 9.013 11.2627 8.98663 11.3849 8.93548C11.5072 8.88433 11.618 8.80939 11.7111 8.71502C11.8041 8.62065 11.8775 8.50871 11.9269 8.38574C11.9763 8.26277 12.0008 8.13123 11.9989 7.99871V1.99871C12.0005 1.86509 11.9753 1.73253 11.9247 1.60882C11.8742 1.48511 11.7994 1.37275 11.7047 1.27844C11.61 1.18413 11.4974 1.10974 11.3735 1.05969C11.2496 1.00963 11.1169 0.984911 10.9833 0.986995ZM18.5536 0.986995C18.3401 0.998046 18.1358 1.07721 17.9706 1.21289C17.8054 1.34856 17.688 1.53363 17.6356 1.7409L16.038 7.7409C15.996 7.87006 15.9808 8.00642 15.9932 8.14166C16.0057 8.27689 16.0455 8.40813 16.1104 8.52746C16.1752 8.64679 16.2637 8.75167 16.3704 8.83569C16.477 8.91971 16.5997 8.98111 16.731 9.01617C16.8622 9.05123 16.9991 9.05921 17.1335 9.03961C17.2679 9.02 17.3969 8.97324 17.5126 8.90216C17.6283 8.83108 17.7283 8.73716 17.8066 8.62616C17.8848 8.51515 17.9396 8.3894 17.9677 8.25653L19.5692 2.25653C19.6123 2.10354 19.6182 1.94248 19.5866 1.78674C19.555 1.63099 19.4867 1.48505 19.3874 1.36096C19.2882 1.23686 19.1607 1.13821 19.0157 1.07318C18.8707 1.00815 18.7123 0.978591 18.5536 0.986995ZM2.95205 0.986995C2.79582 0.992979 2.64316 1.03554 2.50634 1.1112C2.36952 1.18686 2.25236 1.29352 2.16424 1.42266C2.07612 1.55181 2.01949 1.69986 1.99893 1.85485C1.97836 2.00984 1.99441 2.16746 2.0458 2.31512L4.0458 8.31512C4.08735 8.43977 4.15307 8.55503 4.23916 8.65429C4.32525 8.75356 4.43005 8.83491 4.54757 8.89367C4.6651 8.95243 4.79303 8.98745 4.9241 8.99676C5.05516 9.00607 5.18677 8.98948 5.31143 8.94793C5.43608 8.90638 5.55134 8.84066 5.6506 8.75457C5.74986 8.66848 5.83119 8.56369 5.88995 8.44616C5.94871 8.32864 5.98375 8.2007 5.99307 8.06964C6.00238 7.93857 5.98579 7.80696 5.94424 7.68231L3.94424 1.68231C3.87771 1.47382 3.74464 1.29289 3.56542 1.16729C3.38621 1.0417 3.17073 0.978371 2.95205 0.986995ZM49.1825 0.986995C48.9173 0.990106 48.6642 1.09847 48.4788 1.2882C48.2935 1.47794 48.1911 1.7335 48.1942 1.99871V7.99871C48.1924 8.13123 48.2168 8.26277 48.2663 8.38574C48.3157 8.50871 48.389 8.62065 48.4821 8.71502C48.5751 8.80939 48.686 8.88433 48.8083 8.93548C48.9305 8.98663 49.0617 9.013 49.1942 9.013C49.3268 9.013 49.458 8.98663 49.5802 8.93548C49.7025 8.88433 49.8134 8.80939 49.9064 8.71502C49.9994 8.62065 50.0728 8.50871 50.1222 8.38574C50.1716 8.26277 50.1961 8.13123 50.1942 7.99871V1.99871C50.1958 1.86542 50.1707 1.73319 50.1204 1.60974C50.0701 1.48629 49.9957 1.3741 49.9014 1.27984C49.8071 1.18558 49.695 1.11114 49.5715 1.06085C49.4481 1.01055 49.3158 0.985439 49.1825 0.986995ZM56.7489 0.986995C56.5361 0.998856 56.3327 1.07843 56.1682 1.21405C56.0038 1.34966 55.887 1.53424 55.8349 1.7409L54.2333 7.7409C54.1994 7.86786 54.1909 8.00024 54.2082 8.13049C54.2256 8.26074 54.2683 8.38634 54.3342 8.50006C54.4 8.61377 54.4876 8.71341 54.5919 8.79327C54.6963 8.87313 54.8153 8.93166 54.9423 8.96551C55.0692 8.99937 55.2017 9.0079 55.3319 8.9906C55.4622 8.97329 55.5877 8.93046 55.7014 8.86462C55.8151 8.79879 55.9148 8.71121 55.9946 8.60687C56.0745 8.50253 56.133 8.38349 56.1669 8.25653L57.7646 2.25653C57.8076 2.10354 57.8135 1.94248 57.7819 1.78674C57.7503 1.63099 57.682 1.48505 57.5828 1.36096C57.4835 1.23686 57.3561 1.13821 57.2111 1.07318C57.066 1.00815 56.9076 0.978591 56.7489 0.986995ZM41.1513 0.986995C40.9947 0.992385 40.8416 1.03451 40.7043 1.10992C40.567 1.18533 40.4493 1.29191 40.3607 1.42114C40.2722 1.55037 40.2152 1.6986 40.1944 1.85388C40.1736 2.00916 40.1896 2.16716 40.2411 2.31512L42.2411 8.31512C42.325 8.56687 42.5055 8.775 42.7429 8.89367C42.9802 9.01235 43.255 9.03185 43.5067 8.94793C43.7585 8.86402 43.9666 8.68351 44.0853 8.44616C44.2039 8.20881 44.2235 7.93406 44.1396 7.68231L42.1396 1.68231C42.0732 1.47448 41.9407 1.29404 41.7623 1.16851C41.5839 1.04298 41.3693 0.979238 41.1513 0.986995Z" fill="#34485C"/>
<path d="M4.99902 13.0144C4.73382 13.0144 4.47949 13.1198 4.29196 13.3073C4.10443 13.4948 3.99905 13.7492 3.99902 14.0144V36.0144C3.99905 36.2796 4.10443 36.534 4.29196 36.7215C4.47949 36.909 4.73382 37.0144 4.99902 37.0144H16.999C17.2642 37.0144 17.5186 36.909 17.7061 36.7215C17.8936 36.534 17.999 36.2796 17.999 36.0144V14.0144C17.999 13.7492 17.8936 13.4948 17.7061 13.3073C17.5186 13.1198 17.2642 13.0144 16.999 13.0144H4.99902ZM5.99902 15.0144H15.999V35.0144H5.99902V15.0144ZM42.999 13.0144C42.7338 13.0144 42.4795 13.1198 42.292 13.3073C42.1044 13.4948 41.9991 13.7492 41.999 14.0144V36.0144C41.9991 36.2796 42.1044 36.534 42.292 36.7215C42.4795 36.909 42.7338 37.0144 42.999 37.0144H54.999C55.2642 37.0144 55.5186 36.909 55.7061 36.7215C55.8936 36.534 55.999 36.2796 55.999 36.0144V14.0144C55.999 13.7492 55.8936 13.4948 55.7061 13.3073C55.5186 13.1198 55.2642 13.0144 54.999 13.0144H42.999ZM43.999 15.0144H53.999V35.0144H43.999V15.0144Z" fill="#34485C"/>
<path fill-rule="evenodd" clip-rule="evenodd" d="M9.99902 15.0144V35.0144H11.999V15.0144H9.99902ZM47.999 15.0144V35.0144H49.999V15.0144H47.999Z" fill="#34485C"/>
</svg>
