<svg width="18" height="15" viewBox="0 0 18 15" fill="none" xmlns="http://www.w3.org/2000/svg">
<path d="M16.8371 13.1869H16.2705V5.82023C16.2705 5.51965 16.1511 5.23138 15.9385 5.01884C15.726 4.8063 15.4377 4.6869 15.1371 4.6869H10.6038V1.2869C10.6038 0.986319 10.4844 0.698051 10.2719 0.48551C10.0593 0.272969 9.77105 0.153564 9.47048 0.153564H2.67048C2.3699 0.153564 2.08163 0.272969 1.86909 0.48551C1.65655 0.698051 1.53714 0.986319 1.53714 1.2869V13.1869H0.970475C0.820186 13.1869 0.676052 13.2466 0.569781 13.3529C0.463511 13.4591 0.403809 13.6033 0.403809 13.7536C0.403809 13.9039 0.463511 14.048 0.569781 14.1543C0.676052 14.2605 0.820186 14.3202 0.970475 14.3202H16.8371C16.9874 14.3202 17.1316 14.2605 17.2378 14.1543C17.3441 14.048 17.4038 13.9039 17.4038 13.7536C17.4038 13.6033 17.3441 13.4591 17.2378 13.3529C17.1316 13.2466 16.9874 13.1869 16.8371 13.1869ZM15.1371 5.82023V13.1869H10.6038V5.82023H15.1371ZM2.67048 1.2869H9.47048V13.1869H2.67048V1.2869ZM3.80381 3.55356C3.80381 3.40328 3.86351 3.25914 3.96978 3.15287C4.07605 3.0466 4.22019 2.9869 4.37048 2.9869H6.63714C6.78743 2.9869 6.93156 3.0466 7.03784 3.15287C7.14411 3.25914 7.20381 3.40328 7.20381 3.55356C7.20381 3.70385 7.14411 3.84799 7.03784 3.95426C6.93156 4.06053 6.78743 4.12023 6.63714 4.12023H4.37048C4.22019 4.12023 4.07605 4.06053 3.96978 3.95426C3.86351 3.84799 3.80381 3.70385 3.80381 3.55356ZM8.33714 8.0869C8.33714 8.23719 8.27744 8.38132 8.17117 8.48759C8.0649 8.59386 7.92076 8.65356 7.77048 8.65356H5.50381C5.35352 8.65356 5.20939 8.59386 5.10311 8.48759C4.99684 8.38132 4.93714 8.23719 4.93714 8.0869C4.93714 7.93661 4.99684 7.79247 5.10311 7.6862C5.20939 7.57993 5.35352 7.52023 5.50381 7.52023H7.77048C7.92076 7.52023 8.0649 7.57993 8.17117 7.6862C8.27744 7.79247 8.33714 7.93661 8.33714 8.0869ZM7.20381 10.9202C7.20381 11.0705 7.14411 11.2147 7.03784 11.3209C6.93156 11.4272 6.78743 11.4869 6.63714 11.4869H4.37048C4.22019 11.4869 4.07605 11.4272 3.96978 11.3209C3.86351 11.2147 3.80381 11.0705 3.80381 10.9202C3.80381 10.7699 3.86351 10.6258 3.96978 10.5195C4.07605 10.4133 4.22019 10.3536 4.37048 10.3536H6.63714C6.78743 10.3536 6.93156 10.4133 7.03784 10.5195C7.14411 10.6258 7.20381 10.7699 7.20381 10.9202ZM14.0038 10.9202C14.0038 11.0705 13.9441 11.2147 13.8378 11.3209C13.7316 11.4272 13.5874 11.4869 13.4371 11.4869H12.3038C12.1535 11.4869 12.0094 11.4272 11.9031 11.3209C11.7968 11.2147 11.7371 11.0705 11.7371 10.9202C11.7371 10.7699 11.7968 10.6258 11.9031 10.5195C12.0094 10.4133 12.1535 10.3536 12.3038 10.3536H13.4371C13.5874 10.3536 13.7316 10.4133 13.8378 10.5195C13.9441 10.6258 14.0038 10.7699 14.0038 10.9202ZM11.7371 8.0869C11.7371 7.93661 11.7968 7.79247 11.9031 7.6862C12.0094 7.57993 12.1535 7.52023 12.3038 7.52023H13.4371C13.5874 7.52023 13.7316 7.57993 13.8378 7.6862C13.9441 7.79247 14.0038 7.93661 14.0038 8.0869C14.0038 8.23719 13.9441 8.38132 13.8378 8.48759C13.7316 8.59386 13.5874 8.65356 13.4371 8.65356H12.3038C12.1535 8.65356 12.0094 8.59386 11.9031 8.48759C11.7968 8.38132 11.7371 8.23719 11.7371 8.0869Z" fill="#7C7C7C"/>
</svg>
