<svg width="20" height="20" viewBox="0 0 20 20" fill="none" xmlns="http://www.w3.org/2000/svg">
<path d="M9.51642 18.1792C9.66142 18.2817 9.83058 18.3334 9.99975 18.3334C10.1689 18.3334 10.3381 18.2817 10.4831 18.1792C10.7364 17.9984 16.6906 13.7001 16.6664 8.33342C16.6664 4.65758 13.6756 1.66675 9.99975 1.66675C6.32391 1.66675 3.33308 4.65758 3.33308 8.33008C3.30891 13.7001 9.26308 17.9984 9.51642 18.1792ZM9.99975 3.33341C12.7572 3.33341 14.9997 5.57591 14.9997 8.33675C15.0172 12.0351 11.3431 15.3559 9.99975 16.4459C8.65725 15.3559 4.98225 12.0351 4.99975 8.33342C4.99975 5.57591 7.24225 3.33341 9.99975 3.33341Z" fill="#C10037"/>
<path d="M9.16699 11.6667H10.8337V9.16667H13.3337V7.5H10.8337V5H9.16699V7.5H6.66699V9.16667H9.16699V11.6667Z" fill="#0D233E"/>
</svg>
