<svg width="22" height="25" viewBox="0 0 22 25" fill="none" xmlns="http://www.w3.org/2000/svg">
<path fill-rule="evenodd" clip-rule="evenodd" d="M10.9958 24.5187C11.6534 24.5187 12.3111 24.5225 12.9687 24.5172C13.3903 24.5138 13.5277 24.365 13.5304 23.9223C13.5337 23.3684 13.5384 22.8144 13.5294 22.2605C13.5204 21.707 13.7269 21.286 14.1604 20.9654C15.2684 20.1459 15.947 19.0304 16.2057 17.6343C16.2705 17.2838 16.2877 16.9466 16.0932 16.6186C16.0502 16.5462 16.1085 16.3685 16.1691 16.2735C17.3376 14.4428 18.5135 12.6173 19.6879 10.7907C20.0733 10.1911 20.4488 9.58422 20.8483 8.99516C21.058 8.68606 21.2935 8.39189 21.5459 8.12015C22.0322 7.59667 22.1436 6.87219 21.8038 6.18398C20.9795 4.51502 19.7349 3.28777 18.1786 2.38273C15.468 0.806131 12.5528 0.320731 9.49845 0.590478C7.28465 0.785959 5.21821 1.46349 3.32137 2.69581C2.01834 3.54232 0.988005 4.65369 0.25729 6.06638C-0.358683 7.25727 0.168087 8.34775 1.44765 8.55996C1.53375 8.57425 1.63452 8.66245 1.68067 8.74549C3.08128 11.2618 4.4774 13.7808 5.86463 16.3052C5.91226 16.3919 5.87171 16.5405 5.85307 16.6568C5.81313 16.9067 5.69278 17.1642 5.72444 17.4012C5.91907 18.8577 6.5793 20.0458 7.72334 20.9041C8.21905 21.2761 8.45371 21.7291 8.42196 22.3659C8.39668 22.8732 8.41471 23.383 8.41756 23.8917C8.42015 24.3616 8.56732 24.5154 9.02292 24.5178C9.68056 24.5216 10.3381 24.5189 10.9958 24.5187ZM7.18052 16.2064C7.77881 13.2819 8.37054 10.4021 8.95261 7.52014C8.99971 7.28703 9.09617 7.20697 9.31607 7.20806C10.4047 7.21376 11.4936 7.22009 12.582 7.1992C12.914 7.19277 13.0107 7.34312 13.0712 7.65221C13.5082 9.88608 13.9614 12.1163 14.4082 14.3481C14.531 14.9617 14.6492 15.5764 14.7735 16.2101C14.1357 16.2705 13.8536 16.6346 13.7564 17.2392C13.6784 17.7249 13.4649 18.161 13.0464 18.5495C13.3404 17.3834 13.1133 16.447 12.2025 15.7917C11.4514 15.2512 10.6299 15.2216 9.85621 15.7236C8.85012 16.3763 8.60192 17.3615 8.92492 18.5896C8.52859 18.1782 8.2866 17.7539 8.20809 17.2515C8.11259 16.6397 7.82091 16.2604 7.18052 16.2064ZM8.1521 6.32139C8.04565 6.34029 7.96334 6.36164 7.88 6.3687C5.8133 6.54482 3.78275 6.92692 1.79541 7.55008C1.50123 7.64235 1.24026 7.63792 1.03701 7.36636C0.834873 7.09625 0.892849 6.82786 1.03761 6.54672C1.74866 5.16677 2.77364 4.11755 4.06209 3.33472C5.19491 2.6466 6.39054 2.13578 7.71514 1.84568C7.86197 3.34865 8.00622 4.82638 8.1521 6.32139ZM12.9453 6.23961C11.6198 6.23961 10.3436 6.23961 9.05424 6.23961C8.90516 4.70471 8.75842 3.19288 8.60986 1.66214C10.2217 1.40678 11.7927 1.40334 13.3912 1.6644C13.2413 3.20337 13.0939 4.71611 12.9453 6.23961ZM7.21788 17.1721C7.24307 17.213 7.2598 17.2304 7.26541 17.2509C7.28327 17.3158 7.29768 17.3817 7.312 17.4476C7.49006 18.2691 7.89131 18.9441 8.51065 19.4815C8.92552 19.8414 9.3875 20.0263 9.93454 20.0117C10.6665 19.9924 11.3993 20.0035 12.1316 20.0083C12.5448 20.011 12.914 19.8843 13.2495 19.6354C13.8958 19.156 14.3421 18.5244 14.5725 17.7287C14.6246 17.5487 14.6661 17.3655 14.7114 17.1878C14.9263 17.1878 15.1169 17.1878 15.3027 17.1878C15.3142 17.2247 15.3264 17.2457 15.3261 17.2664C15.3254 17.3114 15.3212 17.3567 15.3137 17.4009C15.1205 18.5422 14.5976 19.4788 13.6899 20.1457C12.9453 20.6928 12.5957 21.4196 12.6238 22.3646C12.6354 22.7559 12.6257 23.148 12.6257 23.5395C11.5041 23.5395 10.4246 23.5395 9.32194 23.5395C9.32194 23.0374 9.3272 22.5647 9.32073 22.0921C9.31072 21.3566 9.01809 20.7653 8.46932 20.3115C8.33414 20.1997 8.18929 20.1003 8.05764 19.9844C7.24048 19.2655 6.76056 18.353 6.6082 17.2071C6.83164 17.1943 7.03084 17.1828 7.21788 17.1721ZM17.0761 6.74383C15.9726 6.59611 14.9203 6.45527 13.8488 6.3118C13.9955 4.81598 14.1402 3.33897 14.287 1.84206C15.6219 2.15324 16.834 2.64551 17.9727 3.36584C17.6686 4.51113 17.3722 5.62793 17.0761 6.74383ZM16.8525 7.67193C16.3585 9.92815 15.8759 12.1331 15.3932 14.338C15.3718 14.3369 15.3505 14.3358 15.3292 14.3347C14.8625 12.0057 14.396 9.67667 13.9147 7.27545C14.9232 7.41168 15.8673 7.53905 16.8525 7.67193ZM6.64581 14.2996C6.62002 14.3036 6.59423 14.3076 6.56834 14.3115C6.09731 12.1129 5.62635 9.91422 5.14565 7.67067C6.14847 7.5367 7.09244 7.4106 8.083 7.27835C7.59298 9.67215 7.11944 11.9859 6.64581 14.2996ZM16.4222 14.1678C16.4037 14.158 16.3852 14.1481 16.3667 14.1384C16.824 12.0532 17.2813 9.96804 17.7448 7.85439C18.5347 8.06742 19.2882 8.27077 20.0783 8.4838C18.8361 10.4149 17.6291 12.2913 16.4222 14.1678ZM18.768 3.91781C19.7298 4.64836 20.4566 5.53476 20.9904 6.60045C21.129 6.87707 21.1466 7.1375 20.9501 7.38617C20.7603 7.62643 20.5168 7.64326 20.2466 7.56492C19.6673 7.39694 19.0862 7.23529 18.5049 7.07491C18.3339 7.02778 18.1595 6.99395 17.9643 6.94881C18.2372 5.91912 18.498 4.93565 18.768 3.91781ZM4.25957 7.87592C4.67323 9.80757 5.07965 11.7057 5.48616 13.6039C5.46848 13.6102 5.45096 13.6164 5.43336 13.6227C4.46058 11.8645 3.4877 10.1064 2.50266 8.32631C2.82083 8.23612 3.07869 8.15724 3.3394 8.09085C3.63169 8.01631 3.92665 7.95308 4.25957 7.87592ZM10.994 16.3445C11.7056 16.3502 12.2829 16.966 12.2762 17.712C12.2695 18.4495 11.665 19.069 10.9646 19.056C10.2479 19.0428 9.68669 18.4362 9.69247 17.6809C9.69825 16.9256 10.2699 16.3387 10.994 16.3445Z" fill="#0F278A"/>
<path fill-rule="evenodd" clip-rule="evenodd" d="M8.15234 6.32141C8.00646 4.82649 7.86222 3.34867 7.71547 1.8457C6.39087 2.1358 5.19524 2.64662 4.06242 3.33474C2.77396 4.11748 1.74898 5.1668 1.03794 6.54674C0.893175 6.82789 0.835201 7.09619 1.03733 7.36639C1.2405 7.63794 1.50147 7.64238 1.79574 7.55011C3.78307 6.92694 5.81363 6.54493 7.88033 6.36872C7.96358 6.36166 8.04589 6.34032 8.15234 6.32141Z" fill="#F5CD07" fill-opacity="0.9"/>
<path fill-rule="evenodd" clip-rule="evenodd" d="M12.9456 6.23971C13.0941 4.7162 13.2416 3.20347 13.3916 1.66459C11.7931 1.40343 10.2221 1.40687 8.61022 1.66232C8.75877 3.19306 8.90552 4.70481 9.0546 6.2398C10.3439 6.23971 11.62 6.23971 12.9456 6.23971Z" fill="#F5CD07" fill-opacity="0.9"/>
<path fill-rule="evenodd" clip-rule="evenodd" d="M17.0761 6.74356C17.3723 5.62767 17.6686 4.51087 17.9727 3.36557C16.8341 2.64525 15.622 2.15297 14.287 1.8418C14.1402 3.3387 13.9955 4.81571 13.8488 6.31153C14.9203 6.455 15.9726 6.59584 17.0761 6.74356Z" fill="#F5CD07" fill-opacity="0.9"/>
<path fill-rule="evenodd" clip-rule="evenodd" d="M18.7677 3.91797C18.4978 4.93581 18.237 5.91936 17.964 6.94896C18.1592 6.9941 18.3335 7.02802 18.5045 7.07506C19.0859 7.23535 19.6669 7.397 20.2463 7.56507C20.5165 7.64341 20.76 7.62659 20.9498 7.38633C21.1462 7.13766 21.1286 6.87723 20.9901 6.60061C20.4562 5.53491 19.7295 4.64851 18.7677 3.91797Z" fill="#F5CD07" fill-opacity="0.9"/>
<path fill-rule="evenodd" clip-rule="evenodd" d="M10.9942 16.3443C10.2699 16.3386 9.69828 16.9255 9.69258 17.6807C9.68689 18.436 10.248 19.0427 10.9647 19.0559C11.6651 19.0688 12.2697 18.4492 12.2763 17.7118C12.283 16.9657 11.7057 16.35 10.9942 16.3443Z" fill="#F5CD07" fill-opacity="0.9"/>
</svg>
