<svg width="40" height="51" viewBox="0 0 40 51" fill="none" xmlns="http://www.w3.org/2000/svg">
<path d="M24.5477 50.0569C23.6 49.9656 22.6523 49.8743 21.7178 49.77C19.5065 49.5092 17.3742 48.9353 15.3736 47.9442C15.0577 47.7877 14.6628 47.6964 14.3074 47.6834C11.4776 47.6182 8.66085 47.5138 5.88362 46.9139C4.59372 46.627 3.33015 46.2097 2.10606 45.7272C1.51376 45.4925 0.960946 45.023 0.513431 44.5535C-0.0788694 43.9275 -0.131518 43.1581 0.289673 42.3756C1.52692 40.0934 2.98793 37.9546 4.60688 35.9202C4.90961 35.542 5.35713 35.4638 5.68618 35.7115C6.04156 35.9724 6.06789 36.4027 5.752 36.8331C4.81748 38.1372 3.89612 39.4283 2.9616 40.7324C2.85631 40.8759 2.7905 41.0324 2.6852 41.2019C6.37062 41.3062 9.45058 42.9625 12.5437 44.6317C13.9784 45.4142 15.3867 46.2749 16.8609 46.9661C19.0195 47.9964 21.3624 48.3876 23.7316 48.4528C26.1271 48.518 28.5226 48.4398 30.9182 48.4137C31.4315 48.4137 31.8 48.6615 31.8264 49.1049C31.8527 49.5092 31.55 49.8221 31.0498 49.8743C30.4707 49.9395 29.8784 49.9786 29.2992 50.0308C27.6934 50.0569 26.114 50.0569 24.5477 50.0569ZM11.9909 46.0924C9.71382 44.7361 7.38411 43.5493 4.79115 42.9233C3.88296 42.7016 2.94844 42.5843 2.01392 42.8321C1.40846 42.9885 1.27684 43.3928 1.75068 43.771C2.1982 44.1362 2.71152 44.4622 3.25117 44.6709C6.06789 45.7533 9.02939 45.9489 11.9909 46.0924Z" fill="#C10037"/>
<path d="M16.624 25.5134C16.5714 25.4612 16.5451 25.4351 16.5187 25.4221C14.3733 24.0267 14.0837 22.1096 15.1235 19.7883C15.2683 19.4753 15.242 19.2405 15.1762 18.9145C14.9788 17.9755 14.755 17.0366 14.7023 16.0976C14.6234 14.4544 14.676 12.8112 14.676 11.168C14.2153 10.9724 13.7678 10.8159 13.3598 10.6073C11.2933 9.52484 10.8326 7.03397 12.399 5.49511C13.2282 4.67351 14.2285 4.39965 15.3868 4.66047C15.5316 4.6996 15.7816 4.6996 15.8606 4.60831C16.9136 3.52589 18.2167 3.19986 19.6777 3.23898C19.7303 3.23898 19.7698 3.22594 19.8224 3.22594C19.8488 3.19986 19.8883 3.18682 19.8883 3.16073C20.3753 1.41321 21.652 0.578574 23.3499 0.226461C24.7056 -0.0343633 26.0613 -0.021322 27.3776 0.448162C28.6938 0.917645 29.5493 1.77837 29.8126 3.19986C30.0495 4.46485 30.3654 5.70377 30.655 6.95573C30.8656 7.84253 31.3657 8.52067 32.1818 8.93799C33.3532 9.52484 34.4983 10.1769 35.7093 10.6725C36.907 11.168 37.7231 11.9375 38.0785 13.1633C38.7234 15.3543 39.421 17.5452 39.9475 19.7752C40.3818 21.6271 38.368 23.2964 36.4727 22.7617C36.2884 22.7095 36.1041 22.6313 35.8672 22.553C35.854 22.7486 35.8409 22.9182 35.8409 23.0877C35.7619 25.2786 35.6961 27.4826 35.604 29.6735C35.5776 30.3386 35.3012 30.6646 34.8274 30.6386C34.3535 30.6125 34.1035 30.2343 34.1298 29.5953C34.2219 27.0001 34.2877 24.3918 34.3799 21.7966C34.393 21.4184 34.2614 21.1706 33.9982 20.9098C33.5375 20.4664 33.1295 19.9839 32.7083 19.5144C31.2473 20.8577 30.5233 22.8399 28.2858 23.0095C28.3252 23.1007 28.3384 23.1659 28.3647 23.2051C31.5237 27.913 33.906 33.0121 35.854 38.3068C36.907 41.1759 37.7757 44.1101 38.7102 47.0183C38.9208 47.6834 38.7629 48.0877 38.1706 48.4268C37.0255 49.0788 35.7487 49.3136 34.4588 49.4962C34.0377 49.5614 33.7744 49.3005 33.6954 48.8963C33.6165 48.492 33.8797 48.166 34.3404 48.0616C35.0906 47.879 35.8409 47.7225 36.5911 47.54C36.8017 47.4878 37.0123 47.3835 37.315 47.2791C36.5648 44.9839 35.8672 42.7147 35.0775 40.4847C33.1426 35.0595 30.8129 29.817 27.7066 24.9526C27.009 23.8702 26.2588 22.8269 25.4296 21.8227C24.8504 21.1185 24.1133 20.5316 23.4684 19.9056C22.705 20.7533 22.0469 21.4967 21.3756 22.2531C21.3098 22.2009 21.244 22.1487 21.1782 22.1096C21.4809 22.2922 21.7968 22.4487 22.0995 22.6443C23.0735 23.2833 23.4552 24.2745 23.1262 25.2525C22.7839 26.2567 21.8626 26.8044 20.678 26.7001C20.191 26.661 19.6908 26.6219 19.217 26.4915C18.651 26.3219 18.1772 26.4523 17.677 26.7132C14.1759 28.4868 11.188 30.9385 8.48977 33.7554C8.34499 33.9119 8.2002 34.0684 8.05542 34.2119C7.70004 34.564 7.27885 34.59 6.96295 34.2901C6.64706 33.9902 6.6339 33.5598 6.98928 33.2077C7.98961 32.2035 8.98994 31.1733 10.0429 30.2212C11.9909 28.4607 14.11 26.9349 16.4398 25.6959C16.4924 25.6177 16.5451 25.5786 16.624 25.5134ZM16.1765 11.4028C16.1765 13.1764 16.1239 14.8848 16.1897 16.5801C16.2686 18.5754 17.0452 20.1534 19.0196 21.0011C19.4013 21.1706 19.6777 21.1706 20.0067 20.962C20.9939 20.3621 21.7441 19.5405 22.4286 18.6276C22.8892 18.0147 23.192 17.9625 23.8238 18.4189C25.0215 19.3058 26.2193 20.1926 27.4039 21.0924C28.0488 21.5749 28.6017 21.601 29.2334 21.1054C29.444 20.9359 29.6415 20.7272 29.8257 20.5186C30.6286 19.5666 31.4447 18.6276 32.2081 17.6626C32.6688 17.0757 33.1031 16.4628 33.498 15.8237C33.6823 15.5238 33.7612 15.1195 33.3664 14.8717C32.9978 14.624 32.6688 14.7283 32.3529 15.0282C31.2473 16.0454 30.1153 17.0366 28.9965 18.0408C28.3384 18.6276 28.1673 18.6406 27.4697 18.132C26.4562 17.3887 25.4296 16.6453 24.4292 15.889C23.8238 15.4325 23.1525 15.1586 22.4022 15.0934C21.8758 15.0413 21.3493 15.0152 20.8359 15.0022C20.1252 14.9761 19.783 14.7544 19.783 14.2588C19.783 13.7893 20.1252 13.5937 20.7965 13.5024C21.3756 13.4372 21.9811 13.3329 22.4944 13.0981C22.8234 12.9547 23.2183 12.5374 23.2315 12.2244C23.3236 11.0637 23.271 9.90304 23.271 8.66412C21.3361 10.855 18.9143 11.481 16.1765 11.4028ZM24.7451 10.5812C24.8504 10.5681 24.9031 10.5551 24.9426 10.5421C26.6142 9.91608 27.8777 8.71629 29.0887 7.47737C29.1545 7.39913 29.1808 7.22959 29.1545 7.12526C28.8781 5.83418 28.5885 4.55614 28.3121 3.26506C28.1936 2.71733 27.8909 2.30001 27.3907 2.06527C25.706 1.2828 24.0212 1.32192 22.3628 2.13048C21.8363 2.3913 21.4941 2.84774 21.3888 3.46068C21.5204 3.51285 21.6257 3.55197 21.7441 3.59109C23.7053 4.28228 24.7451 5.72985 24.7451 7.8034C24.7451 8.71629 24.7451 9.62917 24.7451 10.5812ZM16.2292 9.91608C18.0455 10.0465 19.7435 9.70742 21.2308 8.58588C21.9284 8.06423 22.3891 7.37304 22.626 6.51232C22.7445 6.05588 22.626 5.74289 22.2443 5.46903C21.2835 4.79088 20.191 4.64743 19.059 4.71264C17.5191 4.80393 16.4792 5.6516 16.2555 7.16438C16.1239 8.05119 16.2292 8.96407 16.2292 9.91608ZM31.3394 10.2552C30.3522 12.4461 29.0623 14.4675 27.3776 16.2671C27.654 16.4628 27.8909 16.6453 28.141 16.8279C28.2858 16.6975 28.4042 16.5932 28.5227 16.4888C29.4967 15.6151 30.4707 14.7413 31.4579 13.8806C32.3924 13.059 33.6033 13.0981 34.5247 13.9458C35.4592 14.8065 36.3937 15.6803 37.3414 16.541C37.4203 16.6193 37.5256 16.6845 37.6178 16.7497C37.6704 16.7236 37.7099 16.6975 37.7626 16.6714C37.3282 15.4847 36.9202 14.2849 36.42 13.1242C36.2752 12.7851 35.9199 12.4722 35.5908 12.3026C34.2088 11.5854 32.7872 10.9463 31.3394 10.2552ZM34.9985 19.8535C35.4592 20.2578 35.9988 20.7533 36.578 21.1967C36.9992 21.5228 37.6704 21.4184 38.1179 21.0272C38.4996 20.6881 38.6839 20.1013 38.4075 19.7622C37.881 19.1101 37.2887 18.5233 36.8017 17.9886C36.1699 18.6537 35.604 19.2275 34.9985 19.8535ZM27.3118 14.0762C27.5092 13.8284 27.6408 13.7111 27.7198 13.5546C28.4832 12.2505 29.2334 10.9463 29.9968 9.64221C30.1811 9.31618 30.1548 9.0684 29.8652 8.89887C29.0623 9.55093 28.2858 10.1899 27.5092 10.842C27.4039 10.9333 27.3118 11.1028 27.3118 11.2332C27.2986 12.1331 27.3118 13.0199 27.3118 14.0762ZM14.9129 6.08196C14.347 5.95155 13.8468 6.13413 13.4256 6.53841C12.9254 7.03397 12.8201 7.64691 13.0702 8.29897C13.3335 9.01624 13.9521 9.32923 14.676 9.59005C14.676 8.93799 14.6497 8.36418 14.6892 7.8034C14.7287 7.24263 14.834 6.68186 14.9129 6.08196ZM17.7165 24.3527C17.9403 23.6876 18.1772 23.0225 18.4141 22.3444C18.0587 22.1487 17.677 21.9531 17.3216 21.7184C16.9662 21.4836 16.6372 21.1837 16.295 20.9229C15.6237 22.3704 16.2555 23.8441 17.7165 24.3527ZM19.7303 22.9703C19.5197 23.6876 19.3354 24.2875 19.1249 24.9787C19.8093 25.07 20.3489 25.1482 20.9018 25.2004C21.2703 25.2395 21.5862 25.1091 21.7178 24.7309C21.8626 24.3397 21.6652 24.0528 21.3624 23.8702C20.8754 23.5702 20.3621 23.3224 19.7303 22.9703ZM24.0738 13.9719C24.5872 14.2849 25.1795 14.6631 25.8113 15.0543C25.8113 13.9589 25.8113 12.9025 25.8113 11.8201C25.5085 11.9114 25.219 11.9896 24.9557 12.0809C24.8767 12.107 24.7846 12.2113 24.7451 12.2896C24.5082 12.8504 24.2976 13.4111 24.0738 13.9719ZM33.5638 18.432C34.2088 18.5885 34.9458 18.132 35.2617 17.4017C35.5118 16.854 35.4723 16.7366 34.959 16.3976C34.4852 17.0757 34.0245 17.7538 33.5638 18.432Z" fill="#C10037"/>
</svg>
